<?xml version="1.0" encoding="UTF-8" standalone="no"?>
<!DOCTYPE svg PUBLIC "-//W3C//DTD SVG 1.1//EN"
 "http://www.w3.org/Graphics/SVG/1.1/DTD/svg11.dtd">
<!-- Generated by graphviz version 14.1.4 (20260321.0153)
 -->
<!-- Title: output_type Pages: 1 -->
<svg width="446pt" height="200pt"
 viewBox="0.00 0.00 446.00 200.00" xmlns="http://www.w3.org/2000/svg" xmlns:xlink="http://www.w3.org/1999/xlink">
<g id="graph0" class="graph" transform="scale(1 1) rotate(0) translate(4 196)">
<title>output_type</title>
<polygon fill="white" stroke="none" points="-4,4 -4,-196 442.48,-196 442.48,4 -4,4"/>
<!-- Codebase implements\nthe described behavior? -->
<g id="node1" class="node">
<title>Codebase implements\nthe described behavior?</title>
<polygon fill="none" stroke="black" points="179.75,-192 34.75,-151 179.75,-110 324.75,-151 179.75,-192"/>
<text xml:space="preserve" text-anchor="middle" x="179.75" y="-154.2" font-family="Times,serif" font-size="14.00">Codebase implements</text>
<text xml:space="preserve" text-anchor="middle" x="179.75" y="-137.7" font-family="Times,serif" font-size="14.00">the described behavior?</text>
</g>
<!-- Translate to baseline specs\n(.specs/specs/) -->
<g id="node2" class="node">
<title>Translate to baseline specs\n(.specs/specs/)</title>
<polygon fill="none" stroke="black" points="161.5,-49.25 0,-49.25 0,-8.25 161.5,-8.25 161.5,-49.25"/>
<text xml:space="preserve" text-anchor="middle" x="80.75" y="-31.95" font-family="Times,serif" font-size="14.00">Translate to baseline specs</text>
<text xml:space="preserve" text-anchor="middle" x="80.75" y="-15.45" font-family="Times,serif" font-size="14.00">(.specs/specs/)</text>
</g>
<!-- Codebase implements\nthe described behavior?&#45;&gt;Translate to baseline specs\n(.specs/specs/) -->
<g id="edge1" class="edge">
<title>Codebase implements\nthe described behavior?&#45;&gt;Translate to baseline specs\n(.specs/specs/)</title>
<path fill="none" stroke="black" d="M119.43,-126.73C104.77,-118.1 90.85,-106.71 82.25,-92 76.86,-82.78 75.4,-71.4 75.65,-60.91"/>
<polygon fill="black" stroke="black" points="79.13,-61.35 76.42,-51.1 72.15,-60.8 79.13,-61.35"/>
<text xml:space="preserve" text-anchor="middle" x="170" y="-78.7" font-family="Times,serif" font-size="14.00">yes — documenting what exists</text>
</g>
<!-- Translate to change directory\n(.specs/changes/&lt;name&gt;/)\nADDED&#45;only delta specs -->
<g id="node3" class="node">
<title>Translate to change directory\n(.specs/changes/&lt;name&gt;/)\nADDED&#45;only delta specs</title>
<polygon fill="none" stroke="black" points="367.25,-57.5 192.25,-57.5 192.25,0 367.25,0 367.25,-57.5"/>
<text xml:space="preserve" text-anchor="middle" x="279.75" y="-40.2" font-family="Times,serif" font-size="14.00">Translate to change directory</text>
<text xml:space="preserve" text-anchor="middle" x="279.75" y="-23.7" font-family="Times,serif" font-size="14.00">(.specs/changes/&lt;name&gt;/)</text>
<text xml:space="preserve" text-anchor="middle" x="279.75" y="-7.2" font-family="Times,serif" font-size="14.00">ADDED&#45;only delta specs</text>
</g>
<!-- Codebase implements\nthe described behavior?&#45;&gt;Translate to change directory\n(.specs/changes/&lt;name&gt;/)\nADDED&#45;only delta specs -->
<g id="edge2" class="edge">
<title>Codebase implements\nthe described behavior?&#45;&gt;Translate to change directory\n(.specs/changes/&lt;name&gt;/)\nADDED&#45;only delta specs</title>
<path fill="none" stroke="black" d="M225.86,-122.69C237.51,-114.06 249.13,-103.68 257.75,-92 262.91,-85.01 266.94,-76.7 270.06,-68.47"/>
<polygon fill="black" stroke="black" points="273.29,-69.84 273.17,-59.24 266.66,-67.6 273.29,-69.84"/>
<text xml:space="preserve" text-anchor="middle" x="352.6" y="-78.7" font-family="Times,serif" font-size="14.00">no — greenfield or aspirational</text>
</g>
</g>
</svg>
