<?xml version="1.0" encoding="UTF-8" standalone="no"?>
<!DOCTYPE svg PUBLIC "-//W3C//DTD SVG 1.1//EN"
 "http://www.w3.org/Graphics/SVG/1.1/DTD/svg11.dtd">
<!-- Generated by graphviz version 12.2.1 (0)
 -->
<!-- Title: clarify_workflow Pages: 1 -->
<svg width="508pt" height="1097pt"
 viewBox="0.00 0.00 508.13 1096.79" xmlns="http://www.w3.org/2000/svg" xmlns:xlink="http://www.w3.org/1999/xlink">
<g id="graph0" class="graph" transform="scale(1 1) rotate(0) translate(4 1092.79)">
<title>clarify_workflow</title>
<polygon fill="white" stroke="none" points="-4,4 -4,-1092.79 504.13,-1092.79 504.13,4 -4,4"/>
<!-- start -->
<g id="node1" class="node">
<title>start</title>
<ellipse fill="none" stroke="black" cx="115.63" cy="-1018.52" rx="66.27" ry="66.27"/>
<ellipse fill="none" stroke="black" cx="115.63" cy="-1018.52" rx="70.27" ry="70.27"/>
<text text-anchor="middle" x="115.63" y="-1014.65" font-family="Helvetica,sans-Serif" font-size="10.00">Invoke spec&#45;kit&#45;clarify</text>
</g>
<!-- resolve_paths -->
<g id="node2" class="node">
<title>resolve_paths</title>
<polygon fill="none" stroke="black" points="193.75,-911.25 37.5,-911.25 37.5,-875.25 193.75,-875.25 193.75,-911.25"/>
<text text-anchor="middle" x="115.63" y="-889.38" font-family="Helvetica,sans-Serif" font-size="10.00">Resolve FEATURE_SPEC path</text>
</g>
<!-- start&#45;&gt;resolve_paths -->
<g id="edge1" class="edge">
<title>start&#45;&gt;resolve_paths</title>
<path fill="none" stroke="black" d="M115.63,-947.96C115.63,-939.18 115.63,-930.61 115.63,-923"/>
<polygon fill="black" stroke="black" points="119.13,-923.08 115.63,-913.08 112.13,-923.08 119.13,-923.08"/>
</g>
<!-- has_spec -->
<g id="node3" class="node">
<title>has_spec</title>
<polygon fill="none" stroke="black" points="115.63,-838.25 41.99,-820.25 115.63,-802.25 189.27,-820.25 115.63,-838.25"/>
<text text-anchor="middle" x="115.63" y="-816.38" font-family="Helvetica,sans-Serif" font-size="10.00">spec.md exists?</text>
</g>
<!-- resolve_paths&#45;&gt;has_spec -->
<g id="edge2" class="edge">
<title>resolve_paths&#45;&gt;has_spec</title>
<path fill="none" stroke="black" d="M115.63,-875.06C115.63,-867.48 115.63,-858.35 115.63,-849.79"/>
<polygon fill="black" stroke="black" points="119.13,-849.79 115.63,-839.79 112.13,-849.79 119.13,-849.79"/>
</g>
<!-- stop_specify -->
<g id="node4" class="node">
<title>stop_specify</title>
<polygon fill="red" stroke="black" points="197.26,-731.05 197.26,-745.96 139.48,-756.5 57.78,-756.5 0,-745.96 0,-731.05 57.78,-720.5 139.48,-720.5 197.26,-731.05"/>
<text text-anchor="middle" x="98.63" y="-734.63" font-family="Helvetica,sans-Serif" font-size="10.00" fill="white">STOP: run spec&#45;kit&#45;specify first</text>
</g>
<!-- has_spec&#45;&gt;stop_specify -->
<g id="edge3" class="edge">
<title>has_spec&#45;&gt;stop_specify</title>
<path fill="none" stroke="black" d="M112.11,-802.73C109.96,-792.67 107.16,-779.55 104.68,-767.86"/>
<polygon fill="black" stroke="black" points="108.15,-767.36 102.64,-758.31 101.3,-768.82 108.15,-767.36"/>
<text text-anchor="middle" x="113.4" y="-775.7" font-family="Helvetica,sans-Serif" font-size="9.00">no</text>
</g>
<!-- scan_taxonomy -->
<g id="node5" class="node">
<title>scan_taxonomy</title>
<polygon fill="none" stroke="black" points="373.5,-756.5 215.75,-756.5 215.75,-720.5 373.5,-720.5 373.5,-756.5"/>
<text text-anchor="middle" x="294.63" y="-734.63" font-family="Helvetica,sans-Serif" font-size="10.00">Scan with clarification taxonomy</text>
</g>
<!-- has_spec&#45;&gt;scan_taxonomy -->
<g id="edge4" class="edge">
<title>has_spec&#45;&gt;scan_taxonomy</title>
<path fill="none" stroke="black" d="M140.9,-807.99C167.97,-795.93 211.62,-776.48 245.5,-761.39"/>
<polygon fill="black" stroke="black" points="246.58,-764.74 254.29,-757.47 243.73,-758.35 246.58,-764.74"/>
<text text-anchor="middle" x="222.97" y="-775.7" font-family="Helvetica,sans-Serif" font-size="9.00">yes</text>
</g>
<!-- has_high_impact -->
<g id="node6" class="node">
<title>has_high_impact</title>
<polygon fill="none" stroke="black" points="294.63,-683.5 163.88,-665.5 294.63,-647.5 425.38,-665.5 294.63,-683.5"/>
<text text-anchor="middle" x="294.63" y="-661.63" font-family="Helvetica,sans-Serif" font-size="10.00">High&#45;impact ambiguity remains?</text>
</g>
<!-- scan_taxonomy&#45;&gt;has_high_impact -->
<g id="edge5" class="edge">
<title>scan_taxonomy&#45;&gt;has_high_impact</title>
<path fill="none" stroke="black" d="M294.63,-720.31C294.63,-712.73 294.63,-703.6 294.63,-695.04"/>
<polygon fill="black" stroke="black" points="298.13,-695.04 294.63,-685.04 291.13,-695.04 298.13,-695.04"/>
</g>
<!-- report_none -->
<g id="node7" class="node">
<title>report_none</title>
<polygon fill="none" stroke="black" points="337.25,-547.75 202,-547.75 202,-511.75 337.25,-511.75 337.25,-547.75"/>
<text text-anchor="middle" x="269.63" y="-525.88" font-family="Helvetica,sans-Serif" font-size="10.00">Report no critical ambiguity</text>
</g>
<!-- has_high_impact&#45;&gt;report_none -->
<g id="edge6" class="edge">
<title>has_high_impact&#45;&gt;report_none</title>
<path fill="none" stroke="black" d="M291.46,-647.56C287.3,-625.27 279.92,-585.79 274.9,-558.96"/>
<polygon fill="black" stroke="black" points="278.4,-558.65 273.13,-549.46 271.52,-559.94 278.4,-558.65"/>
<text text-anchor="middle" x="293.08" y="-620.95" font-family="Helvetica,sans-Serif" font-size="9.00">no</text>
</g>
<!-- build_queue -->
<g id="node8" class="node">
<title>build_queue</title>
<polygon fill="none" stroke="black" points="465.75,-601.75 309.5,-601.75 309.5,-565.75 465.75,-565.75 465.75,-601.75"/>
<text text-anchor="middle" x="387.63" y="-579.88" font-family="Helvetica,sans-Serif" font-size="10.00">Build and rank up to 5 questions</text>
</g>
<!-- has_high_impact&#45;&gt;build_queue -->
<g id="edge8" class="edge">
<title>has_high_impact&#45;&gt;build_queue</title>
<path fill="none" stroke="black" d="M312.12,-649.5C325.23,-638.26 343.46,-622.63 358.72,-609.54"/>
<polygon fill="black" stroke="black" points="360.84,-612.33 366.15,-603.17 356.28,-607.02 360.84,-612.33"/>
<text text-anchor="middle" x="353.82" y="-620.95" font-family="Helvetica,sans-Serif" font-size="9.00">yes</text>
</g>
<!-- done -->
<g id="node14" class="node">
<title>done</title>
<ellipse fill="none" stroke="black" cx="266.63" cy="-55.63" rx="51.63" ry="51.63"/>
<ellipse fill="none" stroke="black" cx="266.63" cy="-55.63" rx="55.63" ry="55.63"/>
<text text-anchor="middle" x="266.63" y="-51.75" font-family="Helvetica,sans-Serif" font-size="10.00">Clarify complete</text>
</g>
<!-- report_none&#45;&gt;done -->
<g id="edge7" class="edge">
<title>report_none&#45;&gt;done</title>
<path fill="none" stroke="black" d="M264.97,-511.5C260.56,-493.68 254.63,-464.98 254.63,-439.75 254.63,-439.75 254.63,-439.75 254.63,-165.25 254.63,-151.25 255.63,-136.3 257.04,-122.11"/>
<polygon fill="black" stroke="black" points="260.5,-122.75 258.1,-112.43 253.54,-121.99 260.5,-122.75"/>
</g>
<!-- ask_loop -->
<g id="node9" class="node">
<title>ask_loop</title>
<polygon fill="none" stroke="black" points="500.13,-493.75 283.13,-493.75 283.13,-457.75 500.13,-457.75 500.13,-493.75"/>
<text text-anchor="middle" x="391.63" y="-477.5" font-family="Helvetica,sans-Serif" font-size="10.00">Ask one question at a time</text>
<text text-anchor="middle" x="391.63" y="-466.25" font-family="Helvetica,sans-Serif" font-size="10.00">(recommend/suggest, disambiguate if needed)</text>
</g>
<!-- build_queue&#45;&gt;ask_loop -->
<g id="edge9" class="edge">
<title>build_queue&#45;&gt;ask_loop</title>
<path fill="none" stroke="black" d="M388.27,-565.72C388.88,-549.51 389.82,-524.81 390.54,-505.54"/>
<polygon fill="black" stroke="black" points="394.04,-505.73 390.92,-495.6 387.04,-505.46 394.04,-505.73"/>
</g>
<!-- integrate -->
<g id="node10" class="node">
<title>integrate</title>
<polygon fill="none" stroke="black" points="474,-420.75 283.25,-420.75 283.25,-384.75 474,-384.75 474,-420.75"/>
<text text-anchor="middle" x="378.63" y="-398.88" font-family="Helvetica,sans-Serif" font-size="10.00">Integrate accepted answer into spec.md</text>
</g>
<!-- ask_loop&#45;&gt;integrate -->
<g id="edge10" class="edge">
<title>ask_loop&#45;&gt;integrate</title>
<path fill="none" stroke="black" d="M388.48,-457.56C387.08,-449.89 385.38,-440.64 383.8,-432"/>
<polygon fill="black" stroke="black" points="387.26,-431.47 382.02,-422.27 380.38,-432.74 387.26,-431.47"/>
</g>
<!-- validate -->
<g id="node11" class="node">
<title>validate</title>
<polygon fill="none" stroke="black" points="464.13,-339 307.13,-339 307.13,-303 464.13,-303 464.13,-339"/>
<text text-anchor="middle" x="385.63" y="-317.13" font-family="Helvetica,sans-Serif" font-size="10.00">Validate update and consistency</text>
</g>
<!-- integrate&#45;&gt;validate -->
<g id="edge11" class="edge">
<title>integrate&#45;&gt;validate</title>
<path fill="none" stroke="black" d="M380.15,-384.45C381.02,-374.52 382.13,-361.81 383.13,-350.45"/>
<polygon fill="black" stroke="black" points="386.59,-351.05 383.98,-340.78 379.62,-350.44 386.59,-351.05"/>
</g>
<!-- continue_gate -->
<g id="node12" class="node">
<title>continue_gate</title>
<polygon fill="none" stroke="black" points="389.63,-266 321.64,-248 389.63,-230 457.62,-248 389.63,-266"/>
<text text-anchor="middle" x="389.63" y="-244.13" font-family="Helvetica,sans-Serif" font-size="10.00">Continue loop?</text>
</g>
<!-- validate&#45;&gt;continue_gate -->
<g id="edge12" class="edge">
<title>validate&#45;&gt;continue_gate</title>
<path fill="none" stroke="black" d="M386.6,-302.81C387.03,-295.14 387.55,-285.89 388.04,-277.25"/>
<polygon fill="black" stroke="black" points="391.52,-277.72 388.58,-267.54 384.53,-277.33 391.52,-277.72"/>
</g>
<!-- continue_gate&#45;&gt;ask_loop -->
<g id="edge13" class="edge">
<title>continue_gate&#45;&gt;ask_loop</title>
<path fill="none" stroke="black" d="M417.05,-259.14C436.24,-267.75 460.67,-282.07 473.63,-303 492.88,-334.08 480.63,-348.25 482.63,-384.75 483.51,-400.73 490.55,-406.85 482.63,-420.75 475.24,-433.73 463.37,-443.91 450.61,-451.76"/>
<polygon fill="black" stroke="black" points="449.05,-448.62 442.05,-456.57 452.49,-454.72 449.05,-448.62"/>
<text text-anchor="middle" x="490.51" y="-358.2" font-family="Helvetica,sans-Serif" font-size="9.00">yes</text>
</g>
<!-- final_report -->
<g id="node13" class="node">
<title>final_report</title>
<polygon fill="none" stroke="black" points="497,-184.25 282.25,-184.25 282.25,-148.25 497,-148.25 497,-184.25"/>
<text text-anchor="middle" x="389.63" y="-162.38" font-family="Helvetica,sans-Serif" font-size="10.00">Report touched sections, coverage, next step</text>
</g>
<!-- continue_gate&#45;&gt;final_report -->
<g id="edge14" class="edge">
<title>continue_gate&#45;&gt;final_report</title>
<path fill="none" stroke="black" d="M389.63,-229.7C389.63,-219.77 389.63,-207.06 389.63,-195.7"/>
<polygon fill="black" stroke="black" points="393.13,-196.04 389.63,-186.04 386.13,-196.04 393.13,-196.04"/>
<text text-anchor="middle" x="394.88" y="-203.45" font-family="Helvetica,sans-Serif" font-size="9.00">no</text>
</g>
<!-- final_report&#45;&gt;done -->
<g id="edge15" class="edge">
<title>final_report&#45;&gt;done</title>
<path fill="none" stroke="black" d="M369.87,-147.8C355.44,-135.06 335.21,-117.19 316.47,-100.65"/>
<polygon fill="black" stroke="black" points="318.95,-98.16 309.13,-94.16 314.31,-103.41 318.95,-98.16"/>
</g>
</g>
</svg>
