<?xml version="1.0" encoding="UTF-8" standalone="no"?>
<!DOCTYPE svg PUBLIC "-//W3C//DTD SVG 1.1//EN"
 "http://www.w3.org/Graphics/SVG/1.1/DTD/svg11.dtd">
<!-- Generated by graphviz version 14.1.4 (20260321.0153)
 -->
<!-- Title: output_type Pages: 1 -->
<svg width="610pt" height="289pt"
 viewBox="0.00 0.00 610.00 289.00" xmlns="http://www.w3.org/2000/svg" xmlns:xlink="http://www.w3.org/1999/xlink">
<g id="graph0" class="graph" transform="scale(1 1) rotate(0) translate(4 284.5)">
<title>output_type</title>
<polygon fill="white" stroke="none" points="-4,4 -4,-284.5 605.91,-284.5 605.91,4 -4,4"/>
<!-- .specs/specs/ exists? -->
<g id="node1" class="node">
<title>.specs/specs/ exists?</title>
<polygon fill="none" stroke="black" points="291.5,-280.5 169.66,-262.5 291.5,-244.5 413.34,-262.5 291.5,-280.5"/>
<text xml:space="preserve" text-anchor="middle" x="291.5" y="-257.45" font-family="Times,serif" font-size="14.00">.specs/specs/ exists?</text>
</g>
<!-- Codebase has relevant\nimplementation? -->
<g id="node2" class="node">
<title>Codebase has relevant\nimplementation?</title>
<polygon fill="none" stroke="black" points="137.5,-192 0,-151 137.5,-110 275,-151 137.5,-192"/>
<text xml:space="preserve" text-anchor="middle" x="137.5" y="-154.2" font-family="Times,serif" font-size="14.00">Codebase has relevant</text>
<text xml:space="preserve" text-anchor="middle" x="137.5" y="-137.7" font-family="Times,serif" font-size="14.00">implementation?</text>
</g>
<!-- .specs/specs/ exists?&#45;&gt;Codebase has relevant\nimplementation? -->
<g id="edge1" class="edge">
<title>.specs/specs/ exists?&#45;&gt;Codebase has relevant\nimplementation?</title>
<path fill="none" stroke="black" d="M271.37,-247.18C249.96,-231.96 215.3,-207.32 186.61,-186.92"/>
<polygon fill="black" stroke="black" points="188.94,-184.28 178.76,-181.34 184.89,-189.99 188.94,-184.28"/>
<text xml:space="preserve" text-anchor="middle" x="248.44" y="-213.2" font-family="Times,serif" font-size="14.00">no</text>
</g>
<!-- New or existing behavior? -->
<g id="node3" class="node">
<title>New or existing behavior?</title>
<polygon fill="none" stroke="black" points="447.5,-169 293.09,-151 447.5,-133 601.91,-151 447.5,-169"/>
<text xml:space="preserve" text-anchor="middle" x="447.5" y="-145.95" font-family="Times,serif" font-size="14.00">New or existing behavior?</text>
</g>
<!-- .specs/specs/ exists?&#45;&gt;New or existing behavior? -->
<g id="edge4" class="edge">
<title>.specs/specs/ exists?&#45;&gt;New or existing behavior?</title>
<path fill="none" stroke="black" d="M311.89,-247.18C338.76,-228.32 386.24,-195 417.29,-173.21"/>
<polygon fill="black" stroke="black" points="418.94,-176.32 425.11,-167.71 414.92,-170.59 418.94,-176.32"/>
<text xml:space="preserve" text-anchor="middle" x="373.82" y="-213.2" font-family="Times,serif" font-size="14.00">yes</text>
</g>
<!-- Generate change directory\n(.specs/changes/&lt;name&gt;/)\nADDED&#45;only delta specs -->
<g id="node4" class="node">
<title>Generate change directory\n(.specs/changes/&lt;name&gt;/)\nADDED&#45;only delta specs</title>
<polygon fill="none" stroke="black" points="192.12,-57.5 32.88,-57.5 32.88,0 192.12,0 192.12,-57.5"/>
<text xml:space="preserve" text-anchor="middle" x="112.5" y="-40.2" font-family="Times,serif" font-size="14.00">Generate change directory</text>
<text xml:space="preserve" text-anchor="middle" x="112.5" y="-23.7" font-family="Times,serif" font-size="14.00">(.specs/changes/&lt;name&gt;/)</text>
<text xml:space="preserve" text-anchor="middle" x="112.5" y="-7.2" font-family="Times,serif" font-size="14.00">ADDED&#45;only delta specs</text>
</g>
<!-- Codebase has relevant\nimplementation?&#45;&gt;Generate change directory\n(.specs/changes/&lt;name&gt;/)\nADDED&#45;only delta specs -->
<g id="edge3" class="edge">
<title>Codebase has relevant\nimplementation?&#45;&gt;Generate change directory\n(.specs/changes/&lt;name&gt;/)\nADDED&#45;only delta specs</title>
<path fill="none" stroke="black" d="M120.47,-114.78C117.61,-107.41 115.07,-99.58 113.5,-92 111.99,-84.69 111.22,-76.79 110.9,-69.16"/>
<polygon fill="black" stroke="black" points="114.4,-69.34 110.75,-59.4 107.4,-69.45 114.4,-69.34"/>
<text xml:space="preserve" text-anchor="middle" x="158.5" y="-78.7" font-family="Times,serif" font-size="14.00">no — greenfield</text>
</g>
<!-- Generate baseline specs\n(.specs/specs/) -->
<g id="node6" class="node">
<title>Generate baseline specs\n(.specs/specs/)</title>
<polygon fill="none" stroke="black" points="366.38,-49.25 220.62,-49.25 220.62,-8.25 366.38,-8.25 366.38,-49.25"/>
<text xml:space="preserve" text-anchor="middle" x="293.5" y="-31.95" font-family="Times,serif" font-size="14.00">Generate baseline specs</text>
<text xml:space="preserve" text-anchor="middle" x="293.5" y="-15.45" font-family="Times,serif" font-size="14.00">(.specs/specs/)</text>
</g>
<!-- Codebase has relevant\nimplementation?&#45;&gt;Generate baseline specs\n(.specs/specs/) -->
<g id="edge2" class="edge">
<title>Codebase has relevant\nimplementation?&#45;&gt;Generate baseline specs\n(.specs/specs/)</title>
<path fill="none" stroke="black" d="M172.54,-119.95C189.03,-106.09 209.14,-89.62 227.75,-75.5 236.21,-69.08 245.48,-62.42 254.31,-56.23"/>
<polygon fill="black" stroke="black" points="256.21,-59.18 262.43,-50.6 252.22,-53.43 256.21,-59.18"/>
<text xml:space="preserve" text-anchor="middle" x="288.12" y="-78.7" font-family="Times,serif" font-size="14.00">yes — retroactive doc</text>
</g>
<!-- Generate change directory\n(.specs/changes/&lt;name&gt;/) -->
<g id="node5" class="node">
<title>Generate change directory\n(.specs/changes/&lt;name&gt;/)</title>
<polygon fill="none" stroke="black" points="553.12,-49.25 393.88,-49.25 393.88,-8.25 553.12,-8.25 553.12,-49.25"/>
<text xml:space="preserve" text-anchor="middle" x="473.5" y="-31.95" font-family="Times,serif" font-size="14.00">Generate change directory</text>
<text xml:space="preserve" text-anchor="middle" x="473.5" y="-15.45" font-family="Times,serif" font-size="14.00">(.specs/changes/&lt;name&gt;/)</text>
</g>
<!-- New or existing behavior?&#45;&gt;Generate change directory\n(.specs/changes/&lt;name&gt;/) -->
<g id="edge5" class="edge">
<title>New or existing behavior?&#45;&gt;Generate change directory\n(.specs/changes/&lt;name&gt;/)</title>
<path fill="none" stroke="black" d="M451.17,-133.03C455.22,-114.28 461.83,-83.71 466.81,-60.68"/>
<polygon fill="black" stroke="black" points="470.23,-61.43 468.92,-50.91 463.39,-59.95 470.23,-61.43"/>
<text xml:space="preserve" text-anchor="middle" x="508.97" y="-78.7" font-family="Times,serif" font-size="14.00">new or modified</text>
</g>
<!-- New or existing behavior?&#45;&gt;Generate baseline specs\n(.specs/specs/) -->
<g id="edge6" class="edge">
<title>New or existing behavior?&#45;&gt;Generate baseline specs\n(.specs/specs/)</title>
<path fill="none" stroke="black" d="M428,-134.77C402.8,-115.1 358.53,-80.53 327.69,-56.45"/>
<polygon fill="black" stroke="black" points="330.21,-53.97 320.17,-50.58 325.9,-59.49 330.21,-53.97"/>
<text xml:space="preserve" text-anchor="middle" x="411" y="-78.7" font-family="Times,serif" font-size="14.00">retroactive doc</text>
</g>
</g>
</svg>
