<?xml version="1.0" encoding="UTF-8" standalone="no"?>
<!DOCTYPE svg PUBLIC "-//W3C//DTD SVG 1.1//EN"
 "http://www.w3.org/Graphics/SVG/1.1/DTD/svg11.dtd">
<!-- Generated by graphviz version 14.1.5 (20260411.2331)
 -->
<!-- Title: phase_4_per_capability Pages: 1 -->
<svg width="380pt" height="879pt"
 viewBox="0.00 0.00 380.00 879.00" xmlns="http://www.w3.org/2000/svg" xmlns:xlink="http://www.w3.org/1999/xlink">
<g id="graph0" class="graph" transform="scale(1 1) rotate(0) translate(4 875.33)">
<title>phase_4_per_capability</title>
<polygon fill="white" stroke="none" points="-4,4 -4,-875.33 376.42,-875.33 376.42,4 -4,4"/>
<!-- selected -->
<g id="node1" class="node">
<title>selected</title>
<ellipse fill="none" stroke="black" cx="250.92" cy="-842.34" rx="84.5" ry="28.99"/>
<text xml:space="preserve" text-anchor="middle" x="250.92" y="-845.54" font-family="Times,serif" font-size="14.00">Capability selected</text>
<text xml:space="preserve" text-anchor="middle" x="250.92" y="-829.04" font-family="Times,serif" font-size="14.00">from menu</text>
</g>
<!-- obs_dispatch -->
<g id="node2" class="node">
<title>obs_dispatch</title>
<polygon fill="none" stroke="black" points="342.92,-776.35 158.92,-776.35 158.92,-718.85 342.92,-718.85 342.92,-776.35"/>
<text xml:space="preserve" text-anchor="middle" x="250.92" y="-759.05" font-family="Times,serif" font-size="14.00">Dispatch observer</text>
<text xml:space="preserve" text-anchor="middle" x="250.92" y="-742.55" font-family="Times,serif" font-size="14.00">(file scope, surface candidates,</text>
<text xml:space="preserve" text-anchor="middle" x="250.92" y="-726.05" font-family="Times,serif" font-size="14.00">output path)</text>
</g>
<!-- selected&#45;&gt;obs_dispatch -->
<g id="edge1" class="edge">
<title>selected&#45;&gt;obs_dispatch</title>
<path fill="none" stroke="black" d="M250.92,-813.01C250.92,-805.19 250.92,-796.56 250.92,-788.22"/>
<polygon fill="black" stroke="black" points="254.42,-788.27 250.92,-778.27 247.42,-788.27 254.42,-788.27"/>
</g>
<!-- obs_out -->
<g id="node3" class="node">
<title>obs_out</title>
<polygon fill="none" stroke="black" points="363.55,-681.85 138.3,-681.85 138.3,-640.85 363.55,-640.85 363.55,-681.85"/>
<text xml:space="preserve" text-anchor="middle" x="250.92" y="-664.55" font-family="Times,serif" font-size="14.00">Observer writes observations.yaml</text>
<text xml:space="preserve" text-anchor="middle" x="250.92" y="-648.05" font-family="Times,serif" font-size="14.00">(behaviors + tags + surface inventory)</text>
</g>
<!-- obs_dispatch&#45;&gt;obs_out -->
<g id="edge2" class="edge">
<title>obs_dispatch&#45;&gt;obs_out</title>
<path fill="none" stroke="black" d="M250.92,-718.54C250.92,-710.57 250.92,-701.83 250.92,-693.67"/>
<polygon fill="black" stroke="black" points="254.42,-693.81 250.92,-683.81 247.42,-693.81 254.42,-693.81"/>
</g>
<!-- lift_dispatch -->
<g id="node4" class="node">
<title>lift_dispatch</title>
<polygon fill="none" stroke="black" points="339.17,-603.85 162.67,-603.85 162.67,-546.35 339.17,-546.35 339.17,-603.85"/>
<text xml:space="preserve" text-anchor="middle" x="250.92" y="-586.55" font-family="Times,serif" font-size="14.00">Dispatch lifter</text>
<text xml:space="preserve" text-anchor="middle" x="250.92" y="-570.05" font-family="Times,serif" font-size="14.00">(observations path, metadata,</text>
<text xml:space="preserve" text-anchor="middle" x="250.92" y="-553.55" font-family="Times,serif" font-size="14.00">output type, as&#45;of anchor)</text>
</g>
<!-- obs_out&#45;&gt;lift_dispatch -->
<g id="edge3" class="edge">
<title>obs_out&#45;&gt;lift_dispatch</title>
<path fill="none" stroke="black" d="M250.92,-640.38C250.92,-632.95 250.92,-624.24 250.92,-615.67"/>
<polygon fill="black" stroke="black" points="254.42,-615.72 250.92,-605.72 247.42,-615.72 254.42,-615.72"/>
</g>
<!-- lift_work -->
<g id="node5" class="node">
<title>lift_work</title>
<polygon fill="none" stroke="black" points="339.17,-509.35 162.67,-509.35 162.67,-468.35 339.17,-468.35 339.17,-509.35"/>
<text xml:space="preserve" text-anchor="middle" x="250.92" y="-492.05" font-family="Times,serif" font-size="14.00">Lifter consumes observations</text>
<text xml:space="preserve" text-anchor="middle" x="250.92" y="-475.55" font-family="Times,serif" font-size="14.00">+ verifies source as needed</text>
</g>
<!-- lift_dispatch&#45;&gt;lift_work -->
<g id="edge4" class="edge">
<title>lift_dispatch&#45;&gt;lift_work</title>
<path fill="none" stroke="black" d="M250.92,-546.04C250.92,-538.07 250.92,-529.33 250.92,-521.17"/>
<polygon fill="black" stroke="black" points="254.42,-521.31 250.92,-511.31 247.42,-521.31 254.42,-521.31"/>
</g>
<!-- lift_out -->
<g id="node6" class="node">
<title>lift_out</title>
<polygon fill="none" stroke="black" points="317.42,-431.35 184.42,-431.35 184.42,-395.35 317.42,-395.35 317.42,-431.35"/>
<text xml:space="preserve" text-anchor="middle" x="250.92" y="-408.3" font-family="Times,serif" font-size="14.00">Lifter writes spec.md</text>
</g>
<!-- lift_work&#45;&gt;lift_out -->
<g id="edge5" class="edge">
<title>lift_work&#45;&gt;lift_out</title>
<path fill="none" stroke="black" d="M250.92,-468.15C250.92,-460.41 250.92,-451.36 250.92,-442.92"/>
<polygon fill="black" stroke="black" points="254.42,-443.11 250.92,-433.11 247.42,-443.11 254.42,-443.11"/>
</g>
<!-- validate -->
<g id="node7" class="node">
<title>validate</title>
<text xml:space="preserve" text-anchor="middle" x="250.92" y="-341.05" font-family="Times,serif" font-size="14.00">uv run validate.py &#45;&#45;single</text>
<text xml:space="preserve" text-anchor="middle" x="250.92" y="-324.55" font-family="Times,serif" font-size="14.00">&lt;observations&gt; &lt;spec&gt;</text>
</g>
<!-- lift_out&#45;&gt;validate -->
<g id="edge6" class="edge">
<title>lift_out&#45;&gt;validate</title>
<path fill="none" stroke="black" d="M250.92,-394.93C250.92,-387.34 250.92,-378.22 250.92,-369.55"/>
<polygon fill="black" stroke="black" points="254.42,-369.72 250.92,-359.72 247.42,-369.72 254.42,-369.72"/>
</g>
<!-- pass -->
<g id="node8" class="node">
<title>pass</title>
<polygon fill="none" stroke="black" points="210.92,-280.35 158.57,-262.35 210.92,-244.35 263.28,-262.35 210.92,-280.35"/>
<text xml:space="preserve" text-anchor="middle" x="210.92" y="-257.3" font-family="Times,serif" font-size="14.00">PASS?</text>
</g>
<!-- validate&#45;&gt;pass -->
<g id="edge7" class="edge">
<title>validate&#45;&gt;pass</title>
<path fill="none" stroke="black" d="M240.41,-317.54C235.45,-308.42 229.47,-297.43 224.2,-287.74"/>
<polygon fill="black" stroke="black" points="227.41,-286.33 219.56,-279.21 221.27,-289.67 227.41,-286.33"/>
</g>
<!-- fix -->
<g id="node9" class="node">
<title>fix</title>
<polygon fill="none" stroke="black" points="372.42,-113.92 209.42,-113.92 209.42,-77.92 372.42,-77.92 372.42,-113.92"/>
<text xml:space="preserve" text-anchor="middle" x="290.92" y="-90.87" font-family="Times,serif" font-size="14.00">Lifter fixes failures in spec</text>
</g>
<!-- pass&#45;&gt;fix -->
<g id="edge9" class="edge">
<title>pass&#45;&gt;fix</title>
<path fill="none" stroke="black" d="M218.16,-246.47C231.62,-218.81 260.65,-159.14 277.7,-124.11"/>
<polygon fill="black" stroke="black" points="280.68,-125.98 281.91,-115.45 274.39,-122.91 280.68,-125.98"/>
<text xml:space="preserve" text-anchor="middle" x="241.31" y="-213.05" font-family="Times,serif" font-size="14.00">no</text>
</g>
<!-- done -->
<g id="node10" class="node">
<title>done</title>
<ellipse fill="none" stroke="black" cx="95.92" cy="-95.92" rx="91.92" ry="91.92"/>
<ellipse fill="none" stroke="black" cx="95.92" cy="-95.92" rx="95.92" ry="95.92"/>
<text xml:space="preserve" text-anchor="middle" x="95.92" y="-99.12" font-family="Times,serif" font-size="14.00">Capability complete:</text>
<text xml:space="preserve" text-anchor="middle" x="95.92" y="-82.62" font-family="Times,serif" font-size="14.00">return path + counts</text>
</g>
<!-- pass&#45;&gt;done -->
<g id="edge8" class="edge">
<title>pass&#45;&gt;done</title>
<path fill="none" stroke="black" d="M201.12,-247.33C191,-232.87 174.33,-209.03 157.21,-184.55"/>
<polygon fill="black" stroke="black" points="160.11,-182.58 151.51,-176.4 154.37,-186.6 160.11,-182.58"/>
<text xml:space="preserve" text-anchor="middle" x="195.08" y="-213.05" font-family="Times,serif" font-size="14.00">yes</text>
</g>
<!-- fix&#45;&gt;validate -->
<g id="edge10" class="edge">
<title>fix&#45;&gt;validate</title>
<path fill="none" stroke="black" d="M290.58,-114.36C289.6,-147.24 285.91,-220.49 271.92,-280.35 269.87,-289.13 266.82,-298.41 263.67,-306.85"/>
<polygon fill="black" stroke="black" points="260.5,-305.36 260.11,-315.94 267.02,-307.91 260.5,-305.36"/>
</g>
</g>
</svg>
