<?xml version="1.0" encoding="UTF-8" standalone="no"?>
<!DOCTYPE svg PUBLIC "-//W3C//DTD SVG 1.1//EN"
 "http://www.w3.org/Graphics/SVG/1.1/DTD/svg11.dtd">
<!-- Generated by graphviz version 14.1.5 (20260411.2331)
 -->
<!-- Title: output_type Pages: 1 -->
<svg width="726pt" height="322pt"
 viewBox="0.00 0.00 726.00 322.00" xmlns="http://www.w3.org/2000/svg" xmlns:xlink="http://www.w3.org/1999/xlink">
<g id="graph0" class="graph" transform="scale(1 1) rotate(0) translate(4 317.5)">
<title>output_type</title>
<polygon fill="white" stroke="none" points="-4,4 -4,-317.5 721.66,-317.5 721.66,4 -4,4"/>
<!-- .specs/specs/ exists? -->
<g id="node1" class="node">
<title>.specs/specs/ exists?</title>
<polygon fill="none" stroke="black" points="378.25,-313.5 256.41,-295.5 378.25,-277.5 500.09,-295.5 378.25,-313.5"/>
<text xml:space="preserve" text-anchor="middle" x="378.25" y="-290.45" font-family="Times,serif" font-size="14.00">.specs/specs/ exists?</text>
</g>
<!-- Codebase has relevant\nimplementation?\n(answered by Phase 2 discovery) -->
<g id="node2" class="node">
<title>Codebase has relevant\nimplementation?\n(answered by Phase 2 discovery)</title>
<polygon fill="none" stroke="black" points="195.25,-225 0,-167.5 195.25,-110 390.5,-167.5 195.25,-225"/>
<text xml:space="preserve" text-anchor="middle" x="195.25" y="-178.95" font-family="Times,serif" font-size="14.00">Codebase has relevant</text>
<text xml:space="preserve" text-anchor="middle" x="195.25" y="-162.45" font-family="Times,serif" font-size="14.00">implementation?</text>
<text xml:space="preserve" text-anchor="middle" x="195.25" y="-145.95" font-family="Times,serif" font-size="14.00">(answered by Phase 2 discovery)</text>
</g>
<!-- .specs/specs/ exists?&#45;&gt;Codebase has relevant\nimplementation?\n(answered by Phase 2 discovery) -->
<g id="edge1" class="edge">
<title>.specs/specs/ exists?&#45;&gt;Codebase has relevant\nimplementation?\n(answered by Phase 2 discovery)</title>
<path fill="none" stroke="black" d="M357.61,-280.29C334.54,-264.41 295.99,-237.86 262.24,-214.62"/>
<polygon fill="black" stroke="black" points="264.33,-211.82 254.11,-209.03 260.36,-217.58 264.33,-211.82"/>
<text xml:space="preserve" text-anchor="middle" x="330.93" y="-246.2" font-family="Times,serif" font-size="14.00">no</text>
</g>
<!-- New or existing behavior? -->
<g id="node3" class="node">
<title>New or existing behavior?</title>
<polygon fill="none" stroke="black" points="563.25,-185.5 408.84,-167.5 563.25,-149.5 717.66,-167.5 563.25,-185.5"/>
<text xml:space="preserve" text-anchor="middle" x="563.25" y="-162.45" font-family="Times,serif" font-size="14.00">New or existing behavior?</text>
</g>
<!-- .specs/specs/ exists?&#45;&gt;New or existing behavior? -->
<g id="edge4" class="edge">
<title>.specs/specs/ exists?&#45;&gt;New or existing behavior?</title>
<path fill="none" stroke="black" d="M399.11,-280.29C431.61,-258.16 494.49,-215.33 532.28,-189.59"/>
<polygon fill="black" stroke="black" points="533.77,-192.81 540.07,-184.29 529.83,-187.02 533.77,-192.81"/>
<text xml:space="preserve" text-anchor="middle" x="457.74" y="-246.2" font-family="Times,serif" font-size="14.00">yes</text>
</g>
<!-- Generate change directory\n(.specs/changes/&lt;name&gt;/)\nADDED&#45;only delta specs -->
<g id="node4" class="node">
<title>Generate change directory\n(.specs/changes/&lt;name&gt;/)\nADDED&#45;only delta specs</title>
<polygon fill="none" stroke="black" points="274.88,-57.5 115.62,-57.5 115.62,0 274.88,0 274.88,-57.5"/>
<text xml:space="preserve" text-anchor="middle" x="195.25" y="-40.2" font-family="Times,serif" font-size="14.00">Generate change directory</text>
<text xml:space="preserve" text-anchor="middle" x="195.25" y="-23.7" font-family="Times,serif" font-size="14.00">(.specs/changes/&lt;name&gt;/)</text>
<text xml:space="preserve" text-anchor="middle" x="195.25" y="-7.2" font-family="Times,serif" font-size="14.00">ADDED&#45;only delta specs</text>
</g>
<!-- Codebase has relevant\nimplementation?\n(answered by Phase 2 discovery)&#45;&gt;Generate change directory\n(.specs/changes/&lt;name&gt;/)\nADDED&#45;only delta specs -->
<g id="edge3" class="edge">
<title>Codebase has relevant\nimplementation?\n(answered by Phase 2 discovery)&#45;&gt;Generate change directory\n(.specs/changes/&lt;name&gt;/)\nADDED&#45;only delta specs</title>
<path fill="none" stroke="black" d="M195.25,-109.69C195.25,-95.98 195.25,-81.64 195.25,-68.94"/>
<polygon fill="black" stroke="black" points="198.75,-69.33 195.25,-59.33 191.75,-69.33 198.75,-69.33"/>
<text xml:space="preserve" text-anchor="middle" x="240.25" y="-78.7" font-family="Times,serif" font-size="14.00">no — greenfield</text>
</g>
<!-- Generate baseline specs\n(.specs/specs/) -->
<g id="node6" class="node">
<title>Generate baseline specs\n(.specs/specs/)</title>
<polygon fill="none" stroke="black" points="452.12,-49.25 306.38,-49.25 306.38,-8.25 452.12,-8.25 452.12,-49.25"/>
<text xml:space="preserve" text-anchor="middle" x="379.25" y="-31.95" font-family="Times,serif" font-size="14.00">Generate baseline specs</text>
<text xml:space="preserve" text-anchor="middle" x="379.25" y="-15.45" font-family="Times,serif" font-size="14.00">(.specs/specs/)</text>
</g>
<!-- Codebase has relevant\nimplementation?\n(answered by Phase 2 discovery)&#45;&gt;Generate baseline specs\n(.specs/specs/) -->
<g id="edge2" class="edge">
<title>Codebase has relevant\nimplementation?\n(answered by Phase 2 discovery)&#45;&gt;Generate baseline specs\n(.specs/specs/)</title>
<path fill="none" stroke="black" d="M248.36,-125.31C268.9,-109.56 292.67,-91.53 314.5,-75.5 323.14,-69.16 332.51,-62.44 341.37,-56.17"/>
<polygon fill="black" stroke="black" points="343.33,-59.07 349.49,-50.44 339.3,-53.34 343.33,-59.07"/>
<text xml:space="preserve" text-anchor="middle" x="374.88" y="-78.7" font-family="Times,serif" font-size="14.00">yes — retroactive doc</text>
</g>
<!-- Generate change directory\n(.specs/changes/&lt;name&gt;/) -->
<g id="node5" class="node">
<title>Generate change directory\n(.specs/changes/&lt;name&gt;/)</title>
<polygon fill="none" stroke="black" points="642.88,-49.25 483.62,-49.25 483.62,-8.25 642.88,-8.25 642.88,-49.25"/>
<text xml:space="preserve" text-anchor="middle" x="563.25" y="-31.95" font-family="Times,serif" font-size="14.00">Generate change directory</text>
<text xml:space="preserve" text-anchor="middle" x="563.25" y="-15.45" font-family="Times,serif" font-size="14.00">(.specs/changes/&lt;name&gt;/)</text>
</g>
<!-- New or existing behavior?&#45;&gt;Generate change directory\n(.specs/changes/&lt;name&gt;/) -->
<g id="edge5" class="edge">
<title>New or existing behavior?&#45;&gt;Generate change directory\n(.specs/changes/&lt;name&gt;/)</title>
<path fill="none" stroke="black" d="M563.25,-149.18C563.25,-127.02 563.25,-88.23 563.25,-60.88"/>
<polygon fill="black" stroke="black" points="566.75,-61.1 563.25,-51.1 559.75,-61.1 566.75,-61.1"/>
<text xml:space="preserve" text-anchor="middle" x="608.62" y="-78.7" font-family="Times,serif" font-size="14.00">new or modified</text>
</g>
<!-- New or existing behavior?&#45;&gt;Generate baseline specs\n(.specs/specs/) -->
<g id="edge6" class="edge">
<title>New or existing behavior?&#45;&gt;Generate baseline specs\n(.specs/specs/)</title>
<path fill="none" stroke="black" d="M543.21,-151.61C512.42,-128.73 453.06,-84.61 414.85,-56.21"/>
<polygon fill="black" stroke="black" points="417.42,-53.76 407.3,-50.6 413.24,-59.37 417.42,-53.76"/>
<text xml:space="preserve" text-anchor="middle" x="500.73" y="-78.7" font-family="Times,serif" font-size="14.00">retroactive doc</text>
</g>
</g>
</svg>
