<?xml version="1.0" encoding="UTF-8" standalone="no"?>
<!DOCTYPE svg PUBLIC "-//W3C//DTD SVG 1.1//EN"
 "http://www.w3.org/Graphics/SVG/1.1/DTD/svg11.dtd">
<!-- Generated by graphviz version 14.1.5 (20260411.2331)
 -->
<!-- Title: phase_2_discovery Pages: 1 -->
<svg width="678pt" height="1052pt"
 viewBox="0.00 0.00 678.00 1052.00" xmlns="http://www.w3.org/2000/svg" xmlns:xlink="http://www.w3.org/1999/xlink">
<g id="graph0" class="graph" transform="scale(1 1) rotate(0) translate(4 1048.23)">
<title>phase_2_discovery</title>
<polygon fill="white" stroke="none" points="-4,4 -4,-1048.23 673.88,-1048.23 673.88,4 -4,4"/>
<!-- start -->
<g id="node1" class="node">
<title>start</title>
<ellipse fill="none" stroke="black" cx="583.88" cy="-978.64" rx="61.59" ry="61.59"/>
<ellipse fill="none" stroke="black" cx="583.88" cy="-978.64" rx="65.59" ry="65.59"/>
<text xml:space="preserve" text-anchor="middle" x="583.88" y="-973.59" font-family="Times,serif" font-size="14.00">Phase 2 starts</text>
</g>
<!-- explorers -->
<g id="node2" class="node">
<title>explorers</title>
<polygon fill="none" stroke="black" points="669.88,-876.05 497.88,-876.05 497.88,-818.55 669.88,-818.55 669.88,-876.05"/>
<text xml:space="preserve" text-anchor="middle" x="583.88" y="-858.75" font-family="Times,serif" font-size="14.00">Dispatch parallel explorers</text>
<text xml:space="preserve" text-anchor="middle" x="583.88" y="-842.25" font-family="Times,serif" font-size="14.00">(call&#45;graph, data&#45;flow, ports,</text>
<text xml:space="preserve" text-anchor="middle" x="583.88" y="-825.75" font-family="Times,serif" font-size="14.00">schema, tests)</text>
</g>
<!-- start&#45;&gt;explorers -->
<g id="edge1" class="edge">
<title>start&#45;&gt;explorers</title>
<path fill="none" stroke="black" d="M583.88,-912.59C583.88,-904.15 583.88,-895.73 583.88,-887.88"/>
<polygon fill="black" stroke="black" points="587.38,-888.01 583.88,-878.01 580.38,-888.01 587.38,-888.01"/>
</g>
<!-- findings -->
<g id="node3" class="node">
<title>findings</title>
<polygon fill="none" stroke="black" points="616.38,-781.55 429.38,-781.55 429.38,-745.55 616.38,-745.55 616.38,-781.55"/>
<text xml:space="preserve" text-anchor="middle" x="522.88" y="-758.5" font-family="Times,serif" font-size="14.00">Explorers emit findings YAML</text>
</g>
<!-- explorers&#45;&gt;findings -->
<g id="edge2" class="edge">
<title>explorers&#45;&gt;findings</title>
<path fill="none" stroke="black" d="M562.88,-818.17C556.3,-809.35 549.07,-799.65 542.58,-790.96"/>
<polygon fill="black" stroke="black" points="545.59,-789.14 536.8,-783.22 539.98,-793.33 545.59,-789.14"/>
</g>
<!-- synth -->
<g id="node4" class="node">
<title>synth</title>
<polygon fill="none" stroke="black" points="462,-708.55 323.75,-708.55 323.75,-667.55 462,-667.55 462,-708.55"/>
<text xml:space="preserve" text-anchor="middle" x="392.88" y="-691.25" font-family="Times,serif" font-size="14.00">Dispatch synthesizer</text>
<text xml:space="preserve" text-anchor="middle" x="392.88" y="-674.75" font-family="Times,serif" font-size="14.00">with all explorer paths</text>
</g>
<!-- findings&#45;&gt;synth -->
<g id="edge3" class="edge">
<title>findings&#45;&gt;synth</title>
<path fill="none" stroke="black" d="M492.07,-745.13C475.85,-735.97 455.66,-724.55 437.74,-714.42"/>
<polygon fill="black" stroke="black" points="439.8,-711.56 429.37,-709.69 436.35,-717.66 439.8,-711.56"/>
</g>
<!-- menu -->
<g id="node5" class="node">
<title>menu</title>
<polygon fill="none" stroke="black" points="495,-630.55 290.75,-630.55 290.75,-589.55 495,-589.55 495,-630.55"/>
<text xml:space="preserve" text-anchor="middle" x="392.88" y="-613.25" font-family="Times,serif" font-size="14.00">Synthesizer emits capability menu</text>
<text xml:space="preserve" text-anchor="middle" x="392.88" y="-596.75" font-family="Times,serif" font-size="14.00">+ escalation flags</text>
</g>
<!-- synth&#45;&gt;menu -->
<g id="edge4" class="edge">
<title>synth&#45;&gt;menu</title>
<path fill="none" stroke="black" d="M392.88,-667.08C392.88,-659.49 392.88,-650.65 392.88,-642.26"/>
<polygon fill="black" stroke="black" points="396.38,-642.4 392.88,-632.4 389.38,-642.4 396.38,-642.4"/>
</g>
<!-- flagged -->
<g id="node6" class="node">
<title>flagged</title>
<polygon fill="none" stroke="black" points="392.88,-552.55 274.65,-534.55 392.87,-516.55 511.1,-534.55 392.88,-552.55"/>
<text xml:space="preserve" text-anchor="middle" x="392.88" y="-529.5" font-family="Times,serif" font-size="14.00">Escalation flagged?</text>
</g>
<!-- menu&#45;&gt;flagged -->
<g id="edge5" class="edge">
<title>menu&#45;&gt;flagged</title>
<path fill="none" stroke="black" d="M392.88,-589.36C392.88,-581.61 392.88,-572.57 392.88,-564.13"/>
<polygon fill="black" stroke="black" points="396.38,-564.31 392.88,-554.31 389.38,-564.31 396.38,-564.31"/>
</g>
<!-- defaults -->
<g id="node7" class="node">
<title>defaults</title>
<polygon fill="none" stroke="black" points="555.75,-405.05 410,-405.05 410,-347.55 555.75,-347.55 555.75,-405.05"/>
<text xml:space="preserve" text-anchor="middle" x="482.88" y="-387.75" font-family="Times,serif" font-size="14.00">Apply defaults silently</text>
<text xml:space="preserve" text-anchor="middle" x="482.88" y="-371.25" font-family="Times,serif" font-size="14.00">(confidence&gt;=medium,</text>
<text xml:space="preserve" text-anchor="middle" x="482.88" y="-354.75" font-family="Times,serif" font-size="14.00">alpha tiebreak)</text>
</g>
<!-- flagged&#45;&gt;defaults -->
<g id="edge6" class="edge">
<title>flagged&#45;&gt;defaults</title>
<path fill="none" stroke="black" d="M402,-517.71C415.73,-493.88 442.1,-448.09 461,-415.28"/>
<polygon fill="black" stroke="black" points="463.89,-417.28 465.85,-406.86 457.82,-413.78 463.89,-417.28"/>
<text xml:space="preserve" text-anchor="middle" x="427.65" y="-485.25" font-family="Times,serif" font-size="14.00">no</text>
</g>
<!-- ask -->
<g id="node8" class="node">
<title>ask</title>
<polygon fill="none" stroke="black" points="420.88,-464.05 266.88,-464.05 266.88,-423.05 420.88,-423.05 420.88,-464.05"/>
<text xml:space="preserve" text-anchor="middle" x="343.88" y="-446.75" font-family="Times,serif" font-size="14.00">Present flagged item;</text>
<text xml:space="preserve" text-anchor="middle" x="343.88" y="-430.25" font-family="Times,serif" font-size="14.00">ask one targeted question</text>
</g>
<!-- flagged&#45;&gt;ask -->
<g id="edge7" class="edge">
<title>flagged&#45;&gt;ask</title>
<path fill="none" stroke="black" d="M384.11,-517.64C377.51,-505.65 368.27,-488.86 360.31,-474.4"/>
<polygon fill="black" stroke="black" points="363.41,-472.77 355.52,-465.7 357.28,-476.15 363.41,-472.77"/>
<text xml:space="preserve" text-anchor="middle" x="381.76" y="-485.25" font-family="Times,serif" font-size="14.00">yes</text>
</g>
<!-- phase3 -->
<g id="node10" class="node">
<title>phase3</title>
<ellipse fill="none" stroke="black" cx="504.88" cy="-167.28" rx="69.78" ry="69.78"/>
<ellipse fill="none" stroke="black" cx="504.88" cy="-167.28" rx="73.78" ry="73.78"/>
<text xml:space="preserve" text-anchor="middle" x="504.88" y="-162.23" font-family="Times,serif" font-size="14.00">Trigger Phase 3</text>
</g>
<!-- defaults&#45;&gt;phase3 -->
<g id="edge8" class="edge">
<title>defaults&#45;&gt;phase3</title>
<path fill="none" stroke="black" d="M485.84,-347.38C488.43,-322.99 492.34,-286.28 495.93,-252.44"/>
<polygon fill="black" stroke="black" points="499.4,-252.91 496.98,-242.59 492.44,-252.17 499.4,-252.91"/>
</g>
<!-- decide -->
<g id="node9" class="node">
<title>decide</title>
<polygon fill="none" stroke="black" points="323.88,-329.55 170.91,-311.55 323.87,-293.55 476.84,-311.55 323.88,-329.55"/>
<text xml:space="preserve" text-anchor="middle" x="323.88" y="-306.5" font-family="Times,serif" font-size="14.00">User continues or refines?</text>
</g>
<!-- ask&#45;&gt;decide -->
<g id="edge9" class="edge">
<title>ask&#45;&gt;decide</title>
<path fill="none" stroke="black" d="M340.84,-422.81C337.48,-400.96 332.03,-365.56 328.22,-340.78"/>
<polygon fill="black" stroke="black" points="331.7,-340.42 326.72,-331.07 324.79,-341.49 331.7,-340.42"/>
</g>
<!-- decide&#45;&gt;phase3 -->
<g id="edge10" class="edge">
<title>decide&#45;&gt;phase3</title>
<path fill="none" stroke="black" d="M346.14,-295.73C366.32,-282.07 396.66,-260.96 421.88,-241.05 428.54,-235.79 435.38,-230.17 442.14,-224.48"/>
<polygon fill="black" stroke="black" points="444.14,-227.37 449.49,-218.22 439.6,-222.04 444.14,-227.37"/>
<text xml:space="preserve" text-anchor="middle" x="418.84" y="-262.25" font-family="Times,serif" font-size="14.00">continue</text>
</g>
<!-- cost -->
<g id="node11" class="node">
<title>cost</title>
<polygon fill="none" stroke="black" points="251.88,-185.28 90.95,-167.28 251.87,-149.28 412.8,-167.28 251.88,-185.28"/>
<text xml:space="preserve" text-anchor="middle" x="251.88" y="-162.23" font-family="Times,serif" font-size="14.00">Choose refinement cost tier</text>
</g>
<!-- decide&#45;&gt;cost -->
<g id="edge11" class="edge">
<title>decide&#45;&gt;cost</title>
<path fill="none" stroke="black" d="M315.62,-294.23C303.3,-269.9 280,-223.84 265.24,-194.68"/>
<polygon fill="black" stroke="black" points="268.36,-193.1 260.72,-185.76 262.11,-196.26 268.36,-193.1"/>
<text xml:space="preserve" text-anchor="middle" x="320.32" y="-262.25" font-family="Times,serif" font-size="14.00">refine</text>
</g>
<!-- cheap -->
<g id="node12" class="node">
<title>cheap</title>
<polygon fill="none" stroke="black" points="145.75,-41 0,-41 0,0 145.75,0 145.75,-41"/>
<text xml:space="preserve" text-anchor="middle" x="72.88" y="-23.7" font-family="Times,serif" font-size="14.00">Re&#45;run synthesizer only</text>
<text xml:space="preserve" text-anchor="middle" x="72.88" y="-7.2" font-family="Times,serif" font-size="14.00">(cheap)</text>
</g>
<!-- cost&#45;&gt;cheap -->
<g id="edge12" class="edge">
<title>cost&#45;&gt;cheap</title>
<path fill="none" stroke="black" d="M233.06,-151.06C202.89,-126.66 143.32,-78.47 105.93,-48.24"/>
<polygon fill="black" stroke="black" points="108.55,-45.85 98.58,-42.29 104.15,-51.3 108.55,-45.85"/>
<text xml:space="preserve" text-anchor="middle" x="186.51" y="-62.2" font-family="Times,serif" font-size="14.00">treat A &amp; B as one</text>
</g>
<!-- medium -->
<g id="node13" class="node">
<title>medium</title>
<polygon fill="none" stroke="black" points="376.88,-41 222.88,-41 222.88,0 376.88,0 376.88,-41"/>
<text xml:space="preserve" text-anchor="middle" x="299.88" y="-23.7" font-family="Times,serif" font-size="14.00">Re&#45;run one explorer with</text>
<text xml:space="preserve" text-anchor="middle" x="299.88" y="-7.2" font-family="Times,serif" font-size="14.00">adjusted scope (medium)</text>
</g>
<!-- cost&#45;&gt;medium -->
<g id="edge13" class="edge">
<title>cost&#45;&gt;medium</title>
<path fill="none" stroke="black" d="M257.38,-149.67C265.29,-125.83 279.98,-81.5 289.85,-51.75"/>
<polygon fill="black" stroke="black" points="293.06,-53.16 292.89,-42.57 286.42,-50.96 293.06,-53.16"/>
<text xml:space="preserve" text-anchor="middle" x="326.75" y="-62.2" font-family="Times,serif" font-size="14.00">ignore vendor/</text>
</g>
<!-- expensive -->
<g id="node14" class="node">
<title>expensive</title>
<polygon fill="none" stroke="black" points="562.25,-41 437.5,-41 437.5,0 562.25,0 562.25,-41"/>
<text xml:space="preserve" text-anchor="middle" x="499.88" y="-23.7" font-family="Times,serif" font-size="14.00">Re&#45;run all explorers</text>
<text xml:space="preserve" text-anchor="middle" x="499.88" y="-7.2" font-family="Times,serif" font-size="14.00">(expensive)</text>
</g>
<!-- cost&#45;&gt;expensive -->
<g id="edge14" class="edge">
<title>cost&#45;&gt;expensive</title>
<path fill="none" stroke="black" d="M277.02,-151.6C319.04,-127.07 404.05,-77.44 456.07,-47.07"/>
<polygon fill="black" stroke="black" points="457.83,-50.1 464.71,-42.03 454.31,-44.05 457.83,-50.1"/>
<text xml:space="preserve" text-anchor="middle" x="501.99" y="-62.2" font-family="Times,serif" font-size="14.00">substantive scope change</text>
</g>
<!-- cheap&#45;&gt;synth -->
<g id="edge15" class="edge">
<title>cheap&#45;&gt;synth</title>
<path fill="none" stroke="black" d="M70.66,-41.14C67.71,-68.95 62.88,-121.43 62.88,-166.28 62.88,-611.05 62.88,-611.05 62.88,-611.05 62.88,-662.02 214.25,-678.81 311.95,-684.34"/>
<polygon fill="black" stroke="black" points="311.61,-687.83 321.78,-684.87 311.98,-680.84 311.61,-687.83"/>
</g>
<!-- medium&#45;&gt;findings -->
<g id="edge16" class="edge">
<title>medium&#45;&gt;findings</title>
<path fill="none" stroke="black" d="M377.25,-33.55C394.24,-36.1 412.16,-38.71 428.88,-41 461.26,-45.44 549.18,-38.79 574.88,-59 613.98,-89.76 606.88,-116.52 606.88,-166.28 606.88,-689.05 606.88,-689.05 606.88,-689.05 606.88,-710.67 590.92,-727.4 572.92,-739.41"/>
<polygon fill="black" stroke="black" points="571.38,-736.25 564.69,-744.46 575.04,-742.21 571.38,-736.25"/>
</g>
<!-- expensive&#45;&gt;explorers -->
<g id="edge17" class="edge">
<title>expensive&#45;&gt;explorers</title>
<path fill="none" stroke="black" d="M562.58,-39.43C574.68,-44.58 586.72,-51.02 596.88,-59 637.95,-91.27 644.88,-114.04 644.88,-166.28 644.88,-764.55 644.88,-764.55 644.88,-764.55 644.88,-781.24 636.61,-796.72 626.16,-809.63"/>
<polygon fill="black" stroke="black" points="623.65,-807.18 619.65,-816.99 628.9,-811.81 623.65,-807.18"/>
</g>
</g>
</svg>
