<?xml version="1.0" encoding="UTF-8" standalone="no"?>
<!DOCTYPE svg PUBLIC "-//W3C//DTD SVG 1.1//EN"
 "http://www.w3.org/Graphics/SVG/1.1/DTD/svg11.dtd">
<!-- Generated by graphviz version 14.1.4 (20260321.0153)
 -->
<!-- Title: output_type Pages: 1 -->
<svg width="405pt" height="226pt"
 viewBox="0.00 0.00 405.00 226.00" xmlns="http://www.w3.org/2000/svg" xmlns:xlink="http://www.w3.org/1999/xlink">
<g id="graph0" class="graph" transform="scale(1 1) rotate(0) translate(4 222)">
<title>output_type</title>
<polygon fill="white" stroke="none" points="-4,4 -4,-222 401.29,-222 401.29,4 -4,4"/>
<!-- .specs/specs/ exists? -->
<g id="node1" class="node">
<title>.specs/specs/ exists?</title>
<polygon fill="none" stroke="black" points="249.41,-218 127.57,-200 249.41,-182 371.25,-200 249.41,-218"/>
<text xml:space="preserve" text-anchor="middle" x="249.41" y="-194.95" font-family="Times,serif" font-size="14.00">.specs/specs/ exists?</text>
</g>
<!-- New or existing behavior? -->
<g id="node2" class="node">
<title>New or existing behavior?</title>
<polygon fill="none" stroke="black" points="154.41,-129.5 0,-111.5 154.41,-93.5 308.82,-111.5 154.41,-129.5"/>
<text xml:space="preserve" text-anchor="middle" x="154.41" y="-106.45" font-family="Times,serif" font-size="14.00">New or existing behavior?</text>
</g>
<!-- .specs/specs/ exists?&#45;&gt;New or existing behavior? -->
<g id="edge1" class="edge">
<title>.specs/specs/ exists?&#45;&gt;New or existing behavior?</title>
<path fill="none" stroke="black" d="M233.3,-184.33C218.6,-170.95 196.65,-150.96 179.63,-135.46"/>
<polygon fill="black" stroke="black" points="182.12,-132.99 172.37,-128.85 177.4,-138.17 182.12,-132.99"/>
<text xml:space="preserve" text-anchor="middle" x="219.42" y="-150.7" font-family="Times,serif" font-size="14.00">yes</text>
</g>
<!-- Generate baseline specs\n(.specs/specs/) -->
<g id="node4" class="node">
<title>Generate baseline specs\n(.specs/specs/)</title>
<polygon fill="none" stroke="black" points="397.29,-41 251.54,-41 251.54,0 397.29,0 397.29,-41"/>
<text xml:space="preserve" text-anchor="middle" x="324.41" y="-23.7" font-family="Times,serif" font-size="14.00">Generate baseline specs</text>
<text xml:space="preserve" text-anchor="middle" x="324.41" y="-7.2" font-family="Times,serif" font-size="14.00">(.specs/specs/)</text>
</g>
<!-- .specs/specs/ exists?&#45;&gt;Generate baseline specs\n(.specs/specs/) -->
<g id="edge2" class="edge">
<title>.specs/specs/ exists?&#45;&gt;Generate baseline specs\n(.specs/specs/)</title>
<path fill="none" stroke="black" d="M268.43,-184.52C283.91,-171.71 305.15,-151.66 317.41,-129.5 332.84,-101.62 332.94,-90.76 330.41,-59 330.25,-56.92 330.03,-54.78 329.78,-52.63"/>
<polygon fill="black" stroke="black" points="333.25,-52.19 328.39,-42.78 326.32,-53.17 333.25,-52.19"/>
<text xml:space="preserve" text-anchor="middle" x="337.69" y="-106.45" font-family="Times,serif" font-size="14.00">no</text>
</g>
<!-- Generate change directory\n(.specs/changes/&lt;name&gt;/) -->
<g id="node3" class="node">
<title>Generate change directory\n(.specs/changes/&lt;name&gt;/)</title>
<polygon fill="none" stroke="black" points="214.04,-41 54.79,-41 54.79,0 214.04,0 214.04,-41"/>
<text xml:space="preserve" text-anchor="middle" x="134.41" y="-23.7" font-family="Times,serif" font-size="14.00">Generate change directory</text>
<text xml:space="preserve" text-anchor="middle" x="134.41" y="-7.2" font-family="Times,serif" font-size="14.00">(.specs/changes/&lt;name&gt;/)</text>
</g>
<!-- New or existing behavior?&#45;&gt;Generate change directory\n(.specs/changes/&lt;name&gt;/) -->
<g id="edge3" class="edge">
<title>New or existing behavior?&#45;&gt;Generate change directory\n(.specs/changes/&lt;name&gt;/)</title>
<path fill="none" stroke="black" d="M143.77,-94.43C140.53,-88.69 137.38,-82.03 135.66,-75.5 133.75,-68.24 132.91,-60.24 132.66,-52.67"/>
<polygon fill="black" stroke="black" points="136.16,-52.82 132.68,-42.82 129.16,-52.81 136.16,-52.82"/>
<text xml:space="preserve" text-anchor="middle" x="181.04" y="-62.2" font-family="Times,serif" font-size="14.00">new or modified</text>
</g>
<!-- New or existing behavior?&#45;&gt;Generate baseline specs\n(.specs/specs/) -->
<g id="edge4" class="edge">
<title>New or existing behavior?&#45;&gt;Generate baseline specs\n(.specs/specs/)</title>
<path fill="none" stroke="black" d="M185.5,-96.8C198.41,-90.75 213.4,-83.25 226.41,-75.5 237.22,-69.06 238.64,-65.5 249.41,-59 256.44,-54.76 264.01,-50.57 271.54,-46.61"/>
<polygon fill="black" stroke="black" points="273.09,-49.75 280.39,-42.07 269.89,-43.52 273.09,-49.75"/>
<text xml:space="preserve" text-anchor="middle" x="289.91" y="-62.2" font-family="Times,serif" font-size="14.00">retroactive doc</text>
</g>
</g>
</svg>
