<?xml version="1.0" encoding="UTF-8" standalone="no"?>
<!DOCTYPE svg PUBLIC "-//W3C//DTD SVG 1.1//EN"
 "http://www.w3.org/Graphics/SVG/1.1/DTD/svg11.dtd">
<!-- Generated by graphviz version 14.1.5 (20260411.2331)
 -->
<!-- Title: subagent_dispatch Pages: 1 -->
<svg width="402pt" height="929pt"
 viewBox="0.00 0.00 402.00 929.00" xmlns="http://www.w3.org/2000/svg" xmlns:xlink="http://www.w3.org/1999/xlink">
<g id="graph0" class="graph" transform="scale(1 1) rotate(0) translate(4 925.31)">
<title>subagent_dispatch</title>
<polygon fill="white" stroke="none" points="-4,4 -4,-925.31 397.56,-925.31 397.56,4 -4,4"/>
<!-- need -->
<g id="node1" class="node">
<title>need</title>
<ellipse fill="none" stroke="black" cx="235.52" cy="-903.31" rx="91.27" ry="18"/>
<text xml:space="preserve" text-anchor="middle" x="235.52" y="-898.26" font-family="Times,serif" font-size="14.00">Phase needs subagent</text>
</g>
<!-- resolve -->
<g id="node2" class="node">
<title>resolve</title>
<polygon fill="none" stroke="black" points="306.9,-848.31 164.15,-848.31 164.15,-807.31 306.9,-807.31 306.9,-848.31"/>
<text xml:space="preserve" text-anchor="middle" x="235.52" y="-831.01" font-family="Times,serif" font-size="14.00">Resolve absolute paths</text>
<text xml:space="preserve" text-anchor="middle" x="235.52" y="-814.51" font-family="Times,serif" font-size="14.00">($TMPDIR, skill_root)</text>
</g>
<!-- need&#45;&gt;resolve -->
<g id="edge1" class="edge">
<title>need&#45;&gt;resolve</title>
<path fill="none" stroke="black" d="M235.52,-884.89C235.52,-877.5 235.52,-868.66 235.52,-860.2"/>
<polygon fill="black" stroke="black" points="239.02,-860.21 235.52,-850.21 232.02,-860.21 239.02,-860.21"/>
</g>
<!-- compose -->
<g id="node3" class="node">
<title>compose</title>
<polygon fill="none" stroke="black" points="321.15,-770.31 149.9,-770.31 149.9,-712.81 321.15,-712.81 321.15,-770.31"/>
<text xml:space="preserve" text-anchor="middle" x="235.52" y="-753.01" font-family="Times,serif" font-size="14.00">Compose prompt:</text>
<text xml:space="preserve" text-anchor="middle" x="235.52" y="-736.51" font-family="Times,serif" font-size="14.00">read references/&lt;role&gt;.md</text>
<text xml:space="preserve" text-anchor="middle" x="235.52" y="-720.01" font-family="Times,serif" font-size="14.00">+ scope + literal output path</text>
</g>
<!-- resolve&#45;&gt;compose -->
<g id="edge2" class="edge">
<title>resolve&#45;&gt;compose</title>
<path fill="none" stroke="black" d="M235.52,-806.84C235.52,-799.42 235.52,-790.7 235.52,-782.13"/>
<polygon fill="black" stroke="black" points="239.02,-782.18 235.52,-772.18 232.02,-782.18 239.02,-782.18"/>
</g>
<!-- dispatch -->
<g id="node4" class="node">
<title>dispatch</title>
<polygon fill="none" stroke="black" points="293.4,-675.81 177.65,-675.81 177.65,-639.81 293.4,-639.81 293.4,-675.81"/>
<text xml:space="preserve" text-anchor="middle" x="235.52" y="-652.76" font-family="Times,serif" font-size="14.00">Dispatch subagent</text>
</g>
<!-- compose&#45;&gt;dispatch -->
<g id="edge3" class="edge">
<title>compose&#45;&gt;dispatch</title>
<path fill="none" stroke="black" d="M235.52,-712.43C235.52,-704.45 235.52,-695.76 235.52,-687.74"/>
<polygon fill="black" stroke="black" points="239.02,-687.78 235.52,-677.78 232.02,-687.78 239.02,-687.78"/>
</g>
<!-- work -->
<g id="node5" class="node">
<title>work</title>
<polygon fill="none" stroke="black" points="310.65,-602.81 160.4,-602.81 160.4,-545.31 310.65,-545.31 310.65,-602.81"/>
<text xml:space="preserve" text-anchor="middle" x="235.52" y="-585.51" font-family="Times,serif" font-size="14.00">Subagent reads role doc,</text>
<text xml:space="preserve" text-anchor="middle" x="235.52" y="-569.01" font-family="Times,serif" font-size="14.00">does scoped work,</text>
<text xml:space="preserve" text-anchor="middle" x="235.52" y="-552.51" font-family="Times,serif" font-size="14.00">writes artifact to disk</text>
</g>
<!-- dispatch&#45;&gt;work -->
<g id="edge4" class="edge">
<title>dispatch&#45;&gt;work</title>
<path fill="none" stroke="black" d="M235.52,-639.47C235.52,-632.17 235.52,-623.35 235.52,-614.61"/>
<polygon fill="black" stroke="black" points="239.02,-614.82 235.52,-604.82 232.02,-614.82 239.02,-614.82"/>
</g>
<!-- verify_cmd -->
<g id="node6" class="node">
<title>verify_cmd</title>
<text xml:space="preserve" text-anchor="middle" x="235.52" y="-485.26" font-family="Times,serif" font-size="14.00">ls &#45;la &lt;output_path&gt;</text>
</g>
<!-- work&#45;&gt;verify_cmd -->
<g id="edge5" class="edge">
<title>work&#45;&gt;verify_cmd</title>
<path fill="none" stroke="black" d="M235.52,-544.93C235.52,-536.73 235.52,-527.78 235.52,-519.58"/>
<polygon fill="black" stroke="black" points="239.02,-519.79 235.52,-509.79 232.02,-519.79 239.02,-519.79"/>
</g>
<!-- report -->
<g id="node7" class="node">
<title>report</title>
<polygon fill="none" stroke="black" points="324.9,-435.31 146.15,-435.31 146.15,-394.31 324.9,-394.31 324.9,-435.31"/>
<text xml:space="preserve" text-anchor="middle" x="235.52" y="-418.01" font-family="Times,serif" font-size="14.00">Subagent reports path + bytes</text>
<text xml:space="preserve" text-anchor="middle" x="235.52" y="-401.51" font-family="Times,serif" font-size="14.00">+ counts inline</text>
</g>
<!-- verify_cmd&#45;&gt;report -->
<g id="edge6" class="edge">
<title>verify_cmd&#45;&gt;report</title>
<path fill="none" stroke="black" d="M235.52,-472.63C235.52,-464.97 235.52,-455.64 235.52,-446.77"/>
<polygon fill="black" stroke="black" points="239.02,-447.06 235.52,-437.06 232.02,-447.06 239.02,-447.06"/>
</g>
<!-- check -->
<g id="node8" class="node">
<title>check</title>
<polygon fill="none" stroke="black" points="235.52,-357.31 77.49,-339.31 235.52,-321.31 393.56,-339.31 235.52,-357.31"/>
<text xml:space="preserve" text-anchor="middle" x="235.52" y="-334.26" font-family="Times,serif" font-size="14.00">File exists and non&#45;empty?</text>
</g>
<!-- report&#45;&gt;check -->
<g id="edge7" class="edge">
<title>report&#45;&gt;check</title>
<path fill="none" stroke="black" d="M235.52,-394.11C235.52,-386.37 235.52,-377.32 235.52,-368.88"/>
<polygon fill="black" stroke="black" points="239.02,-369.07 235.52,-359.07 232.02,-369.07 239.02,-369.07"/>
</g>
<!-- manifest -->
<g id="node9" class="node">
<title>manifest</title>
<polygon fill="none" stroke="black" points="163.77,-257.93 5.27,-257.93 5.27,-216.93 163.77,-216.93 163.77,-257.93"/>
<text xml:space="preserve" text-anchor="middle" x="84.52" y="-240.63" font-family="Times,serif" font-size="14.00">Update manifest:</text>
<text xml:space="preserve" text-anchor="middle" x="84.52" y="-224.13" font-family="Times,serif" font-size="14.00">path + counts + status=ok</text>
</g>
<!-- check&#45;&gt;manifest -->
<g id="edge8" class="edge">
<title>check&#45;&gt;manifest</title>
<path fill="none" stroke="black" d="M213.24,-323.57C189.81,-308.07 152.44,-283.36 124,-264.54"/>
<polygon fill="black" stroke="black" points="126.26,-261.84 115.99,-259.24 122.4,-267.68 126.26,-261.84"/>
<text xml:space="preserve" text-anchor="middle" x="191.37" y="-290.01" font-family="Times,serif" font-size="14.00">yes</text>
</g>
<!-- fail -->
<g id="node10" class="node">
<title>fail</title>
<polygon fill="pink" stroke="black" points="391.76,-224.43 391.76,-250.43 330.12,-268.81 242.93,-268.81 181.29,-250.43 181.29,-224.43 242.93,-206.05 330.12,-206.05 391.76,-224.43"/>
<text xml:space="preserve" text-anchor="middle" x="286.52" y="-240.63" font-family="Times,serif" font-size="14.00">Mark dispatch failed;</text>
<text xml:space="preserve" text-anchor="middle" x="286.52" y="-224.13" font-family="Times,serif" font-size="14.00">re&#45;dispatch or escalate</text>
</g>
<!-- check&#45;&gt;fail -->
<g id="edge9" class="edge">
<title>check&#45;&gt;fail</title>
<path fill="none" stroke="black" d="M243.95,-321.82C249.88,-310.2 258.09,-294.12 265.72,-279.17"/>
<polygon fill="black" stroke="black" points="268.76,-280.93 270.19,-270.43 262.52,-277.74 268.76,-280.93"/>
<text xml:space="preserve" text-anchor="middle" x="267.77" y="-290.01" font-family="Times,serif" font-size="14.00">no</text>
</g>
<!-- next -->
<g id="node11" class="node">
<title>next</title>
<ellipse fill="none" stroke="black" cx="84.52" cy="-84.52" rx="80.52" ry="80.52"/>
<ellipse fill="none" stroke="black" cx="84.52" cy="-84.52" rx="84.52" ry="84.52"/>
<text xml:space="preserve" text-anchor="middle" x="84.52" y="-79.47" font-family="Times,serif" font-size="14.00">Trigger next phase</text>
</g>
<!-- manifest&#45;&gt;next -->
<g id="edge10" class="edge">
<title>manifest&#45;&gt;next</title>
<path fill="none" stroke="black" d="M84.52,-216.7C84.52,-206.96 84.52,-194.43 84.52,-180.98"/>
<polygon fill="black" stroke="black" points="88.02,-181.03 84.52,-171.03 81.02,-181.03 88.02,-181.03"/>
</g>
</g>
</svg>
