<?xml version="1.0" encoding="UTF-8" standalone="no"?>
<!DOCTYPE svg PUBLIC "-//W3C//DTD SVG 1.1//EN"
 "http://www.w3.org/Graphics/SVG/1.1/DTD/svg11.dtd">
<!-- Generated by graphviz version 12.2.1 (0)
 -->
<!-- Title: spec_kit_implement Pages: 1 -->
<svg width="839pt" height="2557pt"
 viewBox="0.00 0.00 839.25 2556.95" xmlns="http://www.w3.org/2000/svg" xmlns:xlink="http://www.w3.org/1999/xlink">
<g id="graph0" class="graph" transform="scale(1 1) rotate(0) translate(4 2552.95)">
<title>spec_kit_implement</title>
<polygon fill="white" stroke="none" points="-4,4 -4,-2552.95 835.25,-2552.95 835.25,4 -4,4"/>
<text text-anchor="middle" x="415.62" y="-2527.85" font-family="Helvetica,sans-Serif" font-size="18.00">Spec Kit: Implementation Execution Flow</text>
<!-- start -->
<g id="node1" class="node">
<title>start</title>
<ellipse fill="none" stroke="black" cx="133.5" cy="-2455.44" rx="62.76" ry="62.76"/>
<ellipse fill="none" stroke="black" cx="133.5" cy="-2455.44" rx="66.76" ry="66.76"/>
<text text-anchor="middle" x="133.5" y="-2456.99" font-family="Helvetica,sans-Serif" font-size="11.00">Begin</text>
<text text-anchor="middle" x="133.5" y="-2444.99" font-family="Helvetica,sans-Serif" font-size="11.00">implementation</text>
</g>
<!-- q_tasks_exist -->
<g id="node2" class="node">
<title>q_tasks_exist</title>
<polygon fill="none" stroke="black" points="133.5,-2351.68 46.25,-2319.68 133.5,-2287.68 220.75,-2319.68 133.5,-2351.68"/>
<text text-anchor="middle" x="133.5" y="-2321.23" font-family="Helvetica,sans-Serif" font-size="11.00">Does tasks.md</text>
<text text-anchor="middle" x="133.5" y="-2309.23" font-family="Helvetica,sans-Serif" font-size="11.00">exist?</text>
</g>
<!-- start&#45;&gt;q_tasks_exist -->
<g id="edge1" class="edge">
<title>start&#45;&gt;q_tasks_exist</title>
<path fill="none" stroke="black" d="M133.5,-2388.35C133.5,-2379.86 133.5,-2371.35 133.5,-2363.37"/>
<polygon fill="black" stroke="black" points="137,-2363.64 133.5,-2353.64 130,-2363.64 137,-2363.64"/>
</g>
<!-- warn_no_tasks -->
<g id="node3" class="node">
<title>warn_no_tasks</title>
<polygon fill="red" stroke="black" points="224.03,-2202.29 224.03,-2222.58 161.04,-2236.93 71.96,-2236.93 8.97,-2222.58 8.97,-2202.29 71.96,-2187.94 161.04,-2187.94 224.03,-2202.29"/>
<text text-anchor="middle" x="116.5" y="-2213.98" font-family="Helvetica,sans-Serif" font-size="11.00" fill="white">STOP: Run spec&#45;kit&#45;tasks</text>
<text text-anchor="middle" x="116.5" y="-2201.98" font-family="Helvetica,sans-Serif" font-size="11.00" fill="white">before implementing</text>
</g>
<!-- q_tasks_exist&#45;&gt;warn_no_tasks -->
<g id="edge3" class="edge">
<title>q_tasks_exist&#45;&gt;warn_no_tasks</title>
<path fill="none" stroke="black" d="M128.72,-2289.09C126.67,-2276.39 124.26,-2261.46 122.12,-2248.24"/>
<polygon fill="black" stroke="black" points="125.62,-2247.97 120.57,-2238.65 118.71,-2249.08 125.62,-2247.97"/>
<text text-anchor="middle" x="130.76" y="-2260.18" font-family="Helvetica,sans-Serif" font-size="10.00">no</text>
</g>
<!-- act_load_context -->
<g id="node4" class="node">
<title>act_load_context</title>
<polygon fill="none" stroke="black" points="375,-2240.43 242,-2240.43 242,-2184.43 375,-2184.43 375,-2240.43"/>
<text text-anchor="middle" x="308.5" y="-2225.98" font-family="Helvetica,sans-Serif" font-size="11.00">Load tasks.md, plan.md,</text>
<text text-anchor="middle" x="308.5" y="-2213.98" font-family="Helvetica,sans-Serif" font-size="11.00">and optional artifacts</text>
<text text-anchor="middle" x="308.5" y="-2201.98" font-family="Helvetica,sans-Serif" font-size="11.00">(data&#45;model, contracts,</text>
<text text-anchor="middle" x="308.5" y="-2189.98" font-family="Helvetica,sans-Serif" font-size="11.00">research, quickstart)</text>
</g>
<!-- q_tasks_exist&#45;&gt;act_load_context -->
<g id="edge2" class="edge">
<title>q_tasks_exist&#45;&gt;act_load_context</title>
<path fill="none" stroke="black" d="M166.01,-2299.13C190.52,-2284.39 224.71,-2263.83 253.46,-2246.54"/>
<polygon fill="black" stroke="black" points="254.91,-2249.75 261.68,-2241.59 251.3,-2243.75 254.91,-2249.75"/>
<text text-anchor="middle" x="239.35" y="-2260.18" font-family="Helvetica,sans-Serif" font-size="10.00">yes</text>
</g>
<!-- q_checklists_dir -->
<g id="node5" class="node">
<title>q_checklists_dir</title>
<polygon fill="none" stroke="black" points="308.5,-2147.43 215.25,-2115.43 308.5,-2083.43 401.75,-2115.43 308.5,-2147.43"/>
<text text-anchor="middle" x="308.5" y="-2116.98" font-family="Helvetica,sans-Serif" font-size="11.00">Does checklists/</text>
<text text-anchor="middle" x="308.5" y="-2104.98" font-family="Helvetica,sans-Serif" font-size="11.00">directory exist?</text>
</g>
<!-- act_load_context&#45;&gt;q_checklists_dir -->
<g id="edge4" class="edge">
<title>act_load_context&#45;&gt;q_checklists_dir</title>
<path fill="none" stroke="black" d="M308.5,-2183.96C308.5,-2176.2 308.5,-2167.56 308.5,-2159.13"/>
<polygon fill="black" stroke="black" points="312,-2159.38 308.5,-2149.38 305,-2159.38 312,-2159.38"/>
</g>
<!-- q_incomplete_items -->
<g id="node6" class="node">
<title>q_incomplete_items</title>
<polygon fill="none" stroke="black" points="243.5,-2036.18 152.5,-2004.18 243.5,-1972.18 334.5,-2004.18 243.5,-2036.18"/>
<text text-anchor="middle" x="243.5" y="-2005.73" font-family="Helvetica,sans-Serif" font-size="11.00">Any incomplete</text>
<text text-anchor="middle" x="243.5" y="-1993.73" font-family="Helvetica,sans-Serif" font-size="11.00">checklist items?</text>
</g>
<!-- q_checklists_dir&#45;&gt;q_incomplete_items -->
<g id="edge5" class="edge">
<title>q_checklists_dir&#45;&gt;q_incomplete_items</title>
<path fill="none" stroke="black" d="M292.93,-2088.27C284.49,-2074.08 273.93,-2056.33 264.75,-2040.89"/>
<polygon fill="black" stroke="black" points="267.84,-2039.24 259.72,-2032.44 261.82,-2042.82 267.84,-2039.24"/>
<text text-anchor="middle" x="285.82" y="-2055.93" font-family="Helvetica,sans-Serif" font-size="10.00">yes</text>
</g>
<!-- act_verify_ignore -->
<g id="node9" class="node">
<title>act_verify_ignore</title>
<polygon fill="none" stroke="black" points="407,-1789.06 304,-1789.06 304,-1745.06 407,-1745.06 407,-1789.06"/>
<text text-anchor="middle" x="355.5" y="-1774.61" font-family="Helvetica,sans-Serif" font-size="11.00">Verify and update</text>
<text text-anchor="middle" x="355.5" y="-1762.61" font-family="Helvetica,sans-Serif" font-size="11.00">project ignore files</text>
<text text-anchor="middle" x="355.5" y="-1750.61" font-family="Helvetica,sans-Serif" font-size="11.00">for detected stack</text>
</g>
<!-- q_checklists_dir&#45;&gt;act_verify_ignore -->
<g id="edge6" class="edge">
<title>q_checklists_dir&#45;&gt;act_verify_ignore</title>
<path fill="none" stroke="black" d="M322.86,-2088.06C330.27,-2073.24 338.73,-2054.16 343.5,-2036.18 368.35,-1942.61 357.22,-1915.72 359.5,-1818.93 359.62,-1813.94 359.75,-1812.68 359.5,-1807.68 359.39,-1805.46 359.24,-1803.16 359.07,-1800.85"/>
<polygon fill="black" stroke="black" points="362.56,-1800.57 358.19,-1790.92 355.59,-1801.19 362.56,-1800.57"/>
<text text-anchor="middle" x="364.63" y="-1944.68" font-family="Helvetica,sans-Serif" font-size="10.00">no</text>
</g>
<!-- q_user_approves -->
<g id="node7" class="node">
<title>q_user_approves</title>
<polygon fill="none" stroke="black" points="243.5,-1924.93 141.25,-1880.93 243.5,-1836.93 345.75,-1880.93 243.5,-1924.93"/>
<text text-anchor="middle" x="243.5" y="-1888.48" font-family="Helvetica,sans-Serif" font-size="11.00">User approves</text>
<text text-anchor="middle" x="243.5" y="-1876.48" font-family="Helvetica,sans-Serif" font-size="11.00">proceeding with</text>
<text text-anchor="middle" x="243.5" y="-1864.48" font-family="Helvetica,sans-Serif" font-size="11.00">incomplete items?</text>
</g>
<!-- q_incomplete_items&#45;&gt;q_user_approves -->
<g id="edge7" class="edge">
<title>q_incomplete_items&#45;&gt;q_user_approves</title>
<path fill="none" stroke="black" d="M243.5,-1971.96C243.5,-1961.22 243.5,-1948.85 243.5,-1936.79"/>
<polygon fill="black" stroke="black" points="247,-1936.9 243.5,-1926.9 240,-1936.9 247,-1936.9"/>
<text text-anchor="middle" x="251.38" y="-1944.68" font-family="Helvetica,sans-Serif" font-size="10.00">yes</text>
</g>
<!-- q_incomplete_items&#45;&gt;act_verify_ignore -->
<g id="edge8" class="edge">
<title>q_incomplete_items&#45;&gt;act_verify_ignore</title>
<path fill="none" stroke="black" d="M186.83,-1991.83C150.12,-1981.22 105.04,-1961.33 82.25,-1924.93 61.49,-1891.79 57.77,-1867.43 82.25,-1836.93 140.76,-1764.04 197.86,-1812.76 292.49,-1790.17"/>
<polygon fill="black" stroke="black" points="293.37,-1793.55 302.14,-1787.61 291.57,-1786.79 293.37,-1793.55"/>
<text text-anchor="middle" x="107.38" y="-1877.06" font-family="Helvetica,sans-Serif" font-size="10.00">no, all pass</text>
</g>
<!-- state_blocked -->
<g id="node8" class="node">
<title>state_blocked</title>
<ellipse fill="none" stroke="black" cx="207.5" cy="-1767.06" rx="78.67" ry="22.63"/>
<text text-anchor="middle" x="207.5" y="-1768.61" font-family="Helvetica,sans-Serif" font-size="11.00">Blocked on</text>
<text text-anchor="middle" x="207.5" y="-1756.61" font-family="Helvetica,sans-Serif" font-size="11.00">checklist completion</text>
</g>
<!-- q_user_approves&#45;&gt;state_blocked -->
<g id="edge10" class="edge">
<title>q_user_approves&#45;&gt;state_blocked</title>
<path fill="none" stroke="black" d="M231.21,-1841.75C226.89,-1828.33 222.09,-1813.4 217.94,-1800.5"/>
<polygon fill="black" stroke="black" points="221.35,-1799.67 214.95,-1791.22 214.68,-1801.81 221.35,-1799.67"/>
<text text-anchor="middle" x="228.59" y="-1809.43" font-family="Helvetica,sans-Serif" font-size="10.00">no</text>
</g>
<!-- q_user_approves&#45;&gt;act_verify_ignore -->
<g id="edge9" class="edge">
<title>q_user_approves&#45;&gt;act_verify_ignore</title>
<path fill="none" stroke="black" d="M267.88,-1847.25C278.18,-1834.34 290.68,-1819.74 303.25,-1807.68 307.15,-1803.94 311.41,-1800.22 315.75,-1796.65"/>
<polygon fill="black" stroke="black" points="317.85,-1799.45 323.51,-1790.5 313.5,-1793.97 317.85,-1799.45"/>
<text text-anchor="middle" x="331.38" y="-1809.43" font-family="Helvetica,sans-Serif" font-size="10.00">yes, proceed</text>
</g>
<!-- q_phases_remain -->
<g id="node10" class="node">
<title>q_phases_remain</title>
<polygon fill="none" stroke="black" points="355.5,-1707.43 277.25,-1675.43 355.5,-1643.43 433.75,-1675.43 355.5,-1707.43"/>
<text text-anchor="middle" x="355.5" y="-1676.98" font-family="Helvetica,sans-Serif" font-size="11.00">More phases</text>
<text text-anchor="middle" x="355.5" y="-1664.98" font-family="Helvetica,sans-Serif" font-size="11.00">to execute?</text>
</g>
<!-- act_verify_ignore&#45;&gt;q_phases_remain -->
<g id="edge11" class="edge">
<title>act_verify_ignore&#45;&gt;q_phases_remain</title>
<path fill="none" stroke="black" d="M355.5,-1744.82C355.5,-1737.11 355.5,-1728.11 355.5,-1719.22"/>
<polygon fill="black" stroke="black" points="359,-1719.22 355.5,-1709.22 352,-1719.22 359,-1719.22"/>
</g>
<!-- act_enter_phase -->
<g id="node11" class="node">
<title>act_enter_phase</title>
<polygon fill="none" stroke="black" points="447.25,-1514.18 303.75,-1514.18 303.75,-1478.18 447.25,-1478.18 447.25,-1514.18"/>
<text text-anchor="middle" x="375.5" y="-1498.85" font-family="Helvetica,sans-Serif" font-size="11.00">Enter next phase</text>
<text text-anchor="middle" x="375.5" y="-1486.85" font-family="Helvetica,sans-Serif" font-size="11.00">(setup → stories → polish)</text>
</g>
<!-- q_phases_remain&#45;&gt;act_enter_phase -->
<g id="edge12" class="edge">
<title>q_phases_remain&#45;&gt;act_enter_phase</title>
<path fill="none" stroke="black" d="M358.89,-1644.36C362.63,-1611.26 368.59,-1558.42 372.26,-1525.87"/>
<polygon fill="black" stroke="black" points="375.74,-1526.31 373.38,-1515.98 368.78,-1525.52 375.74,-1526.31"/>
<text text-anchor="middle" x="370.01" y="-1615.93" font-family="Helvetica,sans-Serif" font-size="10.00">yes</text>
</g>
<!-- q_all_required -->
<g id="node26" class="node">
<title>q_all_required</title>
<polygon fill="none" stroke="black" points="482.5,-1596.18 384,-1564.18 482.5,-1532.18 581,-1564.18 482.5,-1596.18"/>
<text text-anchor="middle" x="482.5" y="-1565.73" font-family="Helvetica,sans-Serif" font-size="11.00">All required tasks</text>
<text text-anchor="middle" x="482.5" y="-1553.73" font-family="Helvetica,sans-Serif" font-size="11.00">complete?</text>
</g>
<!-- q_phases_remain&#45;&gt;q_all_required -->
<g id="edge13" class="edge">
<title>q_phases_remain&#45;&gt;q_all_required</title>
<path fill="none" stroke="black" d="M380.29,-1653.11C399.45,-1636.62 426.21,-1613.6 447.55,-1595.25"/>
<polygon fill="black" stroke="black" points="449.58,-1598.12 454.88,-1588.94 445.01,-1592.81 449.58,-1598.12"/>
<text text-anchor="middle" x="447.93" y="-1615.93" font-family="Helvetica,sans-Serif" font-size="10.00">no, all done</text>
</g>
<!-- q_tasks_remain -->
<g id="node12" class="node">
<title>q_tasks_remain</title>
<polygon fill="none" stroke="black" points="375.5,-1087.39 287.5,-1055.39 375.5,-1023.39 463.5,-1055.39 375.5,-1087.39"/>
<text text-anchor="middle" x="375.5" y="-1056.94" font-family="Helvetica,sans-Serif" font-size="11.00">More tasks in</text>
<text text-anchor="middle" x="375.5" y="-1044.94" font-family="Helvetica,sans-Serif" font-size="11.00">current phase?</text>
</g>
<!-- act_enter_phase&#45;&gt;q_tasks_remain -->
<g id="edge14" class="edge">
<title>act_enter_phase&#45;&gt;q_tasks_remain</title>
<path fill="none" stroke="black" d="M375.5,-1477.89C375.5,-1453.41 375.5,-1407.25 375.5,-1367.93 375.5,-1367.93 375.5,-1367.93 375.5,-1202.8 375.5,-1167.95 375.5,-1128.43 375.5,-1099.24"/>
<polygon fill="black" stroke="black" points="379,-1099.32 375.5,-1089.32 372,-1099.32 379,-1099.32"/>
</g>
<!-- q_tasks_remain&#45;&gt;q_phases_remain -->
<g id="edge16" class="edge">
<title>q_tasks_remain&#45;&gt;q_phases_remain</title>
<path fill="none" stroke="black" d="M351.73,-1078.79C325.97,-1105.6 288.5,-1153.13 288.5,-1202.8 288.5,-1565.18 288.5,-1565.18 288.5,-1565.18 288.5,-1595.03 306.9,-1623.59 324.41,-1644.02"/>
<polygon fill="black" stroke="black" points="321.77,-1646.32 331.05,-1651.41 326.97,-1641.64 321.77,-1646.32"/>
<text text-anchor="middle" x="321.88" y="-1363.05" font-family="Helvetica,sans-Serif" font-size="10.00">no, phase done</text>
</g>
<!-- q_marked_parallel -->
<g id="node13" class="node">
<title>q_marked_parallel</title>
<polygon fill="none" stroke="black" points="285.5,-940.85 192.25,-908.85 285.5,-876.85 378.75,-908.85 285.5,-940.85"/>
<text text-anchor="middle" x="285.5" y="-910.4" font-family="Helvetica,sans-Serif" font-size="11.00">Task marked [P]</text>
<text text-anchor="middle" x="285.5" y="-898.4" font-family="Helvetica,sans-Serif" font-size="11.00">for parallel?</text>
</g>
<!-- q_tasks_remain&#45;&gt;q_marked_parallel -->
<g id="edge15" class="edge">
<title>q_tasks_remain&#45;&gt;q_marked_parallel</title>
<path fill="none" stroke="black" d="M359.62,-1028.88C345.12,-1005.6 323.55,-970.97 307.42,-945.05"/>
<polygon fill="black" stroke="black" points="310.58,-943.51 302.33,-936.88 304.64,-947.21 310.58,-943.51"/>
<text text-anchor="middle" x="330.31" y="-960.6" font-family="Helvetica,sans-Serif" font-size="10.00">yes</text>
</g>
<!-- q_file_conflicts -->
<g id="node14" class="node">
<title>q_file_conflicts</title>
<polygon fill="none" stroke="black" points="173.5,-829.6 66,-785.6 173.5,-741.6 281,-785.6 173.5,-829.6"/>
<text text-anchor="middle" x="173.5" y="-793.15" font-family="Helvetica,sans-Serif" font-size="11.00">File or dependency</text>
<text text-anchor="middle" x="173.5" y="-781.15" font-family="Helvetica,sans-Serif" font-size="11.00">conflicts with other</text>
<text text-anchor="middle" x="173.5" y="-769.15" font-family="Helvetica,sans-Serif" font-size="11.00">[P] tasks?</text>
</g>
<!-- q_marked_parallel&#45;&gt;q_file_conflicts -->
<g id="edge17" class="edge">
<title>q_marked_parallel&#45;&gt;q_file_conflicts</title>
<path fill="none" stroke="black" d="M263.64,-884.19C248.44,-867.74 227.83,-845.42 210.15,-826.28"/>
<polygon fill="black" stroke="black" points="212.9,-824.1 203.54,-819.13 207.76,-828.85 212.9,-824.1"/>
<text text-anchor="middle" x="247.41" y="-849.35" font-family="Helvetica,sans-Serif" font-size="10.00">yes</text>
</g>
<!-- q_tests_requested -->
<g id="node16" class="node">
<title>q_tests_requested</title>
<polygon fill="none" stroke="black" points="286.5,-683.1 194.75,-651.1 286.5,-619.1 378.25,-651.1 286.5,-683.1"/>
<text text-anchor="middle" x="286.5" y="-652.65" font-family="Helvetica,sans-Serif" font-size="11.00">Tests requested</text>
<text text-anchor="middle" x="286.5" y="-640.65" font-family="Helvetica,sans-Serif" font-size="11.00">for this task?</text>
</g>
<!-- q_marked_parallel&#45;&gt;q_tests_requested -->
<g id="edge18" class="edge">
<title>q_marked_parallel&#45;&gt;q_tests_requested</title>
<path fill="none" stroke="black" d="M291.15,-878.29C298,-838.07 307.69,-763.89 299.5,-701.1 299.08,-697.91 298.52,-694.63 297.86,-691.36"/>
<polygon fill="black" stroke="black" points="301.32,-690.79 295.67,-681.83 294.5,-692.36 301.32,-690.79"/>
<text text-anchor="middle" x="333" y="-781.73" font-family="Helvetica,sans-Serif" font-size="10.00">no, sequential</text>
</g>
<!-- act_batch_parallel -->
<g id="node15" class="node">
<title>act_batch_parallel</title>
<polygon fill="none" stroke="black" points="219.12,-601.1 113.88,-601.1 113.88,-565.1 219.12,-565.1 219.12,-601.1"/>
<text text-anchor="middle" x="166.5" y="-584.65" font-family="Helvetica,sans-Serif" font-size="11.00">Batch and execute</text>
<text text-anchor="middle" x="166.5" y="-572.65" font-family="Helvetica,sans-Serif" font-size="11.00">parallel task group</text>
</g>
<!-- q_file_conflicts&#45;&gt;act_batch_parallel -->
<g id="edge20" class="edge">
<title>q_file_conflicts&#45;&gt;act_batch_parallel</title>
<path fill="none" stroke="black" d="M172.02,-742.08C170.66,-703.18 168.68,-646.68 167.5,-612.84"/>
<polygon fill="black" stroke="black" points="171.01,-612.86 167.16,-602.99 164.01,-613.11 171.01,-612.86"/>
<text text-anchor="middle" x="188.95" y="-714.1" font-family="Helvetica,sans-Serif" font-size="10.00">no, safe</text>
<text text-anchor="middle" x="188.95" y="-702.85" font-family="Helvetica,sans-Serif" font-size="10.00">to batch</text>
</g>
<!-- q_file_conflicts&#45;&gt;q_tests_requested -->
<g id="edge19" class="edge">
<title>q_file_conflicts&#45;&gt;q_tests_requested</title>
<path fill="none" stroke="black" d="M200.85,-752.53C218.38,-731.98 241.05,-705.39 258.67,-684.73"/>
<polygon fill="black" stroke="black" points="261.32,-687.02 265.14,-677.14 255.99,-682.48 261.32,-687.02"/>
<text text-anchor="middle" x="269.32" y="-714.1" font-family="Helvetica,sans-Serif" font-size="10.00">yes, run</text>
<text text-anchor="middle" x="269.32" y="-702.85" font-family="Helvetica,sans-Serif" font-size="10.00">sequentially</text>
</g>
<!-- q_task_passed -->
<g id="node19" class="node">
<title>q_task_passed</title>
<polygon fill="none" stroke="black" points="173.5,-401.1 99.75,-369.1 173.5,-337.1 247.25,-369.1 173.5,-401.1"/>
<text text-anchor="middle" x="173.5" y="-370.65" font-family="Helvetica,sans-Serif" font-size="11.00">Task</text>
<text text-anchor="middle" x="173.5" y="-358.65" font-family="Helvetica,sans-Serif" font-size="11.00">succeeded?</text>
</g>
<!-- act_batch_parallel&#45;&gt;q_task_passed -->
<g id="edge21" class="edge">
<title>act_batch_parallel&#45;&gt;q_task_passed</title>
<path fill="none" stroke="black" d="M167.07,-564.75C168.17,-531.66 170.58,-458.67 172.11,-412.08"/>
<polygon fill="black" stroke="black" points="175.6,-412.46 172.44,-402.35 168.61,-412.23 175.6,-412.46"/>
</g>
<!-- act_write_test -->
<g id="node17" class="node">
<title>act_write_test</title>
<polygon fill="none" stroke="black" points="284.25,-547.1 194.75,-547.1 194.75,-511.1 284.25,-511.1 284.25,-547.1"/>
<text text-anchor="middle" x="239.5" y="-530.65" font-family="Helvetica,sans-Serif" font-size="11.00">Write test first</text>
<text text-anchor="middle" x="239.5" y="-518.65" font-family="Helvetica,sans-Serif" font-size="11.00">(TDD ordering)</text>
</g>
<!-- q_tests_requested&#45;&gt;act_write_test -->
<g id="edge22" class="edge">
<title>q_tests_requested&#45;&gt;act_write_test</title>
<path fill="none" stroke="black" d="M275.72,-622.57C268.15,-603.25 258.07,-577.51 250.46,-558.09"/>
<polygon fill="black" stroke="black" points="253.76,-556.92 246.86,-548.89 247.25,-559.48 253.76,-556.92"/>
<text text-anchor="middle" x="275.08" y="-579.23" font-family="Helvetica,sans-Serif" font-size="10.00">yes</text>
</g>
<!-- act_execute_task -->
<g id="node18" class="node">
<title>act_execute_task</title>
<polygon fill="none" stroke="black" points="278.25,-474.1 200.75,-474.1 200.75,-438.1 278.25,-438.1 278.25,-474.1"/>
<text text-anchor="middle" x="239.5" y="-451.65" font-family="Helvetica,sans-Serif" font-size="11.00">Execute task</text>
</g>
<!-- q_tests_requested&#45;&gt;act_execute_task -->
<g id="edge23" class="edge">
<title>q_tests_requested&#45;&gt;act_execute_task</title>
<path fill="none" stroke="black" d="M294.83,-621.73C301.78,-592.75 308.39,-547.04 293.5,-511.1 288.97,-500.17 281.04,-490.3 272.62,-482.07"/>
<polygon fill="black" stroke="black" points="275.04,-479.54 265.28,-475.44 270.35,-484.74 275.04,-479.54"/>
<text text-anchor="middle" x="306.92" y="-525.23" font-family="Helvetica,sans-Serif" font-size="10.00">no</text>
</g>
<!-- act_write_test&#45;&gt;act_execute_task -->
<g id="edge24" class="edge">
<title>act_write_test&#45;&gt;act_execute_task</title>
<path fill="none" stroke="black" d="M239.5,-510.92C239.5,-503.33 239.5,-494.2 239.5,-485.64"/>
<polygon fill="black" stroke="black" points="243,-485.64 239.5,-475.64 236,-485.64 243,-485.64"/>
</g>
<!-- act_execute_task&#45;&gt;q_task_passed -->
<g id="edge25" class="edge">
<title>act_execute_task&#45;&gt;q_task_passed</title>
<path fill="none" stroke="black" d="M226.14,-437.9C218.22,-427.7 207.92,-414.43 198.53,-402.34"/>
<polygon fill="black" stroke="black" points="201.42,-400.35 192.52,-394.59 195.89,-404.64 201.42,-400.35"/>
</g>
<!-- act_mark_complete -->
<g id="node20" class="node">
<title>act_mark_complete</title>
<polygon fill="none" stroke="black" points="79,-275.85 0,-275.85 0,-239.85 79,-239.85 79,-275.85"/>
<text text-anchor="middle" x="39.5" y="-259.4" font-family="Helvetica,sans-Serif" font-size="11.00">Mark task [X]</text>
<text text-anchor="middle" x="39.5" y="-247.4" font-family="Helvetica,sans-Serif" font-size="11.00">in tasks.md</text>
</g>
<!-- q_task_passed&#45;&gt;act_mark_complete -->
<g id="edge26" class="edge">
<title>q_task_passed&#45;&gt;act_mark_complete</title>
<path fill="none" stroke="black" d="M148.3,-347.55C125.94,-329.33 93.25,-302.68 69.54,-283.35"/>
<polygon fill="black" stroke="black" points="71.76,-280.64 61.8,-277.03 67.34,-286.06 71.76,-280.64"/>
<text text-anchor="middle" x="118.39" y="-309.6" font-family="Helvetica,sans-Serif" font-size="10.00">yes</text>
</g>
<!-- q_is_parallel_task -->
<g id="node21" class="node">
<title>q_is_parallel_task</title>
<polygon fill="none" stroke="black" points="193.5,-289.85 98,-257.85 193.5,-225.85 289,-257.85 193.5,-289.85"/>
<text text-anchor="middle" x="193.5" y="-259.4" font-family="Helvetica,sans-Serif" font-size="11.00">Was this a</text>
<text text-anchor="middle" x="193.5" y="-247.4" font-family="Helvetica,sans-Serif" font-size="11.00">parallel [P] task?</text>
</g>
<!-- q_task_passed&#45;&gt;q_is_parallel_task -->
<g id="edge27" class="edge">
<title>q_task_passed&#45;&gt;q_is_parallel_task</title>
<path fill="none" stroke="black" d="M178.81,-339.11C181.03,-326.99 183.65,-312.68 186.05,-299.53"/>
<polygon fill="black" stroke="black" points="189.47,-300.31 187.83,-289.85 182.58,-299.05 189.47,-300.31"/>
<text text-anchor="middle" x="189.35" y="-309.6" font-family="Helvetica,sans-Serif" font-size="10.00">no</text>
</g>
<!-- act_mark_complete&#45;&gt;q_tasks_remain -->
<g id="edge28" class="edge">
<title>act_mark_complete&#45;&gt;q_tasks_remain</title>
<path fill="none" stroke="black" d="M38.98,-276.26C38.39,-297.82 37.5,-335.66 37.5,-368.1 37.5,-909.85 37.5,-909.85 37.5,-909.85 37.5,-1016.01 180.2,-1045.24 280.16,-1052.68"/>
<polygon fill="black" stroke="black" points="279.79,-1056.17 290.01,-1053.35 280.26,-1049.18 279.79,-1056.17"/>
</g>
<!-- q_critical_failure -->
<g id="node22" class="node">
<title>q_critical_failure</title>
<polygon fill="none" stroke="black" points="193.5,-178.6 92.75,-146.6 193.5,-114.6 294.25,-146.6 193.5,-178.6"/>
<text text-anchor="middle" x="193.5" y="-148.15" font-family="Helvetica,sans-Serif" font-size="11.00">Critical sequential</text>
<text text-anchor="middle" x="193.5" y="-136.15" font-family="Helvetica,sans-Serif" font-size="11.00">failure?</text>
</g>
<!-- q_is_parallel_task&#45;&gt;q_critical_failure -->
<g id="edge30" class="edge">
<title>q_is_parallel_task&#45;&gt;q_critical_failure</title>
<path fill="none" stroke="black" d="M193.5,-225.55C193.5,-214.57 193.5,-202.06 193.5,-190.31"/>
<polygon fill="black" stroke="black" points="197,-190.43 193.5,-180.43 190,-190.43 197,-190.43"/>
<text text-anchor="middle" x="198.75" y="-198.35" font-family="Helvetica,sans-Serif" font-size="10.00">no</text>
</g>
<!-- act_log_continue -->
<g id="node24" class="node">
<title>act_log_continue</title>
<polygon fill="none" stroke="black" points="416.38,-168.6 312.62,-168.6 312.62,-124.6 416.38,-124.6 416.38,-168.6"/>
<text text-anchor="middle" x="364.5" y="-154.15" font-family="Helvetica,sans-Serif" font-size="11.00">Log parallel failure</text>
<text text-anchor="middle" x="364.5" y="-142.15" font-family="Helvetica,sans-Serif" font-size="11.00">and continue with</text>
<text text-anchor="middle" x="364.5" y="-130.15" font-family="Helvetica,sans-Serif" font-size="11.00">remaining tasks</text>
</g>
<!-- q_is_parallel_task&#45;&gt;act_log_continue -->
<g id="edge29" class="edge">
<title>q_is_parallel_task&#45;&gt;act_log_continue</title>
<path fill="none" stroke="black" d="M225.66,-236.3C252.81,-218.96 291.91,-193.98 321.7,-174.95"/>
<polygon fill="black" stroke="black" points="323.2,-178.14 329.74,-169.81 319.43,-172.24 323.2,-178.14"/>
<text text-anchor="middle" x="292" y="-198.35" font-family="Helvetica,sans-Serif" font-size="10.00">yes</text>
</g>
<!-- warn_halt -->
<g id="node23" class="node">
<title>warn_halt</title>
<polygon fill="red" stroke="black" points="285.54,-19.73 285.54,-47.63 231.62,-67.35 155.38,-67.35 101.46,-47.63 101.46,-19.73 155.38,0 231.62,0 285.54,-19.73"/>
<text text-anchor="middle" x="193.5" y="-41.23" font-family="Helvetica,sans-Serif" font-size="11.00" fill="white">STOP: Halt execution</text>
<text text-anchor="middle" x="193.5" y="-29.23" font-family="Helvetica,sans-Serif" font-size="11.00" fill="white">Report context, error,</text>
<text text-anchor="middle" x="193.5" y="-17.23" font-family="Helvetica,sans-Serif" font-size="11.00" fill="white">and next action</text>
</g>
<!-- q_critical_failure&#45;&gt;warn_halt -->
<g id="edge31" class="edge">
<title>q_critical_failure&#45;&gt;warn_halt</title>
<path fill="none" stroke="black" d="M193.5,-114.11C193.5,-103.26 193.5,-90.88 193.5,-79.18"/>
<polygon fill="black" stroke="black" points="197,-79.31 193.5,-69.31 190,-79.31 197,-79.31"/>
<text text-anchor="middle" x="201.38" y="-87.1" font-family="Helvetica,sans-Serif" font-size="10.00">yes</text>
</g>
<!-- act_report_failure -->
<g id="node25" class="node">
<title>act_report_failure</title>
<polygon fill="none" stroke="black" points="443.38,-51.68 333.62,-51.68 333.62,-15.68 443.38,-15.68 443.38,-51.68"/>
<text text-anchor="middle" x="388.5" y="-35.23" font-family="Helvetica,sans-Serif" font-size="11.00">Report non&#45;critical</text>
<text text-anchor="middle" x="388.5" y="-23.23" font-family="Helvetica,sans-Serif" font-size="11.00">failure and continue</text>
</g>
<!-- q_critical_failure&#45;&gt;act_report_failure -->
<g id="edge32" class="edge">
<title>q_critical_failure&#45;&gt;act_report_failure</title>
<path fill="none" stroke="black" d="M228.81,-125.51C262.38,-106.42 312.82,-77.73 348,-57.72"/>
<polygon fill="black" stroke="black" points="349.66,-60.8 356.62,-52.81 346.2,-54.71 349.66,-60.8"/>
<text text-anchor="middle" x="302.1" y="-87.1" font-family="Helvetica,sans-Serif" font-size="10.00">no</text>
</g>
<!-- act_log_continue&#45;&gt;q_tasks_remain -->
<g id="edge33" class="edge">
<title>act_log_continue&#45;&gt;q_tasks_remain</title>
<path fill="none" stroke="black" d="M378.02,-168.86C390.3,-190.22 406.5,-224.54 406.5,-256.85 406.5,-909.85 406.5,-909.85 406.5,-909.85 406.5,-946.33 396.94,-986.86 388.44,-1015.69"/>
<polygon fill="black" stroke="black" points="385.15,-1014.48 385.58,-1025.07 391.85,-1016.53 385.15,-1014.48"/>
</g>
<!-- act_report_failure&#45;&gt;q_tasks_remain -->
<g id="edge34" class="edge">
<title>act_report_failure&#45;&gt;q_tasks_remain</title>
<path fill="none" stroke="black" d="M403.8,-52.14C420.38,-72.91 444.5,-109.36 444.5,-145.6 444.5,-909.85 444.5,-909.85 444.5,-909.85 444.5,-951.14 421.28,-993.16 401.79,-1021.17"/>
<polygon fill="black" stroke="black" points="398.98,-1019.08 395.97,-1029.24 404.66,-1023.17 398.98,-1019.08"/>
</g>
<!-- q_aligns_spec -->
<g id="node27" class="node">
<title>q_aligns_spec</title>
<polygon fill="none" stroke="black" points="610.5,-1460.18 490.25,-1428.18 610.5,-1396.18 730.75,-1428.18 610.5,-1460.18"/>
<text text-anchor="middle" x="610.5" y="-1429.73" font-family="Helvetica,sans-Serif" font-size="11.00">Implementation aligns</text>
<text text-anchor="middle" x="610.5" y="-1417.73" font-family="Helvetica,sans-Serif" font-size="11.00">with spec and plan?</text>
</g>
<!-- q_all_required&#45;&gt;q_aligns_spec -->
<g id="edge35" class="edge">
<title>q_all_required&#45;&gt;q_aligns_spec</title>
<path fill="none" stroke="black" d="M505.38,-1539.22C525.84,-1517.81 556.01,-1486.22 578.79,-1462.38"/>
<polygon fill="black" stroke="black" points="581.09,-1465.04 585.47,-1455.39 576.03,-1460.2 581.09,-1465.04"/>
<text text-anchor="middle" x="569.6" y="-1492.3" font-family="Helvetica,sans-Serif" font-size="10.00">yes</text>
</g>
<!-- state_gaps -->
<g id="node29" class="node">
<title>state_gaps</title>
<ellipse fill="none" stroke="black" cx="494.5" cy="-1203.8" rx="64.88" ry="22.63"/>
<text text-anchor="middle" x="494.5" y="-1205.35" font-family="Helvetica,sans-Serif" font-size="11.00">Gaps or failures</text>
<text text-anchor="middle" x="494.5" y="-1193.35" font-family="Helvetica,sans-Serif" font-size="11.00">detected</text>
</g>
<!-- q_all_required&#45;&gt;state_gaps -->
<g id="edge36" class="edge">
<title>q_all_required&#45;&gt;state_gaps</title>
<path fill="none" stroke="black" d="M482.12,-1532.08C481.89,-1511.64 481.62,-1484.32 481.5,-1460.18 481.36,-1431.74 480.54,-1424.61 481.5,-1396.18 483.38,-1340.77 488.31,-1276.49 491.53,-1238.31"/>
<polygon fill="black" stroke="black" points="495.02,-1238.65 492.38,-1228.39 488.04,-1238.05 495.02,-1238.65"/>
<text text-anchor="middle" x="504.28" y="-1368.68" font-family="Helvetica,sans-Serif" font-size="10.00">no, tasks</text>
<text text-anchor="middle" x="504.28" y="-1357.43" font-family="Helvetica,sans-Serif" font-size="10.00">remaining</text>
</g>
<!-- q_tests_pass -->
<g id="node28" class="node">
<title>q_tests_pass</title>
<polygon fill="none" stroke="black" points="721.5,-1337.68 611.75,-1305.68 721.5,-1273.68 831.25,-1305.68 721.5,-1337.68"/>
<text text-anchor="middle" x="721.5" y="-1307.23" font-family="Helvetica,sans-Serif" font-size="11.00">Tests and validation</text>
<text text-anchor="middle" x="721.5" y="-1295.23" font-family="Helvetica,sans-Serif" font-size="11.00">pass?</text>
</g>
<!-- q_aligns_spec&#45;&gt;q_tests_pass -->
<g id="edge37" class="edge">
<title>q_aligns_spec&#45;&gt;q_tests_pass</title>
<path fill="none" stroke="black" d="M633.77,-1401.92C650.38,-1383.88 672.89,-1359.45 690.95,-1339.84"/>
<polygon fill="black" stroke="black" points="693.42,-1342.33 697.62,-1332.61 688.27,-1337.59 693.42,-1342.33"/>
<text text-anchor="middle" x="683.82" y="-1363.05" font-family="Helvetica,sans-Serif" font-size="10.00">yes</text>
</g>
<!-- q_aligns_spec&#45;&gt;state_gaps -->
<g id="edge38" class="edge">
<title>q_aligns_spec&#45;&gt;state_gaps</title>
<path fill="none" stroke="black" d="M582.23,-1403.26C564.27,-1386.6 541.91,-1362.92 528.25,-1337.68 511.2,-1306.17 502.54,-1265.79 498.29,-1237.85"/>
<polygon fill="black" stroke="black" points="501.79,-1237.62 496.93,-1228.2 494.86,-1238.59 501.79,-1237.62"/>
<text text-anchor="middle" x="565.38" y="-1301.8" font-family="Helvetica,sans-Serif" font-size="10.00">no, misalignment</text>
</g>
<!-- q_tests_pass&#45;&gt;state_gaps -->
<g id="edge40" class="edge">
<title>q_tests_pass&#45;&gt;state_gaps</title>
<path fill="none" stroke="black" d="M678.54,-1285.78C640.31,-1268.96 584.39,-1244.35 544.24,-1226.68"/>
<polygon fill="black" stroke="black" points="545.82,-1223.56 535.26,-1222.73 543,-1229.97 545.82,-1223.56"/>
<text text-anchor="middle" x="632" y="-1246.18" font-family="Helvetica,sans-Serif" font-size="10.00">no, failures</text>
</g>
<!-- act_report_status -->
<g id="node30" class="node">
<title>act_report_status</title>
<polygon fill="none" stroke="black" points="783.88,-1221.8 659.12,-1221.8 659.12,-1185.8 783.88,-1185.8 783.88,-1221.8"/>
<text text-anchor="middle" x="721.5" y="-1205.35" font-family="Helvetica,sans-Serif" font-size="11.00">Report implementation</text>
<text text-anchor="middle" x="721.5" y="-1193.35" font-family="Helvetica,sans-Serif" font-size="11.00">status summary</text>
</g>
<!-- q_tests_pass&#45;&gt;act_report_status -->
<g id="edge39" class="edge">
<title>q_tests_pass&#45;&gt;act_report_status</title>
<path fill="none" stroke="black" d="M721.5,-1273.35C721.5,-1260.52 721.5,-1245.77 721.5,-1233.25"/>
<polygon fill="black" stroke="black" points="725,-1233.58 721.5,-1223.58 718,-1233.58 725,-1233.58"/>
<text text-anchor="middle" x="729.38" y="-1246.18" font-family="Helvetica,sans-Serif" font-size="10.00">yes</text>
</g>
<!-- state_gaps&#45;&gt;q_tasks_remain -->
<g id="edge41" class="edge">
<title>state_gaps&#45;&gt;q_tasks_remain</title>
<path fill="none" stroke="black" stroke-dasharray="1,5" d="M477.2,-1181.51C457.54,-1157.32 425.21,-1117.55 402.29,-1089.35"/>
<polygon fill="black" stroke="black" points="405.18,-1087.36 396.16,-1081.81 399.75,-1091.77 405.18,-1087.36"/>
<text text-anchor="middle" x="488.59" y="-1153.67" font-family="Helvetica,sans-Serif" font-size="10.00">address gaps</text>
<text text-anchor="middle" x="488.59" y="-1142.42" font-family="Helvetica,sans-Serif" font-size="10.00">and re&#45;verify</text>
</g>
<!-- done -->
<g id="node31" class="node">
<title>done</title>
<ellipse fill="none" stroke="black" cx="721.5" cy="-1055.39" rx="63.29" ry="63.29"/>
<ellipse fill="none" stroke="black" cx="721.5" cy="-1055.39" rx="67.29" ry="67.29"/>
<text text-anchor="middle" x="721.5" y="-1056.94" font-family="Helvetica,sans-Serif" font-size="11.00">Implementation</text>
<text text-anchor="middle" x="721.5" y="-1044.94" font-family="Helvetica,sans-Serif" font-size="11.00">complete</text>
</g>
<!-- act_report_status&#45;&gt;done -->
<g id="edge42" class="edge">
<title>act_report_status&#45;&gt;done</title>
<path fill="none" stroke="black" d="M721.5,-1185.43C721.5,-1172.39 721.5,-1153.52 721.5,-1134.22"/>
<polygon fill="black" stroke="black" points="725,-1134.36 721.5,-1124.36 718,-1134.36 725,-1134.36"/>
</g>
</g>
</svg>
