<?xml version="1.0" encoding="UTF-8" standalone="no"?>
<!DOCTYPE svg PUBLIC "-//W3C//DTD SVG 1.1//EN"
 "http://www.w3.org/Graphics/SVG/1.1/DTD/svg11.dtd">
<!-- Generated by graphviz version 12.2.1 (0)
 -->
<!-- Title: spec_kit_implement Pages: 1 -->
<svg width="644pt" height="2578pt"
 viewBox="0.00 0.00 643.78 2578.45" xmlns="http://www.w3.org/2000/svg" xmlns:xlink="http://www.w3.org/1999/xlink">
<g id="graph0" class="graph" transform="scale(1 1) rotate(0) translate(4 2574.45)">
<title>spec_kit_implement</title>
<polygon fill="white" stroke="none" points="-4,4 -4,-2574.45 639.78,-2574.45 639.78,4 -4,4"/>
<text text-anchor="middle" x="317.89" y="-2549.35" font-family="Helvetica,sans-Serif" font-size="18.00">Spec Kit: Implementation Execution Flow</text>
<!-- start -->
<g id="node1" class="node">
<title>start</title>
<ellipse fill="none" stroke="black" cx="455.03" cy="-2476.94" rx="62.76" ry="62.76"/>
<ellipse fill="none" stroke="black" cx="455.03" cy="-2476.94" rx="66.76" ry="66.76"/>
<text text-anchor="middle" x="455.03" y="-2478.49" font-family="Helvetica,sans-Serif" font-size="11.00">Begin</text>
<text text-anchor="middle" x="455.03" y="-2466.49" font-family="Helvetica,sans-Serif" font-size="11.00">implementation</text>
</g>
<!-- q_tasks_exist -->
<g id="node2" class="node">
<title>q_tasks_exist</title>
<polygon fill="none" stroke="black" points="455.03,-2373.18 367.78,-2341.18 455.03,-2309.18 542.28,-2341.18 455.03,-2373.18"/>
<text text-anchor="middle" x="455.03" y="-2342.73" font-family="Helvetica,sans-Serif" font-size="11.00">Does tasks.md</text>
<text text-anchor="middle" x="455.03" y="-2330.73" font-family="Helvetica,sans-Serif" font-size="11.00">exist?</text>
</g>
<!-- start&#45;&gt;q_tasks_exist -->
<g id="edge1" class="edge">
<title>start&#45;&gt;q_tasks_exist</title>
<path fill="none" stroke="black" d="M455.03,-2409.85C455.03,-2401.36 455.03,-2392.85 455.03,-2384.87"/>
<polygon fill="black" stroke="black" points="458.53,-2385.14 455.03,-2375.14 451.53,-2385.14 458.53,-2385.14"/>
</g>
<!-- warn_no_tasks -->
<g id="node3" class="node">
<title>warn_no_tasks</title>
<polygon fill="red" stroke="black" points="370.57,-2223.79 370.57,-2244.08 307.58,-2258.43 218.49,-2258.43 155.5,-2244.08 155.5,-2223.79 218.49,-2209.44 307.58,-2209.44 370.57,-2223.79"/>
<text text-anchor="middle" x="263.03" y="-2235.48" font-family="Helvetica,sans-Serif" font-size="11.00" fill="white">STOP: Run spec&#45;kit&#45;tasks</text>
<text text-anchor="middle" x="263.03" y="-2223.48" font-family="Helvetica,sans-Serif" font-size="11.00" fill="white">before implementing</text>
</g>
<!-- q_tasks_exist&#45;&gt;warn_no_tasks -->
<g id="edge3" class="edge">
<title>q_tasks_exist&#45;&gt;warn_no_tasks</title>
<path fill="none" stroke="black" d="M420.71,-2321.37C391.77,-2305.51 349.88,-2282.54 316.54,-2264.27"/>
<polygon fill="black" stroke="black" points="318.27,-2261.22 307.82,-2259.49 314.91,-2267.36 318.27,-2261.22"/>
<text text-anchor="middle" x="370.04" y="-2281.68" font-family="Helvetica,sans-Serif" font-size="10.00">no</text>
</g>
<!-- act_load_context -->
<g id="node4" class="node">
<title>act_load_context</title>
<polygon fill="none" stroke="black" points="521.53,-2261.93 388.53,-2261.93 388.53,-2205.93 521.53,-2205.93 521.53,-2261.93"/>
<text text-anchor="middle" x="455.03" y="-2247.48" font-family="Helvetica,sans-Serif" font-size="11.00">Load tasks.md, plan.md,</text>
<text text-anchor="middle" x="455.03" y="-2235.48" font-family="Helvetica,sans-Serif" font-size="11.00">and optional artifacts</text>
<text text-anchor="middle" x="455.03" y="-2223.48" font-family="Helvetica,sans-Serif" font-size="11.00">(data&#45;model, contracts,</text>
<text text-anchor="middle" x="455.03" y="-2211.48" font-family="Helvetica,sans-Serif" font-size="11.00">research, quickstart)</text>
</g>
<!-- q_tasks_exist&#45;&gt;act_load_context -->
<g id="edge2" class="edge">
<title>q_tasks_exist&#45;&gt;act_load_context</title>
<path fill="none" stroke="black" d="M455.03,-2308.89C455.03,-2297.8 455.03,-2285.19 455.03,-2273.56"/>
<polygon fill="black" stroke="black" points="458.53,-2273.87 455.03,-2263.87 451.53,-2273.87 458.53,-2273.87"/>
<text text-anchor="middle" x="462.91" y="-2281.68" font-family="Helvetica,sans-Serif" font-size="10.00">yes</text>
</g>
<!-- q_checklists_dir -->
<g id="node5" class="node">
<title>q_checklists_dir</title>
<polygon fill="none" stroke="black" points="442.03,-2168.93 348.78,-2136.93 442.03,-2104.93 535.28,-2136.93 442.03,-2168.93"/>
<text text-anchor="middle" x="442.03" y="-2138.48" font-family="Helvetica,sans-Serif" font-size="11.00">Does checklists/</text>
<text text-anchor="middle" x="442.03" y="-2126.48" font-family="Helvetica,sans-Serif" font-size="11.00">directory exist?</text>
</g>
<!-- act_load_context&#45;&gt;q_checklists_dir -->
<g id="edge4" class="edge">
<title>act_load_context&#45;&gt;q_checklists_dir</title>
<path fill="none" stroke="black" d="M451.27,-2205.46C450.16,-2197.3 448.91,-2188.18 447.7,-2179.35"/>
<polygon fill="black" stroke="black" points="451.18,-2178.94 446.35,-2169.51 444.24,-2179.89 451.18,-2178.94"/>
</g>
<!-- q_incomplete_items -->
<g id="node6" class="node">
<title>q_incomplete_items</title>
<polygon fill="none" stroke="black" points="343.03,-2057.68 252.03,-2025.68 343.03,-1993.68 434.03,-2025.68 343.03,-2057.68"/>
<text text-anchor="middle" x="343.03" y="-2027.23" font-family="Helvetica,sans-Serif" font-size="11.00">Any incomplete</text>
<text text-anchor="middle" x="343.03" y="-2015.23" font-family="Helvetica,sans-Serif" font-size="11.00">checklist items?</text>
</g>
<!-- q_checklists_dir&#45;&gt;q_incomplete_items -->
<g id="edge5" class="edge">
<title>q_checklists_dir&#45;&gt;q_incomplete_items</title>
<path fill="none" stroke="black" d="M420.31,-2111.96C406.02,-2096.2 387.18,-2075.4 371.68,-2058.29"/>
<polygon fill="black" stroke="black" points="374.69,-2056.41 365.38,-2051.35 369.51,-2061.11 374.69,-2056.41"/>
<text text-anchor="middle" x="403.38" y="-2077.43" font-family="Helvetica,sans-Serif" font-size="10.00">yes</text>
</g>
<!-- act_verify_ignore -->
<g id="node9" class="node">
<title>act_verify_ignore</title>
<polygon fill="none" stroke="black" points="440.53,-1810.56 337.53,-1810.56 337.53,-1766.56 440.53,-1766.56 440.53,-1810.56"/>
<text text-anchor="middle" x="389.03" y="-1796.11" font-family="Helvetica,sans-Serif" font-size="11.00">Verify and update</text>
<text text-anchor="middle" x="389.03" y="-1784.11" font-family="Helvetica,sans-Serif" font-size="11.00">project ignore files</text>
<text text-anchor="middle" x="389.03" y="-1772.11" font-family="Helvetica,sans-Serif" font-size="11.00">for detected stack</text>
</g>
<!-- q_checklists_dir&#45;&gt;act_verify_ignore -->
<g id="edge6" class="edge">
<title>q_checklists_dir&#45;&gt;act_verify_ignore</title>
<path fill="none" stroke="black" d="M445.71,-2105.85C450.95,-2053.9 457.09,-1944.65 429.03,-1858.43 424.73,-1845.21 417.64,-1831.75 410.61,-1820.28"/>
<polygon fill="black" stroke="black" points="413.67,-1818.58 405.34,-1812.04 407.78,-1822.35 413.67,-1818.58"/>
<text text-anchor="middle" x="454.12" y="-1966.18" font-family="Helvetica,sans-Serif" font-size="10.00">no</text>
</g>
<!-- q_user_approves -->
<g id="node7" class="node">
<title>q_user_approves</title>
<polygon fill="none" stroke="black" points="246.03,-1946.43 143.78,-1902.43 246.03,-1858.43 348.28,-1902.43 246.03,-1946.43"/>
<text text-anchor="middle" x="246.03" y="-1909.98" font-family="Helvetica,sans-Serif" font-size="11.00">User approves</text>
<text text-anchor="middle" x="246.03" y="-1897.98" font-family="Helvetica,sans-Serif" font-size="11.00">proceeding with</text>
<text text-anchor="middle" x="246.03" y="-1885.98" font-family="Helvetica,sans-Serif" font-size="11.00">incomplete items?</text>
</g>
<!-- q_incomplete_items&#45;&gt;q_user_approves -->
<g id="edge7" class="edge">
<title>q_incomplete_items&#45;&gt;q_user_approves</title>
<path fill="none" stroke="black" d="M323.4,-2000.15C310.65,-1984.21 293.72,-1963.04 278.94,-1944.57"/>
<polygon fill="black" stroke="black" points="281.82,-1942.56 272.84,-1936.94 276.35,-1946.93 281.82,-1942.56"/>
<text text-anchor="middle" x="311.1" y="-1966.18" font-family="Helvetica,sans-Serif" font-size="10.00">yes</text>
</g>
<!-- q_incomplete_items&#45;&gt;act_verify_ignore -->
<g id="edge8" class="edge">
<title>q_incomplete_items&#45;&gt;act_verify_ignore</title>
<path fill="none" stroke="black" d="M348.77,-1995.38C357.41,-1951.21 373.71,-1867.88 382.69,-1821.96"/>
<polygon fill="black" stroke="black" points="386.09,-1822.84 384.57,-1812.35 379.22,-1821.5 386.09,-1822.84"/>
<text text-anchor="middle" x="400.14" y="-1898.56" font-family="Helvetica,sans-Serif" font-size="10.00">no, all pass</text>
</g>
<!-- state_blocked -->
<g id="node8" class="node">
<title>state_blocked</title>
<ellipse fill="none" stroke="black" cx="241.03" cy="-1788.56" rx="78.67" ry="22.63"/>
<text text-anchor="middle" x="241.03" y="-1790.11" font-family="Helvetica,sans-Serif" font-size="11.00">Blocked on</text>
<text text-anchor="middle" x="241.03" y="-1778.11" font-family="Helvetica,sans-Serif" font-size="11.00">checklist completion</text>
</g>
<!-- q_user_approves&#45;&gt;state_blocked -->
<g id="edge10" class="edge">
<title>q_user_approves&#45;&gt;state_blocked</title>
<path fill="none" stroke="black" d="M244.13,-1858.82C243.59,-1846.81 243.02,-1833.93 242.51,-1822.58"/>
<polygon fill="black" stroke="black" points="246.02,-1822.74 242.08,-1812.91 239.03,-1823.06 246.02,-1822.74"/>
<text text-anchor="middle" x="248.48" y="-1830.93" font-family="Helvetica,sans-Serif" font-size="10.00">no</text>
</g>
<!-- q_user_approves&#45;&gt;act_verify_ignore -->
<g id="edge9" class="edge">
<title>q_user_approves&#45;&gt;act_verify_ignore</title>
<path fill="none" stroke="black" d="M272.01,-1869.29C283.85,-1855.87 298.6,-1840.75 313.78,-1829.18 319.7,-1824.67 326.2,-1820.41 332.83,-1816.46"/>
<polygon fill="black" stroke="black" points="334.31,-1819.64 341.27,-1811.66 330.85,-1813.56 334.31,-1819.64"/>
<text text-anchor="middle" x="341.91" y="-1830.93" font-family="Helvetica,sans-Serif" font-size="10.00">yes, proceed</text>
</g>
<!-- q_phases_remain -->
<g id="node10" class="node">
<title>q_phases_remain</title>
<polygon fill="none" stroke="black" points="389.03,-1707.43 310.78,-1675.43 389.03,-1643.43 467.28,-1675.43 389.03,-1707.43"/>
<text text-anchor="middle" x="389.03" y="-1676.98" font-family="Helvetica,sans-Serif" font-size="11.00">More phases</text>
<text text-anchor="middle" x="389.03" y="-1664.98" font-family="Helvetica,sans-Serif" font-size="11.00">to execute?</text>
</g>
<!-- act_verify_ignore&#45;&gt;q_phases_remain -->
<g id="edge11" class="edge">
<title>act_verify_ignore&#45;&gt;q_phases_remain</title>
<path fill="none" stroke="black" d="M389.03,-1766.13C389.03,-1752.83 389.03,-1735.28 389.03,-1719.22"/>
<polygon fill="black" stroke="black" points="392.53,-1719.4 389.03,-1709.4 385.53,-1719.4 392.53,-1719.4"/>
</g>
<!-- act_enter_phase -->
<g id="node11" class="node">
<title>act_enter_phase</title>
<polygon fill="none" stroke="black" points="547.78,-1514.18 404.28,-1514.18 404.28,-1478.18 547.78,-1478.18 547.78,-1514.18"/>
<text text-anchor="middle" x="476.03" y="-1498.85" font-family="Helvetica,sans-Serif" font-size="11.00">Enter next phase</text>
<text text-anchor="middle" x="476.03" y="-1486.85" font-family="Helvetica,sans-Serif" font-size="11.00">(setup → stories → polish)</text>
</g>
<!-- q_phases_remain&#45;&gt;act_enter_phase -->
<g id="edge12" class="edge">
<title>q_phases_remain&#45;&gt;act_enter_phase</title>
<path fill="none" stroke="black" d="M401.87,-1648.28C418.16,-1615.08 446.13,-1558.1 462.67,-1524.4"/>
<polygon fill="black" stroke="black" points="465.68,-1526.22 466.94,-1515.7 459.39,-1523.13 465.68,-1526.22"/>
<text text-anchor="middle" x="425.75" y="-1615.93" font-family="Helvetica,sans-Serif" font-size="10.00">yes</text>
</g>
<!-- q_all_required -->
<g id="node26" class="node">
<title>q_all_required</title>
<polygon fill="none" stroke="black" points="196.03,-1596.18 97.53,-1564.18 196.03,-1532.18 294.53,-1564.18 196.03,-1596.18"/>
<text text-anchor="middle" x="196.03" y="-1565.73" font-family="Helvetica,sans-Serif" font-size="11.00">All required tasks</text>
<text text-anchor="middle" x="196.03" y="-1553.73" font-family="Helvetica,sans-Serif" font-size="11.00">complete?</text>
</g>
<!-- q_phases_remain&#45;&gt;q_all_required -->
<g id="edge13" class="edge">
<title>q_phases_remain&#45;&gt;q_all_required</title>
<path fill="none" stroke="black" d="M356.73,-1656.14C325.05,-1638.21 276.47,-1610.71 241.02,-1590.64"/>
<polygon fill="black" stroke="black" points="243.13,-1587.82 232.71,-1585.94 239.68,-1593.91 243.13,-1587.82"/>
<text text-anchor="middle" x="323.44" y="-1615.93" font-family="Helvetica,sans-Serif" font-size="10.00">no, all done</text>
</g>
<!-- q_tasks_remain -->
<g id="node12" class="node">
<title>q_tasks_remain</title>
<polygon fill="none" stroke="black" points="389.03,-1087.39 301.03,-1055.39 389.03,-1023.39 477.03,-1055.39 389.03,-1087.39"/>
<text text-anchor="middle" x="389.03" y="-1056.94" font-family="Helvetica,sans-Serif" font-size="11.00">More tasks in</text>
<text text-anchor="middle" x="389.03" y="-1044.94" font-family="Helvetica,sans-Serif" font-size="11.00">current phase?</text>
</g>
<!-- act_enter_phase&#45;&gt;q_tasks_remain -->
<g id="edge14" class="edge">
<title>act_enter_phase&#45;&gt;q_tasks_remain</title>
<path fill="none" stroke="black" d="M475.37,-1477.89C474.48,-1453.42 473.03,-1407.26 473.03,-1367.93 473.03,-1367.93 473.03,-1367.93 473.03,-1202.8 473.03,-1158.38 443.58,-1115.22 419.55,-1087.42"/>
<polygon fill="black" stroke="black" points="422.27,-1085.2 412.99,-1080.07 417.04,-1089.86 422.27,-1085.2"/>
</g>
<!-- q_tasks_remain&#45;&gt;q_phases_remain -->
<g id="edge16" class="edge">
<title>q_tasks_remain&#45;&gt;q_phases_remain</title>
<path fill="none" stroke="black" d="M389.03,-1087.81C389.03,-1117.45 389.03,-1163.15 389.03,-1202.8 389.03,-1565.18 389.03,-1565.18 389.03,-1565.18 389.03,-1587.22 389.03,-1611.76 389.03,-1631.99"/>
<polygon fill="black" stroke="black" points="385.53,-1631.84 389.03,-1641.84 392.53,-1631.84 385.53,-1631.84"/>
<text text-anchor="middle" x="422.41" y="-1363.05" font-family="Helvetica,sans-Serif" font-size="10.00">no, phase done</text>
</g>
<!-- q_marked_parallel -->
<g id="node13" class="node">
<title>q_marked_parallel</title>
<polygon fill="none" stroke="black" points="321.03,-940.85 227.78,-908.85 321.03,-876.85 414.28,-908.85 321.03,-940.85"/>
<text text-anchor="middle" x="321.03" y="-910.4" font-family="Helvetica,sans-Serif" font-size="11.00">Task marked [P]</text>
<text text-anchor="middle" x="321.03" y="-898.4" font-family="Helvetica,sans-Serif" font-size="11.00">for parallel?</text>
</g>
<!-- q_tasks_remain&#45;&gt;q_marked_parallel -->
<g id="edge15" class="edge">
<title>q_tasks_remain&#45;&gt;q_marked_parallel</title>
<path fill="none" stroke="black" d="M376.4,-1027.54C365.71,-1004.83 350.29,-972.04 338.43,-946.84"/>
<polygon fill="black" stroke="black" points="341.66,-945.48 334.24,-937.93 335.33,-948.46 341.66,-945.48"/>
<text text-anchor="middle" x="356.82" y="-960.6" font-family="Helvetica,sans-Serif" font-size="10.00">yes</text>
</g>
<!-- q_file_conflicts -->
<g id="node14" class="node">
<title>q_file_conflicts</title>
<polygon fill="none" stroke="black" points="321.03,-829.6 213.53,-785.6 321.03,-741.6 428.53,-785.6 321.03,-829.6"/>
<text text-anchor="middle" x="321.03" y="-793.15" font-family="Helvetica,sans-Serif" font-size="11.00">File or dependency</text>
<text text-anchor="middle" x="321.03" y="-781.15" font-family="Helvetica,sans-Serif" font-size="11.00">conflicts with other</text>
<text text-anchor="middle" x="321.03" y="-769.15" font-family="Helvetica,sans-Serif" font-size="11.00">[P] tasks?</text>
</g>
<!-- q_marked_parallel&#45;&gt;q_file_conflicts -->
<g id="edge17" class="edge">
<title>q_marked_parallel&#45;&gt;q_file_conflicts</title>
<path fill="none" stroke="black" d="M321.03,-876.63C321.03,-865.89 321.03,-853.52 321.03,-841.46"/>
<polygon fill="black" stroke="black" points="324.53,-841.57 321.03,-831.57 317.53,-841.57 324.53,-841.57"/>
<text text-anchor="middle" x="328.91" y="-849.35" font-family="Helvetica,sans-Serif" font-size="10.00">yes</text>
</g>
<!-- q_tests_requested -->
<g id="node16" class="node">
<title>q_tests_requested</title>
<polygon fill="none" stroke="black" points="209.03,-683.1 117.28,-651.1 209.03,-619.1 300.78,-651.1 209.03,-683.1"/>
<text text-anchor="middle" x="209.03" y="-652.65" font-family="Helvetica,sans-Serif" font-size="11.00">Tests requested</text>
<text text-anchor="middle" x="209.03" y="-640.65" font-family="Helvetica,sans-Serif" font-size="11.00">for this task?</text>
</g>
<!-- q_marked_parallel&#45;&gt;q_tests_requested -->
<g id="edge18" class="edge">
<title>q_marked_parallel&#45;&gt;q_tests_requested</title>
<path fill="none" stroke="black" d="M258.32,-898.03C218.01,-888.12 168.61,-868.43 143.28,-829.6 121.91,-796.85 131.1,-778.77 143.28,-741.6 150.33,-720.12 164.72,-699.53 178.24,-683.53"/>
<polygon fill="black" stroke="black" points="180.65,-686.1 184.62,-676.28 175.39,-681.48 180.65,-686.1"/>
<text text-anchor="middle" x="173.66" y="-781.73" font-family="Helvetica,sans-Serif" font-size="10.00">no, sequential</text>
</g>
<!-- act_batch_parallel -->
<g id="node15" class="node">
<title>act_batch_parallel</title>
<polygon fill="none" stroke="black" points="381.66,-601.1 276.41,-601.1 276.41,-565.1 381.66,-565.1 381.66,-601.1"/>
<text text-anchor="middle" x="329.03" y="-584.65" font-family="Helvetica,sans-Serif" font-size="11.00">Batch and execute</text>
<text text-anchor="middle" x="329.03" y="-572.65" font-family="Helvetica,sans-Serif" font-size="11.00">parallel task group</text>
</g>
<!-- q_file_conflicts&#45;&gt;act_batch_parallel -->
<g id="edge20" class="edge">
<title>q_file_conflicts&#45;&gt;act_batch_parallel</title>
<path fill="none" stroke="black" d="M322.73,-742.08C324.28,-703.18 326.54,-646.68 327.89,-612.84"/>
<polygon fill="black" stroke="black" points="331.38,-613.12 328.28,-602.99 324.38,-612.84 331.38,-613.12"/>
<text text-anchor="middle" x="341.98" y="-714.1" font-family="Helvetica,sans-Serif" font-size="10.00">no, safe</text>
<text text-anchor="middle" x="341.98" y="-702.85" font-family="Helvetica,sans-Serif" font-size="10.00">to batch</text>
</g>
<!-- q_file_conflicts&#45;&gt;q_tests_requested -->
<g id="edge19" class="edge">
<title>q_file_conflicts&#45;&gt;q_tests_requested</title>
<path fill="none" stroke="black" d="M286.34,-755.39C275.82,-745.77 264.6,-734.69 255.28,-723.6 246.07,-712.63 237.21,-699.73 229.75,-687.92"/>
<polygon fill="black" stroke="black" points="232.86,-686.29 224.63,-679.62 226.9,-689.97 232.86,-686.29"/>
<text text-anchor="middle" x="281.16" y="-714.1" font-family="Helvetica,sans-Serif" font-size="10.00">yes, run</text>
<text text-anchor="middle" x="281.16" y="-702.85" font-family="Helvetica,sans-Serif" font-size="10.00">sequentially</text>
</g>
<!-- q_task_passed -->
<g id="node19" class="node">
<title>q_task_passed</title>
<polygon fill="none" stroke="black" points="251.03,-401.1 177.28,-369.1 251.03,-337.1 324.78,-369.1 251.03,-401.1"/>
<text text-anchor="middle" x="251.03" y="-370.65" font-family="Helvetica,sans-Serif" font-size="11.00">Task</text>
<text text-anchor="middle" x="251.03" y="-358.65" font-family="Helvetica,sans-Serif" font-size="11.00">succeeded?</text>
</g>
<!-- act_batch_parallel&#45;&gt;q_task_passed -->
<g id="edge21" class="edge">
<title>act_batch_parallel&#45;&gt;q_task_passed</title>
<path fill="none" stroke="black" d="M327.74,-565.02C325.15,-537.34 317.87,-481.43 299.03,-438.1 293.55,-425.49 285.52,-412.87 277.58,-401.97"/>
<polygon fill="black" stroke="black" points="280.44,-399.96 271.62,-394.1 274.87,-404.18 280.44,-399.96"/>
</g>
<!-- act_write_test -->
<g id="node17" class="node">
<title>act_write_test</title>
<polygon fill="none" stroke="black" points="299.78,-547.1 210.28,-547.1 210.28,-511.1 299.78,-511.1 299.78,-547.1"/>
<text text-anchor="middle" x="255.03" y="-530.65" font-family="Helvetica,sans-Serif" font-size="11.00">Write test first</text>
<text text-anchor="middle" x="255.03" y="-518.65" font-family="Helvetica,sans-Serif" font-size="11.00">(TDD ordering)</text>
</g>
<!-- q_tests_requested&#45;&gt;act_write_test -->
<g id="edge22" class="edge">
<title>q_tests_requested&#45;&gt;act_write_test</title>
<path fill="none" stroke="black" d="M219.59,-622.57C226.99,-603.25 236.86,-577.51 244.31,-558.09"/>
<polygon fill="black" stroke="black" points="247.52,-559.48 247.83,-548.89 240.98,-556.98 247.52,-559.48"/>
<text text-anchor="middle" x="249.32" y="-579.23" font-family="Helvetica,sans-Serif" font-size="10.00">yes</text>
</g>
<!-- act_execute_task -->
<g id="node18" class="node">
<title>act_execute_task</title>
<polygon fill="none" stroke="black" points="289.78,-474.1 212.28,-474.1 212.28,-438.1 289.78,-438.1 289.78,-474.1"/>
<text text-anchor="middle" x="251.03" y="-451.65" font-family="Helvetica,sans-Serif" font-size="11.00">Execute task</text>
</g>
<!-- q_tests_requested&#45;&gt;act_execute_task -->
<g id="edge23" class="edge">
<title>q_tests_requested&#45;&gt;act_execute_task</title>
<path fill="none" stroke="black" d="M197.16,-623C186.32,-594.05 174.26,-547.43 190.53,-511.1 195.64,-499.69 204.49,-489.7 213.86,-481.51"/>
<polygon fill="black" stroke="black" points="215.77,-484.47 221.35,-475.47 211.37,-479.03 215.77,-484.47"/>
<text text-anchor="middle" x="195.78" y="-525.23" font-family="Helvetica,sans-Serif" font-size="10.00">no</text>
</g>
<!-- act_write_test&#45;&gt;act_execute_task -->
<g id="edge24" class="edge">
<title>act_write_test&#45;&gt;act_execute_task</title>
<path fill="none" stroke="black" d="M254.06,-510.92C253.63,-503.24 253.11,-493.99 252.62,-485.35"/>
<polygon fill="black" stroke="black" points="256.13,-485.43 252.08,-475.64 249.15,-485.82 256.13,-485.43"/>
</g>
<!-- act_execute_task&#45;&gt;q_task_passed -->
<g id="edge25" class="edge">
<title>act_execute_task&#45;&gt;q_task_passed</title>
<path fill="none" stroke="black" d="M251.03,-437.9C251.03,-430.53 251.03,-421.57 251.03,-412.61"/>
<polygon fill="black" stroke="black" points="254.53,-412.89 251.03,-402.89 247.53,-412.89 254.53,-412.89"/>
</g>
<!-- act_mark_complete -->
<g id="node20" class="node">
<title>act_mark_complete</title>
<polygon fill="none" stroke="black" points="130.53,-275.85 51.53,-275.85 51.53,-239.85 130.53,-239.85 130.53,-275.85"/>
<text text-anchor="middle" x="91.03" y="-259.4" font-family="Helvetica,sans-Serif" font-size="11.00">Mark task [X]</text>
<text text-anchor="middle" x="91.03" y="-247.4" font-family="Helvetica,sans-Serif" font-size="11.00">in tasks.md</text>
</g>
<!-- q_task_passed&#45;&gt;act_mark_complete -->
<g id="edge26" class="edge">
<title>q_task_passed&#45;&gt;act_mark_complete</title>
<path fill="none" stroke="black" d="M222.8,-348.82C195.8,-330.39 155.01,-302.53 125.97,-282.71"/>
<polygon fill="black" stroke="black" points="128.09,-279.92 117.86,-277.17 124.15,-285.7 128.09,-279.92"/>
<text text-anchor="middle" x="183.71" y="-309.6" font-family="Helvetica,sans-Serif" font-size="10.00">yes</text>
</g>
<!-- q_is_parallel_task -->
<g id="node21" class="node">
<title>q_is_parallel_task</title>
<polygon fill="none" stroke="black" points="251.03,-289.85 155.53,-257.85 251.03,-225.85 346.53,-257.85 251.03,-289.85"/>
<text text-anchor="middle" x="251.03" y="-259.4" font-family="Helvetica,sans-Serif" font-size="11.00">Was this a</text>
<text text-anchor="middle" x="251.03" y="-247.4" font-family="Helvetica,sans-Serif" font-size="11.00">parallel [P] task?</text>
</g>
<!-- q_task_passed&#45;&gt;q_is_parallel_task -->
<g id="edge27" class="edge">
<title>q_task_passed&#45;&gt;q_is_parallel_task</title>
<path fill="none" stroke="black" d="M251.03,-336.8C251.03,-325.82 251.03,-313.31 251.03,-301.56"/>
<polygon fill="black" stroke="black" points="254.53,-301.68 251.03,-291.68 247.53,-301.68 254.53,-301.68"/>
<text text-anchor="middle" x="256.28" y="-309.6" font-family="Helvetica,sans-Serif" font-size="10.00">no</text>
</g>
<!-- act_mark_complete&#45;&gt;q_tasks_remain -->
<g id="edge28" class="edge">
<title>act_mark_complete&#45;&gt;q_tasks_remain</title>
<path fill="none" stroke="black" d="M90.52,-276.26C89.93,-297.82 89.03,-335.66 89.03,-368.1 89.03,-909.85 89.03,-909.85 89.03,-909.85 89.03,-962.38 240.21,-1013.17 327.93,-1038.21"/>
<polygon fill="black" stroke="black" points="326.79,-1041.53 337.36,-1040.87 328.69,-1034.79 326.79,-1041.53"/>
</g>
<!-- q_critical_failure -->
<g id="node22" class="node">
<title>q_critical_failure</title>
<polygon fill="none" stroke="black" points="244.03,-178.6 143.28,-146.6 244.03,-114.6 344.78,-146.6 244.03,-178.6"/>
<text text-anchor="middle" x="244.03" y="-148.15" font-family="Helvetica,sans-Serif" font-size="11.00">Critical sequential</text>
<text text-anchor="middle" x="244.03" y="-136.15" font-family="Helvetica,sans-Serif" font-size="11.00">failure?</text>
</g>
<!-- q_is_parallel_task&#45;&gt;q_critical_failure -->
<g id="edge30" class="edge">
<title>q_is_parallel_task&#45;&gt;q_critical_failure</title>
<path fill="none" stroke="black" d="M249.06,-226.13C248.34,-214.84 247.51,-201.86 246.73,-189.74"/>
<polygon fill="black" stroke="black" points="250.24,-189.74 246.11,-179.98 243.25,-190.19 250.24,-189.74"/>
<text text-anchor="middle" x="252.99" y="-198.35" font-family="Helvetica,sans-Serif" font-size="10.00">no</text>
</g>
<!-- act_log_continue -->
<g id="node24" class="node">
<title>act_log_continue</title>
<polygon fill="none" stroke="black" points="466.91,-168.6 363.16,-168.6 363.16,-124.6 466.91,-124.6 466.91,-168.6"/>
<text text-anchor="middle" x="415.03" y="-154.15" font-family="Helvetica,sans-Serif" font-size="11.00">Log parallel failure</text>
<text text-anchor="middle" x="415.03" y="-142.15" font-family="Helvetica,sans-Serif" font-size="11.00">and continue with</text>
<text text-anchor="middle" x="415.03" y="-130.15" font-family="Helvetica,sans-Serif" font-size="11.00">remaining tasks</text>
</g>
<!-- q_is_parallel_task&#45;&gt;act_log_continue -->
<g id="edge29" class="edge">
<title>q_is_parallel_task&#45;&gt;act_log_continue</title>
<path fill="none" stroke="black" d="M282.27,-236.05C308.15,-218.8 345.16,-194.15 373.53,-175.25"/>
<polygon fill="black" stroke="black" points="375.15,-178.37 381.54,-169.92 371.27,-172.55 375.15,-178.37"/>
<text text-anchor="middle" x="345.83" y="-198.35" font-family="Helvetica,sans-Serif" font-size="10.00">yes</text>
</g>
<!-- warn_halt -->
<g id="node23" class="node">
<title>warn_halt</title>
<polygon fill="red" stroke="black" points="336.07,-19.73 336.07,-47.63 282.16,-67.35 205.91,-67.35 152,-47.63 152,-19.73 205.91,0 282.16,0 336.07,-19.73"/>
<text text-anchor="middle" x="244.03" y="-41.23" font-family="Helvetica,sans-Serif" font-size="11.00" fill="white">STOP: Halt execution</text>
<text text-anchor="middle" x="244.03" y="-29.23" font-family="Helvetica,sans-Serif" font-size="11.00" fill="white">Report context, error,</text>
<text text-anchor="middle" x="244.03" y="-17.23" font-family="Helvetica,sans-Serif" font-size="11.00" fill="white">and next action</text>
</g>
<!-- q_critical_failure&#45;&gt;warn_halt -->
<g id="edge31" class="edge">
<title>q_critical_failure&#45;&gt;warn_halt</title>
<path fill="none" stroke="black" d="M244.03,-114.11C244.03,-103.26 244.03,-90.88 244.03,-79.18"/>
<polygon fill="black" stroke="black" points="247.53,-79.31 244.03,-69.31 240.53,-79.31 247.53,-79.31"/>
<text text-anchor="middle" x="251.91" y="-87.1" font-family="Helvetica,sans-Serif" font-size="10.00">yes</text>
</g>
<!-- act_report_failure -->
<g id="node25" class="node">
<title>act_report_failure</title>
<polygon fill="none" stroke="black" points="506.91,-51.68 397.16,-51.68 397.16,-15.68 506.91,-15.68 506.91,-51.68"/>
<text text-anchor="middle" x="452.03" y="-35.23" font-family="Helvetica,sans-Serif" font-size="11.00">Report non&#45;critical</text>
<text text-anchor="middle" x="452.03" y="-23.23" font-family="Helvetica,sans-Serif" font-size="11.00">failure and continue</text>
</g>
<!-- q_critical_failure&#45;&gt;act_report_failure -->
<g id="edge32" class="edge">
<title>q_critical_failure&#45;&gt;act_report_failure</title>
<path fill="none" stroke="black" d="M280.74,-126.03C316.82,-106.79 371.83,-77.45 409.73,-57.24"/>
<polygon fill="black" stroke="black" points="410.94,-60.56 418.12,-52.76 407.65,-54.38 410.94,-60.56"/>
<text text-anchor="middle" x="359.52" y="-87.1" font-family="Helvetica,sans-Serif" font-size="10.00">no</text>
</g>
<!-- act_log_continue&#45;&gt;q_tasks_remain -->
<g id="edge33" class="edge">
<title>act_log_continue&#45;&gt;q_tasks_remain</title>
<path fill="none" stroke="black" d="M428.55,-168.86C440.83,-190.22 457.03,-224.54 457.03,-256.85 457.03,-909.85 457.03,-909.85 457.03,-909.85 457.03,-951.03 434.15,-993.07 414.94,-1021.11"/>
<polygon fill="black" stroke="black" points="412.14,-1019.01 409.21,-1029.19 417.85,-1023.06 412.14,-1019.01"/>
</g>
<!-- act_report_failure&#45;&gt;q_tasks_remain -->
<g id="edge34" class="edge">
<title>act_report_failure&#45;&gt;q_tasks_remain</title>
<path fill="none" stroke="black" d="M463.33,-51.93C476.07,-73.1 495.03,-110.49 495.03,-145.6 495.03,-909.85 495.03,-909.85 495.03,-909.85 495.03,-957.43 457.22,-999.74 426.76,-1026.1"/>
<polygon fill="black" stroke="black" points="424.58,-1023.35 419.16,-1032.45 429.07,-1028.72 424.58,-1023.35"/>
</g>
<!-- q_aligns_spec -->
<g id="node27" class="node">
<title>q_aligns_spec</title>
<polygon fill="none" stroke="black" points="196.03,-1460.18 75.78,-1428.18 196.03,-1396.18 316.28,-1428.18 196.03,-1460.18"/>
<text text-anchor="middle" x="196.03" y="-1429.73" font-family="Helvetica,sans-Serif" font-size="11.00">Implementation aligns</text>
<text text-anchor="middle" x="196.03" y="-1417.73" font-family="Helvetica,sans-Serif" font-size="11.00">with spec and plan?</text>
</g>
<!-- q_all_required&#45;&gt;q_aligns_spec -->
<g id="edge35" class="edge">
<title>q_all_required&#45;&gt;q_aligns_spec</title>
<path fill="none" stroke="black" d="M196.03,-1531.76C196.03,-1513.87 196.03,-1491.21 196.03,-1471.74"/>
<polygon fill="black" stroke="black" points="199.53,-1471.91 196.03,-1461.91 192.53,-1471.91 199.53,-1471.91"/>
<text text-anchor="middle" x="203.91" y="-1492.3" font-family="Helvetica,sans-Serif" font-size="10.00">yes</text>
</g>
<!-- state_gaps -->
<g id="node29" class="node">
<title>state_gaps</title>
<ellipse fill="none" stroke="black" cx="240.03" cy="-1203.8" rx="64.88" ry="22.63"/>
<text text-anchor="middle" x="240.03" y="-1205.35" font-family="Helvetica,sans-Serif" font-size="11.00">Gaps or failures</text>
<text text-anchor="middle" x="240.03" y="-1193.35" font-family="Helvetica,sans-Serif" font-size="11.00">detected</text>
</g>
<!-- q_all_required&#45;&gt;state_gaps -->
<g id="edge36" class="edge">
<title>q_all_required&#45;&gt;state_gaps</title>
<path fill="none" stroke="black" d="M161.5,-1543.13C132.67,-1524.81 92.34,-1495.29 67.03,-1460.18 17.18,-1391.01 -27.85,-1342.83 22.03,-1273.68 24.47,-1270.3 117.36,-1241.76 181.09,-1222.5"/>
<polygon fill="black" stroke="black" points="181.83,-1225.93 190.39,-1219.69 179.8,-1219.23 181.83,-1225.93"/>
<text text-anchor="middle" x="32.83" y="-1368.68" font-family="Helvetica,sans-Serif" font-size="10.00">no, tasks</text>
<text text-anchor="middle" x="32.83" y="-1357.43" font-family="Helvetica,sans-Serif" font-size="10.00">remaining</text>
</g>
<!-- q_tests_pass -->
<g id="node28" class="node">
<title>q_tests_pass</title>
<polygon fill="none" stroke="black" points="141.03,-1337.68 31.28,-1305.68 141.03,-1273.68 250.78,-1305.68 141.03,-1337.68"/>
<text text-anchor="middle" x="141.03" y="-1307.23" font-family="Helvetica,sans-Serif" font-size="11.00">Tests and validation</text>
<text text-anchor="middle" x="141.03" y="-1295.23" font-family="Helvetica,sans-Serif" font-size="11.00">pass?</text>
</g>
<!-- q_aligns_spec&#45;&gt;q_tests_pass -->
<g id="edge37" class="edge">
<title>q_aligns_spec&#45;&gt;q_tests_pass</title>
<path fill="none" stroke="black" d="M183.28,-1399.23C175.85,-1382.96 166.38,-1362.22 158.3,-1344.5"/>
<polygon fill="black" stroke="black" points="161.68,-1343.5 154.35,-1335.85 155.32,-1346.4 161.68,-1343.5"/>
<text text-anchor="middle" x="181.33" y="-1363.05" font-family="Helvetica,sans-Serif" font-size="10.00">yes</text>
</g>
<!-- q_aligns_spec&#45;&gt;state_gaps -->
<g id="edge38" class="edge">
<title>q_aligns_spec&#45;&gt;state_gaps</title>
<path fill="none" stroke="black" d="M220.46,-1402.18C235.05,-1385.43 252.22,-1362.05 260.03,-1337.68 270.74,-1304.29 261.98,-1264.31 252.92,-1236.98"/>
<polygon fill="black" stroke="black" points="256.34,-1236.15 249.72,-1227.89 249.74,-1238.48 256.34,-1236.15"/>
<text text-anchor="middle" x="302.09" y="-1301.8" font-family="Helvetica,sans-Serif" font-size="10.00">no, misalignment</text>
</g>
<!-- q_tests_pass&#45;&gt;state_gaps -->
<g id="edge40" class="edge">
<title>q_tests_pass&#45;&gt;state_gaps</title>
<path fill="none" stroke="black" d="M165.25,-1280.25C179.26,-1266.12 196.96,-1248.26 211.62,-1233.47"/>
<polygon fill="black" stroke="black" points="213.79,-1236.25 218.34,-1226.68 208.82,-1231.32 213.79,-1236.25"/>
<text text-anchor="middle" x="223.4" y="-1246.18" font-family="Helvetica,sans-Serif" font-size="10.00">no, failures</text>
</g>
<!-- act_report_status -->
<g id="node31" class="node">
<title>act_report_status</title>
<polygon fill="none" stroke="black" points="157.41,-1221.8 32.66,-1221.8 32.66,-1185.8 157.41,-1185.8 157.41,-1221.8"/>
<text text-anchor="middle" x="95.03" y="-1205.35" font-family="Helvetica,sans-Serif" font-size="11.00">Report implementation</text>
<text text-anchor="middle" x="95.03" y="-1193.35" font-family="Helvetica,sans-Serif" font-size="11.00">status summary</text>
</g>
<!-- q_tests_pass&#45;&gt;act_report_status -->
<g id="edge39" class="edge">
<title>q_tests_pass&#45;&gt;act_report_status</title>
<path fill="none" stroke="black" d="M128.34,-1277.12C121.96,-1263.27 114.25,-1246.53 107.85,-1232.64"/>
<polygon fill="black" stroke="black" points="111.05,-1231.21 103.69,-1223.6 104.69,-1234.14 111.05,-1231.21"/>
<text text-anchor="middle" x="125.91" y="-1246.18" font-family="Helvetica,sans-Serif" font-size="10.00">yes</text>
</g>
<!-- state_gaps&#45;&gt;q_tasks_remain -->
<g id="edge41" class="edge">
<title>state_gaps&#45;&gt;q_tasks_remain</title>
<path fill="none" stroke="black" stroke-dasharray="1,5" d="M227.51,-1181.4C221.9,-1168.8 218.04,-1152.97 225.53,-1140.67 247.07,-1105.34 288.7,-1084.18 324.57,-1071.9"/>
<polygon fill="black" stroke="black" points="325.6,-1075.24 334.04,-1068.83 323.45,-1068.58 325.6,-1075.24"/>
<text text-anchor="middle" x="263.78" y="-1153.67" font-family="Helvetica,sans-Serif" font-size="10.00">execution&#45;only fix</text>
<text text-anchor="middle" x="263.78" y="-1142.42" font-family="Helvetica,sans-Serif" font-size="10.00">and re&#45;verify</text>
</g>
<!-- act_reconcile -->
<g id="node30" class="node">
<title>act_reconcile</title>
<polygon fill="none" stroke="black" points="628.16,-1073.39 495.91,-1073.39 495.91,-1037.39 628.16,-1037.39 628.16,-1073.39"/>
<text text-anchor="middle" x="562.03" y="-1056.94" font-family="Helvetica,sans-Serif" font-size="11.00">Run spec&#45;kit&#45;reconcile</text>
<text text-anchor="middle" x="562.03" y="-1044.94" font-family="Helvetica,sans-Serif" font-size="11.00">with concrete gap report</text>
</g>
<!-- state_gaps&#45;&gt;act_reconcile -->
<g id="edge42" class="edge">
<title>state_gaps&#45;&gt;act_reconcile</title>
<path fill="none" stroke="black" stroke-dasharray="1,5" d="M294.92,-1191.62C346.57,-1179.58 424.89,-1157.36 486.03,-1122.67 505.2,-1111.8 523.89,-1095.59 537.94,-1081.93"/>
<polygon fill="black" stroke="black" points="540.39,-1084.43 544.99,-1074.89 535.44,-1079.48 540.39,-1084.43"/>
<text text-anchor="middle" x="473.12" y="-1148.05" font-family="Helvetica,sans-Serif" font-size="10.00">artifact drift</text>
</g>
<!-- act_reconcile&#45;&gt;q_tasks_exist -->
<g id="edge43" class="edge">
<title>act_reconcile&#45;&gt;q_tasks_exist</title>
<path fill="none" stroke="black" stroke-dasharray="1,5" d="M562.23,-1073.52C562.52,-1100.86 563.03,-1156.03 563.03,-1202.8 563.03,-2234.93 563.03,-2234.93 563.03,-2234.93 563.03,-2271.16 531.49,-2298.97 502.49,-2316.88"/>
<polygon fill="black" stroke="black" points="500.96,-2313.72 494.11,-2321.81 504.51,-2319.76 500.96,-2313.72"/>
<text text-anchor="middle" x="599.41" y="-1738.43" font-family="Helvetica,sans-Serif" font-size="10.00">re&#45;run implement</text>
<text text-anchor="middle" x="599.41" y="-1727.18" font-family="Helvetica,sans-Serif" font-size="10.00">gate</text>
</g>
<!-- done -->
<g id="node32" class="node">
<title>done</title>
<ellipse fill="none" stroke="black" cx="95.03" cy="-1055.39" rx="63.29" ry="63.29"/>
<ellipse fill="none" stroke="black" cx="95.03" cy="-1055.39" rx="67.29" ry="67.29"/>
<text text-anchor="middle" x="95.03" y="-1056.94" font-family="Helvetica,sans-Serif" font-size="11.00">Implementation</text>
<text text-anchor="middle" x="95.03" y="-1044.94" font-family="Helvetica,sans-Serif" font-size="11.00">complete</text>
</g>
<!-- act_report_status&#45;&gt;done -->
<g id="edge44" class="edge">
<title>act_report_status&#45;&gt;done</title>
<path fill="none" stroke="black" d="M95.03,-1185.43C95.03,-1172.39 95.03,-1153.52 95.03,-1134.22"/>
<polygon fill="black" stroke="black" points="98.53,-1134.36 95.03,-1124.36 91.53,-1134.36 98.53,-1134.36"/>
</g>
</g>
</svg>
