<?xml version="1.0" encoding="UTF-8" standalone="no"?>
<!DOCTYPE svg PUBLIC "-//W3C//DTD SVG 1.1//EN"
 "http://www.w3.org/Graphics/SVG/1.1/DTD/svg11.dtd">
<!-- Generated by graphviz version 14.1.4 (20260321.0153)
 -->
<!-- Title: spec_kit_implement Pages: 1 -->
<svg width="644pt" height="2578pt"
 viewBox="0.00 0.00 644.00 2578.00" xmlns="http://www.w3.org/2000/svg" xmlns:xlink="http://www.w3.org/1999/xlink">
<g id="graph0" class="graph" transform="scale(1 1) rotate(0) translate(4 2574.45)">
<title>spec_kit_implement</title>
<polygon fill="white" stroke="none" points="-4,4 -4,-2574.45 640.02,-2574.45 640.02,4 -4,4"/>
<text xml:space="preserve" text-anchor="middle" x="318.01" y="-2549.35" font-family="Helvetica,sans-Serif" font-size="18.00">Spec Kit: Implementation Execution Flow</text>
<!-- start -->
<g id="node1" class="node">
<title>start</title>
<ellipse fill="none" stroke="black" cx="462.27" cy="-2476.94" rx="62.76" ry="62.76"/>
<ellipse fill="none" stroke="black" cx="462.27" cy="-2476.94" rx="66.76" ry="66.76"/>
<text xml:space="preserve" text-anchor="middle" x="462.27" y="-2478.49" font-family="Helvetica,sans-Serif" font-size="11.00">Begin</text>
<text xml:space="preserve" text-anchor="middle" x="462.27" y="-2466.49" font-family="Helvetica,sans-Serif" font-size="11.00">implementation</text>
</g>
<!-- q_tasks_exist -->
<g id="node2" class="node">
<title>q_tasks_exist</title>
<polygon fill="none" stroke="black" points="462.27,-2373.18 375.02,-2341.18 462.27,-2309.18 549.52,-2341.18 462.27,-2373.18"/>
<text xml:space="preserve" text-anchor="middle" x="462.27" y="-2342.73" font-family="Helvetica,sans-Serif" font-size="11.00">Does tasks.md</text>
<text xml:space="preserve" text-anchor="middle" x="462.27" y="-2330.73" font-family="Helvetica,sans-Serif" font-size="11.00">exist?</text>
</g>
<!-- start&#45;&gt;q_tasks_exist -->
<g id="edge1" class="edge">
<title>start&#45;&gt;q_tasks_exist</title>
<path fill="none" stroke="black" d="M462.27,-2409.85C462.27,-2401.36 462.27,-2392.85 462.27,-2384.87"/>
<polygon fill="black" stroke="black" points="465.77,-2385.14 462.27,-2375.14 458.77,-2385.14 465.77,-2385.14"/>
</g>
<!-- warn_no_tasks -->
<g id="node3" class="node">
<title>warn_no_tasks</title>
<polygon fill="red" stroke="black" points="377.81,-2223.79 377.81,-2244.08 314.82,-2258.43 225.73,-2258.43 162.74,-2244.08 162.74,-2223.79 225.73,-2209.44 314.82,-2209.44 377.81,-2223.79"/>
<text xml:space="preserve" text-anchor="middle" x="270.27" y="-2235.48" font-family="Helvetica,sans-Serif" font-size="11.00" fill="white">STOP: Run spec&#45;kit&#45;tasks</text>
<text xml:space="preserve" text-anchor="middle" x="270.27" y="-2223.48" font-family="Helvetica,sans-Serif" font-size="11.00" fill="white">before implementing</text>
</g>
<!-- q_tasks_exist&#45;&gt;warn_no_tasks -->
<g id="edge3" class="edge">
<title>q_tasks_exist&#45;&gt;warn_no_tasks</title>
<path fill="none" stroke="black" d="M427.95,-2321.37C399.01,-2305.51 357.12,-2282.54 323.78,-2264.27"/>
<polygon fill="black" stroke="black" points="325.52,-2261.22 315.06,-2259.49 322.15,-2267.36 325.52,-2261.22"/>
<text xml:space="preserve" text-anchor="middle" x="377.28" y="-2281.68" font-family="Helvetica,sans-Serif" font-size="10.00">no</text>
</g>
<!-- act_load_context -->
<g id="node4" class="node">
<title>act_load_context</title>
<polygon fill="none" stroke="black" points="528.77,-2261.93 395.77,-2261.93 395.77,-2205.93 528.77,-2205.93 528.77,-2261.93"/>
<text xml:space="preserve" text-anchor="middle" x="462.27" y="-2247.48" font-family="Helvetica,sans-Serif" font-size="11.00">Load tasks.md, plan.md,</text>
<text xml:space="preserve" text-anchor="middle" x="462.27" y="-2235.48" font-family="Helvetica,sans-Serif" font-size="11.00">and optional artifacts</text>
<text xml:space="preserve" text-anchor="middle" x="462.27" y="-2223.48" font-family="Helvetica,sans-Serif" font-size="11.00">(data&#45;model, contracts,</text>
<text xml:space="preserve" text-anchor="middle" x="462.27" y="-2211.48" font-family="Helvetica,sans-Serif" font-size="11.00">research, quickstart)</text>
</g>
<!-- q_tasks_exist&#45;&gt;act_load_context -->
<g id="edge2" class="edge">
<title>q_tasks_exist&#45;&gt;act_load_context</title>
<path fill="none" stroke="black" d="M462.27,-2308.89C462.27,-2297.8 462.27,-2285.19 462.27,-2273.56"/>
<polygon fill="black" stroke="black" points="465.77,-2273.87 462.27,-2263.87 458.77,-2273.87 465.77,-2273.87"/>
<text xml:space="preserve" text-anchor="middle" x="470.15" y="-2281.68" font-family="Helvetica,sans-Serif" font-size="10.00">yes</text>
</g>
<!-- q_checklists_dir -->
<g id="node5" class="node">
<title>q_checklists_dir</title>
<polygon fill="none" stroke="black" points="442.27,-2168.93 349.02,-2136.93 442.27,-2104.93 535.52,-2136.93 442.27,-2168.93"/>
<text xml:space="preserve" text-anchor="middle" x="442.27" y="-2138.48" font-family="Helvetica,sans-Serif" font-size="11.00">Does checklists/</text>
<text xml:space="preserve" text-anchor="middle" x="442.27" y="-2126.48" font-family="Helvetica,sans-Serif" font-size="11.00">directory exist?</text>
</g>
<!-- act_load_context&#45;&gt;q_checklists_dir -->
<g id="edge4" class="edge">
<title>act_load_context&#45;&gt;q_checklists_dir</title>
<path fill="none" stroke="black" d="M456.49,-2205.46C454.69,-2196.89 452.66,-2187.25 450.71,-2178"/>
<polygon fill="black" stroke="black" points="454.19,-2177.55 448.71,-2168.49 447.34,-2178.99 454.19,-2177.55"/>
</g>
<!-- q_incomplete_items -->
<g id="node6" class="node">
<title>q_incomplete_items</title>
<polygon fill="none" stroke="black" points="343.27,-2057.68 252.27,-2025.68 343.27,-1993.68 434.27,-2025.68 343.27,-2057.68"/>
<text xml:space="preserve" text-anchor="middle" x="343.27" y="-2027.23" font-family="Helvetica,sans-Serif" font-size="11.00">Any incomplete</text>
<text xml:space="preserve" text-anchor="middle" x="343.27" y="-2015.23" font-family="Helvetica,sans-Serif" font-size="11.00">checklist items?</text>
</g>
<!-- q_checklists_dir&#45;&gt;q_incomplete_items -->
<g id="edge5" class="edge">
<title>q_checklists_dir&#45;&gt;q_incomplete_items</title>
<path fill="none" stroke="black" d="M420.55,-2111.96C406.27,-2096.2 387.42,-2075.4 371.92,-2058.29"/>
<polygon fill="black" stroke="black" points="374.93,-2056.41 365.63,-2051.35 369.75,-2061.11 374.93,-2056.41"/>
<text xml:space="preserve" text-anchor="middle" x="403.62" y="-2077.43" font-family="Helvetica,sans-Serif" font-size="10.00">yes</text>
</g>
<!-- act_verify_ignore -->
<g id="node9" class="node">
<title>act_verify_ignore</title>
<polygon fill="none" stroke="black" points="440.77,-1810.56 337.77,-1810.56 337.77,-1766.56 440.77,-1766.56 440.77,-1810.56"/>
<text xml:space="preserve" text-anchor="middle" x="389.27" y="-1796.11" font-family="Helvetica,sans-Serif" font-size="11.00">Verify and update</text>
<text xml:space="preserve" text-anchor="middle" x="389.27" y="-1784.11" font-family="Helvetica,sans-Serif" font-size="11.00">project ignore files</text>
<text xml:space="preserve" text-anchor="middle" x="389.27" y="-1772.11" font-family="Helvetica,sans-Serif" font-size="11.00">for detected stack</text>
</g>
<!-- q_checklists_dir&#45;&gt;act_verify_ignore -->
<g id="edge6" class="edge">
<title>q_checklists_dir&#45;&gt;act_verify_ignore</title>
<path fill="none" stroke="black" d="M445.95,-2105.85C451.19,-2053.9 457.34,-1944.65 429.27,-1858.43 424.97,-1845.21 417.88,-1831.75 410.85,-1820.28"/>
<polygon fill="black" stroke="black" points="413.92,-1818.58 405.58,-1812.04 408.02,-1822.35 413.92,-1818.58"/>
<text xml:space="preserve" text-anchor="middle" x="454.36" y="-1966.18" font-family="Helvetica,sans-Serif" font-size="10.00">no</text>
</g>
<!-- q_user_approves -->
<g id="node7" class="node">
<title>q_user_approves</title>
<polygon fill="none" stroke="black" points="246.27,-1946.43 144.02,-1902.43 246.27,-1858.43 348.52,-1902.43 246.27,-1946.43"/>
<text xml:space="preserve" text-anchor="middle" x="246.27" y="-1909.98" font-family="Helvetica,sans-Serif" font-size="11.00">User approves</text>
<text xml:space="preserve" text-anchor="middle" x="246.27" y="-1897.98" font-family="Helvetica,sans-Serif" font-size="11.00">proceeding with</text>
<text xml:space="preserve" text-anchor="middle" x="246.27" y="-1885.98" font-family="Helvetica,sans-Serif" font-size="11.00">incomplete items?</text>
</g>
<!-- q_incomplete_items&#45;&gt;q_user_approves -->
<g id="edge7" class="edge">
<title>q_incomplete_items&#45;&gt;q_user_approves</title>
<path fill="none" stroke="black" d="M323.65,-2000.15C310.9,-1984.21 293.96,-1963.04 279.19,-1944.57"/>
<polygon fill="black" stroke="black" points="282.06,-1942.56 273.08,-1936.94 276.59,-1946.93 282.06,-1942.56"/>
<text xml:space="preserve" text-anchor="middle" x="311.34" y="-1966.18" font-family="Helvetica,sans-Serif" font-size="10.00">yes</text>
</g>
<!-- q_incomplete_items&#45;&gt;act_verify_ignore -->
<g id="edge8" class="edge">
<title>q_incomplete_items&#45;&gt;act_verify_ignore</title>
<path fill="none" stroke="black" d="M349.01,-1995.38C357.65,-1951.21 373.95,-1867.88 382.94,-1821.96"/>
<polygon fill="black" stroke="black" points="386.33,-1822.84 384.81,-1812.35 379.46,-1821.5 386.33,-1822.84"/>
<text xml:space="preserve" text-anchor="middle" x="400.38" y="-1898.56" font-family="Helvetica,sans-Serif" font-size="10.00">no, all pass</text>
</g>
<!-- state_blocked -->
<g id="node8" class="node">
<title>state_blocked</title>
<ellipse fill="none" stroke="black" cx="241.27" cy="-1788.56" rx="78.67" ry="22.63"/>
<text xml:space="preserve" text-anchor="middle" x="241.27" y="-1790.11" font-family="Helvetica,sans-Serif" font-size="11.00">Blocked on</text>
<text xml:space="preserve" text-anchor="middle" x="241.27" y="-1778.11" font-family="Helvetica,sans-Serif" font-size="11.00">checklist completion</text>
</g>
<!-- q_user_approves&#45;&gt;state_blocked -->
<g id="edge10" class="edge">
<title>q_user_approves&#45;&gt;state_blocked</title>
<path fill="none" stroke="black" d="M244.37,-1858.82C243.83,-1846.81 243.26,-1833.93 242.75,-1822.58"/>
<polygon fill="black" stroke="black" points="246.26,-1822.74 242.32,-1812.91 239.27,-1823.06 246.26,-1822.74"/>
<text xml:space="preserve" text-anchor="middle" x="248.73" y="-1830.93" font-family="Helvetica,sans-Serif" font-size="10.00">no</text>
</g>
<!-- q_user_approves&#45;&gt;act_verify_ignore -->
<g id="edge9" class="edge">
<title>q_user_approves&#45;&gt;act_verify_ignore</title>
<path fill="none" stroke="black" d="M272.25,-1869.29C284.09,-1855.87 298.84,-1840.75 314.02,-1829.18 319.94,-1824.67 326.45,-1820.41 333.08,-1816.46"/>
<polygon fill="black" stroke="black" points="334.55,-1819.64 341.51,-1811.66 331.09,-1813.56 334.55,-1819.64"/>
<text xml:space="preserve" text-anchor="middle" x="342.15" y="-1830.93" font-family="Helvetica,sans-Serif" font-size="10.00">yes, proceed</text>
</g>
<!-- q_phases_remain -->
<g id="node10" class="node">
<title>q_phases_remain</title>
<polygon fill="none" stroke="black" points="389.27,-1707.43 311.02,-1675.43 389.27,-1643.43 467.52,-1675.43 389.27,-1707.43"/>
<text xml:space="preserve" text-anchor="middle" x="389.27" y="-1676.98" font-family="Helvetica,sans-Serif" font-size="11.00">More phases</text>
<text xml:space="preserve" text-anchor="middle" x="389.27" y="-1664.98" font-family="Helvetica,sans-Serif" font-size="11.00">to execute?</text>
</g>
<!-- act_verify_ignore&#45;&gt;q_phases_remain -->
<g id="edge11" class="edge">
<title>act_verify_ignore&#45;&gt;q_phases_remain</title>
<path fill="none" stroke="black" d="M389.27,-1766.13C389.27,-1752.83 389.27,-1735.28 389.27,-1719.22"/>
<polygon fill="black" stroke="black" points="392.77,-1719.4 389.27,-1709.4 385.77,-1719.4 392.77,-1719.4"/>
</g>
<!-- act_enter_phase -->
<g id="node11" class="node">
<title>act_enter_phase</title>
<polygon fill="none" stroke="black" points="548.02,-1514.18 404.52,-1514.18 404.52,-1478.18 548.02,-1478.18 548.02,-1514.18"/>
<text xml:space="preserve" text-anchor="middle" x="476.27" y="-1498.85" font-family="Helvetica,sans-Serif" font-size="11.00">Enter next phase</text>
<text xml:space="preserve" text-anchor="middle" x="476.27" y="-1486.85" font-family="Helvetica,sans-Serif" font-size="11.00">(setup → stories → polish)</text>
</g>
<!-- q_phases_remain&#45;&gt;act_enter_phase -->
<g id="edge12" class="edge">
<title>q_phases_remain&#45;&gt;act_enter_phase</title>
<path fill="none" stroke="black" d="M402.11,-1648.28C418.4,-1615.08 446.37,-1558.1 462.91,-1524.4"/>
<polygon fill="black" stroke="black" points="465.92,-1526.22 467.18,-1515.7 459.64,-1523.13 465.92,-1526.22"/>
<text xml:space="preserve" text-anchor="middle" x="426" y="-1615.93" font-family="Helvetica,sans-Serif" font-size="10.00">yes</text>
</g>
<!-- q_all_required -->
<g id="node26" class="node">
<title>q_all_required</title>
<polygon fill="none" stroke="black" points="194.27,-1596.18 95.77,-1564.18 194.27,-1532.18 292.77,-1564.18 194.27,-1596.18"/>
<text xml:space="preserve" text-anchor="middle" x="194.27" y="-1565.73" font-family="Helvetica,sans-Serif" font-size="11.00">All required tasks</text>
<text xml:space="preserve" text-anchor="middle" x="194.27" y="-1553.73" font-family="Helvetica,sans-Serif" font-size="11.00">complete?</text>
</g>
<!-- q_phases_remain&#45;&gt;q_all_required -->
<g id="edge13" class="edge">
<title>q_phases_remain&#45;&gt;q_all_required</title>
<path fill="none" stroke="black" d="M357.07,-1656.39C325.04,-1638.44 275.59,-1610.74 239.6,-1590.57"/>
<polygon fill="black" stroke="black" points="241.58,-1587.67 231.15,-1585.84 238.16,-1593.78 241.58,-1587.67"/>
<text xml:space="preserve" text-anchor="middle" x="322.75" y="-1615.93" font-family="Helvetica,sans-Serif" font-size="10.00">no, all done</text>
</g>
<!-- q_tasks_remain -->
<g id="node12" class="node">
<title>q_tasks_remain</title>
<polygon fill="none" stroke="black" points="389.27,-1087.39 301.27,-1055.39 389.27,-1023.39 477.27,-1055.39 389.27,-1087.39"/>
<text xml:space="preserve" text-anchor="middle" x="389.27" y="-1056.94" font-family="Helvetica,sans-Serif" font-size="11.00">More tasks in</text>
<text xml:space="preserve" text-anchor="middle" x="389.27" y="-1044.94" font-family="Helvetica,sans-Serif" font-size="11.00">current phase?</text>
</g>
<!-- act_enter_phase&#45;&gt;q_tasks_remain -->
<g id="edge14" class="edge">
<title>act_enter_phase&#45;&gt;q_tasks_remain</title>
<path fill="none" stroke="black" d="M475.83,-1477.89C475.24,-1453.42 474.27,-1407.26 474.27,-1367.93 474.27,-1367.93 474.27,-1367.93 474.27,-1202.8 474.27,-1158.25 444.47,-1115.12 420.16,-1087.35"/>
<polygon fill="black" stroke="black" points="422.82,-1085.08 413.52,-1080.01 417.63,-1089.78 422.82,-1085.08"/>
</g>
<!-- q_tasks_remain&#45;&gt;q_phases_remain -->
<g id="edge16" class="edge">
<title>q_tasks_remain&#45;&gt;q_phases_remain</title>
<path fill="none" stroke="black" d="M389.27,-1087.81C389.27,-1117.45 389.27,-1163.15 389.27,-1202.8 389.27,-1565.18 389.27,-1565.18 389.27,-1565.18 389.27,-1587.22 389.27,-1611.76 389.27,-1631.99"/>
<polygon fill="black" stroke="black" points="385.77,-1631.84 389.27,-1641.84 392.77,-1631.84 385.77,-1631.84"/>
<text xml:space="preserve" text-anchor="middle" x="422.65" y="-1363.05" font-family="Helvetica,sans-Serif" font-size="10.00">no, phase done</text>
</g>
<!-- q_marked_parallel -->
<g id="node13" class="node">
<title>q_marked_parallel</title>
<polygon fill="none" stroke="black" points="294.27,-940.85 201.02,-908.85 294.27,-876.85 387.52,-908.85 294.27,-940.85"/>
<text xml:space="preserve" text-anchor="middle" x="294.27" y="-910.4" font-family="Helvetica,sans-Serif" font-size="11.00">Task marked [P]</text>
<text xml:space="preserve" text-anchor="middle" x="294.27" y="-898.4" font-family="Helvetica,sans-Serif" font-size="11.00">for parallel?</text>
</g>
<!-- q_tasks_remain&#45;&gt;q_marked_parallel -->
<g id="edge15" class="edge">
<title>q_tasks_remain&#45;&gt;q_marked_parallel</title>
<path fill="none" stroke="black" d="M372.73,-1029.21C357.36,-1005.83 334.34,-970.8 317.2,-944.74"/>
<polygon fill="black" stroke="black" points="320.2,-942.92 311.78,-936.49 314.35,-946.77 320.2,-942.92"/>
<text xml:space="preserve" text-anchor="middle" x="341.14" y="-960.6" font-family="Helvetica,sans-Serif" font-size="10.00">yes</text>
</g>
<!-- q_file_conflicts -->
<g id="node14" class="node">
<title>q_file_conflicts</title>
<polygon fill="none" stroke="black" points="294.27,-829.6 186.77,-785.6 294.27,-741.6 401.77,-785.6 294.27,-829.6"/>
<text xml:space="preserve" text-anchor="middle" x="294.27" y="-793.15" font-family="Helvetica,sans-Serif" font-size="11.00">File or dependency</text>
<text xml:space="preserve" text-anchor="middle" x="294.27" y="-781.15" font-family="Helvetica,sans-Serif" font-size="11.00">conflicts with other</text>
<text xml:space="preserve" text-anchor="middle" x="294.27" y="-769.15" font-family="Helvetica,sans-Serif" font-size="11.00">[P] tasks?</text>
</g>
<!-- q_marked_parallel&#45;&gt;q_file_conflicts -->
<g id="edge17" class="edge">
<title>q_marked_parallel&#45;&gt;q_file_conflicts</title>
<path fill="none" stroke="black" d="M294.27,-876.63C294.27,-865.89 294.27,-853.52 294.27,-841.46"/>
<polygon fill="black" stroke="black" points="297.77,-841.57 294.27,-831.57 290.77,-841.57 297.77,-841.57"/>
<text xml:space="preserve" text-anchor="middle" x="302.15" y="-849.35" font-family="Helvetica,sans-Serif" font-size="10.00">yes</text>
</g>
<!-- q_tests_requested -->
<g id="node16" class="node">
<title>q_tests_requested</title>
<polygon fill="none" stroke="black" points="182.27,-683.1 90.52,-651.1 182.27,-619.1 274.02,-651.1 182.27,-683.1"/>
<text xml:space="preserve" text-anchor="middle" x="182.27" y="-652.65" font-family="Helvetica,sans-Serif" font-size="11.00">Tests requested</text>
<text xml:space="preserve" text-anchor="middle" x="182.27" y="-640.65" font-family="Helvetica,sans-Serif" font-size="11.00">for this task?</text>
</g>
<!-- q_marked_parallel&#45;&gt;q_tests_requested -->
<g id="edge18" class="edge">
<title>q_marked_parallel&#45;&gt;q_tests_requested</title>
<path fill="none" stroke="black" d="M231.56,-898.03C191.25,-888.12 141.86,-868.43 116.52,-829.6 95.15,-796.85 104.34,-778.77 116.52,-741.6 123.57,-720.12 137.96,-699.53 151.49,-683.53"/>
<polygon fill="black" stroke="black" points="153.89,-686.1 157.86,-676.28 148.63,-681.48 153.89,-686.1"/>
<text xml:space="preserve" text-anchor="middle" x="146.9" y="-781.73" font-family="Helvetica,sans-Serif" font-size="10.00">no, sequential</text>
</g>
<!-- act_batch_parallel -->
<g id="node15" class="node">
<title>act_batch_parallel</title>
<polygon fill="none" stroke="black" points="351.9,-601.1 246.65,-601.1 246.65,-565.1 351.9,-565.1 351.9,-601.1"/>
<text xml:space="preserve" text-anchor="middle" x="299.27" y="-584.65" font-family="Helvetica,sans-Serif" font-size="11.00">Batch and execute</text>
<text xml:space="preserve" text-anchor="middle" x="299.27" y="-572.65" font-family="Helvetica,sans-Serif" font-size="11.00">parallel task group</text>
</g>
<!-- q_file_conflicts&#45;&gt;act_batch_parallel -->
<g id="edge20" class="edge">
<title>q_file_conflicts&#45;&gt;act_batch_parallel</title>
<path fill="none" stroke="black" d="M295.35,-741.59C296.32,-702.65 297.72,-646.38 298.56,-612.7"/>
<polygon fill="black" stroke="black" points="302.06,-612.99 298.81,-602.9 295.06,-612.81 302.06,-612.99"/>
<text xml:space="preserve" text-anchor="middle" x="313.97" y="-714.1" font-family="Helvetica,sans-Serif" font-size="10.00">no, safe</text>
<text xml:space="preserve" text-anchor="middle" x="313.97" y="-702.85" font-family="Helvetica,sans-Serif" font-size="10.00">to batch</text>
</g>
<!-- q_file_conflicts&#45;&gt;q_tests_requested -->
<g id="edge19" class="edge">
<title>q_file_conflicts&#45;&gt;q_tests_requested</title>
<path fill="none" stroke="black" d="M259.58,-755.39C249.06,-745.77 237.84,-734.69 228.52,-723.6 219.31,-712.63 210.45,-699.73 202.99,-687.92"/>
<polygon fill="black" stroke="black" points="206.1,-686.29 197.87,-679.62 200.14,-689.97 206.1,-686.29"/>
<text xml:space="preserve" text-anchor="middle" x="254.4" y="-714.1" font-family="Helvetica,sans-Serif" font-size="10.00">yes, run</text>
<text xml:space="preserve" text-anchor="middle" x="254.4" y="-702.85" font-family="Helvetica,sans-Serif" font-size="10.00">sequentially</text>
</g>
<!-- q_task_passed -->
<g id="node19" class="node">
<title>q_task_passed</title>
<polygon fill="none" stroke="black" points="225.27,-401.1 151.52,-369.1 225.27,-337.1 299.02,-369.1 225.27,-401.1"/>
<text xml:space="preserve" text-anchor="middle" x="225.27" y="-370.65" font-family="Helvetica,sans-Serif" font-size="11.00">Task</text>
<text xml:space="preserve" text-anchor="middle" x="225.27" y="-358.65" font-family="Helvetica,sans-Serif" font-size="11.00">succeeded?</text>
</g>
<!-- act_batch_parallel&#45;&gt;q_task_passed -->
<g id="edge21" class="edge">
<title>act_batch_parallel&#45;&gt;q_task_passed</title>
<path fill="none" stroke="black" d="M298.57,-565.02C296.92,-537.35 291.43,-481.45 273.27,-438.1 267.96,-425.42 259.97,-412.78 252.02,-401.89"/>
<polygon fill="black" stroke="black" points="254.88,-399.86 246.04,-394.02 249.31,-404.1 254.88,-399.86"/>
</g>
<!-- act_write_test -->
<g id="node17" class="node">
<title>act_write_test</title>
<polygon fill="none" stroke="black" points="271.02,-547.1 181.52,-547.1 181.52,-511.1 271.02,-511.1 271.02,-547.1"/>
<text xml:space="preserve" text-anchor="middle" x="226.27" y="-530.65" font-family="Helvetica,sans-Serif" font-size="11.00">Write test first</text>
<text xml:space="preserve" text-anchor="middle" x="226.27" y="-518.65" font-family="Helvetica,sans-Serif" font-size="11.00">(TDD ordering)</text>
</g>
<!-- q_tests_requested&#45;&gt;act_write_test -->
<g id="edge22" class="edge">
<title>q_tests_requested&#45;&gt;act_write_test</title>
<path fill="none" stroke="black" d="M192.48,-622.27C199.57,-602.94 208.98,-577.28 216.06,-557.95"/>
<polygon fill="black" stroke="black" points="219.26,-559.41 219.41,-548.81 212.69,-557 219.26,-559.41"/>
<text xml:space="preserve" text-anchor="middle" x="221.15" y="-579.23" font-family="Helvetica,sans-Serif" font-size="10.00">yes</text>
</g>
<!-- act_execute_task -->
<g id="node18" class="node">
<title>act_execute_task</title>
<polygon fill="none" stroke="black" points="264.02,-474.1 186.52,-474.1 186.52,-438.1 264.02,-438.1 264.02,-474.1"/>
<text xml:space="preserve" text-anchor="middle" x="225.27" y="-451.65" font-family="Helvetica,sans-Serif" font-size="11.00">Execute task</text>
</g>
<!-- q_tests_requested&#45;&gt;act_execute_task -->
<g id="edge23" class="edge">
<title>q_tests_requested&#45;&gt;act_execute_task</title>
<path fill="none" stroke="black" d="M169.73,-623.22C158.12,-594.25 144.99,-547.41 161.77,-511.1 167.12,-499.54 176.3,-489.54 186.05,-481.4"/>
<polygon fill="black" stroke="black" points="188.08,-484.25 193.86,-475.38 183.8,-478.71 188.08,-484.25"/>
<text xml:space="preserve" text-anchor="middle" x="167.02" y="-525.23" font-family="Helvetica,sans-Serif" font-size="10.00">no</text>
</g>
<!-- act_write_test&#45;&gt;act_execute_task -->
<g id="edge24" class="edge">
<title>act_write_test&#45;&gt;act_execute_task</title>
<path fill="none" stroke="black" d="M226.03,-510.92C225.93,-503.33 225.8,-494.2 225.68,-485.64"/>
<polygon fill="black" stroke="black" points="229.18,-485.59 225.54,-475.64 222.18,-485.69 229.18,-485.59"/>
</g>
<!-- act_execute_task&#45;&gt;q_task_passed -->
<g id="edge25" class="edge">
<title>act_execute_task&#45;&gt;q_task_passed</title>
<path fill="none" stroke="black" d="M225.27,-437.9C225.27,-430.53 225.27,-421.57 225.27,-412.61"/>
<polygon fill="black" stroke="black" points="228.77,-412.89 225.27,-402.89 221.77,-412.89 228.77,-412.89"/>
</g>
<!-- act_mark_complete -->
<g id="node20" class="node">
<title>act_mark_complete</title>
<polygon fill="none" stroke="black" points="106.77,-275.85 27.77,-275.85 27.77,-239.85 106.77,-239.85 106.77,-275.85"/>
<text xml:space="preserve" text-anchor="middle" x="67.27" y="-259.4" font-family="Helvetica,sans-Serif" font-size="11.00">Mark task [X]</text>
<text xml:space="preserve" text-anchor="middle" x="67.27" y="-247.4" font-family="Helvetica,sans-Serif" font-size="11.00">in tasks.md</text>
</g>
<!-- q_task_passed&#45;&gt;act_mark_complete -->
<g id="edge26" class="edge">
<title>q_task_passed&#45;&gt;act_mark_complete</title>
<path fill="none" stroke="black" d="M197.39,-348.82C170.73,-330.39 130.45,-302.53 101.78,-282.71"/>
<polygon fill="black" stroke="black" points="103.99,-279.99 93.78,-277.18 100.01,-285.74 103.99,-279.99"/>
<text xml:space="preserve" text-anchor="middle" x="158.89" y="-309.6" font-family="Helvetica,sans-Serif" font-size="10.00">yes</text>
</g>
<!-- q_is_parallel_task -->
<g id="node21" class="node">
<title>q_is_parallel_task</title>
<polygon fill="none" stroke="black" points="225.27,-289.85 129.77,-257.85 225.27,-225.85 320.77,-257.85 225.27,-289.85"/>
<text xml:space="preserve" text-anchor="middle" x="225.27" y="-259.4" font-family="Helvetica,sans-Serif" font-size="11.00">Was this a</text>
<text xml:space="preserve" text-anchor="middle" x="225.27" y="-247.4" font-family="Helvetica,sans-Serif" font-size="11.00">parallel [P] task?</text>
</g>
<!-- q_task_passed&#45;&gt;q_is_parallel_task -->
<g id="edge27" class="edge">
<title>q_task_passed&#45;&gt;q_is_parallel_task</title>
<path fill="none" stroke="black" d="M225.27,-336.8C225.27,-325.82 225.27,-313.31 225.27,-301.56"/>
<polygon fill="black" stroke="black" points="228.77,-301.68 225.27,-291.68 221.77,-301.68 228.77,-301.68"/>
<text xml:space="preserve" text-anchor="middle" x="230.52" y="-309.6" font-family="Helvetica,sans-Serif" font-size="10.00">no</text>
</g>
<!-- act_mark_complete&#45;&gt;q_tasks_remain -->
<g id="edge28" class="edge">
<title>act_mark_complete&#45;&gt;q_tasks_remain</title>
<path fill="none" stroke="black" d="M65.99,-276.25C64.51,-297.8 62.27,-335.63 62.27,-368.1 62.27,-909.85 62.27,-909.85 62.27,-909.85 62.27,-939.15 240.09,-1003.83 333.47,-1035.78"/>
<polygon fill="black" stroke="black" points="332.12,-1039.02 342.72,-1038.93 334.38,-1032.39 332.12,-1039.02"/>
</g>
<!-- q_critical_failure -->
<g id="node22" class="node">
<title>q_critical_failure</title>
<polygon fill="none" stroke="black" points="218.27,-178.6 117.52,-146.6 218.27,-114.6 319.02,-146.6 218.27,-178.6"/>
<text xml:space="preserve" text-anchor="middle" x="218.27" y="-148.15" font-family="Helvetica,sans-Serif" font-size="11.00">Critical sequential</text>
<text xml:space="preserve" text-anchor="middle" x="218.27" y="-136.15" font-family="Helvetica,sans-Serif" font-size="11.00">failure?</text>
</g>
<!-- q_is_parallel_task&#45;&gt;q_critical_failure -->
<g id="edge30" class="edge">
<title>q_is_parallel_task&#45;&gt;q_critical_failure</title>
<path fill="none" stroke="black" d="M223.31,-226.13C222.58,-214.84 221.75,-201.86 220.97,-189.74"/>
<polygon fill="black" stroke="black" points="224.48,-189.74 220.35,-179.98 217.5,-190.19 224.48,-189.74"/>
<text xml:space="preserve" text-anchor="middle" x="227.23" y="-198.35" font-family="Helvetica,sans-Serif" font-size="10.00">no</text>
</g>
<!-- act_log_continue -->
<g id="node24" class="node">
<title>act_log_continue</title>
<polygon fill="none" stroke="black" points="441.15,-168.6 337.4,-168.6 337.4,-124.6 441.15,-124.6 441.15,-168.6"/>
<text xml:space="preserve" text-anchor="middle" x="389.27" y="-154.15" font-family="Helvetica,sans-Serif" font-size="11.00">Log parallel failure</text>
<text xml:space="preserve" text-anchor="middle" x="389.27" y="-142.15" font-family="Helvetica,sans-Serif" font-size="11.00">and continue with</text>
<text xml:space="preserve" text-anchor="middle" x="389.27" y="-130.15" font-family="Helvetica,sans-Serif" font-size="11.00">remaining tasks</text>
</g>
<!-- q_is_parallel_task&#45;&gt;act_log_continue -->
<g id="edge29" class="edge">
<title>q_is_parallel_task&#45;&gt;act_log_continue</title>
<path fill="none" stroke="black" d="M256.51,-236.05C282.39,-218.8 319.4,-194.15 347.77,-175.25"/>
<polygon fill="black" stroke="black" points="349.4,-178.37 355.78,-169.92 345.51,-172.55 349.4,-178.37"/>
<text xml:space="preserve" text-anchor="middle" x="320.07" y="-198.35" font-family="Helvetica,sans-Serif" font-size="10.00">yes</text>
</g>
<!-- warn_halt -->
<g id="node23" class="node">
<title>warn_halt</title>
<polygon fill="red" stroke="black" points="310.31,-19.73 310.31,-47.63 256.4,-67.35 180.15,-67.35 126.24,-47.63 126.24,-19.73 180.15,0 256.4,0 310.31,-19.73"/>
<text xml:space="preserve" text-anchor="middle" x="218.27" y="-41.23" font-family="Helvetica,sans-Serif" font-size="11.00" fill="white">STOP: Halt execution</text>
<text xml:space="preserve" text-anchor="middle" x="218.27" y="-29.23" font-family="Helvetica,sans-Serif" font-size="11.00" fill="white">Report context, error,</text>
<text xml:space="preserve" text-anchor="middle" x="218.27" y="-17.23" font-family="Helvetica,sans-Serif" font-size="11.00" fill="white">and next action</text>
</g>
<!-- q_critical_failure&#45;&gt;warn_halt -->
<g id="edge31" class="edge">
<title>q_critical_failure&#45;&gt;warn_halt</title>
<path fill="none" stroke="black" d="M218.27,-114.11C218.27,-103.26 218.27,-90.88 218.27,-79.18"/>
<polygon fill="black" stroke="black" points="221.77,-79.31 218.27,-69.31 214.77,-79.31 221.77,-79.31"/>
<text xml:space="preserve" text-anchor="middle" x="226.15" y="-87.1" font-family="Helvetica,sans-Serif" font-size="10.00">yes</text>
</g>
<!-- act_report_failure -->
<g id="node25" class="node">
<title>act_report_failure</title>
<polygon fill="none" stroke="black" points="468.15,-51.68 358.4,-51.68 358.4,-15.68 468.15,-15.68 468.15,-51.68"/>
<text xml:space="preserve" text-anchor="middle" x="413.27" y="-35.23" font-family="Helvetica,sans-Serif" font-size="11.00">Report non&#45;critical</text>
<text xml:space="preserve" text-anchor="middle" x="413.27" y="-23.23" font-family="Helvetica,sans-Serif" font-size="11.00">failure and continue</text>
</g>
<!-- q_critical_failure&#45;&gt;act_report_failure -->
<g id="edge32" class="edge">
<title>q_critical_failure&#45;&gt;act_report_failure</title>
<path fill="none" stroke="black" d="M253.59,-125.51C287.15,-106.42 337.59,-77.73 372.77,-57.72"/>
<polygon fill="black" stroke="black" points="374.44,-60.8 381.4,-52.81 370.97,-54.71 374.44,-60.8"/>
<text xml:space="preserve" text-anchor="middle" x="326.87" y="-87.1" font-family="Helvetica,sans-Serif" font-size="10.00">no</text>
</g>
<!-- act_log_continue&#45;&gt;q_tasks_remain -->
<g id="edge33" class="edge">
<title>act_log_continue&#45;&gt;q_tasks_remain</title>
<path fill="none" stroke="black" d="M402.47,-168.9C414.46,-190.3 430.27,-224.64 430.27,-256.85 430.27,-909.85 430.27,-909.85 430.27,-909.85 430.27,-947.44 417.29,-988.5 405.93,-1017.22"/>
<polygon fill="black" stroke="black" points="402.81,-1015.61 402.26,-1026.19 409.29,-1018.26 402.81,-1015.61"/>
</g>
<!-- act_report_failure&#45;&gt;q_tasks_remain -->
<g id="edge34" class="edge">
<title>act_report_failure&#45;&gt;q_tasks_remain</title>
<path fill="none" stroke="black" d="M428.58,-52.14C445.16,-72.91 469.27,-109.36 469.27,-145.6 469.27,-909.85 469.27,-909.85 469.27,-909.85 469.27,-953.07 441.56,-995.49 418.75,-1023.08"/>
<polygon fill="black" stroke="black" points="416.38,-1020.47 412.54,-1030.34 421.7,-1025.01 416.38,-1020.47"/>
</g>
<!-- q_aligns_spec -->
<g id="node27" class="node">
<title>q_aligns_spec</title>
<polygon fill="none" stroke="black" points="194.27,-1460.18 74.02,-1428.18 194.27,-1396.18 314.52,-1428.18 194.27,-1460.18"/>
<text xml:space="preserve" text-anchor="middle" x="194.27" y="-1429.73" font-family="Helvetica,sans-Serif" font-size="11.00">Implementation aligns</text>
<text xml:space="preserve" text-anchor="middle" x="194.27" y="-1417.73" font-family="Helvetica,sans-Serif" font-size="11.00">with spec and plan?</text>
</g>
<!-- q_all_required&#45;&gt;q_aligns_spec -->
<g id="edge35" class="edge">
<title>q_all_required&#45;&gt;q_aligns_spec</title>
<path fill="none" stroke="black" d="M194.27,-1531.76C194.27,-1513.87 194.27,-1491.21 194.27,-1471.74"/>
<polygon fill="black" stroke="black" points="197.77,-1471.91 194.27,-1461.91 190.77,-1471.91 197.77,-1471.91"/>
<text xml:space="preserve" text-anchor="middle" x="202.15" y="-1492.3" font-family="Helvetica,sans-Serif" font-size="10.00">yes</text>
</g>
<!-- state_gaps -->
<g id="node29" class="node">
<title>state_gaps</title>
<ellipse fill="none" stroke="black" cx="240.27" cy="-1203.8" rx="64.88" ry="22.63"/>
<text xml:space="preserve" text-anchor="middle" x="240.27" y="-1205.35" font-family="Helvetica,sans-Serif" font-size="11.00">Gaps or failures</text>
<text xml:space="preserve" text-anchor="middle" x="240.27" y="-1193.35" font-family="Helvetica,sans-Serif" font-size="11.00">detected</text>
</g>
<!-- q_all_required&#45;&gt;state_gaps -->
<g id="edge36" class="edge">
<title>q_all_required&#45;&gt;state_gaps</title>
<path fill="none" stroke="black" d="M159.33,-1543.04C130.44,-1524.77 90.24,-1495.35 65.27,-1460.18 16.04,-1390.81 -27.49,-1342.67 22.27,-1273.68 24.71,-1270.3 117.61,-1241.76 181.33,-1222.5"/>
<polygon fill="black" stroke="black" points="182.07,-1225.93 190.63,-1219.69 180.04,-1219.23 182.07,-1225.93"/>
<text xml:space="preserve" text-anchor="middle" x="32.18" y="-1368.68" font-family="Helvetica,sans-Serif" font-size="10.00">no, tasks</text>
<text xml:space="preserve" text-anchor="middle" x="32.18" y="-1357.43" font-family="Helvetica,sans-Serif" font-size="10.00">remaining</text>
</g>
<!-- q_tests_pass -->
<g id="node28" class="node">
<title>q_tests_pass</title>
<polygon fill="none" stroke="black" points="141.27,-1337.68 31.52,-1305.68 141.27,-1273.68 251.02,-1305.68 141.27,-1337.68"/>
<text xml:space="preserve" text-anchor="middle" x="141.27" y="-1307.23" font-family="Helvetica,sans-Serif" font-size="11.00">Tests and validation</text>
<text xml:space="preserve" text-anchor="middle" x="141.27" y="-1295.23" font-family="Helvetica,sans-Serif" font-size="11.00">pass?</text>
</g>
<!-- q_aligns_spec&#45;&gt;q_tests_pass -->
<g id="edge37" class="edge">
<title>q_aligns_spec&#45;&gt;q_tests_pass</title>
<path fill="none" stroke="black" d="M181.98,-1399.23C174.89,-1383.11 165.87,-1362.61 158.13,-1345"/>
<polygon fill="black" stroke="black" points="161.34,-1343.61 154.11,-1335.86 154.93,-1346.42 161.34,-1343.61"/>
<text xml:space="preserve" text-anchor="middle" x="180.4" y="-1363.05" font-family="Helvetica,sans-Serif" font-size="10.00">yes</text>
</g>
<!-- q_aligns_spec&#45;&gt;state_gaps -->
<g id="edge38" class="edge">
<title>q_aligns_spec&#45;&gt;state_gaps</title>
<path fill="none" stroke="black" d="M219.11,-1402.69C234.22,-1385.97 252.13,-1362.44 260.27,-1337.68 271.23,-1304.37 262.43,-1264.37 253.29,-1237.02"/>
<polygon fill="black" stroke="black" points="256.7,-1236.16 250.05,-1227.91 250.1,-1238.51 256.7,-1236.16"/>
<text xml:space="preserve" text-anchor="middle" x="302.48" y="-1301.8" font-family="Helvetica,sans-Serif" font-size="10.00">no, misalignment</text>
</g>
<!-- q_tests_pass&#45;&gt;state_gaps -->
<g id="edge40" class="edge">
<title>q_tests_pass&#45;&gt;state_gaps</title>
<path fill="none" stroke="black" d="M165.49,-1280.25C179.5,-1266.12 197.2,-1248.26 211.86,-1233.47"/>
<polygon fill="black" stroke="black" points="214.03,-1236.25 218.59,-1226.68 209.06,-1231.32 214.03,-1236.25"/>
<text xml:space="preserve" text-anchor="middle" x="223.64" y="-1246.18" font-family="Helvetica,sans-Serif" font-size="10.00">no, failures</text>
</g>
<!-- act_report_status -->
<g id="node31" class="node">
<title>act_report_status</title>
<polygon fill="none" stroke="black" points="157.65,-1221.8 32.9,-1221.8 32.9,-1185.8 157.65,-1185.8 157.65,-1221.8"/>
<text xml:space="preserve" text-anchor="middle" x="95.27" y="-1205.35" font-family="Helvetica,sans-Serif" font-size="11.00">Report implementation</text>
<text xml:space="preserve" text-anchor="middle" x="95.27" y="-1193.35" font-family="Helvetica,sans-Serif" font-size="11.00">status summary</text>
</g>
<!-- q_tests_pass&#45;&gt;act_report_status -->
<g id="edge39" class="edge">
<title>q_tests_pass&#45;&gt;act_report_status</title>
<path fill="none" stroke="black" d="M128.58,-1277.12C122.2,-1263.27 114.49,-1246.53 108.09,-1232.64"/>
<polygon fill="black" stroke="black" points="111.29,-1231.21 103.93,-1223.6 104.93,-1234.14 111.29,-1231.21"/>
<text xml:space="preserve" text-anchor="middle" x="126.15" y="-1246.18" font-family="Helvetica,sans-Serif" font-size="10.00">yes</text>
</g>
<!-- state_gaps&#45;&gt;q_tasks_remain -->
<g id="edge41" class="edge">
<title>state_gaps&#45;&gt;q_tasks_remain</title>
<path fill="none" stroke="black" stroke-dasharray="1,5" d="M227.75,-1181.4C222.14,-1168.8 218.28,-1152.97 225.77,-1140.67 247.32,-1105.34 288.95,-1084.18 324.81,-1071.9"/>
<polygon fill="black" stroke="black" points="325.85,-1075.24 334.28,-1068.83 323.69,-1068.58 325.85,-1075.24"/>
<text xml:space="preserve" text-anchor="middle" x="264.02" y="-1153.67" font-family="Helvetica,sans-Serif" font-size="10.00">execution&#45;only fix</text>
<text xml:space="preserve" text-anchor="middle" x="264.02" y="-1142.42" font-family="Helvetica,sans-Serif" font-size="10.00">and re&#45;verify</text>
</g>
<!-- act_reconcile -->
<g id="node30" class="node">
<title>act_reconcile</title>
<polygon fill="none" stroke="black" points="628.4,-1073.39 496.15,-1073.39 496.15,-1037.39 628.4,-1037.39 628.4,-1073.39"/>
<text xml:space="preserve" text-anchor="middle" x="562.27" y="-1056.94" font-family="Helvetica,sans-Serif" font-size="11.00">Run spec&#45;kit&#45;reconcile</text>
<text xml:space="preserve" text-anchor="middle" x="562.27" y="-1044.94" font-family="Helvetica,sans-Serif" font-size="11.00">with concrete gap report</text>
</g>
<!-- state_gaps&#45;&gt;act_reconcile -->
<g id="edge42" class="edge">
<title>state_gaps&#45;&gt;act_reconcile</title>
<path fill="none" stroke="black" stroke-dasharray="1,5" d="M295.16,-1191.62C346.81,-1179.58 425.13,-1157.36 486.27,-1122.67 505.44,-1111.8 524.14,-1095.59 538.19,-1081.93"/>
<polygon fill="black" stroke="black" points="540.63,-1084.43 545.23,-1074.89 535.68,-1079.48 540.63,-1084.43"/>
<text xml:space="preserve" text-anchor="middle" x="473.37" y="-1148.05" font-family="Helvetica,sans-Serif" font-size="10.00">artifact drift</text>
</g>
<!-- act_reconcile&#45;&gt;q_tasks_exist -->
<g id="edge43" class="edge">
<title>act_reconcile&#45;&gt;q_tasks_exist</title>
<path fill="none" stroke="black" stroke-dasharray="1,5" d="M562.47,-1073.52C562.76,-1100.86 563.27,-1156.03 563.27,-1202.8 563.27,-2234.93 563.27,-2234.93 563.27,-2234.93 563.27,-2269.71 534.22,-2297.46 507.27,-2315.72"/>
<polygon fill="black" stroke="black" points="505.66,-2312.59 499.16,-2320.95 509.46,-2318.47 505.66,-2312.59"/>
<text xml:space="preserve" text-anchor="middle" x="599.65" y="-1738.43" font-family="Helvetica,sans-Serif" font-size="10.00">re&#45;run implement</text>
<text xml:space="preserve" text-anchor="middle" x="599.65" y="-1727.18" font-family="Helvetica,sans-Serif" font-size="10.00">gate</text>
</g>
<!-- done -->
<g id="node32" class="node">
<title>done</title>
<ellipse fill="none" stroke="black" cx="95.27" cy="-1055.39" rx="63.29" ry="63.29"/>
<ellipse fill="none" stroke="black" cx="95.27" cy="-1055.39" rx="67.29" ry="67.29"/>
<text xml:space="preserve" text-anchor="middle" x="95.27" y="-1056.94" font-family="Helvetica,sans-Serif" font-size="11.00">Implementation</text>
<text xml:space="preserve" text-anchor="middle" x="95.27" y="-1044.94" font-family="Helvetica,sans-Serif" font-size="11.00">complete</text>
</g>
<!-- act_report_status&#45;&gt;done -->
<g id="edge44" class="edge">
<title>act_report_status&#45;&gt;done</title>
<path fill="none" stroke="black" d="M95.27,-1185.43C95.27,-1172.39 95.27,-1153.52 95.27,-1134.22"/>
<polygon fill="black" stroke="black" points="98.77,-1134.36 95.27,-1124.36 91.77,-1134.36 98.77,-1134.36"/>
</g>
</g>
</svg>
