<?xml version="1.0" encoding="UTF-8" standalone="no"?>
<!DOCTYPE svg PUBLIC "-//W3C//DTD SVG 1.1//EN"
 "http://www.w3.org/Graphics/SVG/1.1/DTD/svg11.dtd">
<!-- Generated by graphviz version 15.0.0 (20260523.1842)
 -->
<!-- Title: deep_research_loop Pages: 1 -->
<svg width="994pt" height="1170pt"
 viewBox="0.00 0.00 994.00 1170.00" xmlns="http://www.w3.org/2000/svg" xmlns:xlink="http://www.w3.org/1999/xlink">
<g id="graph0" class="graph" transform="scale(1 1) rotate(0) translate(4 1165.83)">
<title>deep_research_loop</title>
<polygon fill="white" stroke="none" points="-4,4 -4,-1165.83 989.57,-1165.83 989.57,4 -4,4"/>
<!-- Research request -->
<g id="node1" class="node">
<title>Research request</title>
<ellipse fill="lightgreen" stroke="black" cx="531.69" cy="-1083.96" rx="73.87" ry="73.87"/>
<ellipse fill="none" stroke="black" cx="531.69" cy="-1083.96" rx="77.87" ry="77.87"/>
<text xml:space="preserve" text-anchor="middle" x="531.69" y="-1078.91" font-family="Times,serif" font-size="14.00">Research request</text>
</g>
<!-- Question specific enough? -->
<g id="node2" class="node">
<title>Question specific enough?</title>
<polygon fill="none" stroke="black" points="531.69,-969.09 377.28,-951.09 531.69,-933.09 686.1,-951.09 531.69,-969.09"/>
<text xml:space="preserve" text-anchor="middle" x="531.69" y="-946.04" font-family="Times,serif" font-size="14.00">Question specific enough?</text>
</g>
<!-- Research request&#45;&gt;Question specific enough? -->
<g id="edge1" class="edge">
<title>Research request&#45;&gt;Question specific enough?</title>
<path fill="none" stroke="black" d="M531.69,-1005.7C531.69,-996.8 531.69,-988.2 531.69,-980.6"/>
<polygon fill="black" stroke="black" points="535.19,-980.72 531.69,-970.72 528.19,-980.72 535.19,-980.72"/>
</g>
<!-- R0: Ask &lt;=5 clarifying questions (single volley) -->
<g id="node3" class="node">
<title>R0: Ask &lt;=5 clarifying questions (single volley)</title>
<polygon fill="none" stroke="black" points="584.06,-880.59 303.31,-880.59 303.31,-844.59 584.06,-844.59 584.06,-880.59"/>
<text xml:space="preserve" text-anchor="middle" x="443.69" y="-857.54" font-family="Times,serif" font-size="14.00">R0: Ask &lt;=5 clarifying questions (single volley)</text>
</g>
<!-- Question specific enough?&#45;&gt;R0: Ask &lt;=5 clarifying questions (single volley) -->
<g id="edge3" class="edge">
<title>Question specific enough?&#45;&gt;R0: Ask &lt;=5 clarifying questions (single volley)</title>
<path fill="none" stroke="black" d="M515.95,-934.63C503.02,-921.92 484.44,-903.65 469.36,-888.83"/>
<polygon fill="black" stroke="black" points="472.07,-886.58 462.48,-882.07 467.16,-891.57 472.07,-886.58"/>
<text xml:space="preserve" text-anchor="middle" x="502.32" y="-901.79" font-family="Times,serif" font-size="14.00">no</text>
</g>
<!-- R1: Frame &#45; date, decompose, topic&#45;map, set caps -->
<g id="node4" class="node">
<title>R1: Frame &#45; date, decompose, topic&#45;map, set caps</title>
<polygon fill="none" stroke="black" points="677.31,-807.59 386.06,-807.59 386.06,-771.59 677.31,-771.59 677.31,-807.59"/>
<text xml:space="preserve" text-anchor="middle" x="531.69" y="-784.54" font-family="Times,serif" font-size="14.00">R1: Frame &#45; date, decompose, topic&#45;map, set caps</text>
</g>
<!-- Question specific enough?&#45;&gt;R1: Frame &#45; date, decompose, topic&#45;map, set caps -->
<g id="edge2" class="edge">
<title>Question specific enough?&#45;&gt;R1: Frame &#45; date, decompose, topic&#45;map, set caps</title>
<path fill="none" stroke="black" d="M550.92,-935.03C565.49,-922.32 584.37,-902.68 592.69,-880.59 598.33,-865.62 599.26,-859.18 592.69,-844.59 587.53,-833.14 578.61,-823.13 569.16,-814.95"/>
<polygon fill="black" stroke="black" points="571.6,-812.42 561.6,-808.9 567.22,-817.88 571.6,-812.42"/>
<text xml:space="preserve" text-anchor="middle" x="606.27" y="-857.54" font-family="Times,serif" font-size="14.00">yes</text>
</g>
<!-- R0: Ask &lt;=5 clarifying questions (single volley)&#45;&gt;R1: Frame &#45; date, decompose, topic&#45;map, set caps -->
<g id="edge4" class="edge">
<title>R0: Ask &lt;=5 clarifying questions (single volley)&#45;&gt;R1: Frame &#45; date, decompose, topic&#45;map, set caps</title>
<path fill="none" stroke="black" d="M464.99,-844.41C475.93,-835.57 489.46,-824.66 501.46,-814.98"/>
<polygon fill="black" stroke="black" points="503.51,-817.82 509.1,-808.82 499.12,-812.37 503.51,-817.82"/>
</g>
<!-- R2: Explore breadth (parallel subagents) &#45;&gt; dump raw -->
<g id="node5" class="node">
<title>R2: Explore breadth (parallel subagents) &#45;&gt; dump raw</title>
<polygon fill="none" stroke="black" points="687.81,-734.59 375.56,-734.59 375.56,-698.59 687.81,-698.59 687.81,-734.59"/>
<text xml:space="preserve" text-anchor="middle" x="531.69" y="-711.54" font-family="Times,serif" font-size="14.00">R2: Explore breadth (parallel subagents) &#45;&gt; dump raw</text>
</g>
<!-- R1: Frame &#45; date, decompose, topic&#45;map, set caps&#45;&gt;R2: Explore breadth (parallel subagents) &#45;&gt; dump raw -->
<g id="edge5" class="edge">
<title>R1: Frame &#45; date, decompose, topic&#45;map, set caps&#45;&gt;R2: Explore breadth (parallel subagents) &#45;&gt; dump raw</title>
<path fill="none" stroke="black" d="M531.69,-771.41C531.69,-763.82 531.69,-754.69 531.69,-746.13"/>
<polygon fill="black" stroke="black" points="535.19,-746.13 531.69,-736.13 528.19,-746.13 535.19,-746.13"/>
</g>
<!-- R3: Exploit depth (parallel subagents) &#45;&gt; dump raw -->
<g id="node6" class="node">
<title>R3: Exploit depth (parallel subagents) &#45;&gt; dump raw</title>
<polygon fill="none" stroke="black" points="573.06,-661.59 274.31,-661.59 274.31,-625.59 573.06,-625.59 573.06,-661.59"/>
<text xml:space="preserve" text-anchor="middle" x="423.69" y="-638.54" font-family="Times,serif" font-size="14.00">R3: Exploit depth (parallel subagents) &#45;&gt; dump raw</text>
</g>
<!-- R2: Explore breadth (parallel subagents) &#45;&gt; dump raw&#45;&gt;R3: Exploit depth (parallel subagents) &#45;&gt; dump raw -->
<g id="edge6" class="edge">
<title>R2: Explore breadth (parallel subagents) &#45;&gt; dump raw&#45;&gt;R3: Exploit depth (parallel subagents) &#45;&gt; dump raw</title>
<path fill="none" stroke="black" d="M505.27,-698.22C491.54,-689.2 474.56,-678.04 459.65,-668.23"/>
<polygon fill="black" stroke="black" points="461.75,-665.43 451.47,-662.86 457.91,-671.28 461.75,-665.43"/>
</g>
<!-- Review valve: verify claims vs RAW, fan out by claim -->
<g id="node7" class="node">
<title>Review valve: verify claims vs RAW, fan out by claim</title>
<polygon fill="none" stroke="black" points="305.69,-588.59 0,-570.59 305.69,-552.59 611.37,-570.59 305.69,-588.59"/>
<text xml:space="preserve" text-anchor="middle" x="305.69" y="-565.54" font-family="Times,serif" font-size="14.00">Review valve: verify claims vs RAW, fan out by claim</text>
</g>
<!-- R3: Exploit depth (parallel subagents) &#45;&gt; dump raw&#45;&gt;Review valve: verify claims vs RAW, fan out by claim -->
<g id="edge7" class="edge">
<title>R3: Exploit depth (parallel subagents) &#45;&gt; dump raw&#45;&gt;Review valve: verify claims vs RAW, fan out by claim</title>
<path fill="none" stroke="black" d="M394.82,-625.22C378.74,-615.55 358.57,-603.41 341.49,-593.13"/>
<polygon fill="black" stroke="black" points="343.51,-590.27 333.14,-588.11 339.9,-596.26 343.51,-590.27"/>
</g>
<!-- R4: Expand/Resolve &#45; targeted re&#45;fetch + re&#45;review -->
<g id="node8" class="node">
<title>R4: Expand/Resolve &#45; targeted re&#45;fetch + re&#45;review</title>
<polygon fill="none" stroke="black" points="611.94,-500.09 315.44,-500.09 315.44,-464.09 611.94,-464.09 611.94,-500.09"/>
<text xml:space="preserve" text-anchor="middle" x="463.69" y="-477.04" font-family="Times,serif" font-size="14.00">R4: Expand/Resolve &#45; targeted re&#45;fetch + re&#45;review</text>
</g>
<!-- Review valve: verify claims vs RAW, fan out by claim&#45;&gt;R4: Expand/Resolve &#45; targeted re&#45;fetch + re&#45;review -->
<g id="edge9" class="edge">
<title>Review valve: verify claims vs RAW, fan out by claim&#45;&gt;R4: Expand/Resolve &#45; targeted re&#45;fetch + re&#45;review</title>
<path fill="none" stroke="black" d="M334.3,-553.93C358.77,-540.53 394.32,-521.07 421.96,-505.93"/>
<polygon fill="black" stroke="black" points="423.34,-509.17 430.43,-501.3 419.98,-503.03 423.34,-509.17"/>
<text xml:space="preserve" text-anchor="middle" x="442.34" y="-521.29" font-family="Times,serif" font-size="14.00">gaps / contested</text>
</g>
<!-- Synthesize report from artifacts + raw -->
<g id="node12" class="node">
<title>Synthesize report from artifacts + raw</title>
<polygon fill="none" stroke="black" points="607.94,-265.59 383.44,-265.59 383.44,-229.59 607.94,-229.59 607.94,-265.59"/>
<text xml:space="preserve" text-anchor="middle" x="495.69" y="-242.54" font-family="Times,serif" font-size="14.00">Synthesize report from artifacts + raw</text>
</g>
<!-- Review valve: verify claims vs RAW, fan out by claim&#45;&gt;Synthesize report from artifacts + raw -->
<g id="edge8" class="edge">
<title>Review valve: verify claims vs RAW, fan out by claim&#45;&gt;Synthesize report from artifacts + raw</title>
<path fill="none" stroke="black" d="M299.99,-552.58C294.72,-535.29 287.69,-507.63 287.69,-483.09 287.69,-483.09 287.69,-483.09 287.69,-335.09 287.69,-291.37 327.35,-269.34 372.03,-258.39"/>
<polygon fill="black" stroke="black" points="372.69,-261.83 381.69,-256.24 371.16,-255 372.69,-261.83"/>
<text xml:space="preserve" text-anchor="middle" x="319.56" y="-404.04" font-family="Times,serif" font-size="14.00">claims hold</text>
</g>
<!-- Report progress to user -->
<g id="node9" class="node">
<title>Report progress to user</title>
<polygon fill="none" stroke="black" points="559.06,-427.09 416.31,-427.09 416.31,-391.09 559.06,-391.09 559.06,-427.09"/>
<text xml:space="preserve" text-anchor="middle" x="487.69" y="-404.04" font-family="Times,serif" font-size="14.00">Report progress to user</text>
</g>
<!-- R4: Expand/Resolve &#45; targeted re&#45;fetch + re&#45;review&#45;&gt;Report progress to user -->
<g id="edge10" class="edge">
<title>R4: Expand/Resolve &#45; targeted re&#45;fetch + re&#45;review&#45;&gt;Report progress to user</title>
<path fill="none" stroke="black" d="M469.5,-463.91C472.15,-456.06 475.36,-446.56 478.34,-437.75"/>
<polygon fill="black" stroke="black" points="481.56,-439.15 481.45,-428.55 474.93,-436.91 481.56,-439.15"/>
</g>
<!-- Loop cap reached or saturated? -->
<g id="node10" class="node">
<title>Loop cap reached or saturated?</title>
<polygon fill="none" stroke="black" points="495.69,-354.09 315.94,-336.09 495.69,-318.09 675.43,-336.09 495.69,-354.09"/>
<text xml:space="preserve" text-anchor="middle" x="495.69" y="-331.04" font-family="Times,serif" font-size="14.00">Loop cap reached or saturated?</text>
</g>
<!-- Report progress to user&#45;&gt;Loop cap reached or saturated? -->
<g id="edge11" class="edge">
<title>Report progress to user&#45;&gt;Loop cap reached or saturated?</title>
<path fill="none" stroke="black" d="M489.62,-390.91C490.49,-383.23 491.53,-373.98 492.5,-365.34"/>
<polygon fill="black" stroke="black" points="495.96,-365.95 493.6,-355.62 489,-365.17 495.96,-365.95"/>
</g>
<!-- Loop cap reached or saturated?&#45;&gt;R2: Explore breadth (parallel subagents) &#45;&gt; dump raw -->
<g id="edge12" class="edge">
<title>Loop cap reached or saturated?&#45;&gt;R2: Explore breadth (parallel subagents) &#45;&gt; dump raw</title>
<path fill="none" stroke="black" d="M571.9,-346.91C606.44,-356.08 639.69,-373.81 639.69,-408.09 639.69,-644.59 639.69,-644.59 639.69,-644.59 639.69,-666.67 623.74,-682.26 604.1,-693.09"/>
<polygon fill="black" stroke="black" points="602.63,-689.92 595.24,-697.51 605.75,-696.18 602.63,-689.92"/>
<text xml:space="preserve" text-anchor="middle" x="690.31" y="-521.29" font-family="Times,serif" font-size="14.00">no + coverage gap</text>
</g>
<!-- Loop cap reached or saturated?&#45;&gt;Synthesize report from artifacts + raw -->
<g id="edge13" class="edge">
<title>Loop cap reached or saturated?&#45;&gt;Synthesize report from artifacts + raw</title>
<path fill="none" stroke="black" d="M495.69,-318C495.69,-306.35 495.69,-290.64 495.69,-277.11"/>
<polygon fill="black" stroke="black" points="499.19,-277.46 495.69,-267.46 492.19,-277.46 499.19,-277.46"/>
<text xml:space="preserve" text-anchor="middle" x="534.69" y="-286.79" font-family="Times,serif" font-size="14.00">yes / saturated</text>
</g>
<!-- NEVER inline raw into synthesis -->
<g id="node11" class="node">
<title>NEVER inline raw into synthesis</title>
<polygon fill="red" stroke="black" points="985.57,-328.64 985.57,-343.55 900.11,-354.09 779.26,-354.09 693.81,-343.55 693.81,-328.64 779.26,-318.09 900.11,-318.09 985.57,-328.64"/>
<text xml:space="preserve" text-anchor="middle" x="839.69" y="-331.04" font-family="Times,serif" font-size="14.00" fill="white">NEVER inline raw into synthesis</text>
</g>
<!-- NEVER inline raw into synthesis&#45;&gt;Synthesize report from artifacts + raw -->
<g id="edge14" class="edge">
<title>NEVER inline raw into synthesis&#45;&gt;Synthesize report from artifacts + raw</title>
<path fill="none" stroke="black" stroke-dasharray="1,5" d="M773.36,-318.41C717.03,-304.25 636,-283.87 576,-268.79"/>
<polygon fill="black" stroke="black" points="577.07,-265.45 566.52,-266.4 575.37,-272.24 577.07,-265.45"/>
<text xml:space="preserve" text-anchor="middle" x="722.5" y="-286.79" font-family="Times,serif" font-size="14.00">invariant</text>
</g>
<!-- Cited report delivered -->
<g id="node13" class="node">
<title>Cited report delivered</title>
<ellipse fill="lightgreen" stroke="black" cx="495.69" cy="-96.3" rx="92.3" ry="92.3"/>
<ellipse fill="none" stroke="black" cx="495.69" cy="-96.3" rx="96.3" ry="96.3"/>
<text xml:space="preserve" text-anchor="middle" x="495.69" y="-91.25" font-family="Times,serif" font-size="14.00">Cited report delivered</text>
</g>
<!-- Synthesize report from artifacts + raw&#45;&gt;Cited report delivered -->
<g id="edge15" class="edge">
<title>Synthesize report from artifacts + raw&#45;&gt;Cited report delivered</title>
<path fill="none" stroke="black" d="M495.69,-229.17C495.69,-222.26 495.69,-213.72 495.69,-204.32"/>
<polygon fill="black" stroke="black" points="499.19,-204.46 495.69,-194.46 492.19,-204.46 499.19,-204.46"/>
</g>
</g>
</svg>
