<?xml version="1.0" encoding="UTF-8" standalone="no"?>
<!DOCTYPE svg PUBLIC "-//W3C//DTD SVG 1.1//EN"
 "http://www.w3.org/Graphics/SVG/1.1/DTD/svg11.dtd">
<!-- Generated by graphviz version 12.2.1 (0)
 -->
<!-- Title: feature_route Pages: 1 -->
<svg width="305pt" height="820pt"
 viewBox="0.00 0.00 305.13 819.69" xmlns="http://www.w3.org/2000/svg" xmlns:xlink="http://www.w3.org/1999/xlink">
<g id="graph0" class="graph" transform="scale(1 1) rotate(0) translate(4 815.69)">
<title>feature_route</title>
<polygon fill="white" stroke="none" points="-4,4 -4,-815.69 301.13,-815.69 301.13,4 -4,4"/>
<!-- start -->
<g id="node1" class="node">
<title>start</title>
<ellipse fill="none" stroke="black" cx="164.87" cy="-793.69" rx="49.85" ry="18"/>
<text text-anchor="middle" x="164.87" y="-789.81" font-family="Helvetica,sans-Serif" font-size="10.00">Feature request</text>
</g>
<!-- has_const -->
<g id="node2" class="node">
<title>has_const</title>
<polygon fill="none" stroke="black" points="164.87,-738.69 80.56,-720.69 164.87,-702.69 249.18,-720.69 164.87,-738.69"/>
<text text-anchor="middle" x="164.87" y="-716.81" font-family="Helvetica,sans-Serif" font-size="10.00">constitution exists?</text>
</g>
<!-- start&#45;&gt;has_const -->
<g id="edge1" class="edge">
<title>start&#45;&gt;has_const</title>
<path fill="none" stroke="black" d="M164.87,-775.5C164.87,-767.91 164.87,-758.79 164.87,-750.23"/>
<polygon fill="black" stroke="black" points="168.37,-750.23 164.87,-740.23 161.37,-750.23 168.37,-750.23"/>
</g>
<!-- constitution -->
<g id="node3" class="node">
<title>constitution</title>
<polygon fill="none" stroke="black" points="172.74,-656.94 68.99,-656.94 68.99,-620.94 172.74,-620.94 172.74,-656.94"/>
<text text-anchor="middle" x="120.87" y="-635.06" font-family="Helvetica,sans-Serif" font-size="10.00">spec&#45;kit&#45;constitution</text>
</g>
<!-- has_const&#45;&gt;constitution -->
<g id="edge2" class="edge">
<title>has_const&#45;&gt;constitution</title>
<path fill="none" stroke="black" d="M156.39,-704.31C150.57,-693.77 142.7,-679.51 135.85,-667.09"/>
<polygon fill="black" stroke="black" points="139.02,-665.6 131.13,-658.53 132.89,-668.98 139.02,-665.6"/>
<text text-anchor="middle" x="150.75" y="-676.14" font-family="Helvetica,sans-Serif" font-size="9.00">no</text>
</g>
<!-- has_spec -->
<g id="node4" class="node">
<title>has_spec</title>
<polygon fill="none" stroke="black" points="164.87,-583.94 91.23,-565.94 164.87,-547.94 238.51,-565.94 164.87,-583.94"/>
<text text-anchor="middle" x="164.87" y="-562.06" font-family="Helvetica,sans-Serif" font-size="10.00">spec.md exists?</text>
</g>
<!-- has_const&#45;&gt;has_spec -->
<g id="edge3" class="edge">
<title>has_const&#45;&gt;has_spec</title>
<path fill="none" stroke="black" d="M170.55,-703.42C174.61,-690.89 179.73,-673.05 181.87,-656.94 183.98,-641.08 184.3,-636.75 181.87,-620.94 180.46,-611.75 177.77,-601.98 174.94,-593.32"/>
<polygon fill="black" stroke="black" points="178.33,-592.42 171.73,-584.13 171.72,-594.72 178.33,-592.42"/>
<text text-anchor="middle" x="190.7" y="-635.26" font-family="Helvetica,sans-Serif" font-size="9.00">yes</text>
</g>
<!-- constitution&#45;&gt;has_spec -->
<g id="edge4" class="edge">
<title>constitution&#45;&gt;has_spec</title>
<path fill="none" stroke="black" d="M131.52,-620.75C136.9,-612.07 143.53,-601.38 149.45,-591.82"/>
<polygon fill="black" stroke="black" points="152.42,-593.67 154.71,-583.32 146.47,-589.98 152.42,-593.67"/>
</g>
<!-- specify -->
<g id="node5" class="node">
<title>specify</title>
<polygon fill="none" stroke="black" points="167.37,-502.19 82.37,-502.19 82.37,-466.19 167.37,-466.19 167.37,-502.19"/>
<text text-anchor="middle" x="124.87" y="-480.31" font-family="Helvetica,sans-Serif" font-size="10.00">spec&#45;kit&#45;specify</text>
</g>
<!-- has_spec&#45;&gt;specify -->
<g id="edge5" class="edge">
<title>has_spec&#45;&gt;specify</title>
<path fill="none" stroke="black" d="M157.16,-549.56C151.92,-539.13 144.86,-525.04 138.67,-512.71"/>
<polygon fill="black" stroke="black" points="141.82,-511.18 134.21,-503.81 135.56,-514.32 141.82,-511.18"/>
<text text-anchor="middle" x="152.51" y="-521.39" font-family="Helvetica,sans-Serif" font-size="9.00">no</text>
</g>
<!-- clarify_gate -->
<g id="node6" class="node">
<title>clarify_gate</title>
<polygon fill="none" stroke="black" points="163.87,-429.19 30.61,-411.19 163.87,-393.19 297.13,-411.19 163.87,-429.19"/>
<text text-anchor="middle" x="163.87" y="-407.31" font-family="Helvetica,sans-Serif" font-size="10.00">Spec ambiguity blocks planning?</text>
</g>
<!-- has_spec&#45;&gt;clarify_gate -->
<g id="edge6" class="edge">
<title>has_spec&#45;&gt;clarify_gate</title>
<path fill="none" stroke="black" d="M168.92,-548.51C173.24,-528.92 179.05,-495.17 175.87,-466.19 174.91,-457.49 173.12,-448.15 171.2,-439.72"/>
<polygon fill="black" stroke="black" points="174.62,-438.93 168.85,-430.05 167.81,-440.59 174.62,-438.93"/>
<text text-anchor="middle" x="183.91" y="-480.51" font-family="Helvetica,sans-Serif" font-size="9.00">yes</text>
</g>
<!-- specify&#45;&gt;clarify_gate -->
<g id="edge7" class="edge">
<title>specify&#45;&gt;clarify_gate</title>
<path fill="none" stroke="black" d="M134.31,-466C138.9,-457.65 144.5,-447.44 149.6,-438.17"/>
<polygon fill="black" stroke="black" points="152.57,-440.02 154.32,-429.57 146.44,-436.65 152.57,-440.02"/>
</g>
<!-- clarify -->
<g id="node7" class="node">
<title>clarify</title>
<polygon fill="none" stroke="black" points="165.74,-347.44 85.99,-347.44 85.99,-311.44 165.74,-311.44 165.74,-347.44"/>
<text text-anchor="middle" x="125.87" y="-325.56" font-family="Helvetica,sans-Serif" font-size="10.00">spec&#45;kit&#45;clarify</text>
</g>
<!-- clarify_gate&#45;&gt;clarify -->
<g id="edge8" class="edge">
<title>clarify_gate&#45;&gt;clarify</title>
<path fill="none" stroke="black" d="M156.18,-394.05C151.3,-383.8 144.85,-370.27 139.16,-358.32"/>
<polygon fill="black" stroke="black" points="142.32,-356.82 134.86,-349.3 136,-359.84 142.32,-356.82"/>
<text text-anchor="middle" x="154.27" y="-366.64" font-family="Helvetica,sans-Serif" font-size="9.00">yes</text>
</g>
<!-- plan -->
<g id="node8" class="node">
<title>plan</title>
<polygon fill="none" stroke="black" points="199.62,-274.44 128.12,-274.44 128.12,-238.44 199.62,-238.44 199.62,-274.44"/>
<text text-anchor="middle" x="163.87" y="-252.56" font-family="Helvetica,sans-Serif" font-size="10.00">spec&#45;kit&#45;plan</text>
</g>
<!-- clarify_gate&#45;&gt;plan -->
<g id="edge9" class="edge">
<title>clarify_gate&#45;&gt;plan</title>
<path fill="none" stroke="black" d="M167.66,-393.25C170.27,-380.68 173.51,-363.08 174.87,-347.44 176.26,-331.5 176.47,-327.36 174.87,-311.44 174.03,-303.12 172.48,-294.2 170.81,-286.04"/>
<polygon fill="black" stroke="black" points="174.23,-285.3 168.66,-276.29 167.39,-286.81 174.23,-285.3"/>
<text text-anchor="middle" x="181.24" y="-325.76" font-family="Helvetica,sans-Serif" font-size="9.00">no</text>
</g>
<!-- clarify&#45;&gt;plan -->
<g id="edge10" class="edge">
<title>clarify&#45;&gt;plan</title>
<path fill="none" stroke="black" d="M135.07,-311.25C139.36,-303.23 144.58,-293.48 149.38,-284.51"/>
<polygon fill="black" stroke="black" points="152.41,-286.27 154.04,-275.8 146.24,-282.97 152.41,-286.27"/>
</g>
<!-- tasks -->
<g id="node9" class="node">
<title>tasks</title>
<polygon fill="none" stroke="black" points="202.62,-201.44 125.12,-201.44 125.12,-165.44 202.62,-165.44 202.62,-201.44"/>
<text text-anchor="middle" x="163.87" y="-179.56" font-family="Helvetica,sans-Serif" font-size="10.00">spec&#45;kit&#45;tasks</text>
</g>
<!-- plan&#45;&gt;tasks -->
<g id="edge11" class="edge">
<title>plan&#45;&gt;tasks</title>
<path fill="none" stroke="black" d="M163.87,-238.25C163.87,-230.66 163.87,-221.54 163.87,-212.98"/>
<polygon fill="black" stroke="black" points="167.37,-212.98 163.87,-202.98 160.37,-212.98 167.37,-212.98"/>
</g>
<!-- has_tasks -->
<g id="node10" class="node">
<title>has_tasks</title>
<polygon fill="none" stroke="black" points="163.87,-128.44 87.72,-110.44 163.87,-92.44 240.02,-110.44 163.87,-128.44"/>
<text text-anchor="middle" x="163.87" y="-106.56" font-family="Helvetica,sans-Serif" font-size="10.00">tasks.md exists?</text>
</g>
<!-- tasks&#45;&gt;has_tasks -->
<g id="edge12" class="edge">
<title>tasks&#45;&gt;has_tasks</title>
<path fill="none" stroke="black" d="M163.87,-165.25C163.87,-157.66 163.87,-148.54 163.87,-139.98"/>
<polygon fill="black" stroke="black" points="167.37,-139.98 163.87,-129.98 160.37,-139.98 167.37,-139.98"/>
</g>
<!-- stop_tasks -->
<g id="node11" class="node">
<title>stop_tasks</title>
<polygon fill="red" stroke="black" points="173.74,-13.67 173.74,-33.01 122.85,-46.69 50.89,-46.69 0,-33.01 0,-13.67 50.89,0 122.85,0 173.74,-13.67"/>
<text text-anchor="middle" x="86.87" y="-25.09" font-family="Helvetica,sans-Serif" font-size="10.00" fill="white">STOP:</text>
<text text-anchor="middle" x="86.87" y="-13.84" font-family="Helvetica,sans-Serif" font-size="10.00" fill="white">run spec&#45;kit&#45;tasks first</text>
</g>
<!-- has_tasks&#45;&gt;stop_tasks -->
<g id="edge14" class="edge">
<title>has_tasks&#45;&gt;stop_tasks</title>
<path fill="none" stroke="black" d="M151.15,-95.39C141.32,-84.52 127.33,-69.06 114.92,-55.34"/>
<polygon fill="black" stroke="black" points="117.76,-53.26 108.45,-48.2 112.57,-57.96 117.76,-53.26"/>
<text text-anchor="middle" x="135.23" y="-65.89" font-family="Helvetica,sans-Serif" font-size="9.00">no</text>
</g>
<!-- implement -->
<g id="node12" class="node">
<title>implement</title>
<polygon fill="none" stroke="black" points="290.12,-41.34 191.62,-41.34 191.62,-5.34 290.12,-5.34 290.12,-41.34"/>
<text text-anchor="middle" x="240.87" y="-19.47" font-family="Helvetica,sans-Serif" font-size="10.00">spec&#45;kit&#45;implement</text>
</g>
<!-- has_tasks&#45;&gt;implement -->
<g id="edge13" class="edge">
<title>has_tasks&#45;&gt;implement</title>
<path fill="none" stroke="black" d="M176.58,-95.39C187.72,-83.07 204.2,-64.87 217.68,-49.97"/>
<polygon fill="black" stroke="black" points="220.08,-52.54 224.19,-42.78 214.89,-47.84 220.08,-52.54"/>
<text text-anchor="middle" x="209.49" y="-65.89" font-family="Helvetica,sans-Serif" font-size="9.00">yes</text>
</g>
</g>
</svg>
