<?xml version="1.0" encoding="UTF-8" standalone="no"?>
<!DOCTYPE svg PUBLIC "-//W3C//DTD SVG 1.1//EN"
 "http://www.w3.org/Graphics/SVG/1.1/DTD/svg11.dtd">
<!-- Generated by graphviz version 12.2.1 (0)
 -->
<!-- Title: feature_route Pages: 1 -->
<svg width="529pt" height="1505pt"
 viewBox="0.00 0.00 529.23 1505.01" xmlns="http://www.w3.org/2000/svg" xmlns:xlink="http://www.w3.org/1999/xlink">
<g id="graph0" class="graph" transform="scale(1 1) rotate(0) translate(4 1501.01)">
<title>feature_route</title>
<polygon fill="white" stroke="none" points="-4,4 -4,-1501.01 525.23,-1501.01 525.23,4 -4,4"/>
<!-- start -->
<g id="node1" class="node">
<title>start</title>
<ellipse fill="none" stroke="black" cx="418.98" cy="-1479.01" rx="49.85" ry="18"/>
<text text-anchor="middle" x="418.98" y="-1475.14" font-family="Helvetica,sans-Serif" font-size="10.00">Feature request</text>
</g>
<!-- reconcile_gate -->
<g id="node2" class="node">
<title>reconcile_gate</title>
<polygon fill="none" stroke="black" points="418.98,-1424.01 316.73,-1393.51 418.98,-1363.01 521.23,-1393.51 418.98,-1424.01"/>
<text text-anchor="middle" x="418.98" y="-1395.26" font-family="Helvetica,sans-Serif" font-size="10.00">Need reconcile now</text>
<text text-anchor="middle" x="418.98" y="-1384.01" font-family="Helvetica,sans-Serif" font-size="10.00">(drift detected)?</text>
</g>
<!-- start&#45;&gt;reconcile_gate -->
<g id="edge1" class="edge">
<title>start&#45;&gt;reconcile_gate</title>
<path fill="none" stroke="black" d="M418.98,-1460.71C418.98,-1453.41 418.98,-1444.56 418.98,-1435.74"/>
<polygon fill="black" stroke="black" points="422.48,-1435.81 418.98,-1425.81 415.48,-1435.81 422.48,-1435.81"/>
</g>
<!-- has_const -->
<g id="node3" class="node">
<title>has_const</title>
<polygon fill="none" stroke="black" points="362.98,-1317.26 278.67,-1299.26 362.98,-1281.26 447.28,-1299.26 362.98,-1317.26"/>
<text text-anchor="middle" x="362.98" y="-1295.39" font-family="Helvetica,sans-Serif" font-size="10.00">constitution exists?</text>
</g>
<!-- reconcile_gate&#45;&gt;has_const -->
<g id="edge3" class="edge">
<title>reconcile_gate&#45;&gt;has_const</title>
<path fill="none" stroke="black" d="M403.67,-1367.31C395.75,-1354.26 386.11,-1338.37 378.2,-1325.34"/>
<polygon fill="black" stroke="black" points="381.26,-1323.64 373.08,-1316.91 375.28,-1327.27 381.26,-1323.64"/>
<text text-anchor="middle" x="394.55" y="-1336.46" font-family="Helvetica,sans-Serif" font-size="9.00">no</text>
</g>
<!-- reconcile -->
<g id="node14" class="node">
<title>reconcile</title>
<polygon fill="none" stroke="black" points="410.23,-369.33 317.73,-369.33 317.73,-333.33 410.23,-333.33 410.23,-369.33"/>
<text text-anchor="middle" x="363.98" y="-347.45" font-family="Helvetica,sans-Serif" font-size="10.00">spec&#45;kit&#45;reconcile</text>
</g>
<!-- reconcile_gate&#45;&gt;reconcile -->
<g id="edge2" class="edge">
<title>reconcile_gate&#45;&gt;reconcile</title>
<path fill="none" stroke="black" d="M442.4,-1369.75C457.75,-1352.34 474.98,-1326.87 474.98,-1300.26 474.98,-1300.26 474.98,-1300.26 474.98,-432.08 474.98,-402.2 448.12,-382.42 420.83,-370.03"/>
<polygon fill="black" stroke="black" points="422.38,-366.88 411.8,-366.23 419.66,-373.33 422.38,-366.88"/>
<text text-anchor="middle" x="482.1" y="-863.46" font-family="Helvetica,sans-Serif" font-size="9.00">yes</text>
</g>
<!-- constitution -->
<g id="node4" class="node">
<title>constitution</title>
<polygon fill="none" stroke="black" points="328.85,-1235.51 225.1,-1235.51 225.1,-1199.51 328.85,-1199.51 328.85,-1235.51"/>
<text text-anchor="middle" x="276.98" y="-1213.64" font-family="Helvetica,sans-Serif" font-size="10.00">spec&#45;kit&#45;constitution</text>
</g>
<!-- has_const&#45;&gt;constitution -->
<g id="edge5" class="edge">
<title>has_const&#45;&gt;constitution</title>
<path fill="none" stroke="black" d="M348,-1284.37C335.85,-1273.11 318.41,-1256.94 303.86,-1243.44"/>
<polygon fill="black" stroke="black" points="306.5,-1241.12 296.79,-1236.89 301.74,-1246.26 306.5,-1241.12"/>
<text text-anchor="middle" x="330.37" y="-1254.71" font-family="Helvetica,sans-Serif" font-size="9.00">no</text>
</g>
<!-- has_spec -->
<g id="node5" class="node">
<title>has_spec</title>
<polygon fill="none" stroke="black" points="299.98,-1162.51 226.34,-1144.51 299.98,-1126.51 373.61,-1144.51 299.98,-1162.51"/>
<text text-anchor="middle" x="299.98" y="-1140.64" font-family="Helvetica,sans-Serif" font-size="10.00">spec.md exists?</text>
</g>
<!-- has_const&#45;&gt;has_spec -->
<g id="edge6" class="edge">
<title>has_const&#45;&gt;has_spec</title>
<path fill="none" stroke="black" d="M360.66,-1281.57C357.43,-1261.42 350.52,-1226.83 337.98,-1199.51 333,-1188.69 325.81,-1177.76 319.01,-1168.59"/>
<polygon fill="black" stroke="black" points="321.99,-1166.72 313.11,-1160.94 316.45,-1171 321.99,-1166.72"/>
<text text-anchor="middle" x="357.62" y="-1213.84" font-family="Helvetica,sans-Serif" font-size="9.00">yes</text>
</g>
<!-- constitution&#45;&gt;has_spec -->
<g id="edge7" class="edge">
<title>constitution&#45;&gt;has_spec</title>
<path fill="none" stroke="black" d="M282.54,-1199.33C285.16,-1191.25 288.34,-1181.42 291.27,-1172.39"/>
<polygon fill="black" stroke="black" points="294.56,-1173.6 294.31,-1163.01 287.9,-1171.44 294.56,-1173.6"/>
</g>
<!-- specify -->
<g id="node6" class="node">
<title>specify</title>
<polygon fill="none" stroke="black" points="354.48,-1080.76 269.48,-1080.76 269.48,-1044.76 354.48,-1044.76 354.48,-1080.76"/>
<text text-anchor="middle" x="311.98" y="-1058.89" font-family="Helvetica,sans-Serif" font-size="10.00">spec&#45;kit&#45;specify</text>
</g>
<!-- has_spec&#45;&gt;specify -->
<g id="edge8" class="edge">
<title>has_spec&#45;&gt;specify</title>
<path fill="none" stroke="black" d="M302.46,-1126.99C303.98,-1116.93 305.95,-1103.81 307.71,-1092.13"/>
<polygon fill="black" stroke="black" points="311.12,-1093 309.14,-1082.59 304.19,-1091.96 311.12,-1093"/>
<text text-anchor="middle" x="311.94" y="-1099.96" font-family="Helvetica,sans-Serif" font-size="9.00">no</text>
</g>
<!-- clarify_gate -->
<g id="node7" class="node">
<title>clarify_gate</title>
<polygon fill="none" stroke="black" points="244.98,-1007.76 111.72,-989.76 244.98,-971.76 378.23,-989.76 244.98,-1007.76"/>
<text text-anchor="middle" x="244.98" y="-985.89" font-family="Helvetica,sans-Serif" font-size="10.00">Spec ambiguity blocks planning?</text>
</g>
<!-- has_spec&#45;&gt;clarify_gate -->
<g id="edge9" class="edge">
<title>has_spec&#45;&gt;clarify_gate</title>
<path fill="none" stroke="black" d="M283.43,-1130.31C270.43,-1118.8 253.3,-1100.84 245.73,-1080.76 238.3,-1061.07 238.48,-1037.18 240.32,-1018.97"/>
<polygon fill="black" stroke="black" points="243.78,-1019.51 241.55,-1009.15 236.83,-1018.64 243.78,-1019.51"/>
<text text-anchor="middle" x="252.85" y="-1059.09" font-family="Helvetica,sans-Serif" font-size="9.00">yes</text>
</g>
<!-- specify&#45;&gt;clarify_gate -->
<g id="edge10" class="edge">
<title>specify&#45;&gt;clarify_gate</title>
<path fill="none" stroke="black" d="M295.76,-1044.58C287.13,-1035.43 276.4,-1024.06 267.02,-1014.13"/>
<polygon fill="black" stroke="black" points="269.67,-1011.84 260.26,-1006.97 264.58,-1016.64 269.67,-1011.84"/>
</g>
<!-- clarify -->
<g id="node8" class="node">
<title>clarify</title>
<polygon fill="none" stroke="black" points="318.85,-926.01 239.1,-926.01 239.1,-890.01 318.85,-890.01 318.85,-926.01"/>
<text text-anchor="middle" x="278.98" y="-904.14" font-family="Helvetica,sans-Serif" font-size="10.00">spec&#45;kit&#45;clarify</text>
</g>
<!-- clarify_gate&#45;&gt;clarify -->
<g id="edge11" class="edge">
<title>clarify_gate&#45;&gt;clarify</title>
<path fill="none" stroke="black" d="M252.02,-972.24C256.4,-961.97 262.14,-948.51 267.19,-936.65"/>
<polygon fill="black" stroke="black" points="270.29,-938.31 270.99,-927.74 263.85,-935.56 270.29,-938.31"/>
<text text-anchor="middle" x="271.14" y="-945.21" font-family="Helvetica,sans-Serif" font-size="9.00">yes</text>
</g>
<!-- plan -->
<g id="node9" class="node">
<title>plan</title>
<polygon fill="none" stroke="black" points="280.73,-844.26 209.23,-844.26 209.23,-808.26 280.73,-808.26 280.73,-844.26"/>
<text text-anchor="middle" x="244.98" y="-822.39" font-family="Helvetica,sans-Serif" font-size="10.00">spec&#45;kit&#45;plan</text>
</g>
<!-- clarify_gate&#45;&gt;plan -->
<g id="edge12" class="edge">
<title>clarify_gate&#45;&gt;plan</title>
<path fill="none" stroke="black" d="M236.34,-972.53C230.28,-960.16 222.7,-942.52 219.48,-926.01 216.41,-910.31 216.41,-905.72 219.48,-890.01 221.8,-878.11 226.39,-865.61 231.05,-854.92"/>
<polygon fill="black" stroke="black" points="234.19,-856.47 235.2,-845.93 227.83,-853.54 234.19,-856.47"/>
<text text-anchor="middle" x="224.73" y="-904.34" font-family="Helvetica,sans-Serif" font-size="9.00">no</text>
</g>
<!-- clarify&#45;&gt;plan -->
<g id="edge13" class="edge">
<title>clarify&#45;&gt;plan</title>
<path fill="none" stroke="black" d="M271.6,-889.71C267.28,-879.57 261.72,-866.53 256.8,-854.99"/>
<polygon fill="black" stroke="black" points="260.07,-853.75 252.93,-845.93 253.63,-856.5 260.07,-853.75"/>
</g>
<!-- tasks -->
<g id="node10" class="node">
<title>tasks</title>
<polygon fill="none" stroke="black" points="283.73,-771.26 206.23,-771.26 206.23,-735.26 283.73,-735.26 283.73,-771.26"/>
<text text-anchor="middle" x="244.98" y="-749.39" font-family="Helvetica,sans-Serif" font-size="10.00">spec&#45;kit&#45;tasks</text>
</g>
<!-- plan&#45;&gt;tasks -->
<g id="edge14" class="edge">
<title>plan&#45;&gt;tasks</title>
<path fill="none" stroke="black" d="M244.98,-808.08C244.98,-800.49 244.98,-791.37 244.98,-782.8"/>
<polygon fill="black" stroke="black" points="248.48,-782.81 244.98,-772.81 241.48,-782.81 248.48,-782.81"/>
</g>
<!-- has_tasks -->
<g id="node15" class="node">
<title>has_tasks</title>
<polygon fill="none" stroke="black" points="244.98,-698.26 168.83,-680.26 244.98,-662.26 321.12,-680.26 244.98,-698.26"/>
<text text-anchor="middle" x="244.98" y="-676.39" font-family="Helvetica,sans-Serif" font-size="10.00">tasks.md exists?</text>
</g>
<!-- tasks&#45;&gt;has_tasks -->
<g id="edge15" class="edge">
<title>tasks&#45;&gt;has_tasks</title>
<path fill="none" stroke="black" d="M244.98,-735.08C244.98,-727.49 244.98,-718.37 244.98,-709.8"/>
<polygon fill="black" stroke="black" points="248.48,-709.81 244.98,-699.81 241.48,-709.81 248.48,-709.81"/>
</g>
<!-- analyze_gate -->
<g id="node11" class="node">
<title>analyze_gate</title>
<polygon fill="none" stroke="black" points="94.98,-611.17 0,-593.17 94.98,-575.17 189.95,-593.17 94.98,-611.17"/>
<text text-anchor="middle" x="94.98" y="-589.29" font-family="Helvetica,sans-Serif" font-size="10.00">Run spec&#45;kit&#45;analyze?</text>
</g>
<!-- analyze -->
<g id="node12" class="node">
<title>analyze</title>
<polygon fill="none" stroke="black" points="257.6,-524.08 170.35,-524.08 170.35,-488.08 257.6,-488.08 257.6,-524.08"/>
<text text-anchor="middle" x="213.98" y="-502.2" font-family="Helvetica,sans-Serif" font-size="10.00">spec&#45;kit&#45;analyze</text>
</g>
<!-- analyze_gate&#45;&gt;analyze -->
<g id="edge18" class="edge">
<title>analyze_gate&#45;&gt;analyze</title>
<path fill="none" stroke="black" d="M114.09,-578.5C131.95,-565.73 158.99,-546.39 180.44,-531.06"/>
<polygon fill="black" stroke="black" points="182.21,-534.09 188.31,-525.43 178.14,-528.4 182.21,-534.09"/>
<text text-anchor="middle" x="191.22" y="-543.28" font-family="Helvetica,sans-Serif" font-size="9.00">recommended</text>
</g>
<!-- implement -->
<g id="node17" class="node">
<title>implement</title>
<polygon fill="none" stroke="black" points="328.23,-296.33 229.73,-296.33 229.73,-260.33 328.23,-260.33 328.23,-296.33"/>
<text text-anchor="middle" x="278.98" y="-274.45" font-family="Helvetica,sans-Serif" font-size="10.00">spec&#45;kit&#45;implement</text>
</g>
<!-- analyze_gate&#45;&gt;implement -->
<g id="edge19" class="edge">
<title>analyze_gate&#45;&gt;implement</title>
<path fill="none" stroke="black" d="M102.31,-576.23C109.36,-559.41 118.98,-531.94 118.98,-507.08 118.98,-507.08 118.98,-507.08 118.98,-350.33 118.98,-305.22 172.76,-288.55 217.96,-282.51"/>
<polygon fill="black" stroke="black" points="218.2,-286 227.72,-281.36 217.38,-279.05 218.2,-286"/>
<text text-anchor="middle" x="127.23" y="-429.4" font-family="Helvetica,sans-Serif" font-size="9.00">skip</text>
</g>
<!-- analyze_blocking -->
<g id="node13" class="node">
<title>analyze_blocking</title>
<polygon fill="none" stroke="black" points="278.98,-451.08 199.06,-433.08 278.98,-415.08 358.89,-433.08 278.98,-451.08"/>
<text text-anchor="middle" x="278.98" y="-429.2" font-family="Helvetica,sans-Serif" font-size="10.00">Blocking findings?</text>
</g>
<!-- analyze&#45;&gt;analyze_blocking -->
<g id="edge20" class="edge">
<title>analyze&#45;&gt;analyze_blocking</title>
<path fill="none" stroke="black" d="M229.71,-487.89C238.31,-478.49 249.07,-466.74 258.34,-456.62"/>
<polygon fill="black" stroke="black" points="260.81,-459.1 264.98,-449.36 255.65,-454.37 260.81,-459.1"/>
</g>
<!-- analyze_blocking&#45;&gt;reconcile -->
<g id="edge21" class="edge">
<title>analyze_blocking&#45;&gt;reconcile</title>
<path fill="none" stroke="black" d="M293.78,-418.18C305.79,-406.92 323.02,-390.75 337.41,-377.25"/>
<polygon fill="black" stroke="black" points="339.48,-380.1 344.38,-370.71 334.69,-375 339.48,-380.1"/>
<text text-anchor="middle" x="333.69" y="-388.53" font-family="Helvetica,sans-Serif" font-size="9.00">yes</text>
</g>
<!-- analyze_blocking&#45;&gt;implement -->
<g id="edge22" class="edge">
<title>analyze_blocking&#45;&gt;implement</title>
<path fill="none" stroke="black" d="M278.98,-414.85C278.98,-388.95 278.98,-339.67 278.98,-308.21"/>
<polygon fill="black" stroke="black" points="282.48,-308.24 278.98,-298.24 275.48,-308.24 282.48,-308.24"/>
<text text-anchor="middle" x="284.23" y="-347.65" font-family="Helvetica,sans-Serif" font-size="9.00">no</text>
</g>
<!-- reconcile&#45;&gt;has_const -->
<g id="edge4" class="edge">
<title>reconcile&#45;&gt;has_const</title>
<path fill="none" stroke="black" d="M381.1,-369.69C394.18,-384.84 409.98,-408.1 409.98,-432.08 409.98,-1218.51 409.98,-1218.51 409.98,-1218.51 409.98,-1239.94 397.23,-1260.68 385.01,-1275.64"/>
<polygon fill="black" stroke="black" points="382.51,-1273.18 378.58,-1283.02 387.79,-1277.77 382.51,-1273.18"/>
<text text-anchor="middle" x="427.6" y="-822.59" font-family="Helvetica,sans-Serif" font-size="9.00">continue</text>
</g>
<!-- reconcile&#45;&gt;implement -->
<g id="edge23" class="edge">
<title>reconcile&#45;&gt;implement</title>
<path fill="none" stroke="black" d="M343.4,-333.14C332.83,-324.31 319.76,-313.4 308.17,-303.71"/>
<polygon fill="black" stroke="black" points="310.74,-301.3 300.82,-297.57 306.25,-306.67 310.74,-301.3"/>
</g>
<!-- has_tasks&#45;&gt;analyze_gate -->
<g id="edge16" class="edge">
<title>has_tasks&#45;&gt;analyze_gate</title>
<path fill="none" stroke="black" d="M223.48,-667.07C198.41,-652.85 156.69,-629.18 127.61,-612.68"/>
<polygon fill="black" stroke="black" points="129.64,-609.81 119.22,-607.92 126.19,-615.9 129.64,-609.81"/>
<text text-anchor="middle" x="186.08" y="-635.71" font-family="Helvetica,sans-Serif" font-size="9.00">yes</text>
</g>
<!-- stop_tasks -->
<g id="node16" class="node">
<title>stop_tasks</title>
<polygon fill="red" stroke="black" points="381.84,-583.5 381.84,-602.84 330.96,-616.51 258.99,-616.51 208.11,-602.84 208.11,-583.5 258.99,-569.83 330.96,-569.83 381.84,-583.5"/>
<text text-anchor="middle" x="294.98" y="-594.92" font-family="Helvetica,sans-Serif" font-size="10.00" fill="white">STOP:</text>
<text text-anchor="middle" x="294.98" y="-583.67" font-family="Helvetica,sans-Serif" font-size="10.00" fill="white">run spec&#45;kit&#45;tasks first</text>
</g>
<!-- has_tasks&#45;&gt;stop_tasks -->
<g id="edge17" class="edge">
<title>has_tasks&#45;&gt;stop_tasks</title>
<path fill="none" stroke="black" d="M253.91,-664.05C259.99,-653.72 268.25,-639.65 275.78,-626.84"/>
<polygon fill="black" stroke="black" points="278.78,-628.64 280.83,-618.25 272.75,-625.09 278.78,-628.64"/>
<text text-anchor="middle" x="275.23" y="-635.71" font-family="Helvetica,sans-Serif" font-size="9.00">no</text>
</g>
<!-- post_impl_gaps -->
<g id="node18" class="node">
<title>post_impl_gaps</title>
<polygon fill="none" stroke="black" points="320.98,-223.33 215.73,-192.83 320.98,-162.33 426.23,-192.83 320.98,-223.33"/>
<text text-anchor="middle" x="320.98" y="-194.58" font-family="Helvetica,sans-Serif" font-size="10.00">Post&#45;implementation</text>
<text text-anchor="middle" x="320.98" y="-183.33" font-family="Helvetica,sans-Serif" font-size="10.00">gaps found?</text>
</g>
<!-- implement&#45;&gt;post_impl_gaps -->
<g id="edge24" class="edge">
<title>implement&#45;&gt;post_impl_gaps</title>
<path fill="none" stroke="black" d="M287.68,-260.03C292.04,-251.35 297.49,-240.51 302.72,-230.13"/>
<polygon fill="black" stroke="black" points="305.77,-231.85 307.13,-221.35 299.51,-228.71 305.77,-231.85"/>
</g>
<!-- post_impl_gaps&#45;&gt;reconcile -->
<g id="edge26" class="edge">
<title>post_impl_gaps&#45;&gt;reconcile</title>
<path fill="none" stroke="black" d="M328.58,-221.51C336.37,-249.84 348.4,-293.64 356.23,-322.15"/>
<polygon fill="black" stroke="black" points="352.78,-322.81 358.81,-331.52 359.53,-320.95 352.78,-322.81"/>
<text text-anchor="middle" x="356.14" y="-274.65" font-family="Helvetica,sans-Serif" font-size="9.00">yes</text>
</g>
<!-- done -->
<g id="node19" class="node">
<title>done</title>
<ellipse fill="none" stroke="black" cx="320.98" cy="-58.29" rx="54.29" ry="54.29"/>
<ellipse fill="none" stroke="black" cx="320.98" cy="-58.29" rx="58.29" ry="58.29"/>
<text text-anchor="middle" x="320.98" y="-54.41" font-family="Helvetica,sans-Serif" font-size="10.00">Feature complete</text>
</g>
<!-- post_impl_gaps&#45;&gt;done -->
<g id="edge25" class="edge">
<title>post_impl_gaps&#45;&gt;done</title>
<path fill="none" stroke="black" d="M320.98,-162.08C320.98,-151.96 320.98,-140.19 320.98,-128.29"/>
<polygon fill="black" stroke="black" points="324.48,-128.42 320.98,-118.42 317.48,-128.42 324.48,-128.42"/>
<text text-anchor="middle" x="326.23" y="-135.78" font-family="Helvetica,sans-Serif" font-size="9.00">no</text>
</g>
</g>
</svg>
