<?xml version="1.0" encoding="UTF-8" standalone="no"?>
<!DOCTYPE svg PUBLIC "-//W3C//DTD SVG 1.1//EN"
 "http://www.w3.org/Graphics/SVG/1.1/DTD/svg11.dtd">
<!-- Generated by graphviz version 12.2.1 (0)
 -->
<!-- Title: spec_kit_workflow Pages: 1 -->
<svg width="930pt" height="2310pt"
 viewBox="0.00 0.00 930.06 2310.27" xmlns="http://www.w3.org/2000/svg" xmlns:xlink="http://www.w3.org/1999/xlink">
<g id="graph0" class="graph" transform="scale(1 1) rotate(0) translate(4 2306.27)">
<title>spec_kit_workflow</title>
<polygon fill="white" stroke="none" points="-4,4 -4,-2306.27 926.06,-2306.27 926.06,4 -4,4"/>
<text text-anchor="middle" x="461.03" y="-2281.17" font-family="Helvetica,sans-Serif" font-size="18.00">Spec Kit: Workflow Routing</text>
<!-- start -->
<g id="node1" class="node">
<title>start</title>
<ellipse fill="none" stroke="black" cx="360.88" cy="-2216.19" rx="55.33" ry="55.33"/>
<ellipse fill="none" stroke="black" cx="360.88" cy="-2216.19" rx="59.33" ry="59.33"/>
<text text-anchor="middle" x="360.88" y="-2217.74" font-family="Helvetica,sans-Serif" font-size="11.00">User request</text>
<text text-anchor="middle" x="360.88" y="-2205.74" font-family="Helvetica,sans-Serif" font-size="11.00">arrives</text>
</g>
<!-- q_intent -->
<g id="node2" class="node">
<title>q_intent</title>
<polygon fill="none" stroke="black" points="360.88,-2119.86 275.12,-2087.86 360.87,-2055.86 446.62,-2087.86 360.88,-2119.86"/>
<text text-anchor="middle" x="360.88" y="-2089.41" font-family="Helvetica,sans-Serif" font-size="11.00">What does the</text>
<text text-anchor="middle" x="360.88" y="-2077.41" font-family="Helvetica,sans-Serif" font-size="11.00">user need?</text>
</g>
<!-- start&#45;&gt;q_intent -->
<g id="edge1" class="edge">
<title>start&#45;&gt;q_intent</title>
<path fill="none" stroke="black" d="M360.88,-2156.46C360.88,-2148.06 360.88,-2139.56 360.88,-2131.55"/>
<polygon fill="black" stroke="black" points="364.38,-2131.75 360.88,-2121.75 357.38,-2131.75 364.38,-2131.75"/>
</g>
<!-- act_constitution -->
<g id="node3" class="node">
<title>act_constitution</title>
<polygon fill="none" stroke="black" points="133.75,-1971.36 0,-1971.36 0,-1935.36 133.75,-1935.36 133.75,-1971.36"/>
<text text-anchor="middle" x="66.88" y="-1948.91" font-family="Helvetica,sans-Serif" font-size="11.00">Run spec&#45;kit&#45;constitution</text>
</g>
<!-- q_intent&#45;&gt;act_constitution -->
<g id="edge2" class="edge">
<title>q_intent&#45;&gt;act_constitution</title>
<path fill="none" stroke="black" d="M316.61,-2071.96C290.22,-2062.77 256.22,-2050.38 226.62,-2037.86 188.55,-2021.75 179.5,-2016.55 142.88,-1997.36 130.93,-1991.1 118.11,-1984 106.47,-1977.4"/>
<polygon fill="black" stroke="black" points="108.32,-1974.43 97.9,-1972.51 104.85,-1980.51 108.32,-1974.43"/>
<text text-anchor="middle" x="251.75" y="-2028.36" font-family="Helvetica,sans-Serif" font-size="10.00">governance</text>
<text text-anchor="middle" x="251.75" y="-2017.11" font-family="Helvetica,sans-Serif" font-size="10.00">update</text>
</g>
<!-- act_analyze_solo -->
<g id="node5" class="node">
<title>act_analyze_solo</title>
<polygon fill="none" stroke="black" points="268.12,-1971.36 151.62,-1971.36 151.62,-1935.36 268.12,-1935.36 268.12,-1971.36"/>
<text text-anchor="middle" x="209.88" y="-1954.91" font-family="Helvetica,sans-Serif" font-size="11.00">Run spec&#45;kit&#45;analyze</text>
<text text-anchor="middle" x="209.88" y="-1942.91" font-family="Helvetica,sans-Serif" font-size="11.00">(read&#45;only audit)</text>
</g>
<!-- q_intent&#45;&gt;act_analyze_solo -->
<g id="edge4" class="edge">
<title>q_intent&#45;&gt;act_analyze_solo</title>
<path fill="none" stroke="black" d="M335.94,-2064.98C309.03,-2041.37 266.26,-2003.84 238.13,-1979.15"/>
<polygon fill="black" stroke="black" points="240.51,-1976.59 230.69,-1972.62 235.89,-1981.85 240.51,-1976.59"/>
<text text-anchor="middle" x="321.34" y="-2028.36" font-family="Helvetica,sans-Serif" font-size="10.00">analysis</text>
<text text-anchor="middle" x="321.34" y="-2017.11" font-family="Helvetica,sans-Serif" font-size="10.00">only</text>
</g>
<!-- act_reconcile_solo -->
<g id="node7" class="node">
<title>act_reconcile_solo</title>
<polygon fill="none" stroke="black" points="435.25,-1971.36 286.5,-1971.36 286.5,-1935.36 435.25,-1935.36 435.25,-1971.36"/>
<text text-anchor="middle" x="360.88" y="-1954.91" font-family="Helvetica,sans-Serif" font-size="11.00">Run spec&#45;kit&#45;reconcile</text>
<text text-anchor="middle" x="360.88" y="-1942.91" font-family="Helvetica,sans-Serif" font-size="11.00">(first&#45;class drift remediation)</text>
</g>
<!-- q_intent&#45;&gt;act_reconcile_solo -->
<g id="edge5" class="edge">
<title>q_intent&#45;&gt;act_reconcile_solo</title>
<path fill="none" stroke="black" d="M360.88,-2055.46C360.88,-2033.48 360.88,-2004.34 360.88,-1983"/>
<polygon fill="black" stroke="black" points="364.38,-1983.25 360.88,-1973.25 357.38,-1983.25 364.38,-1983.25"/>
<text text-anchor="middle" x="382.25" y="-2028.36" font-family="Helvetica,sans-Serif" font-size="10.00">drift at</text>
<text text-anchor="middle" x="382.25" y="-2017.11" font-family="Helvetica,sans-Serif" font-size="10.00">any stage</text>
</g>
<!-- act_checklist_solo -->
<g id="node9" class="node">
<title>act_checklist_solo</title>
<polygon fill="none" stroke="black" points="574,-1971.36 453.75,-1971.36 453.75,-1935.36 574,-1935.36 574,-1971.36"/>
<text text-anchor="middle" x="513.88" y="-1954.91" font-family="Helvetica,sans-Serif" font-size="11.00">Run spec&#45;kit&#45;checklist</text>
<text text-anchor="middle" x="513.88" y="-1942.91" font-family="Helvetica,sans-Serif" font-size="11.00">(requirements quality)</text>
</g>
<!-- q_intent&#45;&gt;act_checklist_solo -->
<g id="edge6" class="edge">
<title>q_intent&#45;&gt;act_checklist_solo</title>
<path fill="none" stroke="black" d="M386.14,-2064.98C413.4,-2041.37 456.74,-2003.84 485.25,-1979.15"/>
<polygon fill="black" stroke="black" points="487.53,-1981.81 492.8,-1972.61 482.95,-1976.51 487.53,-1981.81"/>
<text text-anchor="middle" x="461.46" y="-2028.36" font-family="Helvetica,sans-Serif" font-size="10.00">checklist</text>
<text text-anchor="middle" x="461.46" y="-2017.11" font-family="Helvetica,sans-Serif" font-size="10.00">only</text>
</g>
<!-- q_has_constitution -->
<g id="node11" class="node">
<title>q_has_constitution</title>
<polygon fill="none" stroke="black" points="679.88,-1997.36 591.88,-1953.36 679.88,-1909.36 767.88,-1953.36 679.88,-1997.36"/>
<text text-anchor="middle" x="679.88" y="-1960.91" font-family="Helvetica,sans-Serif" font-size="11.00">Does</text>
<text text-anchor="middle" x="679.88" y="-1948.91" font-family="Helvetica,sans-Serif" font-size="11.00">constitution.md</text>
<text text-anchor="middle" x="679.88" y="-1936.91" font-family="Helvetica,sans-Serif" font-size="11.00">exist?</text>
</g>
<!-- q_intent&#45;&gt;q_has_constitution -->
<g id="edge3" class="edge">
<title>q_intent&#45;&gt;q_has_constitution</title>
<path fill="none" stroke="black" d="M402.01,-2070.89C446.74,-2053.37 520.23,-2024.19 582.88,-1997.36 596.1,-1991.7 610.29,-1985.48 623.62,-1979.59"/>
<polygon fill="black" stroke="black" points="624.99,-1982.81 632.71,-1975.56 622.15,-1976.41 624.99,-1982.81"/>
<text text-anchor="middle" x="549.52" y="-2028.36" font-family="Helvetica,sans-Serif" font-size="10.00">feature</text>
<text text-anchor="middle" x="549.52" y="-2017.11" font-family="Helvetica,sans-Serif" font-size="10.00">work</text>
</g>
<!-- done_gov -->
<g id="node4" class="node">
<title>done_gov</title>
<ellipse fill="none" stroke="black" cx="66.88" cy="-1799.6" rx="51.62" ry="51.62"/>
<ellipse fill="none" stroke="black" cx="66.88" cy="-1799.6" rx="55.62" ry="55.62"/>
<text text-anchor="middle" x="66.88" y="-1801.15" font-family="Helvetica,sans-Serif" font-size="11.00">Constitution</text>
<text text-anchor="middle" x="66.88" y="-1789.15" font-family="Helvetica,sans-Serif" font-size="11.00">updated</text>
</g>
<!-- act_constitution&#45;&gt;done_gov -->
<g id="edge7" class="edge">
<title>act_constitution&#45;&gt;done_gov</title>
<path fill="none" stroke="black" d="M66.88,-1934.95C66.88,-1918.21 66.88,-1891.82 66.88,-1866.85"/>
<polygon fill="black" stroke="black" points="70.38,-1867.03 66.88,-1857.03 63.38,-1867.03 70.38,-1867.03"/>
</g>
<!-- done_analyze_solo -->
<g id="node6" class="node">
<title>done_analyze_solo</title>
<ellipse fill="none" stroke="black" cx="209.88" cy="-1799.6" rx="42.07" ry="42.07"/>
<ellipse fill="none" stroke="black" cx="209.88" cy="-1799.6" rx="46.07" ry="46.07"/>
<text text-anchor="middle" x="209.88" y="-1801.15" font-family="Helvetica,sans-Serif" font-size="11.00">Analysis</text>
<text text-anchor="middle" x="209.88" y="-1789.15" font-family="Helvetica,sans-Serif" font-size="11.00">delivered</text>
</g>
<!-- act_analyze_solo&#45;&gt;done_analyze_solo -->
<g id="edge8" class="edge">
<title>act_analyze_solo&#45;&gt;done_analyze_solo</title>
<path fill="none" stroke="black" d="M209.88,-1934.95C209.88,-1916 209.88,-1884.69 209.88,-1857.06"/>
<polygon fill="black" stroke="black" points="213.38,-1857.41 209.88,-1847.41 206.38,-1857.41 213.38,-1857.41"/>
</g>
<!-- done_reconcile_solo -->
<g id="node8" class="node">
<title>done_reconcile_solo</title>
<ellipse fill="none" stroke="black" cx="360.88" cy="-1799.6" rx="58.51" ry="58.51"/>
<ellipse fill="none" stroke="black" cx="360.88" cy="-1799.6" rx="62.51" ry="62.51"/>
<text text-anchor="middle" x="360.88" y="-1801.15" font-family="Helvetica,sans-Serif" font-size="11.00">Reconciliation</text>
<text text-anchor="middle" x="360.88" y="-1789.15" font-family="Helvetica,sans-Serif" font-size="11.00">delivered</text>
</g>
<!-- act_reconcile_solo&#45;&gt;done_reconcile_solo -->
<g id="edge9" class="edge">
<title>act_reconcile_solo&#45;&gt;done_reconcile_solo</title>
<path fill="none" stroke="black" d="M360.88,-1934.95C360.88,-1919.76 360.88,-1896.65 360.88,-1873.85"/>
<polygon fill="black" stroke="black" points="364.38,-1873.88 360.88,-1863.88 357.38,-1873.88 364.38,-1873.88"/>
</g>
<!-- done_checklist_solo -->
<g id="node10" class="node">
<title>done_checklist_solo</title>
<ellipse fill="none" stroke="black" cx="513.88" cy="-1799.6" rx="42.07" ry="42.07"/>
<ellipse fill="none" stroke="black" cx="513.88" cy="-1799.6" rx="46.07" ry="46.07"/>
<text text-anchor="middle" x="513.88" y="-1801.15" font-family="Helvetica,sans-Serif" font-size="11.00">Checklist</text>
<text text-anchor="middle" x="513.88" y="-1789.15" font-family="Helvetica,sans-Serif" font-size="11.00">delivered</text>
</g>
<!-- act_checklist_solo&#45;&gt;done_checklist_solo -->
<g id="edge10" class="edge">
<title>act_checklist_solo&#45;&gt;done_checklist_solo</title>
<path fill="none" stroke="black" d="M513.88,-1934.95C513.88,-1916 513.88,-1884.69 513.88,-1857.06"/>
<polygon fill="black" stroke="black" points="517.38,-1857.41 513.88,-1847.41 510.38,-1857.41 517.38,-1857.41"/>
</g>
<!-- act_create_constitution -->
<g id="node12" class="node">
<title>act_create_constitution</title>
<polygon fill="none" stroke="black" points="818.75,-1817.6 685,-1817.6 685,-1781.6 818.75,-1781.6 818.75,-1817.6"/>
<text text-anchor="middle" x="751.88" y="-1795.15" font-family="Helvetica,sans-Serif" font-size="11.00">Run spec&#45;kit&#45;constitution</text>
</g>
<!-- q_has_constitution&#45;&gt;act_create_constitution -->
<g id="edge12" class="edge">
<title>q_has_constitution&#45;&gt;act_create_constitution</title>
<path fill="none" stroke="black" d="M696.57,-1917.16C709.46,-1890.01 727.02,-1852.98 738.87,-1828.01"/>
<polygon fill="black" stroke="black" points="741.95,-1829.69 743.07,-1819.15 735.62,-1826.69 741.95,-1829.69"/>
<text text-anchor="middle" x="718.97" y="-1881.86" font-family="Helvetica,sans-Serif" font-size="10.00">no</text>
</g>
<!-- q_has_spec -->
<g id="node13" class="node">
<title>q_has_spec</title>
<polygon fill="none" stroke="black" points="662.88,-1700.08 553.12,-1668.08 662.88,-1636.08 772.62,-1668.08 662.88,-1700.08"/>
<text text-anchor="middle" x="662.88" y="-1669.63" font-family="Helvetica,sans-Serif" font-size="11.00">Does spec.md exist</text>
<text text-anchor="middle" x="662.88" y="-1657.63" font-family="Helvetica,sans-Serif" font-size="11.00">for this feature?</text>
</g>
<!-- q_has_constitution&#45;&gt;q_has_spec -->
<g id="edge11" class="edge">
<title>q_has_constitution&#45;&gt;q_has_spec</title>
<path fill="none" stroke="black" d="M669.57,-1914.01C665.79,-1898.09 661.99,-1879.33 660.12,-1862.11 654.15,-1806.86 659,-1792.64 660.12,-1737.08 660.29,-1728.72 660.58,-1719.78 660.91,-1711.22"/>
<polygon fill="black" stroke="black" points="664.4,-1711.53 661.3,-1701.39 657.4,-1711.24 664.4,-1711.53"/>
<text text-anchor="middle" x="668" y="-1795.72" font-family="Helvetica,sans-Serif" font-size="10.00">yes</text>
</g>
<!-- act_create_constitution&#45;&gt;q_has_spec -->
<g id="edge13" class="edge">
<title>act_create_constitution&#45;&gt;q_has_spec</title>
<path fill="none" stroke="black" d="M739.87,-1781.13C726.47,-1761.62 704.41,-1729.53 687.34,-1704.68"/>
<polygon fill="black" stroke="black" points="690.24,-1702.72 681.69,-1696.46 684.47,-1706.69 690.24,-1702.72"/>
</g>
<!-- act_specify -->
<g id="node14" class="node">
<title>act_specify</title>
<polygon fill="none" stroke="black" points="793.25,-1588.83 680.5,-1588.83 680.5,-1552.83 793.25,-1552.83 793.25,-1588.83"/>
<text text-anchor="middle" x="736.88" y="-1566.38" font-family="Helvetica,sans-Serif" font-size="11.00">Run spec&#45;kit&#45;specify</text>
</g>
<!-- q_has_spec&#45;&gt;act_specify -->
<g id="edge15" class="edge">
<title>q_has_spec&#45;&gt;act_specify</title>
<path fill="none" stroke="black" d="M682.71,-1641.56C693.14,-1628.13 705.92,-1611.68 716.44,-1598.14"/>
<polygon fill="black" stroke="black" points="719.01,-1600.53 722.38,-1590.49 713.48,-1596.24 719.01,-1600.53"/>
<text text-anchor="middle" x="713.93" y="-1608.58" font-family="Helvetica,sans-Serif" font-size="10.00">no</text>
</g>
<!-- q_ambiguous -->
<g id="node15" class="node">
<title>q_ambiguous</title>
<polygon fill="none" stroke="black" points="646.88,-1515.83 492.88,-1471.83 646.87,-1427.83 800.88,-1471.83 646.88,-1515.83"/>
<text text-anchor="middle" x="646.88" y="-1479.38" font-family="Helvetica,sans-Serif" font-size="11.00">Spec has ambiguity</text>
<text text-anchor="middle" x="646.88" y="-1467.38" font-family="Helvetica,sans-Serif" font-size="11.00">or NEEDS CLARIFICATION</text>
<text text-anchor="middle" x="646.88" y="-1455.38" font-family="Helvetica,sans-Serif" font-size="11.00">markers?</text>
</g>
<!-- q_has_spec&#45;&gt;q_ambiguous -->
<g id="edge14" class="edge">
<title>q_has_spec&#45;&gt;q_ambiguous</title>
<path fill="none" stroke="black" d="M660.2,-1636.62C658.94,-1622.14 657.43,-1604.6 656.12,-1588.83 654.44,-1568.56 652.65,-1546.3 651.1,-1526.74"/>
<polygon fill="black" stroke="black" points="654.59,-1526.46 650.31,-1516.77 647.61,-1527.02 654.59,-1526.46"/>
<text text-anchor="middle" x="664" y="-1566.96" font-family="Helvetica,sans-Serif" font-size="10.00">yes</text>
</g>
<!-- act_specify&#45;&gt;q_ambiguous -->
<g id="edge16" class="edge">
<title>act_specify&#45;&gt;q_ambiguous</title>
<path fill="none" stroke="black" d="M720.78,-1552.49C711.07,-1542.02 698.24,-1528.19 686,-1515"/>
<polygon fill="black" stroke="black" points="688.88,-1512.96 679.52,-1508.01 683.75,-1517.73 688.88,-1512.96"/>
</g>
<!-- act_clarify -->
<g id="node16" class="node">
<title>act_clarify</title>
<polygon fill="none" stroke="black" points="713.62,-1380.58 606.12,-1380.58 606.12,-1344.58 713.62,-1344.58 713.62,-1380.58"/>
<text text-anchor="middle" x="659.88" y="-1364.13" font-family="Helvetica,sans-Serif" font-size="11.00">Run spec&#45;kit&#45;clarify</text>
<text text-anchor="middle" x="659.88" y="-1352.13" font-family="Helvetica,sans-Serif" font-size="11.00">(max 5 questions)</text>
</g>
<!-- q_ambiguous&#45;&gt;act_clarify -->
<g id="edge17" class="edge">
<title>q_ambiguous&#45;&gt;act_clarify</title>
<path fill="none" stroke="black" d="M651.94,-1429.06C653.43,-1416.79 655.02,-1403.66 656.38,-1392.39"/>
<polygon fill="black" stroke="black" points="659.85,-1392.89 657.58,-1382.54 652.9,-1392.04 659.85,-1392.89"/>
<text text-anchor="middle" x="663.17" y="-1400.33" font-family="Helvetica,sans-Serif" font-size="10.00">yes</text>
</g>
<!-- q_has_plan -->
<g id="node17" class="node">
<title>q_has_plan</title>
<polygon fill="none" stroke="black" points="602.88,-1307.58 520.12,-1275.58 602.88,-1243.58 685.62,-1275.58 602.88,-1307.58"/>
<text text-anchor="middle" x="602.88" y="-1277.13" font-family="Helvetica,sans-Serif" font-size="11.00">Does plan.md</text>
<text text-anchor="middle" x="602.88" y="-1265.13" font-family="Helvetica,sans-Serif" font-size="11.00">exist?</text>
</g>
<!-- q_ambiguous&#45;&gt;q_has_plan -->
<g id="edge18" class="edge">
<title>q_ambiguous&#45;&gt;q_has_plan</title>
<path fill="none" stroke="black" d="M616.5,-1436.05C604.65,-1420.24 592.47,-1400.62 586.38,-1380.58 579.85,-1359.14 583.36,-1334.38 588.79,-1314.4"/>
<polygon fill="black" stroke="black" points="592.09,-1315.58 591.62,-1304.99 585.39,-1313.56 592.09,-1315.58"/>
<text text-anchor="middle" x="591.62" y="-1358.71" font-family="Helvetica,sans-Serif" font-size="10.00">no</text>
</g>
<!-- act_clarify&#45;&gt;q_has_plan -->
<g id="edge19" class="edge">
<title>act_clarify&#45;&gt;q_has_plan</title>
<path fill="none" stroke="black" d="M648.34,-1344.38C641.88,-1334.76 633.6,-1322.41 625.88,-1310.89"/>
<polygon fill="black" stroke="black" points="628.9,-1309.11 620.42,-1302.75 623.09,-1313.01 628.9,-1309.11"/>
</g>
<!-- act_plan -->
<g id="node18" class="node">
<title>act_plan</title>
<polygon fill="none" stroke="black" points="652.88,-1180.66 552.88,-1180.66 552.88,-1144.66 652.88,-1144.66 652.88,-1180.66"/>
<text text-anchor="middle" x="602.88" y="-1158.21" font-family="Helvetica,sans-Serif" font-size="11.00">Run spec&#45;kit&#45;plan</text>
</g>
<!-- q_has_plan&#45;&gt;act_plan -->
<g id="edge21" class="edge">
<title>q_has_plan&#45;&gt;act_plan</title>
<path fill="none" stroke="black" d="M602.88,-1243.09C602.88,-1227.07 602.88,-1207.73 602.88,-1192.15"/>
<polygon fill="black" stroke="black" points="606.38,-1192.6 602.88,-1182.6 599.38,-1192.6 606.38,-1192.6"/>
<text text-anchor="middle" x="608.12" y="-1216.08" font-family="Helvetica,sans-Serif" font-size="10.00">no</text>
</g>
<!-- q_has_tasks -->
<g id="node19" class="node">
<title>q_has_tasks</title>
<polygon fill="none" stroke="black" points="518.88,-1081.73 431.62,-1049.73 518.88,-1017.73 606.12,-1049.73 518.88,-1081.73"/>
<text text-anchor="middle" x="518.88" y="-1051.28" font-family="Helvetica,sans-Serif" font-size="11.00">Does tasks.md</text>
<text text-anchor="middle" x="518.88" y="-1039.28" font-family="Helvetica,sans-Serif" font-size="11.00">exist?</text>
</g>
<!-- q_has_plan&#45;&gt;q_has_tasks -->
<g id="edge20" class="edge">
<title>q_has_plan&#45;&gt;q_has_tasks</title>
<path fill="none" stroke="black" d="M575.01,-1253.92C558.24,-1239.75 538.23,-1219.39 528.12,-1196.33 513.68,-1163.36 512.42,-1122.12 514.16,-1091.95"/>
<polygon fill="black" stroke="black" points="517.64,-1092.31 514.88,-1082.08 510.66,-1091.8 517.64,-1092.31"/>
<text text-anchor="middle" x="536" y="-1158.78" font-family="Helvetica,sans-Serif" font-size="10.00">yes</text>
</g>
<!-- act_plan&#45;&gt;q_has_tasks -->
<g id="edge22" class="edge">
<title>act_plan&#45;&gt;q_has_tasks</title>
<path fill="none" stroke="black" d="M589.75,-1144.33C577.64,-1128.33 559.32,-1104.15 544.34,-1084.37"/>
<polygon fill="black" stroke="black" points="547.26,-1082.42 538.43,-1076.56 541.68,-1086.64 547.26,-1082.42"/>
</g>
<!-- act_tasks -->
<g id="node20" class="node">
<title>act_tasks</title>
<polygon fill="none" stroke="black" points="571.12,-954.81 466.62,-954.81 466.62,-918.81 571.12,-918.81 571.12,-954.81"/>
<text text-anchor="middle" x="518.88" y="-932.36" font-family="Helvetica,sans-Serif" font-size="11.00">Run spec&#45;kit&#45;tasks</text>
</g>
<!-- q_has_tasks&#45;&gt;act_tasks -->
<g id="edge24" class="edge">
<title>q_has_tasks&#45;&gt;act_tasks</title>
<path fill="none" stroke="black" d="M518.88,-1017.24C518.88,-1001.21 518.88,-981.88 518.88,-966.3"/>
<polygon fill="black" stroke="black" points="522.38,-966.75 518.88,-956.75 515.38,-966.75 522.38,-966.75"/>
<text text-anchor="middle" x="524.12" y="-990.23" font-family="Helvetica,sans-Serif" font-size="10.00">no</text>
</g>
<!-- q_run_analyze -->
<g id="node21" class="node">
<title>q_run_analyze</title>
<polygon fill="none" stroke="black" points="432.88,-866.13 314.12,-834.13 432.87,-802.13 551.62,-834.13 432.88,-866.13"/>
<text text-anchor="middle" x="432.88" y="-835.68" font-family="Helvetica,sans-Serif" font-size="11.00">Run cross&#45;artifact</text>
<text text-anchor="middle" x="432.88" y="-823.68" font-family="Helvetica,sans-Serif" font-size="11.00">consistency analysis?</text>
</g>
<!-- q_has_tasks&#45;&gt;q_run_analyze -->
<g id="edge23" class="edge">
<title>q_has_tasks&#45;&gt;q_run_analyze</title>
<path fill="none" stroke="black" d="M489.93,-1027.89C472.8,-1013.79 452.49,-993.57 442.12,-970.48 428.96,-941.15 427.2,-904.62 428.43,-876.9"/>
<polygon fill="black" stroke="black" points="431.91,-877.31 429.03,-867.12 424.93,-876.89 431.91,-877.31"/>
<text text-anchor="middle" x="450" y="-932.93" font-family="Helvetica,sans-Serif" font-size="10.00">yes</text>
</g>
<!-- act_tasks&#45;&gt;q_run_analyze -->
<g id="edge25" class="edge">
<title>act_tasks&#45;&gt;q_run_analyze</title>
<path fill="none" stroke="black" d="M504.29,-918.73C492.7,-905.16 476.12,-885.76 461.86,-869.06"/>
<polygon fill="black" stroke="black" points="464.79,-867.1 455.63,-861.77 459.47,-871.65 464.79,-867.1"/>
</g>
<!-- act_analyze -->
<g id="node22" class="node">
<title>act_analyze</title>
<polygon fill="none" stroke="black" points="495.12,-754.88 378.62,-754.88 378.62,-718.88 495.12,-718.88 495.12,-754.88"/>
<text text-anchor="middle" x="436.88" y="-732.43" font-family="Helvetica,sans-Serif" font-size="11.00">Run spec&#45;kit&#45;analyze</text>
</g>
<!-- q_run_analyze&#45;&gt;act_analyze -->
<g id="edge26" class="edge">
<title>q_run_analyze&#45;&gt;act_analyze</title>
<path fill="none" stroke="black" d="M434.17,-802.2C434.65,-790.8 435.19,-777.92 435.66,-766.71"/>
<polygon fill="black" stroke="black" points="439.16,-766.98 436.08,-756.85 432.16,-766.69 439.16,-766.98"/>
<text text-anchor="middle" x="466.1" y="-774.63" font-family="Helvetica,sans-Serif" font-size="10.00">recommended</text>
</g>
<!-- q_run_checklist -->
<g id="node25" class="node">
<title>q_run_checklist</title>
<polygon fill="none" stroke="black" points="318.88,-497.63 224.12,-453.63 318.87,-409.63 413.62,-453.63 318.88,-497.63"/>
<text text-anchor="middle" x="318.88" y="-461.18" font-family="Helvetica,sans-Serif" font-size="11.00">Generate quality</text>
<text text-anchor="middle" x="318.88" y="-449.18" font-family="Helvetica,sans-Serif" font-size="11.00">checklist before</text>
<text text-anchor="middle" x="318.88" y="-437.18" font-family="Helvetica,sans-Serif" font-size="11.00">implementing?</text>
</g>
<!-- q_run_analyze&#45;&gt;q_run_checklist -->
<g id="edge27" class="edge">
<title>q_run_analyze&#45;&gt;q_run_checklist</title>
<path fill="none" stroke="black" d="M378.59,-816.38C343.71,-801.86 304.88,-776.94 304.88,-737.88 304.88,-737.88 304.88,-737.88 304.88,-551.63 304.88,-536.44 306.58,-520.06 308.79,-505.15"/>
<polygon fill="black" stroke="black" points="312.2,-506.01 310.33,-495.58 305.29,-504.9 312.2,-506.01"/>
<text text-anchor="middle" x="313.88" y="-646" font-family="Helvetica,sans-Serif" font-size="10.00">skip</text>
</g>
<!-- q_blocking_issues -->
<g id="node23" class="node">
<title>q_blocking_issues</title>
<polygon fill="none" stroke="black" points="436.88,-681.88 340.62,-649.88 436.87,-617.88 533.12,-649.88 436.88,-681.88"/>
<text text-anchor="middle" x="436.88" y="-651.43" font-family="Helvetica,sans-Serif" font-size="11.00">Blocking findings</text>
<text text-anchor="middle" x="436.88" y="-639.43" font-family="Helvetica,sans-Serif" font-size="11.00">found?</text>
</g>
<!-- act_analyze&#45;&gt;q_blocking_issues -->
<g id="edge28" class="edge">
<title>act_analyze&#45;&gt;q_blocking_issues</title>
<path fill="none" stroke="black" d="M436.88,-718.68C436.88,-711.31 436.88,-702.35 436.88,-693.39"/>
<polygon fill="black" stroke="black" points="440.38,-693.67 436.88,-683.67 433.38,-693.67 440.38,-693.67"/>
</g>
<!-- act_reconcile -->
<g id="node24" class="node">
<title>act_reconcile</title>
<polygon fill="none" stroke="black" points="502.12,-570.63 379.62,-570.63 379.62,-534.63 502.12,-534.63 502.12,-570.63"/>
<text text-anchor="middle" x="440.88" y="-554.18" font-family="Helvetica,sans-Serif" font-size="11.00">Run spec&#45;kit&#45;reconcile</text>
<text text-anchor="middle" x="440.88" y="-542.18" font-family="Helvetica,sans-Serif" font-size="11.00">(targeted edits)</text>
</g>
<!-- q_blocking_issues&#45;&gt;act_reconcile -->
<g id="edge30" class="edge">
<title>q_blocking_issues&#45;&gt;act_reconcile</title>
<path fill="none" stroke="black" d="M438.17,-617.95C438.65,-606.55 439.19,-593.67 439.66,-582.46"/>
<polygon fill="black" stroke="black" points="443.16,-582.73 440.08,-572.6 436.16,-582.44 443.16,-582.73"/>
<text text-anchor="middle" x="447.23" y="-590.38" font-family="Helvetica,sans-Serif" font-size="10.00">yes</text>
</g>
<!-- q_blocking_issues&#45;&gt;q_run_checklist -->
<g id="edge29" class="edge">
<title>q_blocking_issues&#45;&gt;q_run_checklist</title>
<path fill="none" stroke="black" d="M409.78,-626.55C393.59,-612.03 373.67,-591.89 360.38,-570.63 347.72,-550.4 338.22,-525.77 331.52,-504.42"/>
<polygon fill="black" stroke="black" points="334.93,-503.62 328.71,-495.05 328.23,-505.63 334.93,-503.62"/>
<text text-anchor="middle" x="365.62" y="-548.75" font-family="Helvetica,sans-Serif" font-size="10.00">no</text>
</g>
<!-- act_reconcile&#45;&gt;q_run_checklist -->
<g id="edge31" class="edge">
<title>act_reconcile&#45;&gt;q_run_checklist</title>
<path fill="none" stroke="black" d="M419.06,-534.29C403.33,-521.77 381.55,-504.46 362.32,-489.17"/>
<polygon fill="black" stroke="black" points="364.6,-486.51 354.59,-483.03 360.24,-491.99 364.6,-486.51"/>
</g>
<!-- act_checklist -->
<g id="node26" class="node">
<title>act_checklist</title>
<polygon fill="none" stroke="black" points="406,-362.38 285.75,-362.38 285.75,-326.38 406,-326.38 406,-362.38"/>
<text text-anchor="middle" x="345.88" y="-339.93" font-family="Helvetica,sans-Serif" font-size="11.00">Run spec&#45;kit&#45;checklist</text>
</g>
<!-- q_run_checklist&#45;&gt;act_checklist -->
<g id="edge32" class="edge">
<title>q_run_checklist&#45;&gt;act_checklist</title>
<path fill="none" stroke="black" d="M328.62,-413.91C331.97,-400.63 335.64,-386.03 338.74,-373.73"/>
<polygon fill="black" stroke="black" points="342.08,-374.78 341.13,-364.23 335.29,-373.07 342.08,-374.78"/>
<text text-anchor="middle" x="344.25" y="-382.13" font-family="Helvetica,sans-Serif" font-size="10.00">yes</text>
</g>
<!-- act_implement -->
<g id="node27" class="node">
<title>act_implement</title>
<polygon fill="none" stroke="black" points="410.5,-282.89 281.25,-282.89 281.25,-246.89 410.5,-246.89 410.5,-282.89"/>
<text text-anchor="middle" x="345.88" y="-260.44" font-family="Helvetica,sans-Serif" font-size="11.00">Run spec&#45;kit&#45;implement</text>
</g>
<!-- q_run_checklist&#45;&gt;act_implement -->
<g id="edge33" class="edge">
<title>q_run_checklist&#45;&gt;act_implement</title>
<path fill="none" stroke="black" d="M291.19,-422.03C271.3,-396.14 250.56,-358.28 266.38,-326.38 273.88,-311.23 287.21,-298.84 300.82,-289.32"/>
<polygon fill="black" stroke="black" points="302.5,-292.4 308.96,-284 298.67,-286.54 302.5,-292.4"/>
<text text-anchor="middle" x="271.62" y="-340.5" font-family="Helvetica,sans-Serif" font-size="10.00">no</text>
</g>
<!-- act_checklist&#45;&gt;act_implement -->
<g id="edge34" class="edge">
<title>act_checklist&#45;&gt;act_implement</title>
<path fill="none" stroke="black" d="M345.88,-326.18C345.88,-316.92 345.88,-305.24 345.88,-294.64"/>
<polygon fill="black" stroke="black" points="349.38,-294.82 345.88,-284.82 342.38,-294.82 349.38,-294.82"/>
</g>
<!-- q_post_impl_gaps -->
<g id="node28" class="node">
<title>q_post_impl_gaps</title>
<polygon fill="none" stroke="black" points="393.88,-203.4 279.62,-171.4 393.87,-139.4 508.12,-171.4 393.88,-203.4"/>
<text text-anchor="middle" x="393.88" y="-172.95" font-family="Helvetica,sans-Serif" font-size="11.00">Post&#45;implementation</text>
<text text-anchor="middle" x="393.88" y="-160.95" font-family="Helvetica,sans-Serif" font-size="11.00">gaps found?</text>
</g>
<!-- act_implement&#45;&gt;q_post_impl_gaps -->
<g id="edge35" class="edge">
<title>act_implement&#45;&gt;q_post_impl_gaps</title>
<path fill="none" stroke="black" d="M354.9,-246.68C360.39,-236.22 367.61,-222.45 374.35,-209.62"/>
<polygon fill="black" stroke="black" points="377.35,-211.42 378.9,-200.94 371.15,-208.17 377.35,-211.42"/>
</g>
<!-- q_post_impl_gaps&#45;&gt;act_reconcile -->
<g id="edge37" class="edge">
<title>q_post_impl_gaps&#45;&gt;act_reconcile</title>
<path fill="none" stroke="black" d="M415.63,-197.78C428.33,-215.2 441.88,-239.49 441.88,-263.89 441.88,-454.63 441.88,-454.63 441.88,-454.63 441.88,-477.67 441.59,-503.79 441.32,-523.12"/>
<polygon fill="black" stroke="black" points="437.83,-522.9 441.18,-532.94 444.83,-523 437.83,-522.9"/>
<text text-anchor="middle" x="449.75" y="-340.5" font-family="Helvetica,sans-Serif" font-size="10.00">yes</text>
</g>
<!-- done -->
<g id="node29" class="node">
<title>done</title>
<ellipse fill="none" stroke="black" cx="393.88" cy="-46.07" rx="42.07" ry="42.07"/>
<ellipse fill="none" stroke="black" cx="393.88" cy="-46.07" rx="46.07" ry="46.07"/>
<text text-anchor="middle" x="393.88" y="-47.62" font-family="Helvetica,sans-Serif" font-size="11.00">Feature</text>
<text text-anchor="middle" x="393.88" y="-35.62" font-family="Helvetica,sans-Serif" font-size="11.00">complete</text>
</g>
<!-- q_post_impl_gaps&#45;&gt;done -->
<g id="edge36" class="edge">
<title>q_post_impl_gaps&#45;&gt;done</title>
<path fill="none" stroke="black" d="M393.88,-138.96C393.88,-128.25 393.88,-115.93 393.88,-103.85"/>
<polygon fill="black" stroke="black" points="397.38,-103.93 393.88,-93.93 390.38,-103.93 397.38,-103.93"/>
<text text-anchor="middle" x="399.12" y="-111.9" font-family="Helvetica,sans-Serif" font-size="10.00">no</text>
</g>
<!-- warn_plan_no_spec -->
<g id="node30" class="node">
<title>warn_plan_no_spec</title>
<polygon fill="red" stroke="black" points="922.06,-1148.71 922.06,-1176.61 867.47,-1196.33 790.28,-1196.33 735.69,-1176.61 735.69,-1148.71 790.28,-1128.98 867.47,-1128.98 922.06,-1148.71"/>
<text text-anchor="middle" x="828.88" y="-1170.21" font-family="Helvetica,sans-Serif" font-size="11.00" fill="white">STOP: Specify WHAT</text>
<text text-anchor="middle" x="828.88" y="-1158.21" font-family="Helvetica,sans-Serif" font-size="11.00" fill="white">before planning HOW</text>
<text text-anchor="middle" x="828.88" y="-1146.21" font-family="Helvetica,sans-Serif" font-size="11.00" fill="white">(create spec.md first)</text>
</g>
<!-- warn_plan_no_spec&#45;&gt;act_specify -->
<g id="edge38" class="edge">
<title>warn_plan_no_spec&#45;&gt;act_specify</title>
<path fill="none" stroke="black" stroke-dasharray="5,2" d="M828.88,-1196.66C828.88,-1218.72 828.88,-1248.39 828.88,-1274.58 828.88,-1472.83 828.88,-1472.83 828.88,-1472.83 828.88,-1504.08 803.43,-1529.29 779.3,-1546.17"/>
<polygon fill="black" stroke="black" points="777.5,-1543.17 771.09,-1551.61 781.36,-1549.01 777.5,-1543.17"/>
<text text-anchor="middle" x="864.12" y="-1358.71" font-family="Helvetica,sans-Serif" font-size="10.00">create spec first</text>
</g>
<!-- warn_impl_no_tasks -->
<g id="node31" class="node">
<title>warn_impl_no_tasks</title>
<polygon fill="red" stroke="black" points="689.13,-254.74 689.13,-275.03 625.13,-289.38 534.62,-289.38 470.62,-275.03 470.62,-254.74 534.62,-240.4 625.13,-240.4 689.13,-254.74"/>
<text text-anchor="middle" x="579.88" y="-266.44" font-family="Helvetica,sans-Serif" font-size="11.00" fill="white">STOP: Generate tasks.md</text>
<text text-anchor="middle" x="579.88" y="-254.44" font-family="Helvetica,sans-Serif" font-size="11.00" fill="white">before implementing</text>
</g>
<!-- warn_impl_no_tasks&#45;&gt;act_tasks -->
<g id="edge39" class="edge">
<title>warn_impl_no_tasks&#45;&gt;act_tasks</title>
<path fill="none" stroke="black" stroke-dasharray="5,2" d="M579.88,-289.63C579.88,-304.96 579.88,-325.35 579.88,-343.38 579.88,-835.13 579.88,-835.13 579.88,-835.13 579.88,-863.71 561.67,-891.11 545.15,-910.09"/>
<polygon fill="black" stroke="black" points="542.7,-907.59 538.53,-917.33 547.86,-912.31 542.7,-907.59"/>
<text text-anchor="middle" x="616.62" y="-590.38" font-family="Helvetica,sans-Serif" font-size="10.00">create tasks first</text>
</g>
<!-- warn_skip_to_impl -->
<g id="node32" class="node">
<title>warn_skip_to_impl</title>
<polygon fill="red" stroke="black" points="800.69,-922.86 800.69,-950.75 738.7,-970.48 651.05,-970.48 589.06,-950.75 589.06,-922.86 651.05,-903.13 738.7,-903.13 800.69,-922.86"/>
<text text-anchor="middle" x="694.88" y="-944.36" font-family="Helvetica,sans-Serif" font-size="11.00" fill="white">STOP: Do not jump</text>
<text text-anchor="middle" x="694.88" y="-932.36" font-family="Helvetica,sans-Serif" font-size="11.00" fill="white">from specify to implement</text>
<text text-anchor="middle" x="694.88" y="-920.36" font-family="Helvetica,sans-Serif" font-size="11.00" fill="white">(plan and tasks required)</text>
</g>
<!-- warn_skip_to_impl&#45;&gt;q_has_plan -->
<g id="edge40" class="edge">
<title>warn_skip_to_impl&#45;&gt;q_has_plan</title>
<path fill="none" stroke="black" stroke-dasharray="5,2" d="M695.97,-970.59C696.52,-1021.03 693,-1119.85 661.88,-1196.33 654.93,-1213.4 643.31,-1230.03 632.2,-1243.53"/>
<polygon fill="black" stroke="black" points="629.84,-1240.9 626.02,-1250.78 635.17,-1245.45 629.84,-1240.9"/>
<text text-anchor="middle" x="722.28" y="-1101.48" font-family="Helvetica,sans-Serif" font-size="10.00">follow sequence</text>
</g>
</g>
</svg>
