<?xml version="1.0" encoding="UTF-8" standalone="no"?>
<!DOCTYPE svg PUBLIC "-//W3C//DTD SVG 1.1//EN"
 "http://www.w3.org/Graphics/SVG/1.1/DTD/svg11.dtd">
<!-- Generated by graphviz version 12.2.1 (0)
 -->
<!-- Title: spec_kit_workflow Pages: 1 -->
<svg width="1016pt" height="2122pt"
 viewBox="0.00 0.00 1016.13 2122.48" xmlns="http://www.w3.org/2000/svg" xmlns:xlink="http://www.w3.org/1999/xlink">
<g id="graph0" class="graph" transform="scale(1 1) rotate(0) translate(4 2118.48)">
<title>spec_kit_workflow</title>
<polygon fill="white" stroke="none" points="-4,4 -4,-2118.48 1012.13,-2118.48 1012.13,4 -4,4"/>
<text text-anchor="middle" x="504.07" y="-2093.38" font-family="Helvetica,sans-Serif" font-size="18.00">Spec Kit: Workflow Routing</text>
<!-- start -->
<g id="node1" class="node">
<title>start</title>
<ellipse fill="none" stroke="black" cx="257.88" cy="-2028.4" rx="55.33" ry="55.33"/>
<ellipse fill="none" stroke="black" cx="257.88" cy="-2028.4" rx="59.33" ry="59.33"/>
<text text-anchor="middle" x="257.88" y="-2029.95" font-family="Helvetica,sans-Serif" font-size="11.00">User request</text>
<text text-anchor="middle" x="257.88" y="-2017.95" font-family="Helvetica,sans-Serif" font-size="11.00">arrives</text>
</g>
<!-- q_intent -->
<g id="node2" class="node">
<title>q_intent</title>
<polygon fill="none" stroke="black" points="257.88,-1932.07 172.12,-1900.07 257.87,-1868.07 343.62,-1900.07 257.88,-1932.07"/>
<text text-anchor="middle" x="257.88" y="-1901.62" font-family="Helvetica,sans-Serif" font-size="11.00">What does the</text>
<text text-anchor="middle" x="257.88" y="-1889.62" font-family="Helvetica,sans-Serif" font-size="11.00">user need?</text>
</g>
<!-- start&#45;&gt;q_intent -->
<g id="edge1" class="edge">
<title>start&#45;&gt;q_intent</title>
<path fill="none" stroke="black" d="M257.88,-1968.67C257.88,-1960.28 257.88,-1951.77 257.88,-1943.76"/>
<polygon fill="black" stroke="black" points="261.38,-1943.96 257.88,-1933.96 254.38,-1943.96 261.38,-1943.96"/>
</g>
<!-- act_constitution -->
<g id="node3" class="node">
<title>act_constitution</title>
<polygon fill="none" stroke="black" points="133.75,-1783.57 0,-1783.57 0,-1747.57 133.75,-1747.57 133.75,-1783.57"/>
<text text-anchor="middle" x="66.88" y="-1761.12" font-family="Helvetica,sans-Serif" font-size="11.00">Run spec&#45;kit&#45;constitution</text>
</g>
<!-- q_intent&#45;&gt;act_constitution -->
<g id="edge2" class="edge">
<title>q_intent&#45;&gt;act_constitution</title>
<path fill="none" stroke="black" d="M225.46,-1879.91C210.95,-1871.11 193.73,-1860.36 178.62,-1850.07 150.6,-1830.99 119.8,-1807.81 97.65,-1790.71"/>
<polygon fill="black" stroke="black" points="99.96,-1788.08 89.92,-1784.72 95.68,-1793.61 99.96,-1788.08"/>
<text text-anchor="middle" x="203.75" y="-1840.57" font-family="Helvetica,sans-Serif" font-size="10.00">governance</text>
<text text-anchor="middle" x="203.75" y="-1829.32" font-family="Helvetica,sans-Serif" font-size="10.00">update</text>
</g>
<!-- act_analyze_solo -->
<g id="node5" class="node">
<title>act_analyze_solo</title>
<polygon fill="none" stroke="black" points="268.12,-1783.57 151.62,-1783.57 151.62,-1747.57 268.12,-1747.57 268.12,-1783.57"/>
<text text-anchor="middle" x="209.88" y="-1767.12" font-family="Helvetica,sans-Serif" font-size="11.00">Run spec&#45;kit&#45;analyze</text>
<text text-anchor="middle" x="209.88" y="-1755.12" font-family="Helvetica,sans-Serif" font-size="11.00">(read&#45;only audit)</text>
</g>
<!-- q_intent&#45;&gt;act_analyze_solo -->
<g id="edge4" class="edge">
<title>q_intent&#45;&gt;act_analyze_solo</title>
<path fill="none" stroke="black" d="M247.81,-1871.3C239.63,-1848.7 228.14,-1816.98 219.95,-1794.38"/>
<polygon fill="black" stroke="black" points="223.33,-1793.43 216.63,-1785.22 216.74,-1795.81 223.33,-1793.43"/>
<text text-anchor="middle" x="257.59" y="-1840.57" font-family="Helvetica,sans-Serif" font-size="10.00">analysis</text>
<text text-anchor="middle" x="257.59" y="-1829.32" font-family="Helvetica,sans-Serif" font-size="10.00">only</text>
</g>
<!-- act_checklist_solo -->
<g id="node7" class="node">
<title>act_checklist_solo</title>
<polygon fill="none" stroke="black" points="406,-1783.57 285.75,-1783.57 285.75,-1747.57 406,-1747.57 406,-1783.57"/>
<text text-anchor="middle" x="345.88" y="-1767.12" font-family="Helvetica,sans-Serif" font-size="11.00">Run spec&#45;kit&#45;checklist</text>
<text text-anchor="middle" x="345.88" y="-1755.12" font-family="Helvetica,sans-Serif" font-size="11.00">(requirements quality)</text>
</g>
<!-- q_intent&#45;&gt;act_checklist_solo -->
<g id="edge5" class="edge">
<title>q_intent&#45;&gt;act_checklist_solo</title>
<path fill="none" stroke="black" d="M274.63,-1873.84C289.99,-1850.71 312.65,-1816.59 328.27,-1793.07"/>
<polygon fill="black" stroke="black" points="331.04,-1795.23 333.66,-1784.97 325.21,-1791.36 331.04,-1795.23"/>
<text text-anchor="middle" x="324.01" y="-1840.57" font-family="Helvetica,sans-Serif" font-size="10.00">checklist</text>
<text text-anchor="middle" x="324.01" y="-1829.32" font-family="Helvetica,sans-Serif" font-size="10.00">only</text>
</g>
<!-- q_has_constitution -->
<g id="node9" class="node">
<title>q_has_constitution</title>
<polygon fill="none" stroke="black" points="511.88,-1809.57 423.88,-1765.57 511.87,-1721.57 599.88,-1765.57 511.88,-1809.57"/>
<text text-anchor="middle" x="511.88" y="-1773.12" font-family="Helvetica,sans-Serif" font-size="11.00">Does</text>
<text text-anchor="middle" x="511.88" y="-1761.12" font-family="Helvetica,sans-Serif" font-size="11.00">constitution.md</text>
<text text-anchor="middle" x="511.88" y="-1749.12" font-family="Helvetica,sans-Serif" font-size="11.00">exist?</text>
</g>
<!-- q_intent&#45;&gt;q_has_constitution -->
<g id="edge3" class="edge">
<title>q_intent&#45;&gt;q_has_constitution</title>
<path fill="none" stroke="black" d="M292.93,-1880.79C336.09,-1858.27 409.79,-1819.83 459.63,-1793.82"/>
<polygon fill="black" stroke="black" points="460.99,-1797.06 468.24,-1789.34 457.75,-1790.86 460.99,-1797.06"/>
<text text-anchor="middle" x="407.49" y="-1840.57" font-family="Helvetica,sans-Serif" font-size="10.00">feature</text>
<text text-anchor="middle" x="407.49" y="-1829.32" font-family="Helvetica,sans-Serif" font-size="10.00">work</text>
</g>
<!-- done_gov -->
<g id="node4" class="node">
<title>done_gov</title>
<ellipse fill="none" stroke="black" cx="66.88" cy="-1618.7" rx="51.62" ry="51.62"/>
<ellipse fill="none" stroke="black" cx="66.88" cy="-1618.7" rx="55.62" ry="55.62"/>
<text text-anchor="middle" x="66.88" y="-1620.25" font-family="Helvetica,sans-Serif" font-size="11.00">Constitution</text>
<text text-anchor="middle" x="66.88" y="-1608.25" font-family="Helvetica,sans-Serif" font-size="11.00">updated</text>
</g>
<!-- act_constitution&#45;&gt;done_gov -->
<g id="edge6" class="edge">
<title>act_constitution&#45;&gt;done_gov</title>
<path fill="none" stroke="black" d="M66.88,-1747.1C66.88,-1731.77 66.88,-1708.49 66.88,-1686.01"/>
<polygon fill="black" stroke="black" points="70.38,-1686.23 66.88,-1676.23 63.38,-1686.23 70.38,-1686.23"/>
</g>
<!-- done_analyze_solo -->
<g id="node6" class="node">
<title>done_analyze_solo</title>
<ellipse fill="none" stroke="black" cx="209.88" cy="-1618.7" rx="42.07" ry="42.07"/>
<ellipse fill="none" stroke="black" cx="209.88" cy="-1618.7" rx="46.07" ry="46.07"/>
<text text-anchor="middle" x="209.88" y="-1620.25" font-family="Helvetica,sans-Serif" font-size="11.00">Analysis</text>
<text text-anchor="middle" x="209.88" y="-1608.25" font-family="Helvetica,sans-Serif" font-size="11.00">delivered</text>
</g>
<!-- act_analyze_solo&#45;&gt;done_analyze_solo -->
<g id="edge7" class="edge">
<title>act_analyze_solo&#45;&gt;done_analyze_solo</title>
<path fill="none" stroke="black" d="M209.88,-1747.1C209.88,-1729.61 209.88,-1701.75 209.88,-1676.53"/>
<polygon fill="black" stroke="black" points="213.38,-1676.7 209.88,-1666.7 206.38,-1676.7 213.38,-1676.7"/>
</g>
<!-- done_checklist_solo -->
<g id="node8" class="node">
<title>done_checklist_solo</title>
<ellipse fill="none" stroke="black" cx="345.88" cy="-1618.7" rx="42.07" ry="42.07"/>
<ellipse fill="none" stroke="black" cx="345.88" cy="-1618.7" rx="46.07" ry="46.07"/>
<text text-anchor="middle" x="345.88" y="-1620.25" font-family="Helvetica,sans-Serif" font-size="11.00">Checklist</text>
<text text-anchor="middle" x="345.88" y="-1608.25" font-family="Helvetica,sans-Serif" font-size="11.00">delivered</text>
</g>
<!-- act_checklist_solo&#45;&gt;done_checklist_solo -->
<g id="edge8" class="edge">
<title>act_checklist_solo&#45;&gt;done_checklist_solo</title>
<path fill="none" stroke="black" d="M345.88,-1747.1C345.88,-1729.61 345.88,-1701.75 345.88,-1676.53"/>
<polygon fill="black" stroke="black" points="349.38,-1676.7 345.88,-1666.7 342.38,-1676.7 349.38,-1676.7"/>
</g>
<!-- act_create_constitution -->
<g id="node10" class="node">
<title>act_create_constitution</title>
<polygon fill="none" stroke="black" points="552.75,-1636.7 419,-1636.7 419,-1600.7 552.75,-1600.7 552.75,-1636.7"/>
<text text-anchor="middle" x="485.88" y="-1614.25" font-family="Helvetica,sans-Serif" font-size="11.00">Run spec&#45;kit&#45;constitution</text>
</g>
<!-- q_has_constitution&#45;&gt;act_create_constitution -->
<g id="edge10" class="edge">
<title>q_has_constitution&#45;&gt;act_create_constitution</title>
<path fill="none" stroke="black" d="M504.7,-1724.6C500.34,-1700.29 494.87,-1669.83 490.96,-1648.01"/>
<polygon fill="black" stroke="black" points="494.43,-1647.58 489.22,-1638.36 487.54,-1648.82 494.43,-1647.58"/>
<text text-anchor="middle" x="505.68" y="-1694.07" font-family="Helvetica,sans-Serif" font-size="10.00">no</text>
</g>
<!-- q_has_spec -->
<g id="node11" class="node">
<title>q_has_spec</title>
<polygon fill="none" stroke="black" points="536.88,-1526.08 427.12,-1494.08 536.88,-1462.08 646.62,-1494.08 536.88,-1526.08"/>
<text text-anchor="middle" x="536.88" y="-1495.63" font-family="Helvetica,sans-Serif" font-size="11.00">Does spec.md exist</text>
<text text-anchor="middle" x="536.88" y="-1483.63" font-family="Helvetica,sans-Serif" font-size="11.00">for this feature?</text>
</g>
<!-- q_has_constitution&#45;&gt;q_has_spec -->
<g id="edge9" class="edge">
<title>q_has_constitution&#45;&gt;q_has_spec</title>
<path fill="none" stroke="black" d="M534.66,-1732.84C545.17,-1716.26 556.5,-1695.13 561.88,-1674.32 574.25,-1626.46 570.54,-1611.76 561.88,-1563.08 560.12,-1553.2 557.03,-1542.88 553.6,-1533.34"/>
<polygon fill="black" stroke="black" points="556.87,-1532.09 550.04,-1524 550.33,-1534.59 556.87,-1532.09"/>
<text text-anchor="middle" x="577.7" y="-1614.83" font-family="Helvetica,sans-Serif" font-size="10.00">yes</text>
</g>
<!-- act_create_constitution&#45;&gt;q_has_spec -->
<g id="edge11" class="edge">
<title>act_create_constitution&#45;&gt;q_has_spec</title>
<path fill="none" stroke="black" d="M493.07,-1600.39C500.25,-1583.15 511.5,-1556.08 520.81,-1533.71"/>
<polygon fill="black" stroke="black" points="524,-1535.14 524.61,-1524.56 517.54,-1532.45 524,-1535.14"/>
</g>
<!-- act_specify -->
<g id="node12" class="node">
<title>act_specify</title>
<polygon fill="none" stroke="black" points="667.25,-1414.83 554.5,-1414.83 554.5,-1378.83 667.25,-1378.83 667.25,-1414.83"/>
<text text-anchor="middle" x="610.88" y="-1392.38" font-family="Helvetica,sans-Serif" font-size="11.00">Run spec&#45;kit&#45;specify</text>
</g>
<!-- q_has_spec&#45;&gt;act_specify -->
<g id="edge13" class="edge">
<title>q_has_spec&#45;&gt;act_specify</title>
<path fill="none" stroke="black" d="M556.71,-1467.56C567.14,-1454.13 579.92,-1437.68 590.44,-1424.14"/>
<polygon fill="black" stroke="black" points="593.01,-1426.53 596.38,-1416.49 587.48,-1422.24 593.01,-1426.53"/>
<text text-anchor="middle" x="587.93" y="-1434.58" font-family="Helvetica,sans-Serif" font-size="10.00">no</text>
</g>
<!-- q_ambiguous -->
<g id="node13" class="node">
<title>q_ambiguous</title>
<polygon fill="none" stroke="black" points="520.88,-1341.83 366.88,-1297.83 520.87,-1253.83 674.88,-1297.83 520.88,-1341.83"/>
<text text-anchor="middle" x="520.88" y="-1305.38" font-family="Helvetica,sans-Serif" font-size="11.00">Spec has ambiguity</text>
<text text-anchor="middle" x="520.88" y="-1293.38" font-family="Helvetica,sans-Serif" font-size="11.00">or NEEDS CLARIFICATION</text>
<text text-anchor="middle" x="520.88" y="-1281.38" font-family="Helvetica,sans-Serif" font-size="11.00">markers?</text>
</g>
<!-- q_has_spec&#45;&gt;q_ambiguous -->
<g id="edge12" class="edge">
<title>q_has_spec&#45;&gt;q_ambiguous</title>
<path fill="none" stroke="black" d="M534.2,-1462.62C532.94,-1448.14 531.43,-1430.6 530.12,-1414.83 528.44,-1394.56 526.65,-1372.3 525.1,-1352.74"/>
<polygon fill="black" stroke="black" points="528.59,-1352.46 524.31,-1342.77 521.61,-1353.02 528.59,-1352.46"/>
<text text-anchor="middle" x="538" y="-1392.96" font-family="Helvetica,sans-Serif" font-size="10.00">yes</text>
</g>
<!-- act_specify&#45;&gt;q_ambiguous -->
<g id="edge14" class="edge">
<title>act_specify&#45;&gt;q_ambiguous</title>
<path fill="none" stroke="black" d="M594.78,-1378.49C585.07,-1368.02 572.24,-1354.19 560,-1341"/>
<polygon fill="black" stroke="black" points="562.88,-1338.96 553.52,-1334.01 557.75,-1343.73 562.88,-1338.96"/>
</g>
<!-- act_clarify -->
<g id="node14" class="node">
<title>act_clarify</title>
<polygon fill="none" stroke="black" points="521.62,-1206.58 414.12,-1206.58 414.12,-1170.58 521.62,-1170.58 521.62,-1206.58"/>
<text text-anchor="middle" x="467.88" y="-1190.13" font-family="Helvetica,sans-Serif" font-size="11.00">Run spec&#45;kit&#45;clarify</text>
<text text-anchor="middle" x="467.88" y="-1178.13" font-family="Helvetica,sans-Serif" font-size="11.00">(max 5 questions)</text>
</g>
<!-- q_ambiguous&#45;&gt;act_clarify -->
<g id="edge15" class="edge">
<title>q_ambiguous&#45;&gt;act_clarify</title>
<path fill="none" stroke="black" d="M502.04,-1258.72C495.21,-1244.89 487.63,-1229.56 481.35,-1216.85"/>
<polygon fill="black" stroke="black" points="484.66,-1215.66 477.09,-1208.24 478.39,-1218.76 484.66,-1215.66"/>
<text text-anchor="middle" x="497.5" y="-1226.33" font-family="Helvetica,sans-Serif" font-size="10.00">yes</text>
</g>
<!-- q_has_plan -->
<g id="node15" class="node">
<title>q_has_plan</title>
<polygon fill="none" stroke="black" points="523.88,-1133.58 441.12,-1101.58 523.88,-1069.58 606.62,-1101.58 523.88,-1133.58"/>
<text text-anchor="middle" x="523.88" y="-1103.13" font-family="Helvetica,sans-Serif" font-size="11.00">Does plan.md</text>
<text text-anchor="middle" x="523.88" y="-1091.13" font-family="Helvetica,sans-Serif" font-size="11.00">exist?</text>
</g>
<!-- q_ambiguous&#45;&gt;q_has_plan -->
<g id="edge16" class="edge">
<title>q_ambiguous&#45;&gt;q_has_plan</title>
<path fill="none" stroke="black" d="M526.92,-1255.08C529.8,-1230.5 532.32,-1198.8 530.88,-1170.58 530.43,-1161.93 529.67,-1152.68 528.81,-1143.88"/>
<polygon fill="black" stroke="black" points="532.32,-1143.75 527.8,-1134.17 525.35,-1144.47 532.32,-1143.75"/>
<text text-anchor="middle" x="536.55" y="-1184.71" font-family="Helvetica,sans-Serif" font-size="10.00">no</text>
</g>
<!-- act_clarify&#45;&gt;q_has_plan -->
<g id="edge17" class="edge">
<title>act_clarify&#45;&gt;q_has_plan</title>
<path fill="none" stroke="black" d="M479.21,-1170.38C485.55,-1160.76 493.69,-1148.41 501.27,-1136.89"/>
<polygon fill="black" stroke="black" points="504.05,-1139.03 506.63,-1128.76 498.21,-1135.18 504.05,-1139.03"/>
</g>
<!-- act_plan -->
<g id="node16" class="node">
<title>act_plan</title>
<polygon fill="none" stroke="black" points="573.88,-1006.66 473.88,-1006.66 473.88,-970.66 573.88,-970.66 573.88,-1006.66"/>
<text text-anchor="middle" x="523.88" y="-984.21" font-family="Helvetica,sans-Serif" font-size="11.00">Run spec&#45;kit&#45;plan</text>
</g>
<!-- q_has_plan&#45;&gt;act_plan -->
<g id="edge19" class="edge">
<title>q_has_plan&#45;&gt;act_plan</title>
<path fill="none" stroke="black" d="M523.88,-1069.09C523.88,-1053.07 523.88,-1033.73 523.88,-1018.15"/>
<polygon fill="black" stroke="black" points="527.38,-1018.6 523.88,-1008.6 520.38,-1018.6 527.38,-1018.6"/>
<text text-anchor="middle" x="529.12" y="-1042.08" font-family="Helvetica,sans-Serif" font-size="10.00">no</text>
</g>
<!-- q_has_tasks -->
<g id="node17" class="node">
<title>q_has_tasks</title>
<polygon fill="none" stroke="black" points="638.88,-907.73 551.62,-875.73 638.88,-843.73 726.12,-875.73 638.88,-907.73"/>
<text text-anchor="middle" x="638.88" y="-877.28" font-family="Helvetica,sans-Serif" font-size="11.00">Does tasks.md</text>
<text text-anchor="middle" x="638.88" y="-865.28" font-family="Helvetica,sans-Serif" font-size="11.00">exist?</text>
</g>
<!-- q_has_plan&#45;&gt;q_has_tasks -->
<g id="edge18" class="edge">
<title>q_has_plan&#45;&gt;q_has_tasks</title>
<path fill="none" stroke="black" d="M544.32,-1077.11C556.63,-1062.16 571.98,-1041.97 582.88,-1022.33 601.87,-988.11 617.27,-946.11 627.07,-916.04"/>
<polygon fill="black" stroke="black" points="630.39,-917.17 630.09,-906.58 623.72,-915.04 630.39,-917.17"/>
<text text-anchor="middle" x="621.04" y="-984.78" font-family="Helvetica,sans-Serif" font-size="10.00">yes</text>
</g>
<!-- act_plan&#45;&gt;q_has_tasks -->
<g id="edge20" class="edge">
<title>act_plan&#45;&gt;q_has_tasks</title>
<path fill="none" stroke="black" d="M541.84,-970.33C559.36,-953.43 586.35,-927.4 607.42,-907.07"/>
<polygon fill="black" stroke="black" points="609.61,-909.83 614.38,-900.36 604.75,-904.79 609.61,-909.83"/>
</g>
<!-- act_tasks -->
<g id="node18" class="node">
<title>act_tasks</title>
<polygon fill="none" stroke="black" points="761.12,-780.81 656.62,-780.81 656.62,-744.81 761.12,-744.81 761.12,-780.81"/>
<text text-anchor="middle" x="708.88" y="-758.36" font-family="Helvetica,sans-Serif" font-size="11.00">Run spec&#45;kit&#45;tasks</text>
</g>
<!-- q_has_tasks&#45;&gt;act_tasks -->
<g id="edge22" class="edge">
<title>q_has_tasks&#45;&gt;act_tasks</title>
<path fill="none" stroke="black" d="M654.93,-849.28C665.99,-831.77 680.64,-808.54 691.89,-790.72"/>
<polygon fill="black" stroke="black" points="694.72,-792.8 697.09,-782.48 688.8,-789.06 694.72,-792.8"/>
<text text-anchor="middle" x="681.22" y="-816.23" font-family="Helvetica,sans-Serif" font-size="10.00">no</text>
</g>
<!-- q_run_analyze -->
<g id="node19" class="node">
<title>q_run_analyze</title>
<polygon fill="none" stroke="black" points="751.88,-692.13 633.12,-660.13 751.88,-628.13 870.62,-660.13 751.88,-692.13"/>
<text text-anchor="middle" x="751.88" y="-661.68" font-family="Helvetica,sans-Serif" font-size="11.00">Run cross&#45;artifact</text>
<text text-anchor="middle" x="751.88" y="-649.68" font-family="Helvetica,sans-Serif" font-size="11.00">consistency analysis?</text>
</g>
<!-- q_has_tasks&#45;&gt;q_run_analyze -->
<g id="edge21" class="edge">
<title>q_has_tasks&#45;&gt;q_run_analyze</title>
<path fill="none" stroke="black" d="M629.12,-846.86C620.1,-815.88 610.99,-765.43 632.12,-729.13 644.32,-708.18 665.65,-693.15 686.95,-682.65"/>
<polygon fill="black" stroke="black" points="688.38,-685.85 696,-678.48 685.45,-679.49 688.38,-685.85"/>
<text text-anchor="middle" x="640" y="-758.93" font-family="Helvetica,sans-Serif" font-size="10.00">yes</text>
</g>
<!-- act_tasks&#45;&gt;q_run_analyze -->
<g id="edge23" class="edge">
<title>act_tasks&#45;&gt;q_run_analyze</title>
<path fill="none" stroke="black" d="M716.17,-744.73C721.43,-732.42 728.73,-715.31 735.37,-699.78"/>
<polygon fill="black" stroke="black" points="738.52,-701.31 739.23,-690.74 732.08,-698.56 738.52,-701.31"/>
</g>
<!-- act_analyze -->
<g id="node20" class="node">
<title>act_analyze</title>
<polygon fill="none" stroke="black" points="801.12,-580.88 684.62,-580.88 684.62,-544.88 801.12,-544.88 801.12,-580.88"/>
<text text-anchor="middle" x="742.88" y="-558.43" font-family="Helvetica,sans-Serif" font-size="11.00">Run spec&#45;kit&#45;analyze</text>
</g>
<!-- q_run_analyze&#45;&gt;act_analyze -->
<g id="edge24" class="edge">
<title>q_run_analyze&#45;&gt;act_analyze</title>
<path fill="none" stroke="black" d="M748.98,-628.47C747.88,-616.84 746.63,-603.67 745.56,-592.26"/>
<polygon fill="black" stroke="black" points="749.08,-592.29 744.65,-582.66 742.11,-592.95 749.08,-592.29"/>
<text text-anchor="middle" x="777.86" y="-600.63" font-family="Helvetica,sans-Serif" font-size="10.00">recommended</text>
</g>
<!-- q_run_checklist -->
<g id="node23" class="node">
<title>q_run_checklist</title>
<polygon fill="none" stroke="black" points="733.88,-386.38 639.12,-342.38 733.88,-298.38 828.62,-342.38 733.88,-386.38"/>
<text text-anchor="middle" x="733.88" y="-349.93" font-family="Helvetica,sans-Serif" font-size="11.00">Generate quality</text>
<text text-anchor="middle" x="733.88" y="-337.93" font-family="Helvetica,sans-Serif" font-size="11.00">checklist before</text>
<text text-anchor="middle" x="733.88" y="-325.93" font-family="Helvetica,sans-Serif" font-size="11.00">implementing?</text>
</g>
<!-- q_run_analyze&#45;&gt;q_run_checklist -->
<g id="edge25" class="edge">
<title>q_run_analyze&#45;&gt;q_run_checklist</title>
<path fill="none" stroke="black" d="M789.21,-637.7C798.68,-630.27 807.65,-621.03 812.88,-610.13 820.65,-593.91 922.04,-732.5 809.88,-433.63 802.34,-413.56 788.28,-394.83 774.27,-379.68"/>
<polygon fill="black" stroke="black" points="777.04,-377.52 767.59,-372.74 772,-382.37 777.04,-377.52"/>
<text text-anchor="middle" x="851.16" y="-517.38" font-family="Helvetica,sans-Serif" font-size="10.00">skip</text>
</g>
<!-- q_critical_issues -->
<g id="node21" class="node">
<title>q_critical_issues</title>
<polygon fill="none" stroke="black" points="718.88,-497.63 636.88,-465.63 718.88,-433.63 800.88,-465.63 718.88,-497.63"/>
<text text-anchor="middle" x="718.88" y="-467.18" font-family="Helvetica,sans-Serif" font-size="11.00">Critical issues</text>
<text text-anchor="middle" x="718.88" y="-455.18" font-family="Helvetica,sans-Serif" font-size="11.00">found?</text>
</g>
<!-- act_analyze&#45;&gt;q_critical_issues -->
<g id="edge26" class="edge">
<title>act_analyze&#45;&gt;q_critical_issues</title>
<path fill="none" stroke="black" d="M738.47,-544.41C735.77,-533.67 732.18,-519.45 728.82,-506.11"/>
<polygon fill="black" stroke="black" points="732.28,-505.52 726.45,-496.67 725.5,-507.23 732.28,-505.52"/>
</g>
<!-- state_needs_revision -->
<g id="node22" class="node">
<title>state_needs_revision</title>
<ellipse fill="none" stroke="black" cx="550.88" cy="-342.38" rx="57.98" ry="22.63"/>
<text text-anchor="middle" x="550.88" y="-343.93" font-family="Helvetica,sans-Serif" font-size="11.00">Artifacts need</text>
<text text-anchor="middle" x="550.88" y="-331.93" font-family="Helvetica,sans-Serif" font-size="11.00">revision</text>
</g>
<!-- q_critical_issues&#45;&gt;state_needs_revision -->
<g id="edge28" class="edge">
<title>q_critical_issues&#45;&gt;state_needs_revision</title>
<path fill="none" stroke="black" d="M690.76,-444.33C662.23,-423.75 617.96,-391.8 586.89,-369.37"/>
<polygon fill="black" stroke="black" points="589.08,-366.64 578.92,-363.62 584.98,-372.31 589.08,-366.64"/>
<text text-anchor="middle" x="657.8" y="-406.13" font-family="Helvetica,sans-Serif" font-size="10.00">yes</text>
</g>
<!-- q_critical_issues&#45;&gt;q_run_checklist -->
<g id="edge27" class="edge">
<title>q_critical_issues&#45;&gt;q_run_checklist</title>
<path fill="none" stroke="black" d="M722.58,-434.66C724.05,-422.82 725.77,-408.87 727.43,-395.49"/>
<polygon fill="black" stroke="black" points="730.86,-396.3 728.61,-385.94 723.91,-395.44 730.86,-396.3"/>
<text text-anchor="middle" x="731.18" y="-406.13" font-family="Helvetica,sans-Serif" font-size="10.00">no</text>
</g>
<!-- state_needs_revision&#45;&gt;q_ambiguous -->
<g id="edge29" class="edge">
<title>state_needs_revision&#45;&gt;q_ambiguous</title>
<path fill="none" stroke="black" stroke-dasharray="1,5" d="M499.83,-353.41C415.39,-371.48 255.88,-412.51 255.88,-464.63 255.88,-1189.58 255.88,-1189.58 255.88,-1189.58 255.88,-1226.72 346.42,-1257.09 421.66,-1275.91"/>
<polygon fill="black" stroke="black" points="420.62,-1279.26 431.16,-1278.24 422.29,-1272.46 420.62,-1279.26"/>
<text text-anchor="middle" x="278.38" y="-816.23" font-family="Helvetica,sans-Serif" font-size="10.00">spec gaps</text>
</g>
<!-- state_needs_revision&#45;&gt;act_plan -->
<g id="edge30" class="edge">
<title>state_needs_revision&#45;&gt;act_plan</title>
<path fill="none" stroke="black" stroke-dasharray="1,5" d="M543.07,-364.96C535.09,-388.96 523.88,-429.05 523.88,-464.63 523.88,-876.73 523.88,-876.73 523.88,-876.73 523.88,-904.68 523.88,-936.59 523.88,-958.99"/>
<polygon fill="black" stroke="black" points="520.38,-958.85 523.88,-968.85 527.38,-958.85 520.38,-958.85"/>
<text text-anchor="middle" x="550.12" y="-661.88" font-family="Helvetica,sans-Serif" font-size="10.00">plan or</text>
<text text-anchor="middle" x="550.12" y="-650.63" font-family="Helvetica,sans-Serif" font-size="10.00">design gaps</text>
</g>
<!-- state_needs_revision&#45;&gt;act_tasks -->
<g id="edge31" class="edge">
<title>state_needs_revision&#45;&gt;act_tasks</title>
<path fill="none" stroke="black" stroke-dasharray="1,5" d="M566.78,-364.46C582.71,-387.71 604.88,-426.84 604.88,-464.63 604.88,-661.13 604.88,-661.13 604.88,-661.13 604.88,-681 644.56,-714.74 674.9,-737.63"/>
<polygon fill="black" stroke="black" points="672.63,-740.3 682.75,-743.46 676.81,-734.68 672.63,-740.3"/>
<text text-anchor="middle" x="635.62" y="-564.63" font-family="Helvetica,sans-Serif" font-size="10.00">task coverage</text>
<text text-anchor="middle" x="635.62" y="-553.38" font-family="Helvetica,sans-Serif" font-size="10.00">gaps</text>
</g>
<!-- act_checklist -->
<g id="node24" class="node">
<title>act_checklist</title>
<polygon fill="none" stroke="black" points="830,-251.13 709.75,-251.13 709.75,-215.13 830,-215.13 830,-251.13"/>
<text text-anchor="middle" x="769.88" y="-228.68" font-family="Helvetica,sans-Serif" font-size="11.00">Run spec&#45;kit&#45;checklist</text>
</g>
<!-- q_run_checklist&#45;&gt;act_checklist -->
<g id="edge32" class="edge">
<title>q_run_checklist&#45;&gt;act_checklist</title>
<path fill="none" stroke="black" d="M746.47,-303.87C751.06,-290.18 756.17,-274.94 760.45,-262.22"/>
<polygon fill="black" stroke="black" points="763.75,-263.37 763.61,-252.78 757.11,-261.15 763.75,-263.37"/>
<text text-anchor="middle" x="765.08" y="-270.88" font-family="Helvetica,sans-Serif" font-size="10.00">yes</text>
</g>
<!-- act_implement -->
<g id="node25" class="node">
<title>act_implement</title>
<polygon fill="none" stroke="black" points="754.5,-171.64 625.25,-171.64 625.25,-135.64 754.5,-135.64 754.5,-171.64"/>
<text text-anchor="middle" x="689.88" y="-149.19" font-family="Helvetica,sans-Serif" font-size="11.00">Run spec&#45;kit&#45;implement</text>
</g>
<!-- q_run_checklist&#45;&gt;act_implement -->
<g id="edge33" class="edge">
<title>q_run_checklist&#45;&gt;act_implement</title>
<path fill="none" stroke="black" d="M713.15,-307.56C704.28,-291.16 694.92,-270.79 690.38,-251.13 685.21,-228.8 685.43,-202.77 686.74,-183.38"/>
<polygon fill="black" stroke="black" points="690.22,-183.75 687.57,-173.49 683.25,-183.17 690.22,-183.75"/>
<text text-anchor="middle" x="695.62" y="-229.25" font-family="Helvetica,sans-Serif" font-size="10.00">no</text>
</g>
<!-- act_checklist&#45;&gt;act_implement -->
<g id="edge34" class="edge">
<title>act_checklist&#45;&gt;act_implement</title>
<path fill="none" stroke="black" d="M752.12,-214.93C741.53,-204.67 727.88,-191.45 716.07,-180.01"/>
<polygon fill="black" stroke="black" points="718.56,-177.55 708.94,-173.11 713.69,-182.58 718.56,-177.55"/>
</g>
<!-- done -->
<g id="node26" class="node">
<title>done</title>
<ellipse fill="none" stroke="black" cx="689.88" cy="-46.07" rx="42.07" ry="42.07"/>
<ellipse fill="none" stroke="black" cx="689.88" cy="-46.07" rx="46.07" ry="46.07"/>
<text text-anchor="middle" x="689.88" y="-47.62" font-family="Helvetica,sans-Serif" font-size="11.00">Feature</text>
<text text-anchor="middle" x="689.88" y="-35.62" font-family="Helvetica,sans-Serif" font-size="11.00">complete</text>
</g>
<!-- act_implement&#45;&gt;done -->
<g id="edge35" class="edge">
<title>act_implement&#45;&gt;done</title>
<path fill="none" stroke="black" d="M689.88,-135.21C689.88,-126.42 689.88,-115.22 689.88,-103.77"/>
<polygon fill="black" stroke="black" points="693.38,-103.83 689.88,-93.83 686.38,-103.83 693.38,-103.83"/>
</g>
<!-- warn_plan_no_spec -->
<g id="node27" class="node">
<title>warn_plan_no_spec</title>
<polygon fill="red" stroke="black" points="830.06,-974.71 830.06,-1002.61 775.47,-1022.33 698.28,-1022.33 643.69,-1002.61 643.69,-974.71 698.28,-954.98 775.47,-954.98 830.06,-974.71"/>
<text text-anchor="middle" x="736.88" y="-996.21" font-family="Helvetica,sans-Serif" font-size="11.00" fill="white">STOP: Specify WHAT</text>
<text text-anchor="middle" x="736.88" y="-984.21" font-family="Helvetica,sans-Serif" font-size="11.00" fill="white">before planning HOW</text>
<text text-anchor="middle" x="736.88" y="-972.21" font-family="Helvetica,sans-Serif" font-size="11.00" fill="white">(create spec.md first)</text>
</g>
<!-- warn_plan_no_spec&#45;&gt;act_specify -->
<g id="edge36" class="edge">
<title>warn_plan_no_spec&#45;&gt;act_specify</title>
<path fill="none" stroke="black" stroke-dasharray="5,2" d="M736.88,-1022.66C736.88,-1044.72 736.88,-1074.39 736.88,-1100.58 736.88,-1298.83 736.88,-1298.83 736.88,-1298.83 736.88,-1334.08 705.53,-1358.3 674.11,-1373.72"/>
<polygon fill="black" stroke="black" points="672.93,-1370.41 665.32,-1377.79 675.86,-1376.77 672.93,-1370.41"/>
<text text-anchor="middle" x="772.12" y="-1184.71" font-family="Helvetica,sans-Serif" font-size="10.00">create spec first</text>
</g>
<!-- warn_impl_no_tasks -->
<g id="node28" class="node">
<title>warn_impl_no_tasks</title>
<polygon fill="red" stroke="black" points="1008.13,-143.49 1008.13,-163.78 944.13,-178.13 853.62,-178.13 789.62,-163.78 789.62,-143.49 853.62,-129.15 944.13,-129.15 1008.13,-143.49"/>
<text text-anchor="middle" x="898.88" y="-155.19" font-family="Helvetica,sans-Serif" font-size="11.00" fill="white">STOP: Generate tasks.md</text>
<text text-anchor="middle" x="898.88" y="-143.19" font-family="Helvetica,sans-Serif" font-size="11.00" fill="white">before implementing</text>
</g>
<!-- warn_impl_no_tasks&#45;&gt;act_tasks -->
<g id="edge37" class="edge">
<title>warn_impl_no_tasks&#45;&gt;act_tasks</title>
<path fill="none" stroke="black" stroke-dasharray="5,2" d="M898.88,-178.38C898.88,-193.71 898.88,-214.1 898.88,-232.13 898.88,-661.13 898.88,-661.13 898.88,-661.13 898.88,-719.54 827.89,-744.16 772.7,-754.47"/>
<polygon fill="black" stroke="black" points="772.29,-750.99 763.04,-756.15 773.49,-757.89 772.29,-750.99"/>
<text text-anchor="middle" x="935.62" y="-461.75" font-family="Helvetica,sans-Serif" font-size="10.00">create tasks first</text>
</g>
<!-- warn_skip_to_impl -->
<g id="node29" class="node">
<title>warn_skip_to_impl</title>
<polygon fill="red" stroke="black" points="495.69,-748.86 495.69,-776.75 433.7,-796.48 346.05,-796.48 284.06,-776.75 284.06,-748.86 346.05,-729.13 433.7,-729.13 495.69,-748.86"/>
<text text-anchor="middle" x="389.88" y="-770.36" font-family="Helvetica,sans-Serif" font-size="11.00" fill="white">STOP: Do not jump</text>
<text text-anchor="middle" x="389.88" y="-758.36" font-family="Helvetica,sans-Serif" font-size="11.00" fill="white">from specify to implement</text>
<text text-anchor="middle" x="389.88" y="-746.36" font-family="Helvetica,sans-Serif" font-size="11.00" fill="white">(plan and tasks required)</text>
</g>
<!-- warn_skip_to_impl&#45;&gt;q_has_plan -->
<g id="edge38" class="edge">
<title>warn_skip_to_impl&#45;&gt;q_has_plan</title>
<path fill="none" stroke="black" stroke-dasharray="5,2" d="M395.35,-796.68C404.66,-847.24 426.39,-946.22 464.88,-1022.33 473.11,-1038.62 484.8,-1054.99 495.61,-1068.52"/>
<polygon fill="black" stroke="black" points="492.88,-1070.72 501.93,-1076.23 498.29,-1066.28 492.88,-1070.72"/>
<text text-anchor="middle" x="465.19" y="-927.48" font-family="Helvetica,sans-Serif" font-size="10.00">follow sequence</text>
</g>
</g>
</svg>
