<?xml version="1.0" encoding="UTF-8" standalone="no"?>
<!DOCTYPE svg PUBLIC "-//W3C//DTD SVG 1.1//EN"
 "http://www.w3.org/Graphics/SVG/1.1/DTD/svg11.dtd">
<!-- Generated by graphviz version 14.1.4 (20260321.0153)
 -->
<!-- Title: sdd_router Pages: 1 -->
<svg width="546pt" height="988pt"
 viewBox="0.00 0.00 546.00 988.00" xmlns="http://www.w3.org/2000/svg" xmlns:xlink="http://www.w3.org/1999/xlink">
<g id="graph0" class="graph" transform="scale(1 1) rotate(0) translate(4 984.44)">
<title>sdd_router</title>
<polygon fill="white" stroke="none" points="-4,4 -4,-984.44 542.25,-984.44 542.25,4 -4,4"/>
<!-- start -->
<g id="node1" class="node">
<title>start</title>
<ellipse fill="none" stroke="black" cx="327.12" cy="-962.44" rx="37.87" ry="18"/>
<text xml:space="preserve" text-anchor="middle" x="327.12" y="-958.56" font-family="Helvetica,sans-Serif" font-size="10.00">User intent</text>
</g>
<!-- locate_root -->
<g id="node2" class="node">
<title>locate_root</title>
<polygon fill="none" stroke="black" points="385.38,-907.44 268.88,-907.44 268.88,-871.44 385.38,-871.44 385.38,-907.44"/>
<text xml:space="preserve" text-anchor="middle" x="327.12" y="-891.19" font-family="Helvetica,sans-Serif" font-size="10.00">Locate SPECS_ROOT</text>
<text xml:space="preserve" text-anchor="middle" x="327.12" y="-879.94" font-family="Helvetica,sans-Serif" font-size="10.00">(.specs/ directories)</text>
</g>
<!-- start&#45;&gt;locate_root -->
<g id="edge1" class="edge">
<title>start&#45;&gt;locate_root</title>
<path fill="none" stroke="black" d="M327.12,-944.25C327.12,-936.66 327.12,-927.54 327.12,-918.98"/>
<polygon fill="black" stroke="black" points="330.63,-918.98 327.13,-908.98 323.63,-918.98 330.63,-918.98"/>
</g>
<!-- multi_specs -->
<g id="node3" class="node">
<title>multi_specs</title>
<polygon fill="none" stroke="black" points="327.12,-834.44 242.12,-803.94 327.12,-773.44 412.12,-803.94 327.12,-834.44"/>
<text xml:space="preserve" text-anchor="middle" x="327.12" y="-805.69" font-family="Helvetica,sans-Serif" font-size="10.00">Multiple .specs/</text>
<text xml:space="preserve" text-anchor="middle" x="327.12" y="-794.44" font-family="Helvetica,sans-Serif" font-size="10.00">found?</text>
</g>
<!-- locate_root&#45;&gt;multi_specs -->
<g id="edge2" class="edge">
<title>locate_root&#45;&gt;multi_specs</title>
<path fill="none" stroke="black" d="M327.12,-871.14C327.12,-863.83 327.12,-854.98 327.12,-846.16"/>
<polygon fill="black" stroke="black" points="330.63,-846.23 327.13,-836.23 323.63,-846.23 330.63,-846.23"/>
</g>
<!-- ask_which -->
<g id="node4" class="node">
<title>ask_which</title>
<polygon fill="none" stroke="black" points="329.88,-727.69 246.38,-727.69 246.38,-691.69 329.88,-691.69 329.88,-727.69"/>
<text xml:space="preserve" text-anchor="middle" x="288.12" y="-711.44" font-family="Helvetica,sans-Serif" font-size="10.00">Ask user which</text>
<text xml:space="preserve" text-anchor="middle" x="288.12" y="-700.19" font-family="Helvetica,sans-Serif" font-size="10.00">to use</text>
</g>
<!-- multi_specs&#45;&gt;ask_which -->
<g id="edge3" class="edge">
<title>multi_specs&#45;&gt;ask_which</title>
<path fill="none" stroke="black" d="M316.26,-777.24C311.19,-765.24 305.14,-750.93 299.95,-738.66"/>
<polygon fill="black" stroke="black" points="303.19,-737.33 296.07,-729.48 296.74,-740.05 303.19,-737.33"/>
<text xml:space="preserve" text-anchor="middle" x="313.58" y="-746.89" font-family="Helvetica,sans-Serif" font-size="9.00">yes</text>
</g>
<!-- explore_first -->
<g id="node5" class="node">
<title>explore_first</title>
<polygon fill="none" stroke="black" points="327.12,-654.69 248.12,-624.19 327.12,-593.69 406.12,-624.19 327.12,-654.69"/>
<text xml:space="preserve" text-anchor="middle" x="327.12" y="-625.94" font-family="Helvetica,sans-Serif" font-size="10.00">Wants to think</text>
<text xml:space="preserve" text-anchor="middle" x="327.12" y="-614.69" font-family="Helvetica,sans-Serif" font-size="10.00">before acting?</text>
</g>
<!-- multi_specs&#45;&gt;explore_first -->
<g id="edge4" class="edge">
<title>multi_specs&#45;&gt;explore_first</title>
<path fill="none" stroke="black" d="M333.1,-775.53C337.28,-753.03 341.69,-720.32 339.12,-691.69 338.31,-682.57 336.87,-672.83 335.28,-663.69"/>
<polygon fill="black" stroke="black" points="338.75,-663.22 333.47,-654.03 331.87,-664.5 338.75,-663.22"/>
<text xml:space="preserve" text-anchor="middle" x="360.88" y="-706.01" font-family="Helvetica,sans-Serif" font-size="9.00">no (0 or 1)</text>
</g>
<!-- ask_which&#45;&gt;explore_first -->
<g id="edge5" class="edge">
<title>ask_which&#45;&gt;explore_first</title>
<path fill="none" stroke="black" d="M296.21,-691.39C300.36,-682.5 305.57,-671.34 310.53,-660.72"/>
<polygon fill="black" stroke="black" points="313.65,-662.3 314.71,-651.76 307.31,-659.34 313.65,-662.3"/>
</g>
<!-- explore -->
<g id="node6" class="node">
<title>explore</title>
<polygon fill="none" stroke="black" points="326.25,-547.94 260,-547.94 260,-511.94 326.25,-511.94 326.25,-547.94"/>
<text xml:space="preserve" text-anchor="middle" x="293.12" y="-526.06" font-family="Helvetica,sans-Serif" font-size="10.00">sdd&#45;explore</text>
</g>
<!-- explore_first&#45;&gt;explore -->
<g id="edge6" class="edge">
<title>explore_first&#45;&gt;explore</title>
<path fill="none" stroke="black" d="M317.47,-597C313.08,-585.09 307.89,-570.99 303.42,-558.87"/>
<polygon fill="black" stroke="black" points="306.84,-558.02 300.1,-549.85 300.27,-560.44 306.84,-558.02"/>
<text xml:space="preserve" text-anchor="middle" x="316.23" y="-567.14" font-family="Helvetica,sans-Serif" font-size="9.00">yes</text>
</g>
<!-- has_specs -->
<g id="node7" class="node">
<title>has_specs</title>
<polygon fill="none" stroke="black" points="362.12,-456.44 235.77,-438.44 362.12,-420.44 488.48,-438.44 362.12,-456.44"/>
<text xml:space="preserve" text-anchor="middle" x="362.12" y="-434.56" font-family="Helvetica,sans-Serif" font-size="10.00">SPECS_ROOT/specs/ exists?</text>
</g>
<!-- explore_first&#45;&gt;has_specs -->
<g id="edge7" class="edge">
<title>explore_first&#45;&gt;has_specs</title>
<path fill="none" stroke="black" d="M332.44,-595.28C339.04,-560.61 350.24,-501.83 356.83,-467.22"/>
<polygon fill="black" stroke="black" points="360.24,-468.03 358.67,-457.55 353.37,-466.72 360.24,-468.03"/>
<text xml:space="preserve" text-anchor="middle" x="379.23" y="-526.26" font-family="Helvetica,sans-Serif" font-size="9.00">no, ready to act</text>
</g>
<!-- explore&#45;&gt;has_specs -->
<g id="edge8" class="edge">
<title>explore&#45;&gt;has_specs</title>
<path fill="none" stroke="black" stroke-dasharray="5,2" d="M291.53,-511.84C291.32,-500.34 292.78,-485.36 300.12,-474.44 304.68,-467.67 311.01,-462.06 317.89,-457.47"/>
<polygon fill="black" stroke="black" points="319.35,-460.67 326.2,-452.59 315.8,-454.64 319.35,-460.67"/>
<text xml:space="preserve" text-anchor="middle" x="324.12" y="-485.39" font-family="Helvetica,sans-Serif" font-size="9.00">crystallized,</text>
<text xml:space="preserve" text-anchor="middle" x="324.12" y="-475.64" font-family="Helvetica,sans-Serif" font-size="9.00">ready to act</text>
</g>
<!-- confirm_mode -->
<g id="node8" class="node">
<title>confirm_mode</title>
<polygon fill="none" stroke="black" points="225.88,-383.44 148.38,-383.44 148.38,-347.44 225.88,-347.44 225.88,-383.44"/>
<text xml:space="preserve" text-anchor="middle" x="187.12" y="-367.19" font-family="Helvetica,sans-Serif" font-size="10.00">Confirm intent</text>
<text xml:space="preserve" text-anchor="middle" x="187.12" y="-355.94" font-family="Helvetica,sans-Serif" font-size="10.00">with user</text>
</g>
<!-- has_specs&#45;&gt;confirm_mode -->
<g id="edge9" class="edge">
<title>has_specs&#45;&gt;confirm_mode</title>
<path fill="none" stroke="black" d="M330.43,-424.58C304.27,-413.96 266.67,-398.71 236.55,-386.49"/>
<polygon fill="black" stroke="black" points="238.22,-383.39 227.64,-382.87 235.59,-389.88 238.22,-383.39"/>
</g>
<!-- confirm_mode&#45;&gt;explore -->
<g id="edge14" class="edge">
<title>confirm_mode&#45;&gt;explore</title>
<path fill="none" stroke="black" d="M181.72,-383.85C176.86,-402.88 172.2,-433.7 184.38,-456.44 198.13,-482.14 225.47,-500.31 249.3,-512.03"/>
<polygon fill="black" stroke="black" points="247.67,-515.13 258.22,-516.17 250.62,-508.78 247.67,-515.13"/>
<text xml:space="preserve" text-anchor="middle" x="205.75" y="-434.76" font-family="Helvetica,sans-Serif" font-size="9.00">think more</text>
</g>
<!-- translate -->
<g id="node9" class="node">
<title>translate</title>
<polygon fill="none" stroke="black" points="72.25,-291.94 0,-291.94 0,-255.94 72.25,-255.94 72.25,-291.94"/>
<text xml:space="preserve" text-anchor="middle" x="36.12" y="-270.06" font-family="Helvetica,sans-Serif" font-size="10.00">sdd&#45;translate</text>
</g>
<!-- confirm_mode&#45;&gt;translate -->
<g id="edge10" class="edge">
<title>confirm_mode&#45;&gt;translate</title>
<path fill="none" stroke="black" d="M148.05,-364.47C117.73,-362.38 76.68,-354.57 51.12,-329.44 44.24,-322.66 40.43,-313.04 38.35,-303.76"/>
<polygon fill="black" stroke="black" points="41.81,-303.25 36.78,-293.93 34.9,-304.35 41.81,-303.25"/>
<text xml:space="preserve" text-anchor="middle" x="96.12" y="-316.01" font-family="Helvetica,sans-Serif" font-size="9.00">convert existing specs</text>
</g>
<!-- derive -->
<g id="node10" class="node">
<title>derive</title>
<polygon fill="none" stroke="black" points="179.62,-291.94 118.62,-291.94 118.62,-255.94 179.62,-255.94 179.62,-291.94"/>
<text xml:space="preserve" text-anchor="middle" x="149.12" y="-270.06" font-family="Helvetica,sans-Serif" font-size="10.00">sdd&#45;derive</text>
</g>
<!-- confirm_mode&#45;&gt;derive -->
<g id="edge11" class="edge">
<title>confirm_mode&#45;&gt;derive</title>
<path fill="none" stroke="black" d="M162.96,-347.14C157.69,-342.08 152.81,-336.1 149.88,-329.44 146.4,-321.55 145.3,-312.38 145.33,-303.83"/>
<polygon fill="black" stroke="black" points="148.82,-304.06 145.9,-293.88 141.83,-303.66 148.82,-304.06"/>
<text xml:space="preserve" text-anchor="middle" x="181" y="-316.01" font-family="Helvetica,sans-Serif" font-size="9.00">spec from code</text>
</g>
<!-- propose -->
<g id="node11" class="node">
<title>propose</title>
<polygon fill="none" stroke="black" points="295.75,-210.19 226.5,-210.19 226.5,-174.19 295.75,-174.19 295.75,-210.19"/>
<text xml:space="preserve" text-anchor="middle" x="261.12" y="-188.31" font-family="Helvetica,sans-Serif" font-size="10.00">sdd&#45;propose</text>
</g>
<!-- confirm_mode&#45;&gt;propose -->
<g id="edge12" class="edge">
<title>confirm_mode&#45;&gt;propose</title>
<path fill="none" stroke="black" d="M201.22,-346.95C205.12,-341.55 209.1,-335.44 212.12,-329.44 227.56,-298.77 224.18,-288.21 235.88,-255.94 240.03,-244.47 244.97,-231.97 249.38,-221.17"/>
<polygon fill="black" stroke="black" points="252.57,-222.62 253.14,-212.04 246.09,-219.95 252.57,-222.62"/>
<text xml:space="preserve" text-anchor="middle" x="261" y="-270.26" font-family="Helvetica,sans-Serif" font-size="9.00">new change</text>
</g>
<!-- has_change -->
<g id="node12" class="node">
<title>has_change</title>
<polygon fill="none" stroke="black" points="389.12,-291.94 294.78,-273.94 389.12,-255.94 483.47,-273.94 389.12,-291.94"/>
<text xml:space="preserve" text-anchor="middle" x="389.12" y="-270.06" font-family="Helvetica,sans-Serif" font-size="10.00">Active change exists?</text>
</g>
<!-- confirm_mode&#45;&gt;has_change -->
<g id="edge13" class="edge">
<title>confirm_mode&#45;&gt;has_change</title>
<path fill="none" stroke="black" d="M226.07,-347.18C262.13,-331.21 315.4,-307.6 351.14,-291.77"/>
<polygon fill="black" stroke="black" points="352.52,-294.98 360.25,-287.73 349.69,-288.58 352.52,-294.98"/>
<text xml:space="preserve" text-anchor="middle" x="331.72" y="-320.89" font-family="Helvetica,sans-Serif" font-size="9.00">apply/verify/</text>
<text xml:space="preserve" text-anchor="middle" x="331.72" y="-311.14" font-family="Helvetica,sans-Serif" font-size="9.00">sync/archive</text>
</g>
<!-- has_change&#45;&gt;propose -->
<g id="edge16" class="edge">
<title>has_change&#45;&gt;propose</title>
<path fill="none" stroke="black" stroke-dasharray="5,2" d="M367.7,-259.59C348.85,-247.85 320.99,-230.49 298.48,-216.46"/>
<polygon fill="black" stroke="black" points="300.51,-213.6 290.17,-211.29 296.81,-219.54 300.51,-213.6"/>
<text xml:space="preserve" text-anchor="middle" x="338.04" y="-229.39" font-family="Helvetica,sans-Serif" font-size="9.00">no</text>
</g>
<!-- which_change -->
<g id="node13" class="node">
<title>which_change</title>
<polygon fill="none" stroke="black" points="430.88,-210.19 347.38,-210.19 347.38,-174.19 430.88,-174.19 430.88,-210.19"/>
<text xml:space="preserve" text-anchor="middle" x="389.12" y="-193.94" font-family="Helvetica,sans-Serif" font-size="10.00">Which change?</text>
<text xml:space="preserve" text-anchor="middle" x="389.12" y="-182.69" font-family="Helvetica,sans-Serif" font-size="10.00">(ask if multiple)</text>
</g>
<!-- has_change&#45;&gt;which_change -->
<g id="edge15" class="edge">
<title>has_change&#45;&gt;which_change</title>
<path fill="none" stroke="black" d="M389.12,-255.63C389.12,-245.7 389.12,-232.99 389.12,-221.63"/>
<polygon fill="black" stroke="black" points="392.63,-221.97 389.13,-211.97 385.63,-221.97 392.63,-221.97"/>
<text xml:space="preserve" text-anchor="middle" x="396.25" y="-229.39" font-family="Helvetica,sans-Serif" font-size="9.00">yes</text>
</g>
<!-- has_tasks -->
<g id="node14" class="node">
<title>has_tasks</title>
<polygon fill="none" stroke="black" points="227.12,-128.44 150.98,-110.44 227.12,-92.44 303.27,-110.44 227.12,-128.44"/>
<text xml:space="preserve" text-anchor="middle" x="227.12" y="-106.56" font-family="Helvetica,sans-Serif" font-size="10.00">tasks.md exists?</text>
</g>
<!-- which_change&#45;&gt;has_tasks -->
<g id="edge17" class="edge">
<title>which_change&#45;&gt;has_tasks</title>
<path fill="none" stroke="black" d="M353.97,-173.88C326.37,-160.29 288.18,-141.49 260.93,-128.08"/>
<polygon fill="black" stroke="black" points="262.58,-124.99 252.06,-123.71 259.49,-131.27 262.58,-124.99"/>
<text xml:space="preserve" text-anchor="middle" x="329.07" y="-147.64" font-family="Helvetica,sans-Serif" font-size="9.00">apply</text>
</g>
<!-- verify -->
<g id="node17" class="node">
<title>verify</title>
<polygon fill="none" stroke="black" points="380.5,-128.44 321.75,-128.44 321.75,-92.44 380.5,-92.44 380.5,-128.44"/>
<text xml:space="preserve" text-anchor="middle" x="351.12" y="-106.56" font-family="Helvetica,sans-Serif" font-size="10.00">sdd&#45;verify</text>
</g>
<!-- which_change&#45;&gt;verify -->
<g id="edge18" class="edge">
<title>which_change&#45;&gt;verify</title>
<path fill="none" stroke="black" d="M380.88,-173.88C376,-163.64 369.71,-150.44 364.17,-138.81"/>
<polygon fill="black" stroke="black" points="367.47,-137.6 360.01,-130.07 361.15,-140.61 367.47,-137.6"/>
<text xml:space="preserve" text-anchor="middle" x="383.28" y="-147.64" font-family="Helvetica,sans-Serif" font-size="9.00">verify</text>
</g>
<!-- sync -->
<g id="node18" class="node">
<title>sync</title>
<polygon fill="none" stroke="black" points="454,-128.44 398.25,-128.44 398.25,-92.44 454,-92.44 454,-128.44"/>
<text xml:space="preserve" text-anchor="middle" x="426.12" y="-106.56" font-family="Helvetica,sans-Serif" font-size="10.00">sdd&#45;sync</text>
</g>
<!-- which_change&#45;&gt;sync -->
<g id="edge19" class="edge">
<title>which_change&#45;&gt;sync</title>
<path fill="none" stroke="black" d="M397.15,-173.88C401.91,-163.64 408.03,-150.44 413.42,-138.81"/>
<polygon fill="black" stroke="black" points="416.44,-140.63 417.48,-130.08 410.09,-137.68 416.44,-140.63"/>
<text xml:space="preserve" text-anchor="middle" x="419.22" y="-147.64" font-family="Helvetica,sans-Serif" font-size="9.00">sync</text>
</g>
<!-- archive -->
<g id="node19" class="node">
<title>archive</title>
<polygon fill="none" stroke="black" points="538.25,-128.44 472,-128.44 472,-92.44 538.25,-92.44 538.25,-128.44"/>
<text xml:space="preserve" text-anchor="middle" x="505.12" y="-106.56" font-family="Helvetica,sans-Serif" font-size="10.00">sdd&#45;archive</text>
</g>
<!-- which_change&#45;&gt;archive -->
<g id="edge20" class="edge">
<title>which_change&#45;&gt;archive</title>
<path fill="none" stroke="black" d="M414.3,-173.88C430.86,-162.49 452.76,-147.44 470.91,-134.96"/>
<polygon fill="black" stroke="black" points="472.5,-138.12 478.76,-129.57 468.53,-132.35 472.5,-138.12"/>
<text xml:space="preserve" text-anchor="middle" x="469.07" y="-147.64" font-family="Helvetica,sans-Serif" font-size="9.00">archive</text>
</g>
<!-- stop -->
<g id="node15" class="node">
<title>stop</title>
<polygon fill="red" stroke="black" points="243.68,-13.67 243.68,-33.01 196.49,-46.69 129.76,-46.69 82.57,-33.01 82.57,-13.67 129.76,0 196.49,0 243.68,-13.67"/>
<text xml:space="preserve" text-anchor="middle" x="163.12" y="-25.09" font-family="Helvetica,sans-Serif" font-size="10.00" fill="white">STOP:</text>
<text xml:space="preserve" text-anchor="middle" x="163.12" y="-13.84" font-family="Helvetica,sans-Serif" font-size="10.00" fill="white">run sdd&#45;propose first</text>
</g>
<!-- has_tasks&#45;&gt;stop -->
<g id="edge22" class="edge">
<title>has_tasks&#45;&gt;stop</title>
<path fill="none" stroke="black" d="M215.98,-94.62C207.95,-83.94 196.81,-69.13 186.83,-55.86"/>
<polygon fill="black" stroke="black" points="189.88,-54.09 181.07,-48.2 184.28,-58.3 189.88,-54.09"/>
<text xml:space="preserve" text-anchor="middle" x="204.21" y="-65.89" font-family="Helvetica,sans-Serif" font-size="9.00">no</text>
</g>
<!-- apply -->
<g id="node16" class="node">
<title>apply</title>
<polygon fill="none" stroke="black" points="320.12,-41.34 262.12,-41.34 262.12,-5.34 320.12,-5.34 320.12,-41.34"/>
<text xml:space="preserve" text-anchor="middle" x="291.12" y="-19.47" font-family="Helvetica,sans-Serif" font-size="10.00">sdd&#45;apply</text>
</g>
<!-- has_tasks&#45;&gt;apply -->
<g id="edge21" class="edge">
<title>has_tasks&#45;&gt;apply</title>
<path fill="none" stroke="black" d="M238.27,-94.62C247.38,-82.51 260.48,-65.09 271.36,-50.63"/>
<polygon fill="black" stroke="black" points="274,-52.94 277.21,-42.84 268.4,-48.73 274,-52.94"/>
<text xml:space="preserve" text-anchor="middle" x="266.25" y="-65.89" font-family="Helvetica,sans-Serif" font-size="9.00">yes</text>
</g>
</g>
</svg>
