<?xml version="1.0" encoding="UTF-8" standalone="no"?>
<!DOCTYPE svg PUBLIC "-//W3C//DTD SVG 1.1//EN"
 "http://www.w3.org/Graphics/SVG/1.1/DTD/svg11.dtd">
<!-- Generated by graphviz version 14.1.4 (20260321.0153)
 -->
<!-- Title: sdd_router Pages: 1 -->
<svg width="546pt" height="736pt"
 viewBox="0.00 0.00 546.00 736.00" xmlns="http://www.w3.org/2000/svg" xmlns:xlink="http://www.w3.org/1999/xlink">
<g id="graph0" class="graph" transform="scale(1 1) rotate(0) translate(4 731.69)">
<title>sdd_router</title>
<polygon fill="white" stroke="none" points="-4,4 -4,-731.69 542.25,-731.69 542.25,4 -4,4"/>
<!-- start -->
<g id="node1" class="node">
<title>start</title>
<ellipse fill="none" stroke="black" cx="294.12" cy="-709.69" rx="37.87" ry="18"/>
<text xml:space="preserve" text-anchor="middle" x="294.12" y="-705.81" font-family="Helvetica,sans-Serif" font-size="10.00">User intent</text>
</g>
<!-- explore_first -->
<g id="node2" class="node">
<title>explore_first</title>
<polygon fill="none" stroke="black" points="294.12,-654.69 215.12,-624.19 294.12,-593.69 373.12,-624.19 294.12,-654.69"/>
<text xml:space="preserve" text-anchor="middle" x="294.12" y="-625.94" font-family="Helvetica,sans-Serif" font-size="10.00">Wants to think</text>
<text xml:space="preserve" text-anchor="middle" x="294.12" y="-614.69" font-family="Helvetica,sans-Serif" font-size="10.00">before acting?</text>
</g>
<!-- start&#45;&gt;explore_first -->
<g id="edge1" class="edge">
<title>start&#45;&gt;explore_first</title>
<path fill="none" stroke="black" d="M294.12,-691.39C294.12,-684.08 294.12,-675.23 294.12,-666.41"/>
<polygon fill="black" stroke="black" points="297.63,-666.48 294.13,-656.48 290.63,-666.48 297.63,-666.48"/>
</g>
<!-- explore -->
<g id="node3" class="node">
<title>explore</title>
<polygon fill="none" stroke="black" points="293.25,-547.94 227,-547.94 227,-511.94 293.25,-511.94 293.25,-547.94"/>
<text xml:space="preserve" text-anchor="middle" x="260.12" y="-526.06" font-family="Helvetica,sans-Serif" font-size="10.00">sdd&#45;explore</text>
</g>
<!-- explore_first&#45;&gt;explore -->
<g id="edge2" class="edge">
<title>explore_first&#45;&gt;explore</title>
<path fill="none" stroke="black" d="M284.47,-597C280.08,-585.09 274.89,-570.99 270.42,-558.87"/>
<polygon fill="black" stroke="black" points="273.84,-558.02 267.1,-549.85 267.27,-560.44 273.84,-558.02"/>
<text xml:space="preserve" text-anchor="middle" x="283.23" y="-567.14" font-family="Helvetica,sans-Serif" font-size="9.00">yes</text>
</g>
<!-- has_specs -->
<g id="node4" class="node">
<title>has_specs</title>
<polygon fill="none" stroke="black" points="329.12,-456.44 235.41,-438.44 329.12,-420.44 422.84,-438.44 329.12,-456.44"/>
<text xml:space="preserve" text-anchor="middle" x="329.12" y="-434.56" font-family="Helvetica,sans-Serif" font-size="10.00">.specs/specs/ exists?</text>
</g>
<!-- explore_first&#45;&gt;has_specs -->
<g id="edge3" class="edge">
<title>explore_first&#45;&gt;has_specs</title>
<path fill="none" stroke="black" d="M299.44,-595.28C306.04,-560.61 317.24,-501.83 323.83,-467.22"/>
<polygon fill="black" stroke="black" points="327.24,-468.03 325.67,-457.55 320.37,-466.72 327.24,-468.03"/>
<text xml:space="preserve" text-anchor="middle" x="346.23" y="-526.26" font-family="Helvetica,sans-Serif" font-size="9.00">no, ready to act</text>
</g>
<!-- explore&#45;&gt;has_specs -->
<g id="edge4" class="edge">
<title>explore&#45;&gt;has_specs</title>
<path fill="none" stroke="black" stroke-dasharray="5,2" d="M258.53,-511.84C258.32,-500.34 259.78,-485.36 267.12,-474.44 272.12,-467.01 279.25,-460.98 286.91,-456.16"/>
<polygon fill="black" stroke="black" points="288.41,-459.33 295.45,-451.42 285.01,-453.21 288.41,-459.33"/>
<text xml:space="preserve" text-anchor="middle" x="291.12" y="-485.39" font-family="Helvetica,sans-Serif" font-size="9.00">crystallized,</text>
<text xml:space="preserve" text-anchor="middle" x="291.12" y="-475.64" font-family="Helvetica,sans-Serif" font-size="9.00">ready to act</text>
</g>
<!-- confirm_mode -->
<g id="node5" class="node">
<title>confirm_mode</title>
<polygon fill="none" stroke="black" points="225.88,-383.44 148.38,-383.44 148.38,-347.44 225.88,-347.44 225.88,-383.44"/>
<text xml:space="preserve" text-anchor="middle" x="187.12" y="-367.19" font-family="Helvetica,sans-Serif" font-size="10.00">Confirm intent</text>
<text xml:space="preserve" text-anchor="middle" x="187.12" y="-355.94" font-family="Helvetica,sans-Serif" font-size="10.00">with user</text>
</g>
<!-- has_specs&#45;&gt;confirm_mode -->
<g id="edge5" class="edge">
<title>has_specs&#45;&gt;confirm_mode</title>
<path fill="none" stroke="black" d="M304.07,-424.91C284.23,-414.99 256.01,-400.88 232.26,-389.01"/>
<polygon fill="black" stroke="black" points="233.92,-385.92 223.41,-384.58 230.79,-392.18 233.92,-385.92"/>
</g>
<!-- confirm_mode&#45;&gt;explore -->
<g id="edge10" class="edge">
<title>confirm_mode&#45;&gt;explore</title>
<path fill="none" stroke="black" d="M182.09,-383.83C177.62,-402.57 173.22,-432.88 183.38,-456.44 191.68,-475.71 207.92,-492.25 223.32,-504.65"/>
<polygon fill="black" stroke="black" points="220.96,-507.24 231.03,-510.53 225.21,-501.68 220.96,-507.24"/>
<text xml:space="preserve" text-anchor="middle" x="204.75" y="-434.76" font-family="Helvetica,sans-Serif" font-size="9.00">think more</text>
</g>
<!-- translate -->
<g id="node6" class="node">
<title>translate</title>
<polygon fill="none" stroke="black" points="72.25,-291.94 0,-291.94 0,-255.94 72.25,-255.94 72.25,-291.94"/>
<text xml:space="preserve" text-anchor="middle" x="36.12" y="-270.06" font-family="Helvetica,sans-Serif" font-size="10.00">sdd&#45;translate</text>
</g>
<!-- confirm_mode&#45;&gt;translate -->
<g id="edge6" class="edge">
<title>confirm_mode&#45;&gt;translate</title>
<path fill="none" stroke="black" d="M148.05,-364.47C117.73,-362.38 76.68,-354.57 51.12,-329.44 44.24,-322.66 40.43,-313.04 38.35,-303.76"/>
<polygon fill="black" stroke="black" points="41.81,-303.25 36.78,-293.93 34.9,-304.35 41.81,-303.25"/>
<text xml:space="preserve" text-anchor="middle" x="96.12" y="-316.01" font-family="Helvetica,sans-Serif" font-size="9.00">convert existing specs</text>
</g>
<!-- derive -->
<g id="node7" class="node">
<title>derive</title>
<polygon fill="none" stroke="black" points="179.62,-291.94 118.62,-291.94 118.62,-255.94 179.62,-255.94 179.62,-291.94"/>
<text xml:space="preserve" text-anchor="middle" x="149.12" y="-270.06" font-family="Helvetica,sans-Serif" font-size="10.00">sdd&#45;derive</text>
</g>
<!-- confirm_mode&#45;&gt;derive -->
<g id="edge7" class="edge">
<title>confirm_mode&#45;&gt;derive</title>
<path fill="none" stroke="black" d="M162.96,-347.14C157.69,-342.08 152.81,-336.1 149.88,-329.44 146.4,-321.55 145.3,-312.38 145.33,-303.83"/>
<polygon fill="black" stroke="black" points="148.82,-304.06 145.9,-293.88 141.83,-303.66 148.82,-304.06"/>
<text xml:space="preserve" text-anchor="middle" x="181" y="-316.01" font-family="Helvetica,sans-Serif" font-size="9.00">spec from code</text>
</g>
<!-- propose -->
<g id="node8" class="node">
<title>propose</title>
<polygon fill="none" stroke="black" points="295.75,-210.19 226.5,-210.19 226.5,-174.19 295.75,-174.19 295.75,-210.19"/>
<text xml:space="preserve" text-anchor="middle" x="261.12" y="-188.31" font-family="Helvetica,sans-Serif" font-size="10.00">sdd&#45;propose</text>
</g>
<!-- confirm_mode&#45;&gt;propose -->
<g id="edge8" class="edge">
<title>confirm_mode&#45;&gt;propose</title>
<path fill="none" stroke="black" d="M201.22,-346.95C205.12,-341.55 209.1,-335.44 212.12,-329.44 227.56,-298.77 224.18,-288.21 235.88,-255.94 240.03,-244.47 244.97,-231.97 249.38,-221.17"/>
<polygon fill="black" stroke="black" points="252.57,-222.62 253.14,-212.04 246.09,-219.95 252.57,-222.62"/>
<text xml:space="preserve" text-anchor="middle" x="261" y="-270.26" font-family="Helvetica,sans-Serif" font-size="9.00">new change</text>
</g>
<!-- has_change -->
<g id="node9" class="node">
<title>has_change</title>
<polygon fill="none" stroke="black" points="389.12,-291.94 294.78,-273.94 389.12,-255.94 483.47,-273.94 389.12,-291.94"/>
<text xml:space="preserve" text-anchor="middle" x="389.12" y="-270.06" font-family="Helvetica,sans-Serif" font-size="10.00">Active change exists?</text>
</g>
<!-- confirm_mode&#45;&gt;has_change -->
<g id="edge9" class="edge">
<title>confirm_mode&#45;&gt;has_change</title>
<path fill="none" stroke="black" d="M226.07,-347.18C262.13,-331.21 315.4,-307.6 351.14,-291.77"/>
<polygon fill="black" stroke="black" points="352.52,-294.98 360.25,-287.73 349.69,-288.58 352.52,-294.98"/>
<text xml:space="preserve" text-anchor="middle" x="331.72" y="-320.89" font-family="Helvetica,sans-Serif" font-size="9.00">apply/verify/</text>
<text xml:space="preserve" text-anchor="middle" x="331.72" y="-311.14" font-family="Helvetica,sans-Serif" font-size="9.00">sync/archive</text>
</g>
<!-- has_change&#45;&gt;propose -->
<g id="edge12" class="edge">
<title>has_change&#45;&gt;propose</title>
<path fill="none" stroke="black" stroke-dasharray="5,2" d="M367.7,-259.59C348.85,-247.85 320.99,-230.49 298.48,-216.46"/>
<polygon fill="black" stroke="black" points="300.51,-213.6 290.17,-211.29 296.81,-219.54 300.51,-213.6"/>
<text xml:space="preserve" text-anchor="middle" x="338.04" y="-229.39" font-family="Helvetica,sans-Serif" font-size="9.00">no</text>
</g>
<!-- which_change -->
<g id="node10" class="node">
<title>which_change</title>
<polygon fill="none" stroke="black" points="430.88,-210.19 347.38,-210.19 347.38,-174.19 430.88,-174.19 430.88,-210.19"/>
<text xml:space="preserve" text-anchor="middle" x="389.12" y="-193.94" font-family="Helvetica,sans-Serif" font-size="10.00">Which change?</text>
<text xml:space="preserve" text-anchor="middle" x="389.12" y="-182.69" font-family="Helvetica,sans-Serif" font-size="10.00">(ask if multiple)</text>
</g>
<!-- has_change&#45;&gt;which_change -->
<g id="edge11" class="edge">
<title>has_change&#45;&gt;which_change</title>
<path fill="none" stroke="black" d="M389.12,-255.63C389.12,-245.7 389.12,-232.99 389.12,-221.63"/>
<polygon fill="black" stroke="black" points="392.63,-221.97 389.13,-211.97 385.63,-221.97 392.63,-221.97"/>
<text xml:space="preserve" text-anchor="middle" x="396.25" y="-229.39" font-family="Helvetica,sans-Serif" font-size="9.00">yes</text>
</g>
<!-- has_tasks -->
<g id="node11" class="node">
<title>has_tasks</title>
<polygon fill="none" stroke="black" points="227.12,-128.44 150.98,-110.44 227.12,-92.44 303.27,-110.44 227.12,-128.44"/>
<text xml:space="preserve" text-anchor="middle" x="227.12" y="-106.56" font-family="Helvetica,sans-Serif" font-size="10.00">tasks.md exists?</text>
</g>
<!-- which_change&#45;&gt;has_tasks -->
<g id="edge13" class="edge">
<title>which_change&#45;&gt;has_tasks</title>
<path fill="none" stroke="black" d="M353.97,-173.88C326.37,-160.29 288.18,-141.49 260.93,-128.08"/>
<polygon fill="black" stroke="black" points="262.58,-124.99 252.06,-123.71 259.49,-131.27 262.58,-124.99"/>
<text xml:space="preserve" text-anchor="middle" x="329.07" y="-147.64" font-family="Helvetica,sans-Serif" font-size="9.00">apply</text>
</g>
<!-- verify -->
<g id="node14" class="node">
<title>verify</title>
<polygon fill="none" stroke="black" points="380.5,-128.44 321.75,-128.44 321.75,-92.44 380.5,-92.44 380.5,-128.44"/>
<text xml:space="preserve" text-anchor="middle" x="351.12" y="-106.56" font-family="Helvetica,sans-Serif" font-size="10.00">sdd&#45;verify</text>
</g>
<!-- which_change&#45;&gt;verify -->
<g id="edge14" class="edge">
<title>which_change&#45;&gt;verify</title>
<path fill="none" stroke="black" d="M380.88,-173.88C376,-163.64 369.71,-150.44 364.17,-138.81"/>
<polygon fill="black" stroke="black" points="367.47,-137.6 360.01,-130.07 361.15,-140.61 367.47,-137.6"/>
<text xml:space="preserve" text-anchor="middle" x="383.28" y="-147.64" font-family="Helvetica,sans-Serif" font-size="9.00">verify</text>
</g>
<!-- sync -->
<g id="node15" class="node">
<title>sync</title>
<polygon fill="none" stroke="black" points="454,-128.44 398.25,-128.44 398.25,-92.44 454,-92.44 454,-128.44"/>
<text xml:space="preserve" text-anchor="middle" x="426.12" y="-106.56" font-family="Helvetica,sans-Serif" font-size="10.00">sdd&#45;sync</text>
</g>
<!-- which_change&#45;&gt;sync -->
<g id="edge15" class="edge">
<title>which_change&#45;&gt;sync</title>
<path fill="none" stroke="black" d="M397.15,-173.88C401.91,-163.64 408.03,-150.44 413.42,-138.81"/>
<polygon fill="black" stroke="black" points="416.44,-140.63 417.48,-130.08 410.09,-137.68 416.44,-140.63"/>
<text xml:space="preserve" text-anchor="middle" x="419.22" y="-147.64" font-family="Helvetica,sans-Serif" font-size="9.00">sync</text>
</g>
<!-- archive -->
<g id="node16" class="node">
<title>archive</title>
<polygon fill="none" stroke="black" points="538.25,-128.44 472,-128.44 472,-92.44 538.25,-92.44 538.25,-128.44"/>
<text xml:space="preserve" text-anchor="middle" x="505.12" y="-106.56" font-family="Helvetica,sans-Serif" font-size="10.00">sdd&#45;archive</text>
</g>
<!-- which_change&#45;&gt;archive -->
<g id="edge16" class="edge">
<title>which_change&#45;&gt;archive</title>
<path fill="none" stroke="black" d="M414.3,-173.88C430.86,-162.49 452.76,-147.44 470.91,-134.96"/>
<polygon fill="black" stroke="black" points="472.5,-138.12 478.76,-129.57 468.53,-132.35 472.5,-138.12"/>
<text xml:space="preserve" text-anchor="middle" x="469.07" y="-147.64" font-family="Helvetica,sans-Serif" font-size="9.00">archive</text>
</g>
<!-- stop -->
<g id="node12" class="node">
<title>stop</title>
<polygon fill="red" stroke="black" points="243.68,-13.67 243.68,-33.01 196.49,-46.69 129.76,-46.69 82.57,-33.01 82.57,-13.67 129.76,0 196.49,0 243.68,-13.67"/>
<text xml:space="preserve" text-anchor="middle" x="163.12" y="-25.09" font-family="Helvetica,sans-Serif" font-size="10.00" fill="white">STOP:</text>
<text xml:space="preserve" text-anchor="middle" x="163.12" y="-13.84" font-family="Helvetica,sans-Serif" font-size="10.00" fill="white">run sdd&#45;propose first</text>
</g>
<!-- has_tasks&#45;&gt;stop -->
<g id="edge18" class="edge">
<title>has_tasks&#45;&gt;stop</title>
<path fill="none" stroke="black" d="M215.98,-94.62C207.95,-83.94 196.81,-69.13 186.83,-55.86"/>
<polygon fill="black" stroke="black" points="189.88,-54.09 181.07,-48.2 184.28,-58.3 189.88,-54.09"/>
<text xml:space="preserve" text-anchor="middle" x="204.21" y="-65.89" font-family="Helvetica,sans-Serif" font-size="9.00">no</text>
</g>
<!-- apply -->
<g id="node13" class="node">
<title>apply</title>
<polygon fill="none" stroke="black" points="320.12,-41.34 262.12,-41.34 262.12,-5.34 320.12,-5.34 320.12,-41.34"/>
<text xml:space="preserve" text-anchor="middle" x="291.12" y="-19.47" font-family="Helvetica,sans-Serif" font-size="10.00">sdd&#45;apply</text>
</g>
<!-- has_tasks&#45;&gt;apply -->
<g id="edge17" class="edge">
<title>has_tasks&#45;&gt;apply</title>
<path fill="none" stroke="black" d="M238.27,-94.62C247.38,-82.51 260.48,-65.09 271.36,-50.63"/>
<polygon fill="black" stroke="black" points="274,-52.94 277.21,-42.84 268.4,-48.73 274,-52.94"/>
<text xml:space="preserve" text-anchor="middle" x="266.25" y="-65.89" font-family="Helvetica,sans-Serif" font-size="9.00">yes</text>
</g>
</g>
</svg>
