<?xml version="1.0" encoding="UTF-8" standalone="no"?>
<!DOCTYPE svg PUBLIC "-//W3C//DTD SVG 1.1//EN"
 "http://www.w3.org/Graphics/SVG/1.1/DTD/svg11.dtd">
<!-- Generated by graphviz version 12.2.1 (0)
 -->
<!-- Title: when_flowchart Pages: 1 -->
<svg width="490pt" height="221pt"
 viewBox="0.00 0.00 490.45 221.00" xmlns="http://www.w3.org/2000/svg" xmlns:xlink="http://www.w3.org/1999/xlink">
<g id="graph0" class="graph" transform="scale(1 1) rotate(0) translate(4 217)">
<title>when_flowchart</title>
<polygon fill="white" stroke="none" points="-4,4 -4,-217 486.45,-217 486.45,4 -4,4"/>
<!-- Need to show process guidance? -->
<g id="node1" class="node">
<title>Need to show process guidance?</title>
<polygon fill="none" stroke="black" points="284.57,-213 97.59,-195 284.57,-177 471.56,-195 284.57,-213"/>
<text text-anchor="middle" x="284.57" y="-189.95" font-family="Times,serif" font-size="14.00">Need to show process guidance?</text>
</g>
<!-- Non&#45;obvious decision or loop? -->
<g id="node2" class="node">
<title>Non&#45;obvious decision or loop?</title>
<polygon fill="none" stroke="black" points="177.57,-124.5 0,-106.5 177.57,-88.5 355.15,-106.5 177.57,-124.5"/>
<text text-anchor="middle" x="177.57" y="-101.45" font-family="Times,serif" font-size="14.00">Non&#45;obvious decision or loop?</text>
</g>
<!-- Need to show process guidance?&#45;&gt;Non&#45;obvious decision or loop? -->
<g id="edge1" class="edge">
<title>Need to show process guidance?&#45;&gt;Non&#45;obvious decision or loop?</title>
<path fill="none" stroke="black" d="M265.44,-178.54C248.71,-165 224.19,-145.18 205.3,-129.91"/>
<polygon fill="black" stroke="black" points="207.69,-127.35 197.71,-123.78 203.29,-132.79 207.69,-127.35"/>
<text text-anchor="middle" x="249.66" y="-145.7" font-family="Times,serif" font-size="14.00">yes</text>
</g>
<!-- Use markdown (list/table/code) -->
<g id="node3" class="node">
<title>Use markdown (list/table/code)</title>
<polygon fill="none" stroke="black" points="482.45,-36 294.7,-36 294.7,0 482.45,0 482.45,-36"/>
<text text-anchor="middle" x="388.57" y="-12.95" font-family="Times,serif" font-size="14.00">Use markdown (list/table/code)</text>
</g>
<!-- Need to show process guidance?&#45;&gt;Use markdown (list/table/code) -->
<g id="edge2" class="edge">
<title>Need to show process guidance?&#45;&gt;Use markdown (list/table/code)</title>
<path fill="none" stroke="black" d="M308.92,-179.04C327.02,-166.64 350.87,-147.39 364.57,-124.5 378.66,-100.98 384.49,-69.98 386.89,-47.68"/>
<polygon fill="black" stroke="black" points="390.37,-48.07 387.77,-37.79 383.4,-47.44 390.37,-48.07"/>
<text text-anchor="middle" x="385.72" y="-101.45" font-family="Times,serif" font-size="14.00">no</text>
</g>
<!-- Non&#45;obvious decision or loop?&#45;&gt;Use markdown (list/table/code) -->
<g id="edge4" class="edge">
<title>Non&#45;obvious decision or loop?&#45;&gt;Use markdown (list/table/code)</title>
<path fill="none" stroke="black" d="M211.47,-91.6C244.91,-77.9 296.51,-56.74 335.41,-40.8"/>
<polygon fill="black" stroke="black" points="336.69,-44.05 344.61,-37.02 334.03,-37.58 336.69,-44.05"/>
<text text-anchor="middle" x="308.72" y="-57.2" font-family="Times,serif" font-size="14.00">no</text>
</g>
<!-- Use small inline DOT flowchart -->
<g id="node4" class="node">
<title>Use small inline DOT flowchart</title>
<polygon fill="none" stroke="black" points="273.32,-36 81.82,-36 81.82,0 273.32,0 273.32,-36"/>
<text text-anchor="middle" x="177.57" y="-12.95" font-family="Times,serif" font-size="14.00">Use small inline DOT flowchart</text>
</g>
<!-- Non&#45;obvious decision or loop?&#45;&gt;Use small inline DOT flowchart -->
<g id="edge3" class="edge">
<title>Non&#45;obvious decision or loop?&#45;&gt;Use small inline DOT flowchart</title>
<path fill="none" stroke="black" d="M177.57,-88.41C177.57,-76.76 177.57,-61.05 177.57,-47.52"/>
<polygon fill="black" stroke="black" points="181.07,-47.86 177.57,-37.86 174.07,-47.86 181.07,-47.86"/>
<text text-anchor="middle" x="186.57" y="-57.2" font-family="Times,serif" font-size="14.00">yes</text>
</g>
</g>
</svg>
