<?xml version="1.0" encoding="UTF-8" standalone="no"?>
<!DOCTYPE svg PUBLIC "-//W3C//DTD SVG 1.1//EN"
 "http://www.w3.org/Graphics/SVG/1.1/DTD/svg11.dtd">
<!-- Generated by graphviz version 14.1.4 (20260321.0153)
 -->
<!-- Title: STYLE_GUIDE Pages: 1 -->
<svg width="4896pt" height="1115pt"
 viewBox="0.00 0.00 4896.00 1115.00" xmlns="http://www.w3.org/2000/svg" xmlns:xlink="http://www.w3.org/1999/xlink">
<g id="graph0" class="graph" transform="scale(1 1) rotate(0) translate(4 1110.54)">
<title>STYLE_GUIDE</title>
<polygon fill="white" stroke="none" points="-4,4 -4,-1110.54 4892,-1110.54 4892,4 -4,4"/>
<g id="clust1" class="cluster">
<title>cluster_node_types</title>
<polygon fill="none" stroke="black" points="2042,-392.22 2042,-592.55 3979,-592.55 3979,-392.22 2042,-392.22"/>
<text xml:space="preserve" text-anchor="middle" x="3010.5" y="-575.25" font-family="Times,serif" font-size="14.00">NODE TYPES AND SHAPES</text>
</g>
<g id="clust2" class="cluster">
<title>cluster_edge_types</title>
<polygon fill="none" stroke="black" points="2602,-715.55 2602,-1098.54 3213,-1098.54 3213,-715.55 2602,-715.55"/>
<text xml:space="preserve" text-anchor="middle" x="2907.5" y="-1081.24" font-family="Times,serif" font-size="14.00">EDGE LABELS</text>
</g>
<g id="clust3" class="cluster">
<title>cluster_naming_patterns</title>
<polygon fill="none" stroke="black" points="8,-454.14 8,-530.64 2034,-530.64 2034,-454.14 8,-454.14"/>
<text xml:space="preserve" text-anchor="middle" x="1021" y="-513.34" font-family="Times,serif" font-size="14.00">NAMING PATTERNS</text>
</g>
<g id="clust4" class="cluster">
<title>cluster_structure</title>
<polygon fill="none" stroke="black" points="2044,-627.05 2044,-1045.33 2508,-1045.33 2508,-627.05 2044,-627.05"/>
<text xml:space="preserve" text-anchor="middle" x="2276" y="-1028.03" font-family="Times,serif" font-size="14.00">PROCESS STRUCTURE TEMPLATE</text>
</g>
<g id="clust5" class="cluster">
<title>cluster_shape_rules</title>
<polygon fill="none" stroke="black" points="3987,-8 3987,-1045.33 4407,-1045.33 4407,-8 3987,-8"/>
<text xml:space="preserve" text-anchor="middle" x="4197" y="-1028.03" font-family="Times,serif" font-size="14.00">WHEN TO USE EACH SHAPE</text>
</g>
<g id="clust6" class="cluster">
<title>cluster_examples</title>
<polygon fill="none" stroke="black" points="4415,-454.14 4415,-1045.33 4880,-1045.33 4880,-454.14 4415,-454.14"/>
<text xml:space="preserve" text-anchor="middle" x="4647.5" y="-1028.03" font-family="Times,serif" font-size="14.00">GOOD VS BAD EXAMPLES</text>
</g>
<!-- Is this a question? -->
<g id="node1" class="node">
<title>Is this a question?</title>
<polygon fill="none" stroke="black" points="2160,-498.14 2049.74,-480.14 2160,-462.14 2270.26,-480.14 2160,-498.14"/>
<text xml:space="preserve" text-anchor="middle" x="2160" y="-475.09" font-family="Times,serif" font-size="14.00">Is this a question?</text>
</g>
<!-- Take an action -->
<g id="node2" class="node">
<title>Take an action</title>
<polygon fill="none" stroke="black" points="2384.12,-498.14 2287.88,-498.14 2287.88,-462.14 2384.12,-462.14 2384.12,-498.14"/>
<text xml:space="preserve" text-anchor="middle" x="2336" y="-475.09" font-family="Times,serif" font-size="14.00">Take an action</text>
</g>
<!-- git commit &#45;m &#39;msg&#39; -->
<g id="node3" class="node">
<title>git commit &#45;m &#39;msg&#39;</title>
<text xml:space="preserve" text-anchor="middle" x="2466" y="-475.09" font-family="Times,serif" font-size="14.00">git commit &#45;m &#39;msg&#39;</text>
</g>
<!-- Current state -->
<g id="node4" class="node">
<title>Current state</title>
<ellipse fill="none" stroke="black" cx="2606" cy="-480.14" rx="58.52" ry="18"/>
<text xml:space="preserve" text-anchor="middle" x="2606" y="-475.09" font-family="Times,serif" font-size="14.00">Current state</text>
</g>
<!-- STOP: Critical warning -->
<g id="node5" class="node">
<title>STOP: Critical warning</title>
<polygon fill="red" stroke="black" points="2897.1,-472.68 2897.1,-487.59 2834.36,-498.14 2745.64,-498.14 2682.9,-487.59 2682.9,-472.68 2745.64,-462.14 2834.36,-462.14 2897.1,-472.68"/>
<text xml:space="preserve" text-anchor="middle" x="2790" y="-475.09" font-family="Times,serif" font-size="14.00" fill="white">STOP: Critical warning</text>
</g>
<!-- Process starts -->
<g id="node6" class="node">
<title>Process starts</title>
<ellipse fill="none" stroke="black" cx="2980" cy="-480.14" rx="61.08" ry="61.08"/>
<ellipse fill="none" stroke="black" cx="2980" cy="-480.14" rx="65.08" ry="65.08"/>
<text xml:space="preserve" text-anchor="middle" x="2980" y="-475.09" font-family="Times,serif" font-size="14.00">Process starts</text>
</g>
<!-- Process complete -->
<g id="node7" class="node">
<title>Process complete</title>
<ellipse fill="none" stroke="black" cx="3143" cy="-480.14" rx="75.92" ry="75.92"/>
<ellipse fill="none" stroke="black" cx="3143" cy="-480.14" rx="79.92" ry="79.92"/>
<text xml:space="preserve" text-anchor="middle" x="3143" y="-475.09" font-family="Times,serif" font-size="14.00">Process complete</text>
</g>
<!-- Is test passing? -->
<g id="node8" class="node">
<title>Is test passing?</title>
<polygon fill="none" stroke="black" points="3336,-498.14 3240.94,-480.14 3336,-462.14 3431.06,-480.14 3336,-498.14"/>
<text xml:space="preserve" text-anchor="middle" x="3336" y="-475.09" font-family="Times,serif" font-size="14.00">Is test passing?</text>
</g>
<!-- Write test first -->
<g id="node9" class="node">
<title>Write test first</title>
<polygon fill="none" stroke="black" points="3543.38,-498.14 3448.62,-498.14 3448.62,-462.14 3543.38,-462.14 3543.38,-498.14"/>
<text xml:space="preserve" text-anchor="middle" x="3496" y="-475.09" font-family="Times,serif" font-size="14.00">Write test first</text>
</g>
<!-- npm test -->
<g id="node10" class="node">
<title>npm test</title>
<text xml:space="preserve" text-anchor="middle" x="3593" y="-475.09" font-family="Times,serif" font-size="14.00">npm test</text>
</g>
<!-- I am stuck -->
<g id="node11" class="node">
<title>I am stuck</title>
<ellipse fill="none" stroke="black" cx="3693" cy="-480.14" rx="50.33" ry="18"/>
<text xml:space="preserve" text-anchor="middle" x="3693" y="-475.09" font-family="Times,serif" font-size="14.00">I am stuck</text>
</g>
<!-- NEVER use git add &#45;A -->
<g id="node12" class="node">
<title>NEVER use git add &#45;A</title>
<polygon fill="red" stroke="black" points="3970.89,-472.68 3970.89,-487.59 3909.45,-498.14 3822.55,-498.14 3761.11,-487.59 3761.11,-472.68 3822.55,-462.14 3909.45,-462.14 3970.89,-472.68"/>
<text xml:space="preserve" text-anchor="middle" x="3866" y="-475.09" font-family="Times,serif" font-size="14.00" fill="white">NEVER use git add &#45;A</text>
</g>
<!-- Binary decision? -->
<g id="node13" class="node">
<title>Binary decision?</title>
<polygon fill="none" stroke="black" points="2714,-1012.83 2610.25,-994.83 2714,-976.83 2817.75,-994.83 2714,-1012.83"/>
<text xml:space="preserve" text-anchor="middle" x="2714" y="-989.78" font-family="Times,serif" font-size="14.00">Binary decision?</text>
</g>
<!-- Yes path -->
<g id="node14" class="node">
<title>Yes path</title>
<polygon fill="none" stroke="black" points="2682.62,-815.33 2619.38,-815.33 2619.38,-779.33 2682.62,-779.33 2682.62,-815.33"/>
<text xml:space="preserve" text-anchor="middle" x="2651" y="-792.28" font-family="Times,serif" font-size="14.00">Yes path</text>
</g>
<!-- Binary decision?&#45;&gt;Yes path -->
<g id="edge1" class="edge">
<title>Binary decision?&#45;&gt;Yes path</title>
<path fill="none" stroke="black" d="M2708.74,-977.49C2697.98,-944.11 2673.36,-867.71 2660.01,-826.28"/>
<polygon fill="black" stroke="black" points="2663.42,-825.48 2657.03,-817.03 2656.76,-827.62 2663.42,-825.48"/>
<text xml:space="preserve" text-anchor="middle" x="2693.39" y="-892.31" font-family="Times,serif" font-size="14.00">yes</text>
</g>
<!-- No path -->
<g id="node15" class="node">
<title>No path</title>
<polygon fill="none" stroke="black" points="2759.75,-815.33 2700.25,-815.33 2700.25,-779.33 2759.75,-779.33 2759.75,-815.33"/>
<text xml:space="preserve" text-anchor="middle" x="2730" y="-792.28" font-family="Times,serif" font-size="14.00">No path</text>
</g>
<!-- Binary decision?&#45;&gt;No path -->
<g id="edge2" class="edge">
<title>Binary decision?&#45;&gt;No path</title>
<path fill="none" stroke="black" d="M2715.39,-976.82C2718.13,-943.32 2724.26,-868.49 2727.64,-827.15"/>
<polygon fill="black" stroke="black" points="2731.13,-827.48 2728.45,-817.23 2724.15,-826.91 2731.13,-827.48"/>
<text xml:space="preserve" text-anchor="middle" x="2729.23" y="-892.31" font-family="Times,serif" font-size="14.00">no</text>
</g>
<!-- Multiple choice? -->
<g id="node16" class="node">
<title>Multiple choice?</title>
<polygon fill="none" stroke="black" points="2940,-1012.83 2835.53,-994.83 2940,-976.83 3044.47,-994.83 2940,-1012.83"/>
<text xml:space="preserve" text-anchor="middle" x="2940" y="-989.78" font-family="Times,serif" font-size="14.00">Multiple choice?</text>
</g>
<!-- Option A -->
<g id="node17" class="node">
<title>Option A</title>
<polygon fill="none" stroke="black" points="2954.12,-815.33 2887.88,-815.33 2887.88,-779.33 2954.12,-779.33 2954.12,-815.33"/>
<text xml:space="preserve" text-anchor="middle" x="2921" y="-792.28" font-family="Times,serif" font-size="14.00">Option A</text>
</g>
<!-- Multiple choice?&#45;&gt;Option A -->
<g id="edge3" class="edge">
<title>Multiple choice?&#45;&gt;Option A</title>
<path fill="none" stroke="black" d="M2935.44,-977.41C2930.81,-959.81 2923.95,-930.99 2921.25,-905.61 2918.42,-879.01 2918.69,-848.49 2919.47,-826.83"/>
<polygon fill="black" stroke="black" points="2922.96,-827.14 2919.89,-817 2915.96,-826.84 2922.96,-827.14"/>
<text xml:space="preserve" text-anchor="middle" x="2953.12" y="-892.31" font-family="Times,serif" font-size="14.00">condition A</text>
</g>
<!-- Option B -->
<g id="node18" class="node">
<title>Option B</title>
<polygon fill="none" stroke="black" points="3039.12,-815.33 2972.88,-815.33 2972.88,-779.33 3039.12,-779.33 3039.12,-815.33"/>
<text xml:space="preserve" text-anchor="middle" x="3006" y="-792.28" font-family="Times,serif" font-size="14.00">Option B</text>
</g>
<!-- Multiple choice?&#45;&gt;Option B -->
<g id="edge4" class="edge">
<title>Multiple choice?&#45;&gt;Option B</title>
<path fill="none" stroke="black" d="M2949.69,-978.16C2959.92,-960.97 2975.8,-932.26 2985,-905.61 2993.94,-879.73 2999.47,-848.94 3002.6,-827"/>
<polygon fill="black" stroke="black" points="3006.04,-827.69 3003.89,-817.31 2999.1,-826.76 3006.04,-827.69"/>
<text xml:space="preserve" text-anchor="middle" x="3021.32" y="-892.31" font-family="Times,serif" font-size="14.00">condition B</text>
</g>
<!-- Option C -->
<g id="node19" class="node">
<title>Option C</title>
<polygon fill="none" stroke="black" points="2870.12,-815.33 2803.88,-815.33 2803.88,-779.33 2870.12,-779.33 2870.12,-815.33"/>
<text xml:space="preserve" text-anchor="middle" x="2837" y="-792.28" font-family="Times,serif" font-size="14.00">Option C</text>
</g>
<!-- Multiple choice?&#45;&gt;Option C -->
<g id="edge5" class="edge">
<title>Multiple choice?&#45;&gt;Option C</title>
<path fill="none" stroke="black" d="M2923.39,-979.27C2905.89,-963.03 2878.8,-935.12 2863.5,-905.61 2850.55,-880.63 2843.74,-849.07 2840.29,-826.66"/>
<polygon fill="black" stroke="black" points="2843.8,-826.47 2838.94,-817.06 2836.86,-827.44 2843.8,-826.47"/>
<text xml:space="preserve" text-anchor="middle" x="2889.75" y="-892.31" font-family="Times,serif" font-size="14.00">otherwise</text>
</g>
<!-- Process A done -->
<g id="node20" class="node">
<title>Process A done</title>
<ellipse fill="none" stroke="black" cx="3134" cy="-994.83" rx="67.22" ry="67.22"/>
<ellipse fill="none" stroke="black" cx="3134" cy="-994.83" rx="71.22" ry="71.22"/>
<text xml:space="preserve" text-anchor="middle" x="3134" y="-989.78" font-family="Times,serif" font-size="14.00">Process A done</text>
</g>
<!-- Process B starts -->
<g id="node21" class="node">
<title>Process B starts</title>
<ellipse fill="none" stroke="black" cx="3131" cy="-797.33" rx="69.78" ry="69.78"/>
<ellipse fill="none" stroke="black" cx="3131" cy="-797.33" rx="73.78" ry="73.78"/>
<text xml:space="preserve" text-anchor="middle" x="3131" y="-792.28" font-family="Times,serif" font-size="14.00">Process B starts</text>
</g>
<!-- Process A done&#45;&gt;Process B starts -->
<g id="edge6" class="edge">
<title>Process A done&#45;&gt;Process B starts</title>
<path fill="none" stroke="black" stroke-dasharray="1,5" d="M3132.92,-923.25C3132.72,-910.09 3132.5,-896.22 3132.29,-882.69"/>
<polygon fill="black" stroke="black" points="3135.8,-882.9 3132.15,-872.95 3128.8,-883 3135.8,-882.9"/>
<text xml:space="preserve" text-anchor="middle" x="3153.21" y="-892.31" font-family="Times,serif" font-size="14.00">triggers</text>
</g>
<!-- Should I do X? -->
<g id="node22" class="node">
<title>Should I do X?</title>
<ellipse fill="none" stroke="black" cx="84" cy="-480.14" rx="67.73" ry="18"/>
<text xml:space="preserve" text-anchor="middle" x="84" y="-475.09" font-family="Times,serif" font-size="14.00">Should I do X?</text>
</g>
<!-- Can this be Y? -->
<g id="node23" class="node">
<title>Can this be Y?</title>
<ellipse fill="none" stroke="black" cx="235" cy="-480.14" rx="65.68" ry="18"/>
<text xml:space="preserve" text-anchor="middle" x="235" y="-475.09" font-family="Times,serif" font-size="14.00">Can this be Y?</text>
</g>
<!-- Is Z true? -->
<g id="node24" class="node">
<title>Is Z true?</title>
<ellipse fill="none" stroke="black" cx="365" cy="-480.14" rx="46.75" ry="18"/>
<text xml:space="preserve" text-anchor="middle" x="365" y="-475.09" font-family="Times,serif" font-size="14.00">Is Z true?</text>
</g>
<!-- Have I done W? -->
<g id="node25" class="node">
<title>Have I done W?</title>
<ellipse fill="none" stroke="black" cx="501" cy="-480.14" rx="71.31" ry="18"/>
<text xml:space="preserve" text-anchor="middle" x="501" y="-475.09" font-family="Times,serif" font-size="14.00">Have I done W?</text>
</g>
<!-- Write the test -->
<g id="node26" class="node">
<title>Write the test</title>
<ellipse fill="none" stroke="black" cx="651" cy="-480.14" rx="61.08" ry="18"/>
<text xml:space="preserve" text-anchor="middle" x="651" y="-475.09" font-family="Times,serif" font-size="14.00">Write the test</text>
</g>
<!-- Search for patterns -->
<g id="node27" class="node">
<title>Search for patterns</title>
<ellipse fill="none" stroke="black" cx="811" cy="-480.14" rx="81.04" ry="18"/>
<text xml:space="preserve" text-anchor="middle" x="811" y="-475.09" font-family="Times,serif" font-size="14.00">Search for patterns</text>
</g>
<!-- Commit changes -->
<g id="node28" class="node">
<title>Commit changes</title>
<ellipse fill="none" stroke="black" cx="984" cy="-480.14" rx="74.38" ry="18"/>
<text xml:space="preserve" text-anchor="middle" x="984" y="-475.09" font-family="Times,serif" font-size="14.00">Commit changes</text>
</g>
<!-- Ask for help -->
<g id="node29" class="node">
<title>Ask for help</title>
<ellipse fill="none" stroke="black" cx="1134" cy="-480.14" rx="57.49" ry="18"/>
<text xml:space="preserve" text-anchor="middle" x="1134" y="-475.09" font-family="Times,serif" font-size="14.00">Ask for help</text>
</g>
<!-- grep &#45;r &#39;pattern&#39; . -->
<g id="node30" class="node">
<title>grep &#45;r &#39;pattern&#39; .</title>
<ellipse fill="none" stroke="black" cx="1282" cy="-480.14" rx="72.34" ry="18"/>
<text xml:space="preserve" text-anchor="middle" x="1282" y="-475.09" font-family="Times,serif" font-size="14.00">grep &#45;r &#39;pattern&#39; .</text>
</g>
<!-- git status -->
<g id="node31" class="node">
<title>git status</title>
<text xml:space="preserve" text-anchor="middle" x="1405" y="-475.09" font-family="Times,serif" font-size="14.00">git status</text>
</g>
<!-- Another check? -->
<g id="node39" class="node">
<title>Another check?</title>
<polygon fill="none" stroke="black" points="2402,-1012.83 2304.04,-994.83 2402,-976.83 2499.96,-994.83 2402,-1012.83"/>
<text xml:space="preserve" text-anchor="middle" x="2402" y="-989.78" font-family="Times,serif" font-size="14.00">Another check?</text>
</g>
<!-- git status&#45;&gt;Another check? -->
<g id="edge11" class="edge">
<title>git status&#45;&gt;Another check?</title>
<path fill="none" stroke="black" d="M1407.22,-498.01C1411.19,-521.9 1421.6,-565.65 1447,-592.55 1656.32,-814.29 1785.1,-773.55 2074,-871.11 2169.65,-903.41 2202.29,-883.64 2295,-923.61 2324.42,-936.29 2354.64,-956.96 2375.42,-972.59"/>
<polygon fill="black" stroke="black" points="2373.28,-975.36 2383.35,-978.67 2377.54,-969.81 2373.28,-975.36"/>
</g>
<!-- npm run build -->
<g id="node32" class="node">
<title>npm run build</title>
<ellipse fill="none" stroke="black" cx="1520" cy="-480.14" rx="64.15" ry="18"/>
<text xml:space="preserve" text-anchor="middle" x="1520" y="-475.09" font-family="Times,serif" font-size="14.00">npm run build</text>
</g>
<!-- Test is failing -->
<g id="node33" class="node">
<title>Test is failing</title>
<ellipse fill="none" stroke="black" cx="1664" cy="-480.14" rx="62.1" ry="18"/>
<text xml:space="preserve" text-anchor="middle" x="1664" y="-475.09" font-family="Times,serif" font-size="14.00">Test is failing</text>
</g>
<!-- Build complete -->
<g id="node34" class="node">
<title>Build complete</title>
<ellipse fill="none" stroke="black" cx="1812" cy="-480.14" rx="68.24" ry="18"/>
<text xml:space="preserve" text-anchor="middle" x="1812" y="-475.09" font-family="Times,serif" font-size="14.00">Build complete</text>
</g>
<!-- Stuck on error -->
<g id="node35" class="node">
<title>Stuck on error</title>
<ellipse fill="none" stroke="black" cx="1962" cy="-480.14" rx="64.15" ry="18"/>
<text xml:space="preserve" text-anchor="middle" x="1962" y="-475.09" font-family="Times,serif" font-size="14.00">Stuck on error</text>
</g>
<!-- Trigger: Something happens -->
<g id="node36" class="node">
<title>Trigger: Something happens</title>
<ellipse fill="none" stroke="black" cx="2169" cy="-994.83" rx="116.86" ry="18"/>
<text xml:space="preserve" text-anchor="middle" x="2169" y="-989.78" font-family="Times,serif" font-size="14.00">Trigger: Something happens</text>
</g>
<!-- Initial check? -->
<g id="node37" class="node">
<title>Initial check?</title>
<polygon fill="none" stroke="black" points="2169,-815.33 2082.63,-797.33 2169,-779.33 2255.37,-797.33 2169,-815.33"/>
<text xml:space="preserve" text-anchor="middle" x="2169" y="-792.28" font-family="Times,serif" font-size="14.00">Initial check?</text>
</g>
<!-- Trigger: Something happens&#45;&gt;Initial check? -->
<g id="edge7" class="edge">
<title>Trigger: Something happens&#45;&gt;Initial check?</title>
<path fill="none" stroke="black" d="M2169,-976.48C2169,-942.78 2169,-868.2 2169,-827.03"/>
<polygon fill="black" stroke="black" points="2172.5,-827.15 2169,-817.15 2165.5,-827.15 2172.5,-827.15"/>
</g>
<!-- Main action -->
<g id="node38" class="node">
<title>Main action</title>
<polygon fill="none" stroke="black" points="2169,-671.05 2087,-671.05 2087,-635.05 2169,-635.05 2169,-671.05"/>
<text xml:space="preserve" text-anchor="middle" x="2128" y="-648" font-family="Times,serif" font-size="14.00">Main action</text>
</g>
<!-- Initial check?&#45;&gt;Main action -->
<g id="edge8" class="edge">
<title>Initial check?&#45;&gt;Main action</title>
<path fill="none" stroke="black" d="M2164.3,-780.01C2157.43,-756.17 2144.55,-711.48 2136.13,-682.25"/>
<polygon fill="black" stroke="black" points="2139.58,-681.61 2133.45,-672.97 2132.86,-683.55 2139.58,-681.61"/>
<text xml:space="preserve" text-anchor="middle" x="2151.43" y="-692.25" font-family="Times,serif" font-size="14.00">yes</text>
</g>
<!-- Alternative action -->
<g id="node40" class="node">
<title>Alternative action</title>
<polygon fill="none" stroke="black" points="2447.75,-671.05 2334.25,-671.05 2334.25,-635.05 2447.75,-635.05 2447.75,-671.05"/>
<text xml:space="preserve" text-anchor="middle" x="2391" y="-648" font-family="Times,serif" font-size="14.00">Alternative action</text>
</g>
<!-- Initial check?&#45;&gt;Alternative action -->
<g id="edge9" class="edge">
<title>Initial check?&#45;&gt;Alternative action</title>
<path fill="none" stroke="black" d="M2189.49,-783.2C2226.97,-759.18 2307.04,-707.86 2354.19,-677.65"/>
<polygon fill="black" stroke="black" points="2355.92,-680.7 2362.45,-672.35 2352.14,-674.8 2355.92,-680.7"/>
<text xml:space="preserve" text-anchor="middle" x="2338.21" y="-692.25" font-family="Times,serif" font-size="14.00">no</text>
</g>
<!-- Main action&#45;&gt;git status -->
<g id="edge10" class="edge">
<title>Main action&#45;&gt;git status</title>
<path fill="none" stroke="black" d="M2109.93,-634.81C2095.9,-622.66 2075.31,-607.4 2054,-600.55 2037.94,-595.4 1460.8,-602.24 1447,-592.55 1420.14,-573.71 1410.44,-535.42 1406.95,-509.02"/>
<polygon fill="black" stroke="black" points="1410.46,-508.92 1405.91,-499.35 1403.5,-509.67 1410.46,-508.92"/>
</g>
<!-- Another check?&#45;&gt;Process complete -->
<g id="edge12" class="edge">
<title>Another check?&#45;&gt;Process complete</title>
<path fill="none" stroke="black" d="M2415.65,-978.92C2435.97,-956.39 2474.93,-911.96 2504,-871.11 2550.84,-805.3 2533.47,-764.14 2598,-715.55 2765.7,-589.3 2878.43,-707.61 3054,-592.55 3068.66,-582.95 3082.02,-570.13 3093.68,-556.61"/>
<polygon fill="black" stroke="black" points="3096.06,-559.23 3099.74,-549.3 3090.67,-554.76 3096.06,-559.23"/>
<text xml:space="preserve" text-anchor="middle" x="2642.53" y="-692.25" font-family="Times,serif" font-size="14.00">ok</text>
</g>
<!-- STOP: Don&#39;t do this -->
<g id="node41" class="node">
<title>STOP: Don&#39;t do this</title>
<polygon fill="red" stroke="black" points="2495.25,-789.88 2495.25,-804.79 2440.63,-815.33 2363.37,-815.33 2308.75,-804.79 2308.75,-789.88 2363.37,-779.33 2440.63,-779.33 2495.25,-789.88"/>
<text xml:space="preserve" text-anchor="middle" x="2402" y="-792.28" font-family="Times,serif" font-size="14.00" fill="white">STOP: Don&#39;t do this</text>
</g>
<!-- Another check?&#45;&gt;STOP: Don&#39;t do this -->
<g id="edge13" class="edge">
<title>Another check?&#45;&gt;STOP: Don&#39;t do this</title>
<path fill="none" stroke="black" d="M2402,-976.48C2402,-942.78 2402,-868.2 2402,-827.03"/>
<polygon fill="black" stroke="black" points="2405.5,-827.15 2402,-817.15 2398.5,-827.15 2405.5,-827.15"/>
<text xml:space="preserve" text-anchor="middle" x="2424.88" y="-892.31" font-family="Times,serif" font-size="14.00">problem</text>
</g>
<!-- Alternative action&#45;&gt;Process complete -->
<g id="edge14" class="edge">
<title>Alternative action&#45;&gt;Process complete</title>
<path fill="none" stroke="black" d="M2436.02,-634.67C2469.83,-622.53 2517.58,-607.35 2561,-600.55 2588.06,-596.32 3029.41,-604.63 3054,-592.55 3070.1,-584.65 3084.22,-572.29 3096.19,-558.63"/>
<polygon fill="black" stroke="black" points="3098.7,-561.09 3102.39,-551.16 3093.31,-556.62 3098.7,-561.09"/>
</g>
<!-- Choosing a shape -->
<g id="node42" class="node">
<title>Choosing a shape</title>
<ellipse fill="none" stroke="black" cx="4107" cy="-994.83" rx="76.43" ry="18"/>
<text xml:space="preserve" text-anchor="middle" x="4107" y="-989.78" font-family="Times,serif" font-size="14.00">Choosing a shape</text>
</g>
<!-- Is it a decision? -->
<g id="node43" class="node">
<title>Is it a decision?</title>
<polygon fill="none" stroke="black" points="4107,-815.33 4009.04,-797.33 4107,-779.33 4204.96,-797.33 4107,-815.33"/>
<text xml:space="preserve" text-anchor="middle" x="4107" y="-792.28" font-family="Times,serif" font-size="14.00">Is it a decision?</text>
</g>
<!-- Choosing a shape&#45;&gt;Is it a decision? -->
<g id="edge15" class="edge">
<title>Choosing a shape&#45;&gt;Is it a decision?</title>
<path fill="none" stroke="black" d="M4107,-976.48C4107,-942.78 4107,-868.2 4107,-827.03"/>
<polygon fill="black" stroke="black" points="4110.5,-827.15 4107,-817.15 4103.5,-827.15 4110.5,-827.15"/>
</g>
<!-- Use diamond -->
<g id="node44" class="node">
<title>Use diamond</title>
<polygon fill="lightblue" stroke="black" points="4081,-671.05 3995.35,-653.05 4081,-635.05 4166.65,-653.05 4081,-671.05"/>
<text xml:space="preserve" text-anchor="middle" x="4081" y="-648" font-family="Times,serif" font-size="14.00">Use diamond</text>
</g>
<!-- Is it a decision?&#45;&gt;Use diamond -->
<g id="edge16" class="edge">
<title>Is it a decision?&#45;&gt;Use diamond</title>
<path fill="none" stroke="black" d="M4103.92,-779.45C4099.52,-755.39 4091.39,-710.92 4086.09,-681.92"/>
<polygon fill="black" stroke="black" points="4089.59,-681.61 4084.35,-672.4 4082.71,-682.87 4089.59,-681.61"/>
<text xml:space="preserve" text-anchor="middle" x="4099.15" y="-692.25" font-family="Times,serif" font-size="14.00">yes</text>
</g>
<!-- Is it a command? -->
<g id="node45" class="node">
<title>Is it a command?</title>
<polygon fill="none" stroke="black" points="4292,-671.05 4184.64,-653.05 4292,-635.05 4399.36,-653.05 4292,-671.05"/>
<text xml:space="preserve" text-anchor="middle" x="4292" y="-648" font-family="Times,serif" font-size="14.00">Is it a command?</text>
</g>
<!-- Is it a decision?&#45;&gt;Is it a command? -->
<g id="edge17" class="edge">
<title>Is it a decision?&#45;&gt;Is it a command?</title>
<path fill="none" stroke="black" d="M4125.08,-782.43C4157.6,-757.42 4226.15,-704.7 4264.51,-675.19"/>
<polygon fill="black" stroke="black" points="4266.58,-678.02 4272.38,-669.15 4262.32,-672.47 4266.58,-678.02"/>
<text xml:space="preserve" text-anchor="middle" x="4249.13" y="-692.25" font-family="Times,serif" font-size="14.00">no</text>
</g>
<!-- Use plaintext -->
<g id="node46" class="node">
<title>Use plaintext</title>
<polygon fill="lightgray" stroke="none" points="4179,-498.14 4091,-498.14 4091,-462.14 4179,-462.14 4179,-498.14"/>
<text xml:space="preserve" text-anchor="middle" x="4135" y="-475.09" font-family="Times,serif" font-size="14.00">Use plaintext</text>
</g>
<!-- Is it a command?&#45;&gt;Use plaintext -->
<g id="edge18" class="edge">
<title>Is it a command?&#45;&gt;Use plaintext</title>
<path fill="none" stroke="black" d="M4260.44,-640.05C4237.88,-630.15 4208.08,-614.22 4188,-592.55 4165.62,-568.42 4151.01,-533.11 4142.91,-508.74"/>
<polygon fill="black" stroke="black" points="4146.35,-508 4140,-499.52 4139.67,-510.11 4146.35,-508"/>
<text xml:space="preserve" text-anchor="middle" x="4224.42" y="-603.75" font-family="Times,serif" font-size="14.00">yes</text>
</g>
<!-- Is it a warning? -->
<g id="node47" class="node">
<title>Is it a warning?</title>
<polygon fill="none" stroke="black" points="4294,-498.14 4196.77,-480.14 4294,-462.14 4391.23,-480.14 4294,-498.14"/>
<text xml:space="preserve" text-anchor="middle" x="4294" y="-475.09" font-family="Times,serif" font-size="14.00">Is it a warning?</text>
</g>
<!-- Is it a command?&#45;&gt;Is it a warning? -->
<g id="edge19" class="edge">
<title>Is it a command?&#45;&gt;Is it a warning?</title>
<path fill="none" stroke="black" d="M4292.2,-634.73C4292.55,-605.29 4293.25,-545.27 4293.67,-509.6"/>
<polygon fill="black" stroke="black" points="4297.16,-510.07 4293.78,-500.02 4290.16,-509.98 4297.16,-510.07"/>
<text xml:space="preserve" text-anchor="middle" x="4299.34" y="-603.75" font-family="Times,serif" font-size="14.00">no</text>
</g>
<!-- Use octagon -->
<g id="node48" class="node">
<title>Use octagon</title>
<polygon fill="pink" stroke="black" points="4188.68,-322.26 4188.68,-337.17 4152.55,-347.72 4101.45,-347.72 4065.32,-337.17 4065.32,-322.26 4101.45,-311.72 4152.55,-311.72 4188.68,-322.26"/>
<text xml:space="preserve" text-anchor="middle" x="4127" y="-324.67" font-family="Times,serif" font-size="14.00">Use octagon</text>
</g>
<!-- Is it a warning?&#45;&gt;Use octagon -->
<g id="edge20" class="edge">
<title>Is it a warning?&#45;&gt;Use octagon</title>
<path fill="none" stroke="black" d="M4277.99,-464.91C4249.61,-439.69 4190.19,-386.88 4154.94,-355.55"/>
<polygon fill="black" stroke="black" points="4157.47,-353.11 4147.67,-349.09 4152.82,-358.35 4157.47,-353.11"/>
<text xml:space="preserve" text-anchor="middle" x="4190.02" y="-368.92" font-family="Times,serif" font-size="14.00">yes</text>
</g>
<!-- Is it entry/exit? -->
<g id="node49" class="node">
<title>Is it entry/exit?</title>
<polygon fill="none" stroke="black" points="4302,-347.72 4206.94,-329.72 4302,-311.72 4397.06,-329.72 4302,-347.72"/>
<text xml:space="preserve" text-anchor="middle" x="4302" y="-324.67" font-family="Times,serif" font-size="14.00">Is it entry/exit?</text>
</g>
<!-- Is it a warning?&#45;&gt;Is it entry/exit? -->
<g id="edge21" class="edge">
<title>Is it a warning?&#45;&gt;Is it entry/exit?</title>
<path fill="none" stroke="black" d="M4294.93,-461.82C4296.29,-436.57 4298.84,-389.37 4300.47,-359.03"/>
<polygon fill="black" stroke="black" points="4303.95,-359.61 4300.99,-349.44 4296.96,-359.23 4303.95,-359.61"/>
<text xml:space="preserve" text-anchor="middle" x="4306.82" y="-368.92" font-family="Times,serif" font-size="14.00">no</text>
</g>
<!-- Use doublecircle -->
<g id="node50" class="node">
<title>Use doublecircle</title>
<ellipse fill="lightgreen" stroke="black" cx="4144" cy="-181.86" rx="73.36" ry="73.36"/>
<ellipse fill="none" stroke="black" cx="4144" cy="-181.86" rx="77.36" ry="77.36"/>
<text xml:space="preserve" text-anchor="middle" x="4144" y="-176.81" font-family="Times,serif" font-size="14.00">Use doublecircle</text>
</g>
<!-- Is it entry/exit?&#45;&gt;Use doublecircle -->
<g id="edge22" class="edge">
<title>Is it entry/exit?&#45;&gt;Use doublecircle</title>
<path fill="none" stroke="black" d="M4286.27,-314.2C4268.16,-297.48 4237.23,-268.93 4208.83,-242.71"/>
<polygon fill="black" stroke="black" points="4211.34,-240.26 4201.62,-236.05 4206.59,-245.41 4211.34,-240.26"/>
<text xml:space="preserve" text-anchor="middle" x="4272.82" y="-280.42" font-family="Times,serif" font-size="14.00">yes</text>
</g>
<!-- Is it a state? -->
<g id="node51" class="node">
<title>Is it a state?</title>
<polygon fill="none" stroke="black" points="4318,-199.86 4239.59,-181.86 4318,-163.86 4396.41,-181.86 4318,-199.86"/>
<text xml:space="preserve" text-anchor="middle" x="4318" y="-176.81" font-family="Times,serif" font-size="14.00">Is it a state?</text>
</g>
<!-- Is it entry/exit?&#45;&gt;Is it a state? -->
<g id="edge23" class="edge">
<title>Is it entry/exit?&#45;&gt;Is it a state?</title>
<path fill="none" stroke="black" d="M4303.87,-311.7C4306.58,-287 4311.63,-240.91 4314.9,-211.08"/>
<polygon fill="black" stroke="black" points="4318.37,-211.59 4315.98,-201.27 4311.41,-210.83 4318.37,-211.59"/>
<text xml:space="preserve" text-anchor="middle" x="4314.38" y="-280.42" font-family="Times,serif" font-size="14.00">no</text>
</g>
<!-- Use ellipse -->
<g id="node52" class="node">
<title>Use ellipse</title>
<ellipse fill="lightyellow" stroke="black" cx="4222" cy="-34" rx="51.86" ry="18"/>
<text xml:space="preserve" text-anchor="middle" x="4222" y="-28.95" font-family="Times,serif" font-size="14.00">Use ellipse</text>
</g>
<!-- Is it a state?&#45;&gt;Use ellipse -->
<g id="edge24" class="edge">
<title>Is it a state?&#45;&gt;Use ellipse</title>
<path fill="none" stroke="black" d="M4308.09,-165.8C4291.9,-141.21 4259.6,-92.13 4239.49,-61.58"/>
<polygon fill="black" stroke="black" points="4242.44,-59.68 4234.01,-53.25 4236.59,-63.53 4242.44,-59.68"/>
<text xml:space="preserve" text-anchor="middle" x="4264.79" y="-73.2" font-family="Times,serif" font-size="14.00">yes</text>
</g>
<!-- Default: use box -->
<g id="node53" class="node">
<title>Default: use box</title>
<polygon fill="lightcyan" stroke="black" points="4398,-52 4292,-52 4292,-16 4398,-16 4398,-52"/>
<text xml:space="preserve" text-anchor="middle" x="4345" y="-28.95" font-family="Times,serif" font-size="14.00">Default: use box</text>
</g>
<!-- Is it a state?&#45;&gt;Default: use box -->
<g id="edge25" class="edge">
<title>Is it a state?&#45;&gt;Default: use box</title>
<path fill="none" stroke="black" d="M4321.1,-164.13C4325.65,-139.55 4334.19,-93.38 4339.74,-63.42"/>
<polygon fill="black" stroke="black" points="4343.12,-64.4 4341.5,-53.93 4336.23,-63.12 4343.12,-64.4"/>
<text xml:space="preserve" text-anchor="middle" x="4345.23" y="-73.2" font-family="Times,serif" font-size="14.00">no</text>
</g>
<!-- Test failed -->
<g id="node54" class="node">
<title>Test failed</title>
<ellipse fill="none" stroke="black" cx="4473" cy="-994.83" rx="50.33" ry="18"/>
<text xml:space="preserve" text-anchor="middle" x="4473" y="-989.78" font-family="Times,serif" font-size="14.00">Test failed</text>
</g>
<!-- Read error message -->
<g id="node55" class="node">
<title>Read error message</title>
<polygon fill="none" stroke="black" points="4556,-815.33 4432,-815.33 4432,-779.33 4556,-779.33 4556,-815.33"/>
<text xml:space="preserve" text-anchor="middle" x="4494" y="-792.28" font-family="Times,serif" font-size="14.00">Read error message</text>
</g>
<!-- Test failed&#45;&gt;Read error message -->
<g id="edge26" class="edge">
<title>Test failed&#45;&gt;Read error message</title>
<path fill="none" stroke="black" d="M4474.86,-976.48C4478.48,-942.78 4486.49,-868.2 4490.92,-827.03"/>
<polygon fill="black" stroke="black" points="4494.39,-827.46 4491.98,-817.15 4487.43,-826.71 4494.39,-827.46"/>
</g>
<!-- Can reproduce? -->
<g id="node56" class="node">
<title>Can reproduce?</title>
<polygon fill="none" stroke="black" points="4521,-671.05 4423.04,-653.05 4521,-635.05 4618.96,-653.05 4521,-671.05"/>
<text xml:space="preserve" text-anchor="middle" x="4521" y="-648" font-family="Times,serif" font-size="14.00">Can reproduce?</text>
</g>
<!-- Read error message&#45;&gt;Can reproduce? -->
<g id="edge27" class="edge">
<title>Read error message&#45;&gt;Can reproduce?</title>
<path fill="none" stroke="black" d="M4497.31,-778.89C4501.89,-754.73 4510.22,-710.84 4515.68,-682.06"/>
<polygon fill="black" stroke="black" points="4519.12,-682.72 4517.55,-672.25 4512.24,-681.42 4519.12,-682.72"/>
</g>
<!-- git diff HEAD~1 -->
<g id="node57" class="node">
<title>git diff HEAD~1</title>
<text xml:space="preserve" text-anchor="middle" x="4521" y="-475.09" font-family="Times,serif" font-size="14.00">git diff HEAD~1</text>
</g>
<!-- Can reproduce?&#45;&gt;git diff HEAD~1 -->
<g id="edge28" class="edge">
<title>Can reproduce?&#45;&gt;git diff HEAD~1</title>
<path fill="none" stroke="black" d="M4521,-634.73C4521,-605.27 4521,-545.17 4521,-509.51"/>
<polygon fill="black" stroke="black" points="4524.5,-509.52 4521,-499.52 4517.5,-509.52 4524.5,-509.52"/>
<text xml:space="preserve" text-anchor="middle" x="4530" y="-603.75" font-family="Times,serif" font-size="14.00">yes</text>
</g>
<!-- NEVER ignore errors -->
<g id="node58" class="node">
<title>NEVER ignore errors</title>
<polygon fill="red" stroke="black" points="4740.35,-987.37 4740.35,-1002.28 4682.15,-1012.83 4599.85,-1012.83 4541.65,-1002.28 4541.65,-987.37 4599.85,-976.83 4682.15,-976.83 4740.35,-987.37"/>
<text xml:space="preserve" text-anchor="middle" x="4641" y="-989.78" font-family="Times,serif" font-size="14.00" fill="white">NEVER ignore errors</text>
</g>
<!-- bad_1 -->
<g id="node59" class="node">
<title>bad_1</title>
<polygon fill="none" stroke="black" points="4871.75,-1012.83 4758.25,-1012.83 4758.25,-976.83 4871.75,-976.83 4871.75,-1012.83"/>
<text xml:space="preserve" text-anchor="middle" x="4815" y="-989.78" font-family="Times,serif" font-size="14.00">Something wrong</text>
</g>
<!-- bad_2 -->
<g id="node60" class="node">
<title>bad_2</title>
<polygon fill="none" stroke="black" points="4842,-815.33 4788,-815.33 4788,-779.33 4842,-779.33 4842,-815.33"/>
<text xml:space="preserve" text-anchor="middle" x="4815" y="-792.28" font-family="Times,serif" font-size="14.00">Fix it</text>
</g>
<!-- bad_1&#45;&gt;bad_2 -->
<g id="edge29" class="edge">
<title>bad_1&#45;&gt;bad_2</title>
<path fill="none" stroke="black" d="M4815,-976.48C4815,-942.78 4815,-868.2 4815,-827.03"/>
<polygon fill="black" stroke="black" points="4818.5,-827.15 4815,-817.15 4811.5,-827.15 4818.5,-827.15"/>
</g>
<!-- bad_3 -->
<g id="node61" class="node">
<title>bad_3</title>
<polygon fill="none" stroke="black" points="4842,-671.05 4788,-671.05 4788,-635.05 4842,-635.05 4842,-671.05"/>
<text xml:space="preserve" text-anchor="middle" x="4815" y="-648" font-family="Times,serif" font-size="14.00">Check</text>
</g>
<!-- bad_2&#45;&gt;bad_3 -->
<g id="edge30" class="edge">
<title>bad_2&#45;&gt;bad_3</title>
<path fill="none" stroke="black" d="M4815,-778.89C4815,-754.86 4815,-711.31 4815,-682.53"/>
<polygon fill="black" stroke="black" points="4818.5,-682.71 4815,-672.71 4811.5,-682.71 4818.5,-682.71"/>
</g>
<!-- bad_4 -->
<g id="node62" class="node">
<title>bad_4</title>
<polygon fill="none" stroke="black" points="4863.5,-498.14 4766.5,-498.14 4766.5,-462.14 4863.5,-462.14 4863.5,-498.14"/>
<text xml:space="preserve" text-anchor="middle" x="4815" y="-475.09" font-family="Times,serif" font-size="14.00">Run command</text>
</g>
<!-- bad_3&#45;&gt;bad_4 -->
<g id="edge31" class="edge">
<title>bad_3&#45;&gt;bad_4</title>
<path fill="none" stroke="black" d="M4815,-634.73C4815,-605.29 4815,-545.27 4815,-509.6"/>
<polygon fill="black" stroke="black" points="4818.5,-510.03 4815,-500.03 4811.5,-510.03 4818.5,-510.03"/>
</g>
</g>
</svg>
