<?xml version="1.0" encoding="UTF-8" standalone="no"?>
<!DOCTYPE svg PUBLIC "-//W3C//DTD SVG 1.1//EN"
 "http://www.w3.org/Graphics/SVG/1.1/DTD/svg11.dtd">
<!-- Generated by graphviz version 12.2.1 (0)
 -->
<!-- Title: SKILL_WORKFLOW Pages: 1 -->
<svg width="656pt" height="2713pt"
 viewBox="0.00 0.00 656.00 2712.92" xmlns="http://www.w3.org/2000/svg" xmlns:xlink="http://www.w3.org/1999/xlink">
<g id="graph0" class="graph" transform="scale(1 1) rotate(0) translate(4 2708.92)">
<title>SKILL_WORKFLOW</title>
<polygon fill="white" stroke="none" points="-4,4 -4,-2708.92 652,-2708.92 652,4 -4,4"/>
<g id="clust1" class="cluster">
<title>cluster_start</title>
<polygon fill="none" stroke="black" points="26,-2135.71 26,-2696.92 590,-2696.92 590,-2135.71 26,-2135.71"/>
<text text-anchor="middle" x="308" y="-2679.62" font-family="Times,serif" font-size="14.00">TRIGGER: Need to create or improve a skill</text>
</g>
<g id="clust2" class="cluster">
<title>cluster_prepare</title>
<polygon fill="none" stroke="black" points="89,-1491.71 89,-2116.71 640,-2116.71 640,-1491.71 89,-1491.71"/>
<text text-anchor="middle" x="364.5" y="-2099.41" font-family="Times,serif" font-size="14.00">PHASE 1: Preparation</text>
</g>
<g id="clust3" class="cluster">
<title>cluster_draft</title>
<polygon fill="none" stroke="black" points="16,-789.78 16,-1457.21 580,-1457.21 580,-789.78 16,-789.78"/>
<text text-anchor="middle" x="298" y="-1439.91" font-family="Times,serif" font-size="14.00">PHASE 2: Draft</text>
</g>
<g id="clust4" class="cluster">
<title>cluster_review</title>
<polygon fill="none" stroke="black" points="8,-8 8,-755.28 638,-755.28 638,-8 8,-8"/>
<text text-anchor="middle" x="323" y="-737.98" font-family="Times,serif" font-size="14.00">PHASE 3: Review and Optimize</text>
</g>
<!-- Request for skill work -->
<g id="node1" class="node">
<title>Request for skill work</title>
<ellipse fill="none" stroke="black" cx="345" cy="-2646.42" rx="93.83" ry="18"/>
<text text-anchor="middle" x="345" y="-2641.37" font-family="Times,serif" font-size="14.00">Request for skill work</text>
</g>
<!-- Is the use case clear? -->
<g id="node2" class="node">
<title>Is the use case clear?</title>
<polygon fill="none" stroke="black" points="345,-2591.42 218.82,-2573.42 345,-2555.42 471.18,-2573.42 345,-2591.42"/>
<text text-anchor="middle" x="345" y="-2568.37" font-family="Times,serif" font-size="14.00">Is the use case clear?</text>
</g>
<!-- Request for skill work&#45;&gt;Is the use case clear? -->
<g id="edge1" class="edge">
<title>Request for skill work&#45;&gt;Is the use case clear?</title>
<path fill="none" stroke="black" d="M345,-2628.23C345,-2620.65 345,-2611.52 345,-2602.96"/>
<polygon fill="black" stroke="black" points="348.5,-2602.96 345,-2592.96 341.5,-2602.96 348.5,-2602.96"/>
</g>
<!-- Ask for concrete examples -->
<g id="node3" class="node">
<title>Ask for concrete examples</title>
<polygon fill="none" stroke="black" points="213.12,-2502.92 50.88,-2502.92 50.88,-2466.92 213.12,-2466.92 213.12,-2502.92"/>
<text text-anchor="middle" x="132" y="-2479.87" font-family="Times,serif" font-size="14.00">Ask for concrete examples</text>
</g>
<!-- Is the use case clear?&#45;&gt;Ask for concrete examples -->
<g id="edge2" class="edge">
<title>Is the use case clear?&#45;&gt;Ask for concrete examples</title>
<path fill="none" stroke="black" d="M313.11,-2559.47C279.34,-2545.76 225.45,-2523.87 185.23,-2507.53"/>
<polygon fill="black" stroke="black" points="186.78,-2504.39 176.19,-2503.87 184.14,-2510.87 186.78,-2504.39"/>
<text text-anchor="middle" x="264.33" y="-2524.12" font-family="Times,serif" font-size="14.00">no</text>
</g>
<!-- Is this a new skill? -->
<g id="node5" class="node">
<title>Is this a new skill?</title>
<polygon fill="none" stroke="black" points="345,-2502.92 231.12,-2484.92 345,-2466.92 458.88,-2484.92 345,-2502.92"/>
<text text-anchor="middle" x="345" y="-2479.87" font-family="Times,serif" font-size="14.00">Is this a new skill?</text>
</g>
<!-- Is the use case clear?&#45;&gt;Is this a new skill? -->
<g id="edge5" class="edge">
<title>Is the use case clear?&#45;&gt;Is this a new skill?</title>
<path fill="none" stroke="black" d="M345,-2554.92C345,-2543.43 345,-2528.12 345,-2514.85"/>
<polygon fill="black" stroke="black" points="348.5,-2514.91 345,-2504.91 341.5,-2514.91 348.5,-2514.91"/>
<text text-anchor="middle" x="354" y="-2524.12" font-family="Times,serif" font-size="14.00">yes</text>
</g>
<!-- Collect example scenarios/prompts -->
<g id="node4" class="node">
<title>Collect example scenarios/prompts</title>
<polygon fill="none" stroke="black" points="242,-2414.42 34,-2414.42 34,-2378.42 242,-2378.42 242,-2414.42"/>
<text text-anchor="middle" x="138" y="-2391.37" font-family="Times,serif" font-size="14.00">Collect example scenarios/prompts</text>
</g>
<!-- Ask for concrete examples&#45;&gt;Collect example scenarios/prompts -->
<g id="edge3" class="edge">
<title>Ask for concrete examples&#45;&gt;Collect example scenarios/prompts</title>
<path fill="none" stroke="black" d="M133.19,-2466.83C133.99,-2455.18 135.08,-2439.47 136.02,-2425.94"/>
<polygon fill="black" stroke="black" points="139.49,-2426.5 136.69,-2416.28 132.51,-2426.01 139.49,-2426.5"/>
</g>
<!-- Collect example scenarios/prompts&#45;&gt;Is the use case clear? -->
<g id="edge4" class="edge">
<title>Collect example scenarios/prompts&#45;&gt;Is the use case clear?</title>
<path fill="none" stroke="black" d="M242.33,-2413.35C245.25,-2413.72 248.14,-2414.08 251,-2414.42 295.75,-2419.77 416.45,-2406.06 453,-2432.42 478.98,-2451.16 484.15,-2475.25 468,-2502.92 452.73,-2529.08 423.58,-2546.17 397.48,-2556.86"/>
<polygon fill="black" stroke="black" points="396.41,-2553.52 388.33,-2560.38 398.92,-2560.06 396.41,-2553.52"/>
</g>
<!-- Initialize skill scaffold -->
<g id="node6" class="node">
<title>Initialize skill scaffold</title>
<polygon fill="none" stroke="black" points="398.12,-2414.42 259.88,-2414.42 259.88,-2378.42 398.12,-2378.42 398.12,-2414.42"/>
<text text-anchor="middle" x="329" y="-2391.37" font-family="Times,serif" font-size="14.00">Initialize skill scaffold</text>
</g>
<!-- Is this a new skill?&#45;&gt;Initialize skill scaffold -->
<g id="edge6" class="edge">
<title>Is this a new skill?&#45;&gt;Initialize skill scaffold</title>
<path fill="none" stroke="black" d="M341.92,-2467.24C339.75,-2455.55 336.81,-2439.62 334.27,-2425.93"/>
<polygon fill="black" stroke="black" points="337.72,-2425.32 332.46,-2416.13 330.84,-2426.6 337.72,-2425.32"/>
<text text-anchor="middle" x="347.43" y="-2435.62" font-family="Times,serif" font-size="14.00">yes</text>
</g>
<!-- Load existing skill baseline -->
<g id="node7" class="node">
<title>Load existing skill baseline</title>
<polygon fill="none" stroke="black" points="581.62,-2414.42 416.38,-2414.42 416.38,-2378.42 581.62,-2378.42 581.62,-2414.42"/>
<text text-anchor="middle" x="499" y="-2391.37" font-family="Times,serif" font-size="14.00">Load existing skill baseline</text>
</g>
<!-- Is this a new skill?&#45;&gt;Load existing skill baseline -->
<g id="edge7" class="edge">
<title>Is this a new skill?&#45;&gt;Load existing skill baseline</title>
<path fill="none" stroke="black" d="M369.06,-2470.4C392.8,-2457.07 429.53,-2436.44 457.9,-2420.51"/>
<polygon fill="black" stroke="black" points="459.6,-2423.56 466.61,-2415.61 456.18,-2417.46 459.6,-2423.56"/>
<text text-anchor="middle" x="442.54" y="-2435.62" font-family="Times,serif" font-size="14.00">no</text>
</g>
<!-- Proceed to preparation -->
<g id="node8" class="node">
<title>Proceed to preparation</title>
<ellipse fill="none" stroke="black" cx="364" cy="-2242.56" rx="94.86" ry="94.86"/>
<ellipse fill="none" stroke="black" cx="364" cy="-2242.56" rx="98.86" ry="98.86"/>
<text text-anchor="middle" x="364" y="-2237.51" font-family="Times,serif" font-size="14.00">Proceed to preparation</text>
</g>
<!-- Initialize skill scaffold&#45;&gt;Proceed to preparation -->
<g id="edge8" class="edge">
<title>Initialize skill scaffold&#45;&gt;Proceed to preparation</title>
<path fill="none" stroke="black" d="M333.01,-2378C334.78,-2370.35 337.01,-2360.68 339.46,-2350.05"/>
<polygon fill="black" stroke="black" points="342.79,-2351.15 341.63,-2340.62 335.97,-2349.58 342.79,-2351.15"/>
</g>
<!-- Load existing skill baseline&#45;&gt;Proceed to preparation -->
<g id="edge9" class="edge">
<title>Load existing skill baseline&#45;&gt;Proceed to preparation</title>
<path fill="none" stroke="black" d="M483.51,-2378C471.76,-2364.78 454.66,-2345.54 437.05,-2325.74"/>
<polygon fill="black" stroke="black" points="439.76,-2323.51 430.5,-2318.36 434.53,-2328.16 439.76,-2323.51"/>
</g>
<!-- Define target workflow (steps, prerequisites, gates, outputs) -->
<g id="node9" class="node">
<title>Define target workflow (steps, prerequisites, gates, outputs)</title>
<polygon fill="none" stroke="black" points="535.12,-2084.21 192.88,-2084.21 192.88,-2048.21 535.12,-2048.21 535.12,-2084.21"/>
<text text-anchor="middle" x="364" y="-2061.16" font-family="Times,serif" font-size="14.00">Define target workflow (steps, prerequisites, gates, outputs)</text>
</g>
<!-- Proceed to preparation&#45;&gt;Define target workflow (steps, prerequisites, gates, outputs) -->
<g id="edge10" class="edge">
<title>Proceed to preparation&#45;&gt;Define target workflow (steps, prerequisites, gates, outputs)</title>
<path fill="none" stroke="black" d="M364,-2143.43C364,-2126 364,-2109.16 364,-2095.77"/>
<polygon fill="black" stroke="black" points="367.5,-2096.03 364,-2086.03 360.5,-2096.03 367.5,-2096.03"/>
</g>
<!-- Are workflow steps imperative and executable? -->
<g id="node10" class="node">
<title>Are workflow steps imperative and executable?</title>
<polygon fill="none" stroke="black" points="364,-2011.21 97.4,-1993.21 364,-1975.21 630.6,-1993.21 364,-2011.21"/>
<text text-anchor="middle" x="364" y="-1988.16" font-family="Times,serif" font-size="14.00">Are workflow steps imperative and executable?</text>
</g>
<!-- Define target workflow (steps, prerequisites, gates, outputs)&#45;&gt;Are workflow steps imperative and executable? -->
<g id="edge11" class="edge">
<title>Define target workflow (steps, prerequisites, gates, outputs)&#45;&gt;Are workflow steps imperative and executable?</title>
<path fill="none" stroke="black" d="M364,-2048.02C364,-2040.44 364,-2031.31 364,-2022.75"/>
<polygon fill="black" stroke="black" points="367.5,-2022.75 364,-2012.75 360.5,-2022.75 367.5,-2022.75"/>
</g>
<!-- Refine workflow steps -->
<g id="node11" class="node">
<title>Refine workflow steps</title>
<polygon fill="none" stroke="black" points="236.5,-1922.71 97.5,-1922.71 97.5,-1886.71 236.5,-1886.71 236.5,-1922.71"/>
<text text-anchor="middle" x="167" y="-1899.66" font-family="Times,serif" font-size="14.00">Refine workflow steps</text>
</g>
<!-- Are workflow steps imperative and executable?&#45;&gt;Refine workflow steps -->
<g id="edge12" class="edge">
<title>Are workflow steps imperative and executable?&#45;&gt;Refine workflow steps</title>
<path fill="none" stroke="black" d="M329.69,-1977.14C298.48,-1963.44 252.06,-1943.06 216.78,-1927.57"/>
<polygon fill="black" stroke="black" points="218.63,-1924.56 208.07,-1923.74 215.82,-1930.97 218.63,-1924.56"/>
<text text-anchor="middle" x="289.89" y="-1943.91" font-family="Times,serif" font-size="14.00">no</text>
</g>
<!-- Define trigger scenarios in notes (2&#45;3 should trigger, 2 should not) -->
<g id="node12" class="node">
<title>Define trigger scenarios in notes (2&#45;3 should trigger, 2 should not)</title>
<polygon fill="none" stroke="black" points="631.75,-1922.71 254.25,-1922.71 254.25,-1886.71 631.75,-1886.71 631.75,-1922.71"/>
<text text-anchor="middle" x="443" y="-1899.66" font-family="Times,serif" font-size="14.00">Define trigger scenarios in notes (2&#45;3 should trigger, 2 should not)</text>
</g>
<!-- Are workflow steps imperative and executable?&#45;&gt;Define trigger scenarios in notes (2&#45;3 should trigger, 2 should not) -->
<g id="edge14" class="edge">
<title>Are workflow steps imperative and executable?&#45;&gt;Define trigger scenarios in notes (2&#45;3 should trigger, 2 should not)</title>
<path fill="none" stroke="black" d="M378.86,-1975.94C390.26,-1963.46 406.22,-1945.98 419.37,-1931.59"/>
<polygon fill="black" stroke="black" points="421.94,-1933.96 426.1,-1924.21 416.77,-1929.24 421.94,-1933.96"/>
<text text-anchor="middle" x="419.58" y="-1943.91" font-family="Times,serif" font-size="14.00">yes</text>
</g>
<!-- Refine workflow steps&#45;&gt;Are workflow steps imperative and executable? -->
<g id="edge13" class="edge">
<title>Refine workflow steps&#45;&gt;Are workflow steps imperative and executable?</title>
<path fill="none" stroke="black" d="M236.67,-1921.69C261.76,-1928 286.67,-1935.07 298,-1940.71 312.48,-1947.92 326.84,-1958.58 338.45,-1968.35"/>
<polygon fill="black" stroke="black" points="336.14,-1970.98 345.98,-1974.9 340.73,-1965.7 336.14,-1970.98"/>
</g>
<!-- Is branching/loop logic non&#45;obvious? -->
<g id="node13" class="node">
<title>Is branching/loop logic non&#45;obvious?</title>
<polygon fill="none" stroke="black" points="420,-1849.71 208.41,-1831.71 420,-1813.71 631.59,-1831.71 420,-1849.71"/>
<text text-anchor="middle" x="420" y="-1826.66" font-family="Times,serif" font-size="14.00">Is branching/loop logic non&#45;obvious?</text>
</g>
<!-- Define trigger scenarios in notes (2&#45;3 should trigger, 2 should not)&#45;&gt;Is branching/loop logic non&#45;obvious? -->
<g id="edge15" class="edge">
<title>Define trigger scenarios in notes (2&#45;3 should trigger, 2 should not)&#45;&gt;Is branching/loop logic non&#45;obvious?</title>
<path fill="none" stroke="black" d="M437.43,-1886.52C434.92,-1878.76 431.88,-1869.39 429.05,-1860.66"/>
<polygon fill="black" stroke="black" points="432.39,-1859.61 425.98,-1851.18 425.74,-1861.77 432.39,-1859.61"/>
</g>
<!-- Plan small DOT flowchart -->
<g id="node14" class="node">
<title>Plan small DOT flowchart</title>
<polygon fill="none" stroke="black" points="365,-1761.21 205,-1761.21 205,-1725.21 365,-1725.21 365,-1761.21"/>
<text text-anchor="middle" x="285" y="-1738.16" font-family="Times,serif" font-size="14.00">Plan small DOT flowchart</text>
</g>
<!-- Is branching/loop logic non&#45;obvious?&#45;&gt;Plan small DOT flowchart -->
<g id="edge16" class="edge">
<title>Is branching/loop logic non&#45;obvious?&#45;&gt;Plan small DOT flowchart</title>
<path fill="none" stroke="black" d="M396.18,-1815.44C375.55,-1802.23 345.39,-1782.91 321.69,-1767.72"/>
<polygon fill="black" stroke="black" points="323.89,-1764.97 313.58,-1762.52 320.11,-1770.86 323.89,-1764.97"/>
<text text-anchor="middle" x="373.59" y="-1782.41" font-family="Times,serif" font-size="14.00">yes</text>
</g>
<!-- Use markdown&#45;only workflow -->
<g id="node15" class="node">
<title>Use markdown&#45;only workflow</title>
<polygon fill="none" stroke="black" points="567,-1761.21 383,-1761.21 383,-1725.21 567,-1725.21 567,-1761.21"/>
<text text-anchor="middle" x="475" y="-1738.16" font-family="Times,serif" font-size="14.00">Use markdown&#45;only workflow</text>
</g>
<!-- Is branching/loop logic non&#45;obvious?&#45;&gt;Use markdown&#45;only workflow -->
<g id="edge17" class="edge">
<title>Is branching/loop logic non&#45;obvious?&#45;&gt;Use markdown&#45;only workflow</title>
<path fill="none" stroke="black" d="M430.35,-1814.44C438.13,-1802.19 448.98,-1785.14 458.03,-1770.9"/>
<polygon fill="black" stroke="black" points="460.72,-1773.19 463.13,-1762.87 454.82,-1769.43 460.72,-1773.19"/>
<text text-anchor="middle" x="459.18" y="-1782.41" font-family="Times,serif" font-size="14.00">no</text>
</g>
<!-- Preparation complete -->
<g id="node16" class="node">
<title>Preparation complete</title>
<ellipse fill="none" stroke="black" cx="363" cy="-1593.96" rx="90.25" ry="90.25"/>
<ellipse fill="none" stroke="black" cx="363" cy="-1593.96" rx="94.25" ry="94.25"/>
<text text-anchor="middle" x="363" y="-1588.91" font-family="Times,serif" font-size="14.00">Preparation complete</text>
</g>
<!-- Plan small DOT flowchart&#45;&gt;Preparation complete -->
<g id="edge18" class="edge">
<title>Plan small DOT flowchart&#45;&gt;Preparation complete</title>
<path fill="none" stroke="black" d="M294.25,-1724.74C299.47,-1714.9 306.43,-1701.76 313.92,-1687.62"/>
<polygon fill="black" stroke="black" points="316.88,-1689.51 318.47,-1679.03 310.69,-1686.23 316.88,-1689.51"/>
</g>
<!-- Use markdown&#45;only workflow&#45;&gt;Preparation complete -->
<g id="edge19" class="edge">
<title>Use markdown&#45;only workflow&#45;&gt;Preparation complete</title>
<path fill="none" stroke="black" d="M461.71,-1724.74C452.6,-1712.76 439.77,-1695.89 426.37,-1678.28"/>
<polygon fill="black" stroke="black" points="429.52,-1676.63 420.68,-1670.79 423.94,-1680.87 429.52,-1676.63"/>
</g>
<!-- Draft frontmatter (name + description only) -->
<g id="node17" class="node">
<title>Draft frontmatter (name + description only)</title>
<polygon fill="none" stroke="black" points="491,-1424.71 235,-1424.71 235,-1388.71 491,-1388.71 491,-1424.71"/>
<text text-anchor="middle" x="363" y="-1401.66" font-family="Times,serif" font-size="14.00">Draft frontmatter (name + description only)</text>
</g>
<!-- Preparation complete&#45;&gt;Draft frontmatter (name + description only) -->
<g id="edge20" class="edge">
<title>Preparation complete&#45;&gt;Draft frontmatter (name + description only)</title>
<path fill="none" stroke="black" stroke-dasharray="1,5" d="M363,-1499.25C363,-1476.29 363,-1453.41 363,-1436.27"/>
<polygon fill="black" stroke="black" points="366.5,-1436.4 363,-1426.4 359.5,-1436.4 366.5,-1436.4"/>
<text text-anchor="middle" x="383.62" y="-1468.41" font-family="Times,serif" font-size="14.00">triggers</text>
</g>
<!-- Encode trigger scenarios in description and usage guidance -->
<g id="node18" class="node">
<title>Encode trigger scenarios in description and usage guidance</title>
<polygon fill="none" stroke="black" points="532.25,-1351.71 193.75,-1351.71 193.75,-1315.71 532.25,-1315.71 532.25,-1351.71"/>
<text text-anchor="middle" x="363" y="-1328.66" font-family="Times,serif" font-size="14.00">Encode trigger scenarios in description and usage guidance</text>
</g>
<!-- Draft frontmatter (name + description only)&#45;&gt;Encode trigger scenarios in description and usage guidance -->
<g id="edge21" class="edge">
<title>Draft frontmatter (name + description only)&#45;&gt;Encode trigger scenarios in description and usage guidance</title>
<path fill="none" stroke="black" d="M363,-1388.52C363,-1380.94 363,-1371.81 363,-1363.25"/>
<polygon fill="black" stroke="black" points="366.5,-1363.25 363,-1353.25 359.5,-1363.25 366.5,-1363.25"/>
</g>
<!-- Draft imperative SKILL.md workflow -->
<g id="node19" class="node">
<title>Draft imperative SKILL.md workflow</title>
<polygon fill="none" stroke="black" points="476.38,-1278.71 249.62,-1278.71 249.62,-1242.71 476.38,-1242.71 476.38,-1278.71"/>
<text text-anchor="middle" x="363" y="-1255.66" font-family="Times,serif" font-size="14.00">Draft imperative SKILL.md workflow</text>
</g>
<!-- Encode trigger scenarios in description and usage guidance&#45;&gt;Draft imperative SKILL.md workflow -->
<g id="edge22" class="edge">
<title>Encode trigger scenarios in description and usage guidance&#45;&gt;Draft imperative SKILL.md workflow</title>
<path fill="none" stroke="black" d="M363,-1315.52C363,-1307.94 363,-1298.81 363,-1290.25"/>
<polygon fill="black" stroke="black" points="366.5,-1290.25 363,-1280.25 359.5,-1290.25 366.5,-1290.25"/>
</g>
<!-- Need references/assets/scripts? -->
<g id="node20" class="node">
<title>Need references/assets/scripts?</title>
<polygon fill="none" stroke="black" points="363,-1205.71 185.43,-1187.71 363,-1169.71 540.57,-1187.71 363,-1205.71"/>
<text text-anchor="middle" x="363" y="-1182.66" font-family="Times,serif" font-size="14.00">Need references/assets/scripts?</text>
</g>
<!-- Draft imperative SKILL.md workflow&#45;&gt;Need references/assets/scripts? -->
<g id="edge23" class="edge">
<title>Draft imperative SKILL.md workflow&#45;&gt;Need references/assets/scripts?</title>
<path fill="none" stroke="black" d="M363,-1242.52C363,-1234.94 363,-1225.81 363,-1217.25"/>
<polygon fill="black" stroke="black" points="366.5,-1217.25 363,-1207.25 359.5,-1217.25 366.5,-1217.25"/>
</g>
<!-- Create or update references/assets/scripts -->
<g id="node21" class="node">
<title>Create or update references/assets/scripts</title>
<polygon fill="none" stroke="black" points="417.75,-1117.21 178.25,-1117.21 178.25,-1081.21 417.75,-1081.21 417.75,-1117.21"/>
<text text-anchor="middle" x="298" y="-1094.16" font-family="Times,serif" font-size="14.00">Create or update references/assets/scripts</text>
</g>
<!-- Need references/assets/scripts?&#45;&gt;Create or update references/assets/scripts -->
<g id="edge24" class="edge">
<title>Need references/assets/scripts?&#45;&gt;Create or update references/assets/scripts</title>
<path fill="none" stroke="black" d="M351.08,-1170.85C341.76,-1158.44 328.6,-1140.94 317.72,-1126.46"/>
<polygon fill="black" stroke="black" points="320.68,-1124.56 311.87,-1118.67 315.08,-1128.77 320.68,-1124.56"/>
<text text-anchor="middle" x="345.32" y="-1138.41" font-family="Times,serif" font-size="14.00">yes</text>
</g>
<!-- Draft complete -->
<g id="node24" class="node">
<title>Draft complete</title>
<ellipse fill="none" stroke="black" cx="488" cy="-868.99" rx="67.22" ry="67.22"/>
<ellipse fill="none" stroke="black" cx="488" cy="-868.99" rx="71.22" ry="71.22"/>
<text text-anchor="middle" x="488" y="-863.94" font-family="Times,serif" font-size="14.00">Draft complete</text>
</g>
<!-- Need references/assets/scripts?&#45;&gt;Draft complete -->
<g id="edge25" class="edge">
<title>Need references/assets/scripts?&#45;&gt;Draft complete</title>
<path fill="none" stroke="black" d="M394.75,-1172.63C441.32,-1149.99 526.38,-1100.63 561,-1028.71 576.43,-996.65 562.39,-960.65 542.65,-931.05"/>
<polygon fill="black" stroke="black" points="545.55,-929.09 536.94,-922.91 539.82,-933.11 545.55,-929.09"/>
<text text-anchor="middle" x="557.65" y="-1049.91" font-family="Times,serif" font-size="14.00">no</text>
</g>
<!-- Need external research to expand references? -->
<g id="node22" class="node">
<title>Need external research to expand references?</title>
<polygon fill="none" stroke="black" points="298,-1028.71 44.43,-1010.71 298,-992.71 551.57,-1010.71 298,-1028.71"/>
<text text-anchor="middle" x="298" y="-1005.66" font-family="Times,serif" font-size="14.00">Need external research to expand references?</text>
</g>
<!-- Create or update references/assets/scripts&#45;&gt;Need external research to expand references? -->
<g id="edge26" class="edge">
<title>Create or update references/assets/scripts&#45;&gt;Need external research to expand references?</title>
<path fill="none" stroke="black" d="M298,-1081.12C298,-1069.47 298,-1053.76 298,-1040.23"/>
<polygon fill="black" stroke="black" points="301.5,-1040.58 298,-1030.58 294.5,-1040.58 301.5,-1040.58"/>
</g>
<!-- Use mcp&#45;research skill to gather source&#45;backed references -->
<g id="node23" class="node">
<title>Use mcp&#45;research skill to gather source&#45;backed references</title>
<polygon fill="none" stroke="black" points="372,-886.99 38,-886.99 38,-850.99 372,-850.99 372,-886.99"/>
<text text-anchor="middle" x="205" y="-863.94" font-family="Times,serif" font-size="14.00">Use mcp&#45;research skill to gather source&#45;backed references</text>
</g>
<!-- Need external research to expand references?&#45;&gt;Use mcp&#45;research skill to gather source&#45;backed references -->
<g id="edge27" class="edge">
<title>Need external research to expand references?&#45;&gt;Use mcp&#45;research skill to gather source&#45;backed references</title>
<path fill="none" stroke="black" d="M286.97,-993.14C271.13,-969.34 241.77,-925.24 222.83,-896.78"/>
<polygon fill="black" stroke="black" points="225.9,-895.07 217.44,-888.68 220.07,-898.95 225.9,-895.07"/>
<text text-anchor="middle" x="282.06" y="-961.41" font-family="Times,serif" font-size="14.00">yes</text>
</g>
<!-- Need external research to expand references?&#45;&gt;Draft complete -->
<g id="edge28" class="edge">
<title>Need external research to expand references?&#45;&gt;Draft complete</title>
<path fill="none" stroke="black" d="M319.43,-993.96C344.21,-975.73 386.2,-944.85 422.08,-918.47"/>
<polygon fill="black" stroke="black" points="423.85,-921.51 429.83,-912.77 419.7,-915.87 423.85,-921.51"/>
<text text-anchor="middle" x="371.63" y="-961.41" font-family="Times,serif" font-size="14.00">no</text>
</g>
<!-- Use mcp&#45;research skill to gather source&#45;backed references&#45;&gt;Create or update references/assets/scripts -->
<g id="edge29" class="edge">
<title>Use mcp&#45;research skill to gather source&#45;backed references&#45;&gt;Create or update references/assets/scripts</title>
<path fill="none" stroke="black" d="M159.62,-887.41C95.29,-914.68 -9.9,-970.41 35,-1028.71 52.09,-1050.9 109.8,-1067.45 166.82,-1078.82"/>
<polygon fill="black" stroke="black" points="165.85,-1082.2 176.33,-1080.66 167.18,-1075.32 165.85,-1082.2"/>
</g>
<!-- Run scenario checks against realistic prompts -->
<g id="node25" class="node">
<title>Run scenario checks against realistic prompts</title>
<polygon fill="none" stroke="black" points="620.5,-722.78 355.5,-722.78 355.5,-686.78 620.5,-686.78 620.5,-722.78"/>
<text text-anchor="middle" x="488" y="-699.73" font-family="Times,serif" font-size="14.00">Run scenario checks against realistic prompts</text>
</g>
<!-- Draft complete&#45;&gt;Run scenario checks against realistic prompts -->
<g id="edge30" class="edge">
<title>Draft complete&#45;&gt;Run scenario checks against realistic prompts</title>
<path fill="none" stroke="black" stroke-dasharray="1,5" d="M488,-797.32C488,-775.22 488,-752.08 488,-734.59"/>
<polygon fill="black" stroke="black" points="491.5,-734.73 488,-724.73 484.5,-734.73 491.5,-734.73"/>
<text text-anchor="middle" x="508.62" y="-766.48" font-family="Times,serif" font-size="14.00">triggers</text>
</g>
<!-- Scenario checks pass? -->
<g id="node26" class="node">
<title>Scenario checks pass?</title>
<polygon fill="none" stroke="black" points="478,-649.78 346.03,-631.78 478,-613.78 609.97,-631.78 478,-649.78"/>
<text text-anchor="middle" x="478" y="-626.73" font-family="Times,serif" font-size="14.00">Scenario checks pass?</text>
</g>
<!-- Run scenario checks against realistic prompts&#45;&gt;Scenario checks pass? -->
<g id="edge31" class="edge">
<title>Run scenario checks against realistic prompts&#45;&gt;Scenario checks pass?</title>
<path fill="none" stroke="black" d="M485.58,-686.59C484.5,-678.92 483.2,-669.67 481.98,-661.02"/>
<polygon fill="black" stroke="black" points="485.47,-660.72 480.61,-651.3 478.54,-661.7 485.47,-660.72"/>
</g>
<!-- Run functional checks against realistic prompts -->
<g id="node27" class="node">
<title>Run functional checks against realistic prompts</title>
<polygon fill="none" stroke="black" points="588.38,-561.28 313.62,-561.28 313.62,-525.28 588.38,-525.28 588.38,-561.28"/>
<text text-anchor="middle" x="451" y="-538.23" font-family="Times,serif" font-size="14.00">Run functional checks against realistic prompts</text>
</g>
<!-- Scenario checks pass?&#45;&gt;Run functional checks against realistic prompts -->
<g id="edge32" class="edge">
<title>Scenario checks pass?&#45;&gt;Run functional checks against realistic prompts</title>
<path fill="none" stroke="black" d="M472.79,-614.1C469.11,-602.29 464.07,-586.15 459.77,-572.37"/>
<polygon fill="black" stroke="black" points="463.15,-571.44 456.83,-562.94 456.46,-573.53 463.15,-571.44"/>
<text text-anchor="middle" x="475.92" y="-582.48" font-family="Times,serif" font-size="14.00">yes</text>
</g>
<!-- Optimize draft (triggering, redundancy, disclosure, flowchart need) -->
<g id="node31" class="node">
<title>Optimize draft (triggering, redundancy, disclosure, flowchart need)</title>
<polygon fill="none" stroke="black" points="630.38,-52 247.62,-52 247.62,-16 630.38,-16 630.38,-52"/>
<text text-anchor="middle" x="439" y="-28.95" font-family="Times,serif" font-size="14.00">Optimize draft (triggering, redundancy, disclosure, flowchart need)</text>
</g>
<!-- Scenario checks pass?&#45;&gt;Optimize draft (triggering, redundancy, disclosure, flowchart need) -->
<g id="edge33" class="edge">
<title>Scenario checks pass?&#45;&gt;Optimize draft (triggering, redundancy, disclosure, flowchart need)</title>
<path fill="none" stroke="black" d="M526.04,-619.83C563.42,-608.13 609,-585.43 609,-544.28 609,-544.28 609,-544.28 609,-199.14 609,-149.54 616.56,-131.5 591,-89 582.87,-75.48 570.96,-65.3 557.32,-57.64"/>
<polygon fill="black" stroke="black" points="558.98,-54.55 548.47,-53.17 555.83,-60.8 558.98,-54.55"/>
<text text-anchor="middle" x="615.75" y="-420.98" font-family="Times,serif" font-size="14.00">no</text>
</g>
<!-- Functional checks pass? -->
<g id="node28" class="node">
<title>Functional checks pass?</title>
<polygon fill="none" stroke="black" points="448,-488.28 305.89,-470.28 448,-452.28 590.11,-470.28 448,-488.28"/>
<text text-anchor="middle" x="448" y="-465.23" font-family="Times,serif" font-size="14.00">Functional checks pass?</text>
</g>
<!-- Run functional checks against realistic prompts&#45;&gt;Functional checks pass? -->
<g id="edge34" class="edge">
<title>Run functional checks against realistic prompts&#45;&gt;Functional checks pass?</title>
<path fill="none" stroke="black" d="M450.27,-525.09C449.95,-517.42 449.56,-508.17 449.19,-499.52"/>
<polygon fill="black" stroke="black" points="452.7,-499.66 448.78,-489.82 445.71,-499.96 452.7,-499.66"/>
</g>
<!-- Are resources appropriate and sufficient? -->
<g id="node29" class="node">
<title>Are resources appropriate and sufficient?</title>
<polygon fill="none" stroke="black" points="338,-399.78 106.14,-381.78 338,-363.78 569.86,-381.78 338,-399.78"/>
<text text-anchor="middle" x="338" y="-376.73" font-family="Times,serif" font-size="14.00">Are resources appropriate and sufficient?</text>
</g>
<!-- Functional checks pass?&#45;&gt;Are resources appropriate and sufficient? -->
<g id="edge36" class="edge">
<title>Functional checks pass?&#45;&gt;Are resources appropriate and sufficient?</title>
<path fill="none" stroke="black" d="M428.84,-454.21C411.73,-440.75 386.42,-420.85 366.86,-405.47"/>
<polygon fill="black" stroke="black" points="369.27,-402.91 359.25,-399.48 364.94,-408.42 369.27,-402.91"/>
<text text-anchor="middle" x="411.85" y="-420.98" font-family="Times,serif" font-size="14.00">yes</text>
</g>
<!-- Functional checks pass?&#45;&gt;Optimize draft (triggering, redundancy, disclosure, flowchart need) -->
<g id="edge35" class="edge">
<title>Functional checks pass?&#45;&gt;Optimize draft (triggering, redundancy, disclosure, flowchart need)</title>
<path fill="none" stroke="black" d="M494.82,-457.78C524.58,-447.78 560.82,-430 579,-399.78 596.8,-370.19 598.54,-117.47 579,-89 569.45,-75.08 555.76,-64.75 540.65,-57.08"/>
<polygon fill="black" stroke="black" points="542.45,-54.06 531.91,-53.04 539.52,-60.41 542.45,-54.06"/>
<text text-anchor="middle" x="596.92" y="-332.48" font-family="Times,serif" font-size="14.00">no</text>
</g>
<!-- Offload SKILL.md detail into references/assets/scripts -->
<g id="node30" class="node">
<title>Offload SKILL.md detail into references/assets/scripts</title>
<polygon fill="none" stroke="black" points="569.88,-218.14 256.12,-218.14 256.12,-182.14 569.88,-182.14 569.88,-218.14"/>
<text text-anchor="middle" x="413" y="-195.09" font-family="Times,serif" font-size="14.00">Offload SKILL.md detail into references/assets/scripts</text>
</g>
<!-- Are resources appropriate and sufficient?&#45;&gt;Offload SKILL.md detail into references/assets/scripts -->
<g id="edge38" class="edge">
<title>Are resources appropriate and sufficient?&#45;&gt;Offload SKILL.md detail into references/assets/scripts</title>
<path fill="none" stroke="black" d="M345.06,-363.88C358.03,-332.79 385.79,-266.3 401.52,-228.64"/>
<polygon fill="black" stroke="black" points="404.59,-230.36 405.22,-219.78 398.13,-227.66 404.59,-230.36"/>
<text text-anchor="middle" x="364.86" y="-332.48" font-family="Times,serif" font-size="14.00">no</text>
</g>
<!-- Skill optimized and ready -->
<g id="node32" class="node">
<title>Skill optimized and ready</title>
<ellipse fill="none" stroke="black" cx="127" cy="-200.14" rx="107.14" ry="107.14"/>
<ellipse fill="none" stroke="black" cx="127" cy="-200.14" rx="111.14" ry="111.14"/>
<text text-anchor="middle" x="127" y="-195.09" font-family="Times,serif" font-size="14.00">Skill optimized and ready</text>
</g>
<!-- Are resources appropriate and sufficient?&#45;&gt;Skill optimized and ready -->
<g id="edge37" class="edge">
<title>Are resources appropriate and sufficient?&#45;&gt;Skill optimized and ready</title>
<path fill="none" stroke="black" d="M316.24,-365.02C297.53,-351.27 270.01,-330.56 247,-311.28 236.92,-302.83 226.55,-293.83 216.32,-284.74"/>
<polygon fill="black" stroke="black" points="218.69,-282.16 208.9,-278.1 214.02,-287.38 218.69,-282.16"/>
<text text-anchor="middle" x="297.74" y="-332.48" font-family="Times,serif" font-size="14.00">yes</text>
</g>
<!-- Offload SKILL.md detail into references/assets/scripts&#45;&gt;Optimize draft (triggering, redundancy, disclosure, flowchart need) -->
<g id="edge39" class="edge">
<title>Offload SKILL.md detail into references/assets/scripts&#45;&gt;Optimize draft (triggering, redundancy, disclosure, flowchart need)</title>
<path fill="none" stroke="black" d="M415.73,-181.88C420.21,-153.61 429.15,-97.16 434.55,-63.07"/>
<polygon fill="black" stroke="black" points="437.96,-63.94 436.07,-53.52 431.05,-62.85 437.96,-63.94"/>
</g>
<!-- Optimize draft (triggering, redundancy, disclosure, flowchart need)&#45;&gt;Run scenario checks against realistic prompts -->
<g id="edge40" class="edge">
<title>Optimize draft (triggering, redundancy, disclosure, flowchart need)&#45;&gt;Run scenario checks against realistic prompts</title>
<path fill="none" stroke="black" d="M530.89,-52.47C567.66,-61.57 603.75,-73.96 614,-89 641.82,-129.82 629,-149.74 629,-199.14 629,-632.78 629,-632.78 629,-632.78 629,-655.62 614.05,-671.12 593.89,-681.63"/>
<polygon fill="black" stroke="black" points="592.58,-678.38 584.98,-685.76 595.53,-684.73 592.58,-678.38"/>
</g>
</g>
</svg>
