<?xml version="1.0" encoding="UTF-8" standalone="no"?>
<!DOCTYPE svg PUBLIC "-//W3C//DTD SVG 1.1//EN"
 "http://www.w3.org/Graphics/SVG/1.1/DTD/svg11.dtd">
<!-- Generated by graphviz version 12.2.1 (0)
 -->
<!-- Title: SKILL_WORKFLOW Pages: 1 -->
<svg width="1156pt" height="1920pt"
 viewBox="0.00 0.00 1156.00 1919.95" xmlns="http://www.w3.org/2000/svg" xmlns:xlink="http://www.w3.org/1999/xlink">
<g id="graph0" class="graph" transform="scale(1 1) rotate(0) translate(4 1915.95)">
<title>SKILL_WORKFLOW</title>
<polygon fill="white" stroke="none" points="-4,4 -4,-1915.95 1152,-1915.95 1152,4 -4,4"/>
<g id="clust1" class="cluster">
<title>cluster_start</title>
<polygon fill="none" stroke="black" points="8,-1266.31 8,-1819.51 452,-1819.51 452,-1266.31 8,-1266.31"/>
<text text-anchor="middle" x="230" y="-1802.21" font-family="Times,serif" font-size="14.00">TRIGGER: Need to create or improve a skill</text>
</g>
<g id="clust2" class="cluster">
<title>cluster_plan</title>
<polygon fill="none" stroke="black" points="140,-562.11 140,-1212.31 396,-1212.31 396,-562.11 140,-562.11"/>
<text text-anchor="middle" x="268" y="-1195.01" font-family="Times,serif" font-size="14.00">PHASE: Plan reusable resources</text>
</g>
<g id="clust3" class="cluster">
<title>cluster_init</title>
<polygon fill="none" stroke="black" points="460,-1135.81 460,-1413.94 732,-1413.94 732,-1135.81 460,-1135.81"/>
<text text-anchor="middle" x="596" y="-1396.64" font-family="Times,serif" font-size="14.00">PHASE: Initialize skill</text>
</g>
<g id="clust4" class="cluster">
<title>cluster_author</title>
<polygon fill="none" stroke="black" points="448,-552.38 448,-1116.81 794,-1116.81 794,-552.38 448,-552.38"/>
<text text-anchor="middle" x="621" y="-1099.51" font-family="Times,serif" font-size="14.00">PHASE: Author SKILL.md and resources</text>
</g>
<g id="clust5" class="cluster">
<title>cluster_test</title>
<polygon fill="none" stroke="black" points="471,-8 471,-533.38 785,-533.38 785,-8 471,-8"/>
<text text-anchor="middle" x="628" y="-516.08" font-family="Times,serif" font-size="14.00">PHASE: Test and iterate</text>
</g>
<g id="clust6" class="cluster">
<title>cluster_iterate</title>
<polygon fill="none" stroke="black" points="802,-1040.31 802,-1903.95 1140,-1903.95 1140,-1040.31 802,-1040.31"/>
<text text-anchor="middle" x="971" y="-1886.65" font-family="Times,serif" font-size="14.00">PHASE: Iterate based on real usage</text>
</g>
<!-- Request for skill work -->
<g id="node1" class="node">
<title>Request for skill work</title>
<ellipse fill="none" stroke="black" cx="197" cy="-1769.01" rx="93.83" ry="18"/>
<text text-anchor="middle" x="197" y="-1763.96" font-family="Times,serif" font-size="14.00">Request for skill work</text>
</g>
<!-- Is the use case clear? -->
<g id="node2" class="node">
<title>Is the use case clear?</title>
<polygon fill="none" stroke="black" points="197,-1629.57 70.82,-1611.57 197,-1593.57 323.18,-1611.57 197,-1629.57"/>
<text text-anchor="middle" x="197" y="-1606.52" font-family="Times,serif" font-size="14.00">Is the use case clear?</text>
</g>
<!-- Request for skill work&#45;&gt;Is the use case clear? -->
<g id="edge1" class="edge">
<title>Request for skill work&#45;&gt;Is the use case clear?</title>
<path fill="none" stroke="black" d="M197,-1750.78C197,-1724.29 197,-1673.25 197,-1641.16"/>
<polygon fill="black" stroke="black" points="200.5,-1641.39 197,-1631.39 193.5,-1641.39 200.5,-1641.39"/>
</g>
<!-- Ask for concrete examples -->
<g id="node3" class="node">
<title>Ask for concrete examples</title>
<polygon fill="none" stroke="black" points="178.12,-1541.07 15.88,-1541.07 15.88,-1505.07 178.12,-1505.07 178.12,-1541.07"/>
<text text-anchor="middle" x="97" y="-1518.02" font-family="Times,serif" font-size="14.00">Ask for concrete examples</text>
</g>
<!-- Is the use case clear?&#45;&gt;Ask for concrete examples -->
<g id="edge2" class="edge">
<title>Is the use case clear?&#45;&gt;Ask for concrete examples</title>
<path fill="none" stroke="black" d="M180.04,-1595.9C165.1,-1582.97 143.03,-1563.89 125.4,-1548.64"/>
<polygon fill="black" stroke="black" points="128.15,-1546.39 118.3,-1542.5 123.57,-1551.68 128.15,-1546.39"/>
<text text-anchor="middle" x="162.71" y="-1562.27" font-family="Times,serif" font-size="14.00">no</text>
</g>
<!-- Is this a new skill? -->
<g id="node5" class="node">
<title>Is this a new skill?</title>
<polygon fill="none" stroke="black" points="330,-1541.07 216.12,-1523.07 330,-1505.07 443.88,-1523.07 330,-1541.07"/>
<text text-anchor="middle" x="330" y="-1518.02" font-family="Times,serif" font-size="14.00">Is this a new skill?</text>
</g>
<!-- Is the use case clear?&#45;&gt;Is this a new skill? -->
<g id="edge5" class="edge">
<title>Is the use case clear?&#45;&gt;Is this a new skill?</title>
<path fill="none" stroke="black" d="M218.96,-1596.29C240.75,-1582.12 274.34,-1560.27 298.88,-1544.31"/>
<polygon fill="black" stroke="black" points="300.7,-1547.3 307.18,-1538.92 296.89,-1541.43 300.7,-1547.3"/>
<text text-anchor="middle" x="284.41" y="-1562.27" font-family="Times,serif" font-size="14.00">yes</text>
</g>
<!-- Collect 2&#45;3 example prompts -->
<g id="node4" class="node">
<title>Collect 2&#45;3 example prompts</title>
<polygon fill="none" stroke="black" points="191.88,-1381.44 16.12,-1381.44 16.12,-1345.44 191.88,-1345.44 191.88,-1381.44"/>
<text text-anchor="middle" x="104" y="-1358.39" font-family="Times,serif" font-size="14.00">Collect 2&#45;3 example prompts</text>
</g>
<!-- Ask for concrete examples&#45;&gt;Collect 2&#45;3 example prompts -->
<g id="edge3" class="edge">
<title>Ask for concrete examples&#45;&gt;Collect 2&#45;3 example prompts</title>
<path fill="none" stroke="black" d="M97.78,-1504.6C98.98,-1477.59 101.29,-1425.43 102.74,-1392.92"/>
<polygon fill="black" stroke="black" points="106.23,-1393.17 103.17,-1383.02 99.23,-1392.86 106.23,-1393.17"/>
</g>
<!-- Collect 2&#45;3 example prompts&#45;&gt;Is the use case clear? -->
<g id="edge4" class="edge">
<title>Collect 2&#45;3 example prompts&#45;&gt;Is the use case clear?</title>
<path fill="none" stroke="black" d="M117.76,-1381.86C137,-1407.28 171.33,-1456.8 187,-1505.07 195.16,-1530.2 197.31,-1560.34 197.63,-1581.96"/>
<polygon fill="black" stroke="black" points="194.13,-1581.79 197.64,-1591.79 201.13,-1581.78 194.13,-1581.79"/>
</g>
<!-- Proceed to planning -->
<g id="node6" class="node">
<title>Proceed to planning</title>
<ellipse fill="none" stroke="black" cx="299" cy="-1363.44" rx="85.13" ry="85.13"/>
<ellipse fill="none" stroke="black" cx="299" cy="-1363.44" rx="89.13" ry="89.13"/>
<text text-anchor="middle" x="299" y="-1358.39" font-family="Times,serif" font-size="14.00">Proceed to planning</text>
</g>
<!-- Is this a new skill?&#45;&gt;Proceed to planning -->
<g id="edge6" class="edge">
<title>Is this a new skill?&#45;&gt;Proceed to planning</title>
<path fill="none" stroke="black" d="M310.51,-1507.77C304.35,-1502.09 298.29,-1495.01 295,-1487.07 291.89,-1479.56 289.8,-1471.57 288.48,-1463.4"/>
<polygon fill="black" stroke="black" points="291.98,-1463.2 287.33,-1453.68 285.03,-1464.03 291.98,-1463.2"/>
<text text-anchor="middle" x="304" y="-1473.77" font-family="Times,serif" font-size="14.00">yes</text>
</g>
<!-- Is this a new skill?&#45;&gt;Proceed to planning -->
<g id="edge7" class="edge">
<title>Is this a new skill?&#45;&gt;Proceed to planning</title>
<path fill="none" stroke="black" d="M326.68,-1505.2C324.52,-1494.19 321.49,-1478.82 318.24,-1462.27"/>
<polygon fill="black" stroke="black" points="321.73,-1461.87 316.36,-1452.73 314.86,-1463.22 321.73,-1461.87"/>
<text text-anchor="middle" x="329.26" y="-1473.77" font-family="Times,serif" font-size="14.00">no</text>
</g>
<!-- Create skill scaffold -->
<g id="node13" class="node">
<title>Create skill scaffold</title>
<polygon fill="none" stroke="black" points="593.75,-1381.44 468.25,-1381.44 468.25,-1345.44 593.75,-1345.44 593.75,-1381.44"/>
<text text-anchor="middle" x="531" y="-1358.39" font-family="Times,serif" font-size="14.00">Create skill scaffold</text>
</g>
<!-- Is this a new skill?&#45;&gt;Create skill scaffold -->
<g id="edge18" class="edge">
<title>Is this a new skill?&#45;&gt;Create skill scaffold</title>
<path fill="none" stroke="black" d="M375.54,-1511.83C393.55,-1506.37 413.78,-1498.39 430,-1487.07 466.87,-1461.35 497.73,-1418.67 515.29,-1391.06"/>
<polygon fill="black" stroke="black" points="518.05,-1393.25 520.34,-1382.91 512.1,-1389.56 518.05,-1393.25"/>
<text text-anchor="middle" x="459.16" y="-1473.77" font-family="Times,serif" font-size="14.00">yes</text>
</g>
<!-- Skip initialization -->
<g id="node15" class="node">
<title>Skip initialization</title>
<polygon fill="none" stroke="black" points="724.38,-1381.44 611.62,-1381.44 611.62,-1345.44 724.38,-1345.44 724.38,-1381.44"/>
<text text-anchor="middle" x="668" y="-1358.39" font-family="Times,serif" font-size="14.00">Skip initialization</text>
</g>
<!-- Is this a new skill?&#45;&gt;Skip initialization -->
<g id="edge20" class="edge">
<title>Is this a new skill?&#45;&gt;Skip initialization</title>
<path fill="none" stroke="black" d="M406.37,-1516.67C464.54,-1509.41 544.33,-1492.4 603,-1452.57 625.53,-1437.27 643.2,-1411.5 654.39,-1391.77"/>
<polygon fill="black" stroke="black" points="657.38,-1393.6 659.07,-1383.14 651.23,-1390.26 657.38,-1393.6"/>
<text text-anchor="middle" x="576.93" y="-1473.77" font-family="Times,serif" font-size="14.00">no</text>
</g>
<!-- List reusable steps -->
<g id="node7" class="node">
<title>List reusable steps</title>
<polygon fill="none" stroke="black" points="357.25,-1179.81 240.75,-1179.81 240.75,-1143.81 357.25,-1143.81 357.25,-1179.81"/>
<text text-anchor="middle" x="299" y="-1156.76" font-family="Times,serif" font-size="14.00">List reusable steps</text>
</g>
<!-- Proceed to planning&#45;&gt;List reusable steps -->
<g id="edge8" class="edge">
<title>Proceed to planning&#45;&gt;List reusable steps</title>
<path fill="none" stroke="black" d="M299,-1274.01C299,-1244.23 299,-1213.08 299,-1191.35"/>
<polygon fill="black" stroke="black" points="302.5,-1191.53 299,-1181.53 295.5,-1191.53 302.5,-1191.53"/>
</g>
<!-- Need scripts? -->
<g id="node8" class="node">
<title>Need scripts?</title>
<polygon fill="none" stroke="black" points="299,-1084.31 212.63,-1066.31 299,-1048.31 385.37,-1066.31 299,-1084.31"/>
<text text-anchor="middle" x="299" y="-1061.26" font-family="Times,serif" font-size="14.00">Need scripts?</text>
</g>
<!-- List reusable steps&#45;&gt;Need scripts? -->
<g id="edge9" class="edge">
<title>List reusable steps&#45;&gt;Need scripts?</title>
<path fill="none" stroke="black" d="M299,-1143.66C299,-1130.3 299,-1111.46 299,-1095.84"/>
<polygon fill="black" stroke="black" points="302.5,-1096.18 299,-1086.18 295.5,-1096.18 302.5,-1096.18"/>
</g>
<!-- Need references? -->
<g id="node9" class="node">
<title>Need references?</title>
<polygon fill="none" stroke="black" points="254,-995.81 148.08,-977.81 254,-959.81 359.92,-977.81 254,-995.81"/>
<text text-anchor="middle" x="254" y="-972.76" font-family="Times,serif" font-size="14.00">Need references?</text>
</g>
<!-- Need scripts?&#45;&gt;Need references? -->
<g id="edge10" class="edge">
<title>Need scripts?&#45;&gt;Need references?</title>
<path fill="none" stroke="black" d="M290.95,-1049.85C284.45,-1037.33 275.14,-1019.44 267.49,-1004.74"/>
<polygon fill="black" stroke="black" points="270.7,-1003.32 262.98,-996.07 264.49,-1006.56 270.7,-1003.32"/>
<text text-anchor="middle" x="287.28" y="-1017.01" font-family="Times,serif" font-size="14.00">no</text>
</g>
<!-- Plan resource set -->
<g id="node11" class="node">
<title>Plan resource set</title>
<polygon fill="none" stroke="black" points="380.12,-818.81 271.88,-818.81 271.88,-782.81 380.12,-782.81 380.12,-818.81"/>
<text text-anchor="middle" x="326" y="-795.76" font-family="Times,serif" font-size="14.00">Plan resource set</text>
</g>
<!-- Need scripts?&#45;&gt;Plan resource set -->
<g id="edge11" class="edge">
<title>Need scripts?&#45;&gt;Plan resource set</title>
<path fill="none" stroke="black" d="M319.32,-1052.12C336.19,-1039.84 359,-1019.84 369,-995.81 392.57,-939.19 362.67,-867.65 342.19,-829.22"/>
<polygon fill="black" stroke="black" points="345.34,-827.69 337.45,-820.62 339.21,-831.07 345.34,-827.69"/>
<text text-anchor="middle" x="386.38" y="-928.51" font-family="Times,serif" font-size="14.00">yes</text>
</g>
<!-- Need assets? -->
<g id="node10" class="node">
<title>Need assets?</title>
<polygon fill="none" stroke="black" points="231,-907.31 148.24,-889.31 231,-871.31 313.76,-889.31 231,-907.31"/>
<text text-anchor="middle" x="231" y="-884.26" font-family="Times,serif" font-size="14.00">Need assets?</text>
</g>
<!-- Need references?&#45;&gt;Need assets? -->
<g id="edge12" class="edge">
<title>Need references?&#45;&gt;Need assets?</title>
<path fill="none" stroke="black" d="M249.57,-960.13C246.36,-948.09 241.97,-931.56 238.26,-917.6"/>
<polygon fill="black" stroke="black" points="241.68,-916.87 235.73,-908.11 234.92,-918.67 241.68,-916.87"/>
<text text-anchor="middle" x="251.31" y="-928.51" font-family="Times,serif" font-size="14.00">no</text>
</g>
<!-- Need references?&#45;&gt;Plan resource set -->
<g id="edge13" class="edge">
<title>Need references?&#45;&gt;Plan resource set</title>
<path fill="none" stroke="black" d="M274.52,-962.99C290.99,-950.58 312.95,-930.75 323,-907.31 333.48,-882.87 333.04,-852.24 330.7,-830.28"/>
<polygon fill="black" stroke="black" points="334.2,-830.05 329.45,-820.58 327.25,-830.94 334.2,-830.05"/>
<text text-anchor="middle" x="340.34" y="-884.26" font-family="Times,serif" font-size="14.00">yes</text>
</g>
<!-- Need assets?&#45;&gt;Plan resource set -->
<g id="edge14" class="edge">
<title>Need assets?&#45;&gt;Plan resource set</title>
<path fill="none" stroke="black" d="M246.26,-874.41C260.29,-861.64 281.41,-842.41 298.39,-826.95"/>
<polygon fill="black" stroke="black" points="300.68,-829.6 305.72,-820.28 295.97,-824.42 300.68,-829.6"/>
<text text-anchor="middle" x="296.01" y="-840.01" font-family="Times,serif" font-size="14.00">yes</text>
</g>
<!-- Ready to initialize -->
<g id="node12" class="node">
<title>Ready to initialize</title>
<ellipse fill="none" stroke="black" cx="305" cy="-653.1" rx="78.99" ry="78.99"/>
<ellipse fill="none" stroke="black" cx="305" cy="-653.1" rx="82.99" ry="82.99"/>
<text text-anchor="middle" x="305" y="-648.05" font-family="Times,serif" font-size="14.00">Ready to initialize</text>
</g>
<!-- Need assets?&#45;&gt;Ready to initialize -->
<g id="edge15" class="edge">
<title>Need assets?&#45;&gt;Ready to initialize</title>
<path fill="none" stroke="black" d="M232.75,-871.22C235.2,-850.11 240.4,-813.28 249.5,-782.81 253.82,-768.36 259.29,-753.37 265.12,-738.94"/>
<polygon fill="black" stroke="black" points="268.25,-740.53 268.83,-729.95 261.78,-737.85 268.25,-740.53"/>
<text text-anchor="middle" x="256.25" y="-795.76" font-family="Times,serif" font-size="14.00">no</text>
</g>
<!-- Plan resource set&#45;&gt;Ready to initialize -->
<g id="edge16" class="edge">
<title>Plan resource set&#45;&gt;Ready to initialize</title>
<path fill="none" stroke="black" d="M323.51,-782.52C322.14,-773.01 320.32,-760.37 318.35,-746.74"/>
<polygon fill="black" stroke="black" points="321.86,-746.53 316.97,-737.13 314.93,-747.53 321.86,-746.53"/>
</g>
<!-- Ready to initialize&#45;&gt;Is this a new skill? -->
<g id="edge17" class="edge">
<title>Ready to initialize&#45;&gt;Is this a new skill?</title>
<path fill="none" stroke="black" d="M369.57,-705.4C393.99,-730.7 416,-763.56 416,-799.81 416,-1364.44 416,-1364.44 416,-1364.44 416,-1404.51 415.85,-1417.21 397,-1452.57 387.21,-1470.94 371.14,-1487.85 357.2,-1500.39"/>
<polygon fill="black" stroke="black" points="355.28,-1497.42 350.01,-1506.61 359.86,-1502.71 355.28,-1497.42"/>
</g>
<!-- Skill scaffold created -->
<g id="node14" class="node">
<title>Skill scaffold created</title>
<ellipse fill="none" stroke="black" cx="621" cy="-1161.81" rx="89.74" ry="18"/>
<text text-anchor="middle" x="621" y="-1156.76" font-family="Times,serif" font-size="14.00">Skill scaffold created</text>
</g>
<!-- Create skill scaffold&#45;&gt;Skill scaffold created -->
<g id="edge19" class="edge">
<title>Create skill scaffold&#45;&gt;Skill scaffold created</title>
<path fill="none" stroke="black" d="M538.83,-1345.07C554.49,-1310.33 589.8,-1232.02 608.63,-1190.26"/>
<polygon fill="black" stroke="black" points="611.71,-1191.93 612.63,-1181.37 605.33,-1189.05 611.71,-1191.93"/>
</g>
<!-- Draft frontmatter -->
<g id="node16" class="node">
<title>Draft frontmatter</title>
<polygon fill="none" stroke="black" points="675.88,-1084.31 566.12,-1084.31 566.12,-1048.31 675.88,-1048.31 675.88,-1084.31"/>
<text text-anchor="middle" x="621" y="-1061.26" font-family="Times,serif" font-size="14.00">Draft frontmatter</text>
</g>
<!-- Skill scaffold created&#45;&gt;Draft frontmatter -->
<g id="edge22" class="edge">
<title>Skill scaffold created&#45;&gt;Draft frontmatter</title>
<path fill="none" stroke="black" d="M621,-1143.66C621,-1130.3 621,-1111.46 621,-1095.84"/>
<polygon fill="black" stroke="black" points="624.5,-1096.18 621,-1086.18 617.5,-1096.18 624.5,-1096.18"/>
</g>
<!-- Skip initialization&#45;&gt;Skill scaffold created -->
<g id="edge21" class="edge">
<title>Skip initialization&#45;&gt;Skill scaffold created</title>
<path fill="none" stroke="black" d="M663.91,-1345.07C655.8,-1310.64 637.62,-1233.41 627.73,-1191.38"/>
<polygon fill="black" stroke="black" points="631.16,-1190.68 625.46,-1181.75 624.34,-1192.29 631.16,-1190.68"/>
</g>
<!-- Description trigger&#45;focused? -->
<g id="node17" class="node">
<title>Description trigger&#45;focused?</title>
<polygon fill="none" stroke="black" points="621,-995.81 455.73,-977.81 621,-959.81 786.27,-977.81 621,-995.81"/>
<text text-anchor="middle" x="621" y="-972.76" font-family="Times,serif" font-size="14.00">Description trigger&#45;focused?</text>
</g>
<!-- Draft frontmatter&#45;&gt;Description trigger&#45;focused? -->
<g id="edge23" class="edge">
<title>Draft frontmatter&#45;&gt;Description trigger&#45;focused?</title>
<path fill="none" stroke="black" d="M621,-1048.22C621,-1036.57 621,-1020.86 621,-1007.33"/>
<polygon fill="black" stroke="black" points="624.5,-1007.67 621,-997.67 617.5,-1007.67 624.5,-1007.67"/>
</g>
<!-- Tighten description -->
<g id="node18" class="node">
<title>Tighten description</title>
<polygon fill="none" stroke="black" points="612.88,-907.31 491.12,-907.31 491.12,-871.31 612.88,-871.31 612.88,-907.31"/>
<text text-anchor="middle" x="552" y="-884.26" font-family="Times,serif" font-size="14.00">Tighten description</text>
</g>
<!-- Description trigger&#45;focused?&#45;&gt;Tighten description -->
<g id="edge24" class="edge">
<title>Description trigger&#45;focused?&#45;&gt;Tighten description</title>
<path fill="none" stroke="black" d="M604.54,-961.37C598.6,-955.48 592,-948.55 586.5,-941.81 580.21,-934.1 573.97,-925.25 568.56,-917.08"/>
<polygon fill="black" stroke="black" points="571.61,-915.35 563.24,-908.85 565.73,-919.15 571.61,-915.35"/>
<text text-anchor="middle" x="593.25" y="-928.51" font-family="Times,serif" font-size="14.00">no</text>
</g>
<!-- Write core instructions -->
<g id="node19" class="node">
<title>Write core instructions</title>
<polygon fill="none" stroke="black" points="771.25,-907.31 630.75,-907.31 630.75,-871.31 771.25,-871.31 771.25,-907.31"/>
<text text-anchor="middle" x="701" y="-884.26" font-family="Times,serif" font-size="14.00">Write core instructions</text>
</g>
<!-- Description trigger&#45;focused?&#45;&gt;Write core instructions -->
<g id="edge26" class="edge">
<title>Description trigger&#45;focused?&#45;&gt;Write core instructions</title>
<path fill="none" stroke="black" d="M635.67,-960.95C647.36,-948.31 663.95,-930.37 677.49,-915.73"/>
<polygon fill="black" stroke="black" points="679.8,-918.39 684.02,-908.67 674.66,-913.63 679.8,-918.39"/>
<text text-anchor="middle" x="677.17" y="-928.51" font-family="Times,serif" font-size="14.00">yes</text>
</g>
<!-- Tighten description&#45;&gt;Description trigger&#45;focused? -->
<g id="edge25" class="edge">
<title>Tighten description&#45;&gt;Description trigger&#45;focused?</title>
<path fill="none" stroke="black" d="M581.41,-907.79C588.16,-912.81 594.85,-918.73 600,-925.31 605.48,-932.32 609.74,-940.95 612.94,-949.13"/>
<polygon fill="black" stroke="black" points="609.57,-950.1 616.17,-958.38 616.18,-947.79 609.57,-950.1"/>
</g>
<!-- Add references/scripts/assets -->
<g id="node20" class="node">
<title>Add references/scripts/assets</title>
<polygon fill="none" stroke="black" points="783.38,-818.81 610.62,-818.81 610.62,-782.81 783.38,-782.81 783.38,-818.81"/>
<text text-anchor="middle" x="697" y="-795.76" font-family="Times,serif" font-size="14.00">Add references/scripts/assets</text>
</g>
<!-- Write core instructions&#45;&gt;Add references/scripts/assets -->
<g id="edge27" class="edge">
<title>Write core instructions&#45;&gt;Add references/scripts/assets</title>
<path fill="none" stroke="black" d="M700.21,-871.22C699.67,-859.57 698.94,-843.86 698.32,-830.33"/>
<polygon fill="black" stroke="black" points="701.83,-830.5 697.87,-820.67 694.84,-830.82 701.83,-830.5"/>
</g>
<!-- SKILL.md complete -->
<g id="node21" class="node">
<title>SKILL.md complete</title>
<ellipse fill="none" stroke="black" cx="693" cy="-653.1" rx="88.71" ry="88.71"/>
<ellipse fill="none" stroke="black" cx="693" cy="-653.1" rx="92.71" ry="92.71"/>
<text text-anchor="middle" x="693" y="-648.05" font-family="Times,serif" font-size="14.00">SKILL.md complete</text>
</g>
<!-- Add references/scripts/assets&#45;&gt;SKILL.md complete -->
<g id="edge28" class="edge">
<title>Add references/scripts/assets&#45;&gt;SKILL.md complete</title>
<path fill="none" stroke="black" d="M696.53,-782.52C696.34,-775.59 696.1,-767 695.84,-757.57"/>
<polygon fill="black" stroke="black" points="699.34,-757.59 695.57,-747.69 692.34,-757.78 699.34,-757.59"/>
</g>
<!-- Run trigger tests -->
<g id="node22" class="node">
<title>Run trigger tests</title>
<polygon fill="none" stroke="black" points="746,-500.88 640,-500.88 640,-464.88 746,-464.88 746,-500.88"/>
<text text-anchor="middle" x="693" y="-477.83" font-family="Times,serif" font-size="14.00">Run trigger tests</text>
</g>
<!-- SKILL.md complete&#45;&gt;Run trigger tests -->
<g id="edge29" class="edge">
<title>SKILL.md complete&#45;&gt;Run trigger tests</title>
<path fill="none" stroke="black" d="M693,-560.12C693,-542.85 693,-526.03 693,-512.6"/>
<polygon fill="black" stroke="black" points="696.5,-512.82 693,-502.82 689.5,-512.82 696.5,-512.82"/>
</g>
<!-- Trigger tests pass? -->
<g id="node23" class="node">
<title>Trigger tests pass?</title>
<polygon fill="none" stroke="black" points="599,-427.88 485.85,-409.88 599,-391.88 712.15,-409.88 599,-427.88"/>
<text text-anchor="middle" x="599" y="-404.83" font-family="Times,serif" font-size="14.00">Trigger tests pass?</text>
</g>
<!-- Run trigger tests&#45;&gt;Trigger tests pass? -->
<g id="edge30" class="edge">
<title>Run trigger tests&#45;&gt;Trigger tests pass?</title>
<path fill="none" stroke="black" d="M670.25,-464.7C657.27,-454.89 640.89,-442.52 627.11,-432.12"/>
<polygon fill="black" stroke="black" points="629.36,-429.43 619.27,-426.19 625.14,-435.01 629.36,-429.43"/>
</g>
<!-- Fix description -->
<g id="node24" class="node">
<title>Fix description</title>
<polygon fill="none" stroke="black" points="776.88,-339.38 679.12,-339.38 679.12,-303.38 776.88,-303.38 776.88,-339.38"/>
<text text-anchor="middle" x="728" y="-316.33" font-family="Times,serif" font-size="14.00">Fix description</text>
</g>
<!-- Trigger tests pass?&#45;&gt;Fix description -->
<g id="edge31" class="edge">
<title>Trigger tests pass?&#45;&gt;Fix description</title>
<path fill="none" stroke="black" d="M620.01,-394.79C639.63,-381.64 669.29,-361.75 692.56,-346.15"/>
<polygon fill="black" stroke="black" points="694.49,-349.07 700.84,-340.59 690.59,-343.26 694.49,-349.07"/>
<text text-anchor="middle" x="681.8" y="-360.58" font-family="Times,serif" font-size="14.00">no</text>
</g>
<!-- Run functional tests -->
<g id="node25" class="node">
<title>Run functional tests</title>
<polygon fill="none" stroke="black" points="661.38,-339.38 536.62,-339.38 536.62,-303.38 661.38,-303.38 661.38,-339.38"/>
<text text-anchor="middle" x="599" y="-316.33" font-family="Times,serif" font-size="14.00">Run functional tests</text>
</g>
<!-- Trigger tests pass?&#45;&gt;Run functional tests -->
<g id="edge33" class="edge">
<title>Trigger tests pass?&#45;&gt;Run functional tests</title>
<path fill="none" stroke="black" d="M599,-391.38C599,-379.89 599,-364.59 599,-351.31"/>
<polygon fill="black" stroke="black" points="602.5,-351.38 599,-341.38 595.5,-351.38 602.5,-351.38"/>
<text text-anchor="middle" x="608" y="-360.58" font-family="Times,serif" font-size="14.00">yes</text>
</g>
<!-- Fix description&#45;&gt;Run trigger tests -->
<g id="edge32" class="edge">
<title>Fix description&#45;&gt;Run trigger tests</title>
<path fill="none" stroke="black" d="M728.99,-339.55C729.73,-360.74 729.44,-397.65 721,-427.88 718.44,-437.04 714.22,-446.43 709.83,-454.76"/>
<polygon fill="black" stroke="black" points="706.86,-452.9 705.01,-463.33 712.96,-456.32 706.86,-452.9"/>
</g>
<!-- Functional tests pass? -->
<g id="node26" class="node">
<title>Functional tests pass?</title>
<polygon fill="none" stroke="black" points="609,-266.38 479.2,-248.38 609,-230.38 738.8,-248.38 609,-266.38"/>
<text text-anchor="middle" x="609" y="-243.33" font-family="Times,serif" font-size="14.00">Functional tests pass?</text>
</g>
<!-- Run functional tests&#45;&gt;Functional tests pass? -->
<g id="edge34" class="edge">
<title>Run functional tests&#45;&gt;Functional tests pass?</title>
<path fill="none" stroke="black" d="M601.42,-303.2C602.5,-295.52 603.8,-286.28 605.02,-277.63"/>
<polygon fill="black" stroke="black" points="608.46,-278.3 606.39,-267.91 601.53,-277.33 608.46,-278.3"/>
</g>
<!-- Refine instructions -->
<g id="node27" class="node">
<title>Refine instructions</title>
<polygon fill="none" stroke="black" points="777.38,-114.94 658.62,-114.94 658.62,-78.94 777.38,-78.94 777.38,-114.94"/>
<text text-anchor="middle" x="718" y="-91.89" font-family="Times,serif" font-size="14.00">Refine instructions</text>
</g>
<!-- Functional tests pass?&#45;&gt;Refine instructions -->
<g id="edge35" class="edge">
<title>Functional tests pass?&#45;&gt;Refine instructions</title>
<path fill="none" stroke="black" d="M620.46,-231.67C639.08,-206.14 676.12,-155.36 698.81,-124.25"/>
<polygon fill="black" stroke="black" points="701.4,-126.64 704.47,-116.49 695.75,-122.51 701.4,-126.64"/>
<text text-anchor="middle" x="651.01" y="-199.08" font-family="Times,serif" font-size="14.00">no</text>
</g>
<!-- Ready to package -->
<g id="node28" class="node">
<title>Ready to package</title>
<ellipse fill="none" stroke="black" cx="560" cy="-96.94" rx="76.94" ry="76.94"/>
<ellipse fill="none" stroke="black" cx="560" cy="-96.94" rx="80.94" ry="80.94"/>
<text text-anchor="middle" x="560" y="-91.89" font-family="Times,serif" font-size="14.00">Ready to package</text>
</g>
<!-- Functional tests pass?&#45;&gt;Ready to package -->
<g id="edge37" class="edge">
<title>Functional tests pass?&#45;&gt;Ready to package</title>
<path fill="none" stroke="black" d="M603.57,-230.82C599.72,-219.07 594.21,-202.29 588.41,-184.6"/>
<polygon fill="black" stroke="black" points="591.89,-183.96 585.45,-175.55 585.24,-186.14 591.89,-183.96"/>
<text text-anchor="middle" x="606.16" y="-199.08" font-family="Times,serif" font-size="14.00">yes</text>
</g>
<!-- Refine instructions&#45;&gt;Run functional tests -->
<g id="edge36" class="edge">
<title>Refine instructions&#45;&gt;Run functional tests</title>
<path fill="none" stroke="black" d="M728.68,-115.25C747.32,-147.92 780.83,-219.57 748,-266.38 738.56,-279.84 705.47,-292.5 672.87,-302.18"/>
<polygon fill="black" stroke="black" points="671.96,-298.8 663.32,-304.92 673.89,-305.52 671.96,-298.8"/>
</g>
<!-- Skill ready to distribute -->
<g id="node29" class="node">
<title>Skill ready to distribute</title>
<ellipse fill="none" stroke="black" cx="1009" cy="-1769.01" rx="98.44" ry="98.44"/>
<ellipse fill="none" stroke="black" cx="1009" cy="-1769.01" rx="102.44" ry="102.44"/>
<text text-anchor="middle" x="1009" y="-1763.96" font-family="Times,serif" font-size="14.00">Skill ready to distribute</text>
</g>
<!-- Collect feedback -->
<g id="node30" class="node">
<title>Collect feedback</title>
<polygon fill="none" stroke="black" points="1062.75,-1629.57 955.25,-1629.57 955.25,-1593.57 1062.75,-1593.57 1062.75,-1629.57"/>
<text text-anchor="middle" x="1009" y="-1606.52" font-family="Times,serif" font-size="14.00">Collect feedback</text>
</g>
<!-- Skill ready to distribute&#45;&gt;Collect feedback -->
<g id="edge38" class="edge">
<title>Skill ready to distribute&#45;&gt;Collect feedback</title>
<path fill="none" stroke="black" d="M1009,-1666.5C1009,-1657.39 1009,-1648.76 1009,-1641.18"/>
<polygon fill="black" stroke="black" points="1012.5,-1641.39 1009,-1631.39 1005.5,-1641.39 1012.5,-1641.39"/>
</g>
<!-- Under/over&#45;triggering? -->
<g id="node31" class="node">
<title>Under/over&#45;triggering?</title>
<polygon fill="none" stroke="black" points="946,-1541.07 809.68,-1523.07 946,-1505.07 1082.32,-1523.07 946,-1541.07"/>
<text text-anchor="middle" x="946" y="-1518.02" font-family="Times,serif" font-size="14.00">Under/over&#45;triggering?</text>
</g>
<!-- Collect feedback&#45;&gt;Under/over&#45;triggering? -->
<g id="edge39" class="edge">
<title>Collect feedback&#45;&gt;Under/over&#45;triggering?</title>
<path fill="none" stroke="black" d="M996.55,-1593.48C987.35,-1580.84 974.66,-1563.42 964.3,-1549.2"/>
<polygon fill="black" stroke="black" points="967.18,-1547.21 958.46,-1541.18 961.52,-1551.33 967.18,-1547.21"/>
</g>
<!-- Adjust description -->
<g id="node32" class="node">
<title>Adjust description</title>
<polygon fill="none" stroke="black" points="966.88,-1256.31 851.12,-1256.31 851.12,-1220.31 966.88,-1220.31 966.88,-1256.31"/>
<text text-anchor="middle" x="909" y="-1233.26" font-family="Times,serif" font-size="14.00">Adjust description</text>
</g>
<!-- Under/over&#45;triggering?&#45;&gt;Adjust description -->
<g id="edge40" class="edge">
<title>Under/over&#45;triggering?&#45;&gt;Adjust description</title>
<path fill="none" stroke="black" d="M933.38,-1506.35C923.48,-1492.95 910.5,-1472.71 905,-1452.57 887.47,-1388.36 896.53,-1309.17 903.48,-1267.7"/>
<polygon fill="black" stroke="black" points="906.89,-1268.52 905.19,-1258.07 900,-1267.3 906.89,-1268.52"/>
<text text-anchor="middle" x="929.35" y="-1473.77" font-family="Times,serif" font-size="14.00">yes</text>
</g>
<!-- Execution issues? -->
<g id="node33" class="node">
<title>Execution issues?</title>
<polygon fill="none" stroke="black" points="1023,-1381.44 914.19,-1363.44 1023,-1345.44 1131.81,-1363.44 1023,-1381.44"/>
<text text-anchor="middle" x="1023" y="-1358.39" font-family="Times,serif" font-size="14.00">Execution issues?</text>
</g>
<!-- Under/over&#45;triggering?&#45;&gt;Execution issues? -->
<g id="edge42" class="edge">
<title>Under/over&#45;triggering?&#45;&gt;Execution issues?</title>
<path fill="none" stroke="black" d="M953.95,-1505.8C967.28,-1478.52 994.23,-1423.34 1010.23,-1390.57"/>
<polygon fill="black" stroke="black" points="1013.3,-1392.27 1014.54,-1381.75 1007.01,-1389.2 1013.3,-1392.27"/>
<text text-anchor="middle" x="977.66" y="-1473.77" font-family="Times,serif" font-size="14.00">no</text>
</g>
<!-- Return to testing -->
<g id="node35" class="node">
<title>Return to testing</title>
<polygon fill="none" stroke="black" points="993.38,-1084.31 886.62,-1084.31 886.62,-1048.31 993.38,-1048.31 993.38,-1084.31"/>
<text text-anchor="middle" x="940" y="-1061.26" font-family="Times,serif" font-size="14.00">Return to testing</text>
</g>
<!-- Adjust description&#45;&gt;Return to testing -->
<g id="edge41" class="edge">
<title>Adjust description&#45;&gt;Return to testing</title>
<path fill="none" stroke="black" d="M912.14,-1220.07C917.48,-1190.8 928.37,-1131.1 934.84,-1095.62"/>
<polygon fill="black" stroke="black" points="938.23,-1096.55 936.58,-1086.08 931.34,-1095.29 938.23,-1096.55"/>
</g>
<!-- Execution issues?&#45;&gt;Collect feedback -->
<g id="edge45" class="edge">
<title>Execution issues?&#45;&gt;Collect feedback</title>
<path fill="none" stroke="black" d="M1036.92,-1379.37C1063.83,-1410.14 1118.07,-1482.64 1091,-1541.07 1082.34,-1559.76 1065.92,-1575.25 1050.02,-1586.82"/>
<polygon fill="black" stroke="black" points="1048.29,-1583.77 1042.04,-1592.32 1052.26,-1589.53 1048.29,-1583.77"/>
<text text-anchor="middle" x="1105.12" y="-1518.02" font-family="Times,serif" font-size="14.00">no</text>
</g>
<!-- Clarify steps or add scripts -->
<g id="node34" class="node">
<title>Clarify steps or add scripts</title>
<polygon fill="none" stroke="black" points="1099.12,-1179.81 936.88,-1179.81 936.88,-1143.81 1099.12,-1143.81 1099.12,-1179.81"/>
<text text-anchor="middle" x="1018" y="-1156.76" font-family="Times,serif" font-size="14.00">Clarify steps or add scripts</text>
</g>
<!-- Execution issues?&#45;&gt;Clarify steps or add scripts -->
<g id="edge43" class="edge">
<title>Execution issues?&#45;&gt;Clarify steps or add scripts</title>
<path fill="none" stroke="black" d="M1022.57,-1345.07C1021.7,-1310.71 1019.78,-1233.74 1018.72,-1191.65"/>
<polygon fill="black" stroke="black" points="1022.22,-1191.7 1018.48,-1181.79 1015.23,-1191.88 1022.22,-1191.7"/>
<text text-anchor="middle" x="1029.2" y="-1233.26" font-family="Times,serif" font-size="14.00">yes</text>
</g>
<!-- Clarify steps or add scripts&#45;&gt;Return to testing -->
<g id="edge44" class="edge">
<title>Clarify steps or add scripts&#45;&gt;Return to testing</title>
<path fill="none" stroke="black" d="M1003.69,-1143.66C991.89,-1129.52 974.97,-1109.23 961.53,-1093.12"/>
<polygon fill="black" stroke="black" points="964.54,-1091.27 955.45,-1085.83 959.17,-1095.75 964.54,-1091.27"/>
</g>
</g>
</svg>
