<?xml version="1.0" encoding="UTF-8" standalone="no"?>
<!DOCTYPE svg PUBLIC "-//W3C//DTD SVG 1.1//EN"
 "http://www.w3.org/Graphics/SVG/1.1/DTD/svg11.dtd">
<!-- Generated by graphviz version 14.1.4 (20260321.0153)
 -->
<!-- Title: SKILL_WORKFLOW Pages: 1 -->
<svg width="654pt" height="2713pt"
 viewBox="0.00 0.00 654.00 2713.00" xmlns="http://www.w3.org/2000/svg" xmlns:xlink="http://www.w3.org/1999/xlink">
<g id="graph0" class="graph" transform="scale(1 1) rotate(0) translate(4 2708.92)">
<title>SKILL_WORKFLOW</title>
<polygon fill="white" stroke="none" points="-4,4 -4,-2708.92 650,-2708.92 650,4 -4,4"/>
<g id="clust1" class="cluster">
<title>cluster_start</title>
<polygon fill="none" stroke="black" points="26,-2135.71 26,-2696.92 590,-2696.92 590,-2135.71 26,-2135.71"/>
<text xml:space="preserve" text-anchor="middle" x="308" y="-2679.62" font-family="Times,serif" font-size="14.00">TRIGGER: Need to create or improve a skill</text>
</g>
<g id="clust2" class="cluster">
<title>cluster_prepare</title>
<polygon fill="none" stroke="black" points="75,-1491.71 75,-2116.71 626,-2116.71 626,-1491.71 75,-1491.71"/>
<text xml:space="preserve" text-anchor="middle" x="350.5" y="-2099.41" font-family="Times,serif" font-size="14.00">PHASE 1: Preparation</text>
</g>
<g id="clust3" class="cluster">
<title>cluster_draft</title>
<polygon fill="none" stroke="black" points="14,-789.78 14,-1457.21 578,-1457.21 578,-789.78 14,-789.78"/>
<text xml:space="preserve" text-anchor="middle" x="296" y="-1439.91" font-family="Times,serif" font-size="14.00">PHASE 2: Draft</text>
</g>
<g id="clust4" class="cluster">
<title>cluster_review</title>
<polygon fill="none" stroke="black" points="8,-8 8,-755.28 638,-755.28 638,-8 8,-8"/>
<text xml:space="preserve" text-anchor="middle" x="323" y="-737.98" font-family="Times,serif" font-size="14.00">PHASE 3: Review and Optimize</text>
</g>
<!-- Request for skill work -->
<g id="node1" class="node">
<title>Request for skill work</title>
<ellipse fill="none" stroke="black" cx="345" cy="-2646.42" rx="93.83" ry="18"/>
<text xml:space="preserve" text-anchor="middle" x="345" y="-2641.37" font-family="Times,serif" font-size="14.00">Request for skill work</text>
</g>
<!-- Is the use case clear? -->
<g id="node2" class="node">
<title>Is the use case clear?</title>
<polygon fill="none" stroke="black" points="345,-2591.42 218.82,-2573.42 345,-2555.42 471.18,-2573.42 345,-2591.42"/>
<text xml:space="preserve" text-anchor="middle" x="345" y="-2568.37" font-family="Times,serif" font-size="14.00">Is the use case clear?</text>
</g>
<!-- Request for skill work&#45;&gt;Is the use case clear? -->
<g id="edge1" class="edge">
<title>Request for skill work&#45;&gt;Is the use case clear?</title>
<path fill="none" stroke="black" d="M345,-2628.23C345,-2620.65 345,-2611.52 345,-2602.96"/>
<polygon fill="black" stroke="black" points="348.5,-2602.96 345,-2592.96 341.5,-2602.96 348.5,-2602.96"/>
</g>
<!-- Ask for concrete examples -->
<g id="node3" class="node">
<title>Ask for concrete examples</title>
<polygon fill="none" stroke="black" points="213.12,-2502.92 50.88,-2502.92 50.88,-2466.92 213.12,-2466.92 213.12,-2502.92"/>
<text xml:space="preserve" text-anchor="middle" x="132" y="-2479.87" font-family="Times,serif" font-size="14.00">Ask for concrete examples</text>
</g>
<!-- Is the use case clear?&#45;&gt;Ask for concrete examples -->
<g id="edge2" class="edge">
<title>Is the use case clear?&#45;&gt;Ask for concrete examples</title>
<path fill="none" stroke="black" d="M313.11,-2559.47C279.34,-2545.76 225.45,-2523.87 185.23,-2507.53"/>
<polygon fill="black" stroke="black" points="186.78,-2504.39 176.19,-2503.87 184.14,-2510.87 186.78,-2504.39"/>
<text xml:space="preserve" text-anchor="middle" x="264.33" y="-2524.12" font-family="Times,serif" font-size="14.00">no</text>
</g>
<!-- Is this a new skill? -->
<g id="node5" class="node">
<title>Is this a new skill?</title>
<polygon fill="none" stroke="black" points="345,-2502.92 231.12,-2484.92 345,-2466.92 458.88,-2484.92 345,-2502.92"/>
<text xml:space="preserve" text-anchor="middle" x="345" y="-2479.87" font-family="Times,serif" font-size="14.00">Is this a new skill?</text>
</g>
<!-- Is the use case clear?&#45;&gt;Is this a new skill? -->
<g id="edge5" class="edge">
<title>Is the use case clear?&#45;&gt;Is this a new skill?</title>
<path fill="none" stroke="black" d="M345,-2554.92C345,-2543.43 345,-2528.12 345,-2514.85"/>
<polygon fill="black" stroke="black" points="348.5,-2514.91 345,-2504.91 341.5,-2514.91 348.5,-2514.91"/>
<text xml:space="preserve" text-anchor="middle" x="354" y="-2524.12" font-family="Times,serif" font-size="14.00">yes</text>
</g>
<!-- Collect example scenarios/prompts -->
<g id="node4" class="node">
<title>Collect example scenarios/prompts</title>
<polygon fill="none" stroke="black" points="242,-2414.42 34,-2414.42 34,-2378.42 242,-2378.42 242,-2414.42"/>
<text xml:space="preserve" text-anchor="middle" x="138" y="-2391.37" font-family="Times,serif" font-size="14.00">Collect example scenarios/prompts</text>
</g>
<!-- Ask for concrete examples&#45;&gt;Collect example scenarios/prompts -->
<g id="edge3" class="edge">
<title>Ask for concrete examples&#45;&gt;Collect example scenarios/prompts</title>
<path fill="none" stroke="black" d="M133.19,-2466.83C133.99,-2455.18 135.08,-2439.47 136.02,-2425.94"/>
<polygon fill="black" stroke="black" points="139.49,-2426.5 136.69,-2416.28 132.51,-2426.01 139.49,-2426.5"/>
</g>
<!-- Collect example scenarios/prompts&#45;&gt;Is the use case clear? -->
<g id="edge4" class="edge">
<title>Collect example scenarios/prompts&#45;&gt;Is the use case clear?</title>
<path fill="none" stroke="black" d="M242.33,-2413.35C245.25,-2413.72 248.14,-2414.08 251,-2414.42 295.75,-2419.77 416.45,-2406.06 453,-2432.42 478.98,-2451.16 484.15,-2475.25 468,-2502.92 452.73,-2529.08 423.58,-2546.17 397.48,-2556.86"/>
<polygon fill="black" stroke="black" points="396.41,-2553.52 388.33,-2560.38 398.92,-2560.06 396.41,-2553.52"/>
</g>
<!-- Initialize skill scaffold -->
<g id="node6" class="node">
<title>Initialize skill scaffold</title>
<polygon fill="none" stroke="black" points="398.12,-2414.42 259.88,-2414.42 259.88,-2378.42 398.12,-2378.42 398.12,-2414.42"/>
<text xml:space="preserve" text-anchor="middle" x="329" y="-2391.37" font-family="Times,serif" font-size="14.00">Initialize skill scaffold</text>
</g>
<!-- Is this a new skill?&#45;&gt;Initialize skill scaffold -->
<g id="edge6" class="edge">
<title>Is this a new skill?&#45;&gt;Initialize skill scaffold</title>
<path fill="none" stroke="black" d="M341.92,-2467.24C339.75,-2455.55 336.81,-2439.62 334.27,-2425.93"/>
<polygon fill="black" stroke="black" points="337.72,-2425.32 332.46,-2416.13 330.84,-2426.6 337.72,-2425.32"/>
<text xml:space="preserve" text-anchor="middle" x="347.43" y="-2435.62" font-family="Times,serif" font-size="14.00">yes</text>
</g>
<!-- Load existing skill baseline -->
<g id="node7" class="node">
<title>Load existing skill baseline</title>
<polygon fill="none" stroke="black" points="581.62,-2414.42 416.38,-2414.42 416.38,-2378.42 581.62,-2378.42 581.62,-2414.42"/>
<text xml:space="preserve" text-anchor="middle" x="499" y="-2391.37" font-family="Times,serif" font-size="14.00">Load existing skill baseline</text>
</g>
<!-- Is this a new skill?&#45;&gt;Load existing skill baseline -->
<g id="edge7" class="edge">
<title>Is this a new skill?&#45;&gt;Load existing skill baseline</title>
<path fill="none" stroke="black" d="M369.06,-2470.4C392.8,-2457.07 429.53,-2436.44 457.9,-2420.51"/>
<polygon fill="black" stroke="black" points="459.6,-2423.56 466.61,-2415.61 456.18,-2417.46 459.6,-2423.56"/>
<text xml:space="preserve" text-anchor="middle" x="442.54" y="-2435.62" font-family="Times,serif" font-size="14.00">no</text>
</g>
<!-- Proceed to preparation -->
<g id="node8" class="node">
<title>Proceed to preparation</title>
<ellipse fill="none" stroke="black" cx="350" cy="-2242.56" rx="94.86" ry="94.86"/>
<ellipse fill="none" stroke="black" cx="350" cy="-2242.56" rx="98.86" ry="98.86"/>
<text xml:space="preserve" text-anchor="middle" x="350" y="-2237.51" font-family="Times,serif" font-size="14.00">Proceed to preparation</text>
</g>
<!-- Initialize skill scaffold&#45;&gt;Proceed to preparation -->
<g id="edge8" class="edge">
<title>Initialize skill scaffold&#45;&gt;Proceed to preparation</title>
<path fill="none" stroke="black" d="M331.41,-2378C332.4,-2370.87 333.62,-2361.99 334.97,-2352.21"/>
<polygon fill="black" stroke="black" points="338.44,-2352.73 336.34,-2342.34 331.5,-2351.77 338.44,-2352.73"/>
</g>
<!-- Load existing skill baseline&#45;&gt;Proceed to preparation -->
<g id="edge9" class="edge">
<title>Load existing skill baseline&#45;&gt;Proceed to preparation</title>
<path fill="none" stroke="black" d="M481.91,-2378C468.08,-2363.91 447.56,-2342.99 426.8,-2321.83"/>
<polygon fill="black" stroke="black" points="429.41,-2319.49 419.9,-2314.81 424.41,-2324.4 429.41,-2319.49"/>
</g>
<!-- Define target workflow (steps, prerequisites, gates, outputs) -->
<g id="node9" class="node">
<title>Define target workflow (steps, prerequisites, gates, outputs)</title>
<polygon fill="none" stroke="black" points="521.12,-2084.21 178.88,-2084.21 178.88,-2048.21 521.12,-2048.21 521.12,-2084.21"/>
<text xml:space="preserve" text-anchor="middle" x="350" y="-2061.16" font-family="Times,serif" font-size="14.00">Define target workflow (steps, prerequisites, gates, outputs)</text>
</g>
<!-- Proceed to preparation&#45;&gt;Define target workflow (steps, prerequisites, gates, outputs) -->
<g id="edge10" class="edge">
<title>Proceed to preparation&#45;&gt;Define target workflow (steps, prerequisites, gates, outputs)</title>
<path fill="none" stroke="black" d="M350,-2143.43C350,-2126 350,-2109.16 350,-2095.77"/>
<polygon fill="black" stroke="black" points="353.5,-2096.03 350,-2086.03 346.5,-2096.03 353.5,-2096.03"/>
</g>
<!-- Are workflow steps imperative and executable? -->
<g id="node10" class="node">
<title>Are workflow steps imperative and executable?</title>
<polygon fill="none" stroke="black" points="350,-2011.21 83.4,-1993.21 350,-1975.21 616.6,-1993.21 350,-2011.21"/>
<text xml:space="preserve" text-anchor="middle" x="350" y="-1988.16" font-family="Times,serif" font-size="14.00">Are workflow steps imperative and executable?</text>
</g>
<!-- Define target workflow (steps, prerequisites, gates, outputs)&#45;&gt;Are workflow steps imperative and executable? -->
<g id="edge11" class="edge">
<title>Define target workflow (steps, prerequisites, gates, outputs)&#45;&gt;Are workflow steps imperative and executable?</title>
<path fill="none" stroke="black" d="M350,-2048.02C350,-2040.44 350,-2031.31 350,-2022.75"/>
<polygon fill="black" stroke="black" points="353.5,-2022.75 350,-2012.75 346.5,-2022.75 353.5,-2022.75"/>
</g>
<!-- Refine workflow steps -->
<g id="node11" class="node">
<title>Refine workflow steps</title>
<polygon fill="none" stroke="black" points="222.5,-1922.71 83.5,-1922.71 83.5,-1886.71 222.5,-1886.71 222.5,-1922.71"/>
<text xml:space="preserve" text-anchor="middle" x="153" y="-1899.66" font-family="Times,serif" font-size="14.00">Refine workflow steps</text>
</g>
<!-- Are workflow steps imperative and executable?&#45;&gt;Refine workflow steps -->
<g id="edge12" class="edge">
<title>Are workflow steps imperative and executable?&#45;&gt;Refine workflow steps</title>
<path fill="none" stroke="black" d="M315.69,-1977.14C284.48,-1963.44 238.06,-1943.06 202.78,-1927.57"/>
<polygon fill="black" stroke="black" points="204.63,-1924.56 194.07,-1923.74 201.82,-1930.97 204.63,-1924.56"/>
<text xml:space="preserve" text-anchor="middle" x="275.89" y="-1943.91" font-family="Times,serif" font-size="14.00">no</text>
</g>
<!-- Define trigger scenarios in notes (2&#45;3 should trigger, 2 should not) -->
<g id="node12" class="node">
<title>Define trigger scenarios in notes (2&#45;3 should trigger, 2 should not)</title>
<polygon fill="none" stroke="black" points="617.75,-1922.71 240.25,-1922.71 240.25,-1886.71 617.75,-1886.71 617.75,-1922.71"/>
<text xml:space="preserve" text-anchor="middle" x="429" y="-1899.66" font-family="Times,serif" font-size="14.00">Define trigger scenarios in notes (2&#45;3 should trigger, 2 should not)</text>
</g>
<!-- Are workflow steps imperative and executable?&#45;&gt;Define trigger scenarios in notes (2&#45;3 should trigger, 2 should not) -->
<g id="edge14" class="edge">
<title>Are workflow steps imperative and executable?&#45;&gt;Define trigger scenarios in notes (2&#45;3 should trigger, 2 should not)</title>
<path fill="none" stroke="black" d="M364.86,-1975.94C376.26,-1963.46 392.22,-1945.98 405.37,-1931.59"/>
<polygon fill="black" stroke="black" points="407.94,-1933.96 412.1,-1924.21 402.77,-1929.24 407.94,-1933.96"/>
<text xml:space="preserve" text-anchor="middle" x="405.58" y="-1943.91" font-family="Times,serif" font-size="14.00">yes</text>
</g>
<!-- Refine workflow steps&#45;&gt;Are workflow steps imperative and executable? -->
<g id="edge13" class="edge">
<title>Refine workflow steps&#45;&gt;Are workflow steps imperative and executable?</title>
<path fill="none" stroke="black" d="M222.9,-1921.12C249.05,-1927.48 275.27,-1934.74 287,-1940.71 301.01,-1947.83 314.74,-1958.49 325.79,-1968.27"/>
<polygon fill="black" stroke="black" points="323.18,-1970.63 332.92,-1974.81 327.92,-1965.47 323.18,-1970.63"/>
</g>
<!-- Is branching/loop logic non&#45;obvious? -->
<g id="node13" class="node">
<title>Is branching/loop logic non&#45;obvious?</title>
<polygon fill="none" stroke="black" points="406,-1849.71 194.41,-1831.71 406,-1813.71 617.59,-1831.71 406,-1849.71"/>
<text xml:space="preserve" text-anchor="middle" x="406" y="-1826.66" font-family="Times,serif" font-size="14.00">Is branching/loop logic non&#45;obvious?</text>
</g>
<!-- Define trigger scenarios in notes (2&#45;3 should trigger, 2 should not)&#45;&gt;Is branching/loop logic non&#45;obvious? -->
<g id="edge15" class="edge">
<title>Define trigger scenarios in notes (2&#45;3 should trigger, 2 should not)&#45;&gt;Is branching/loop logic non&#45;obvious?</title>
<path fill="none" stroke="black" d="M423.43,-1886.52C420.92,-1878.76 417.88,-1869.39 415.05,-1860.66"/>
<polygon fill="black" stroke="black" points="418.39,-1859.61 411.98,-1851.18 411.74,-1861.77 418.39,-1859.61"/>
</g>
<!-- Plan small DOT flowchart -->
<g id="node14" class="node">
<title>Plan small DOT flowchart</title>
<polygon fill="none" stroke="black" points="376,-1761.21 216,-1761.21 216,-1725.21 376,-1725.21 376,-1761.21"/>
<text xml:space="preserve" text-anchor="middle" x="296" y="-1738.16" font-family="Times,serif" font-size="14.00">Plan small DOT flowchart</text>
</g>
<!-- Is branching/loop logic non&#45;obvious?&#45;&gt;Plan small DOT flowchart -->
<g id="edge16" class="edge">
<title>Is branching/loop logic non&#45;obvious?&#45;&gt;Plan small DOT flowchart</title>
<path fill="none" stroke="black" d="M386.08,-1815.05C369.59,-1802.07 345.87,-1783.42 326.91,-1768.52"/>
<polygon fill="black" stroke="black" points="329.25,-1765.91 319.23,-1762.48 324.93,-1771.41 329.25,-1765.91"/>
<text xml:space="preserve" text-anchor="middle" x="369.85" y="-1782.41" font-family="Times,serif" font-size="14.00">yes</text>
</g>
<!-- Use markdown&#45;only workflow -->
<g id="node15" class="node">
<title>Use markdown&#45;only workflow</title>
<polygon fill="none" stroke="black" points="578,-1761.21 394,-1761.21 394,-1725.21 578,-1725.21 578,-1761.21"/>
<text xml:space="preserve" text-anchor="middle" x="486" y="-1738.16" font-family="Times,serif" font-size="14.00">Use markdown&#45;only workflow</text>
</g>
<!-- Is branching/loop logic non&#45;obvious?&#45;&gt;Use markdown&#45;only workflow -->
<g id="edge17" class="edge">
<title>Is branching/loop logic non&#45;obvious?&#45;&gt;Use markdown&#45;only workflow</title>
<path fill="none" stroke="black" d="M420.67,-1814.84C432.36,-1802.21 448.95,-1784.27 462.49,-1769.63"/>
<polygon fill="black" stroke="black" points="464.8,-1772.29 469.02,-1762.57 459.66,-1767.53 464.8,-1772.29"/>
<text xml:space="preserve" text-anchor="middle" x="459.92" y="-1782.41" font-family="Times,serif" font-size="14.00">no</text>
</g>
<!-- Preparation complete -->
<g id="node16" class="node">
<title>Preparation complete</title>
<ellipse fill="none" stroke="black" cx="368" cy="-1593.96" rx="90.25" ry="90.25"/>
<ellipse fill="none" stroke="black" cx="368" cy="-1593.96" rx="94.25" ry="94.25"/>
<text xml:space="preserve" text-anchor="middle" x="368" y="-1588.91" font-family="Times,serif" font-size="14.00">Preparation complete</text>
</g>
<!-- Plan small DOT flowchart&#45;&gt;Preparation complete -->
<g id="edge18" class="edge">
<title>Plan small DOT flowchart&#45;&gt;Preparation complete</title>
<path fill="none" stroke="black" d="M304.54,-1724.74C309.19,-1715.24 315.34,-1702.66 321.98,-1689.08"/>
<polygon fill="black" stroke="black" points="324.98,-1690.92 326.22,-1680.4 318.69,-1687.84 324.98,-1690.92"/>
</g>
<!-- Use markdown&#45;only workflow&#45;&gt;Preparation complete -->
<g id="edge19" class="edge">
<title>Use markdown&#45;only workflow&#45;&gt;Preparation complete</title>
<path fill="none" stroke="black" d="M472,-1724.74C462.19,-1712.5 448.29,-1695.15 433.84,-1677.12"/>
<polygon fill="black" stroke="black" points="436.65,-1675.03 427.66,-1669.41 431.18,-1679.4 436.65,-1675.03"/>
</g>
<!-- Draft frontmatter (name + description only) -->
<g id="node17" class="node">
<title>Draft frontmatter (name + description only)</title>
<polygon fill="none" stroke="black" points="496,-1424.71 240,-1424.71 240,-1388.71 496,-1388.71 496,-1424.71"/>
<text xml:space="preserve" text-anchor="middle" x="368" y="-1401.66" font-family="Times,serif" font-size="14.00">Draft frontmatter (name + description only)</text>
</g>
<!-- Preparation complete&#45;&gt;Draft frontmatter (name + description only) -->
<g id="edge20" class="edge">
<title>Preparation complete&#45;&gt;Draft frontmatter (name + description only)</title>
<path fill="none" stroke="black" stroke-dasharray="1,5" d="M368,-1499.25C368,-1476.29 368,-1453.41 368,-1436.27"/>
<polygon fill="black" stroke="black" points="371.5,-1436.4 368,-1426.4 364.5,-1436.4 371.5,-1436.4"/>
<text xml:space="preserve" text-anchor="middle" x="388.62" y="-1468.41" font-family="Times,serif" font-size="14.00">triggers</text>
</g>
<!-- Encode trigger scenarios in description and usage guidance -->
<g id="node18" class="node">
<title>Encode trigger scenarios in description and usage guidance</title>
<polygon fill="none" stroke="black" points="537.25,-1351.71 198.75,-1351.71 198.75,-1315.71 537.25,-1315.71 537.25,-1351.71"/>
<text xml:space="preserve" text-anchor="middle" x="368" y="-1328.66" font-family="Times,serif" font-size="14.00">Encode trigger scenarios in description and usage guidance</text>
</g>
<!-- Draft frontmatter (name + description only)&#45;&gt;Encode trigger scenarios in description and usage guidance -->
<g id="edge21" class="edge">
<title>Draft frontmatter (name + description only)&#45;&gt;Encode trigger scenarios in description and usage guidance</title>
<path fill="none" stroke="black" d="M368,-1388.52C368,-1380.94 368,-1371.81 368,-1363.25"/>
<polygon fill="black" stroke="black" points="371.5,-1363.25 368,-1353.25 364.5,-1363.25 371.5,-1363.25"/>
</g>
<!-- Draft imperative SKILL.md workflow -->
<g id="node19" class="node">
<title>Draft imperative SKILL.md workflow</title>
<polygon fill="none" stroke="black" points="481.38,-1278.71 254.62,-1278.71 254.62,-1242.71 481.38,-1242.71 481.38,-1278.71"/>
<text xml:space="preserve" text-anchor="middle" x="368" y="-1255.66" font-family="Times,serif" font-size="14.00">Draft imperative SKILL.md workflow</text>
</g>
<!-- Encode trigger scenarios in description and usage guidance&#45;&gt;Draft imperative SKILL.md workflow -->
<g id="edge22" class="edge">
<title>Encode trigger scenarios in description and usage guidance&#45;&gt;Draft imperative SKILL.md workflow</title>
<path fill="none" stroke="black" d="M368,-1315.52C368,-1307.94 368,-1298.81 368,-1290.25"/>
<polygon fill="black" stroke="black" points="371.5,-1290.25 368,-1280.25 364.5,-1290.25 371.5,-1290.25"/>
</g>
<!-- Need references/assets/scripts? -->
<g id="node20" class="node">
<title>Need references/assets/scripts?</title>
<polygon fill="none" stroke="black" points="368,-1205.71 190.43,-1187.71 368,-1169.71 545.57,-1187.71 368,-1205.71"/>
<text xml:space="preserve" text-anchor="middle" x="368" y="-1182.66" font-family="Times,serif" font-size="14.00">Need references/assets/scripts?</text>
</g>
<!-- Draft imperative SKILL.md workflow&#45;&gt;Need references/assets/scripts? -->
<g id="edge23" class="edge">
<title>Draft imperative SKILL.md workflow&#45;&gt;Need references/assets/scripts?</title>
<path fill="none" stroke="black" d="M368,-1242.52C368,-1234.94 368,-1225.81 368,-1217.25"/>
<polygon fill="black" stroke="black" points="371.5,-1217.25 368,-1207.25 364.5,-1217.25 371.5,-1217.25"/>
</g>
<!-- Create or update references/assets/scripts -->
<g id="node21" class="node">
<title>Create or update references/assets/scripts</title>
<polygon fill="none" stroke="black" points="415.75,-1117.21 176.25,-1117.21 176.25,-1081.21 415.75,-1081.21 415.75,-1117.21"/>
<text xml:space="preserve" text-anchor="middle" x="296" y="-1094.16" font-family="Times,serif" font-size="14.00">Create or update references/assets/scripts</text>
</g>
<!-- Need references/assets/scripts?&#45;&gt;Create or update references/assets/scripts -->
<g id="edge24" class="edge">
<title>Need references/assets/scripts?&#45;&gt;Create or update references/assets/scripts</title>
<path fill="none" stroke="black" d="M354.79,-1170.85C344.37,-1158.33 329.62,-1140.6 317.5,-1126.04"/>
<polygon fill="black" stroke="black" points="320.41,-1124.07 311.33,-1118.62 315.03,-1128.55 320.41,-1124.07"/>
<text xml:space="preserve" text-anchor="middle" x="347.45" y="-1138.41" font-family="Times,serif" font-size="14.00">yes</text>
</g>
<!-- Draft complete -->
<g id="node24" class="node">
<title>Draft complete</title>
<ellipse fill="none" stroke="black" cx="492" cy="-868.99" rx="67.22" ry="67.22"/>
<ellipse fill="none" stroke="black" cx="492" cy="-868.99" rx="71.22" ry="71.22"/>
<text xml:space="preserve" text-anchor="middle" x="492" y="-863.94" font-family="Times,serif" font-size="14.00">Draft complete</text>
</g>
<!-- Need references/assets/scripts?&#45;&gt;Draft complete -->
<g id="edge25" class="edge">
<title>Need references/assets/scripts?&#45;&gt;Draft complete</title>
<path fill="none" stroke="black" d="M398.29,-1172.5C443.18,-1149.54 525.65,-1099.58 559,-1028.71 573.59,-997.71 561.71,-962.67 544.12,-933.42"/>
<polygon fill="black" stroke="black" points="547.1,-931.58 538.78,-925.01 541.19,-935.33 547.1,-931.58"/>
<text xml:space="preserve" text-anchor="middle" x="554.69" y="-1049.91" font-family="Times,serif" font-size="14.00">no</text>
</g>
<!-- Need external research to expand references? -->
<g id="node22" class="node">
<title>Need external research to expand references?</title>
<polygon fill="none" stroke="black" points="296,-1028.71 42.43,-1010.71 296,-992.71 549.57,-1010.71 296,-1028.71"/>
<text xml:space="preserve" text-anchor="middle" x="296" y="-1005.66" font-family="Times,serif" font-size="14.00">Need external research to expand references?</text>
</g>
<!-- Create or update references/assets/scripts&#45;&gt;Need external research to expand references? -->
<g id="edge26" class="edge">
<title>Create or update references/assets/scripts&#45;&gt;Need external research to expand references?</title>
<path fill="none" stroke="black" d="M296,-1081.12C296,-1069.47 296,-1053.76 296,-1040.23"/>
<polygon fill="black" stroke="black" points="299.5,-1040.58 296,-1030.58 292.5,-1040.58 299.5,-1040.58"/>
</g>
<!-- Use mcp&#45;research skill to gather source&#45;backed references -->
<g id="node23" class="node">
<title>Use mcp&#45;research skill to gather source&#45;backed references</title>
<polygon fill="none" stroke="black" points="375,-886.99 41,-886.99 41,-850.99 375,-850.99 375,-886.99"/>
<text xml:space="preserve" text-anchor="middle" x="208" y="-863.94" font-family="Times,serif" font-size="14.00">Use mcp&#45;research skill to gather source&#45;backed references</text>
</g>
<!-- Need external research to expand references?&#45;&gt;Use mcp&#45;research skill to gather source&#45;backed references -->
<g id="edge27" class="edge">
<title>Need external research to expand references?&#45;&gt;Use mcp&#45;research skill to gather source&#45;backed references</title>
<path fill="none" stroke="black" d="M285.56,-993.14C270.64,-969.44 243.04,-925.62 225.11,-897.15"/>
<polygon fill="black" stroke="black" points="228.08,-895.3 219.79,-888.71 222.15,-899.03 228.08,-895.3"/>
<text xml:space="preserve" text-anchor="middle" x="281.4" y="-961.41" font-family="Times,serif" font-size="14.00">yes</text>
</g>
<!-- Need external research to expand references?&#45;&gt;Draft complete -->
<g id="edge28" class="edge">
<title>Need external research to expand references?&#45;&gt;Draft complete</title>
<path fill="none" stroke="black" d="M318.1,-993.96C343.85,-975.6 387.62,-944.4 424.8,-917.9"/>
<polygon fill="black" stroke="black" points="426.75,-920.81 432.86,-912.15 422.68,-915.11 426.75,-920.81"/>
<text xml:space="preserve" text-anchor="middle" x="371.74" y="-961.41" font-family="Times,serif" font-size="14.00">no</text>
</g>
<!-- Use mcp&#45;research skill to gather source&#45;backed references&#45;&gt;Create or update references/assets/scripts -->
<g id="edge29" class="edge">
<title>Use mcp&#45;research skill to gather source&#45;backed references&#45;&gt;Create or update references/assets/scripts</title>
<path fill="none" stroke="black" d="M160.9,-887.4C94.82,-914.45 -12.48,-969.65 33,-1028.71 50.09,-1050.9 107.8,-1067.45 164.82,-1078.82"/>
<polygon fill="black" stroke="black" points="163.85,-1082.2 174.33,-1080.66 165.18,-1075.32 163.85,-1082.2"/>
</g>
<!-- Run scenario checks against realistic prompts -->
<g id="node25" class="node">
<title>Run scenario checks against realistic prompts</title>
<polygon fill="none" stroke="black" points="624.5,-722.78 359.5,-722.78 359.5,-686.78 624.5,-686.78 624.5,-722.78"/>
<text xml:space="preserve" text-anchor="middle" x="492" y="-699.73" font-family="Times,serif" font-size="14.00">Run scenario checks against realistic prompts</text>
</g>
<!-- Draft complete&#45;&gt;Run scenario checks against realistic prompts -->
<g id="edge30" class="edge">
<title>Draft complete&#45;&gt;Run scenario checks against realistic prompts</title>
<path fill="none" stroke="black" stroke-dasharray="1,5" d="M492,-797.32C492,-775.22 492,-752.08 492,-734.59"/>
<polygon fill="black" stroke="black" points="495.5,-734.73 492,-724.73 488.5,-734.73 495.5,-734.73"/>
<text xml:space="preserve" text-anchor="middle" x="512.62" y="-766.48" font-family="Times,serif" font-size="14.00">triggers</text>
</g>
<!-- Scenario checks pass? -->
<g id="node26" class="node">
<title>Scenario checks pass?</title>
<polygon fill="none" stroke="black" points="478,-649.78 346.03,-631.78 478,-613.78 609.97,-631.78 478,-649.78"/>
<text xml:space="preserve" text-anchor="middle" x="478" y="-626.73" font-family="Times,serif" font-size="14.00">Scenario checks pass?</text>
</g>
<!-- Run scenario checks against realistic prompts&#45;&gt;Scenario checks pass? -->
<g id="edge31" class="edge">
<title>Run scenario checks against realistic prompts&#45;&gt;Scenario checks pass?</title>
<path fill="none" stroke="black" d="M488.61,-686.59C487.1,-678.92 485.27,-669.67 483.57,-661.02"/>
<polygon fill="black" stroke="black" points="487.02,-660.42 481.65,-651.29 480.15,-661.78 487.02,-660.42"/>
</g>
<!-- Run functional checks against realistic prompts -->
<g id="node27" class="node">
<title>Run functional checks against realistic prompts</title>
<polygon fill="none" stroke="black" points="588.38,-561.28 313.62,-561.28 313.62,-525.28 588.38,-525.28 588.38,-561.28"/>
<text xml:space="preserve" text-anchor="middle" x="451" y="-538.23" font-family="Times,serif" font-size="14.00">Run functional checks against realistic prompts</text>
</g>
<!-- Scenario checks pass?&#45;&gt;Run functional checks against realistic prompts -->
<g id="edge32" class="edge">
<title>Scenario checks pass?&#45;&gt;Run functional checks against realistic prompts</title>
<path fill="none" stroke="black" d="M472.79,-614.1C469.11,-602.29 464.07,-586.15 459.77,-572.37"/>
<polygon fill="black" stroke="black" points="463.15,-571.44 456.83,-562.94 456.46,-573.53 463.15,-571.44"/>
<text xml:space="preserve" text-anchor="middle" x="475.92" y="-582.48" font-family="Times,serif" font-size="14.00">yes</text>
</g>
<!-- Optimize draft (triggering, redundancy, disclosure, flowchart need) -->
<g id="node31" class="node">
<title>Optimize draft (triggering, redundancy, disclosure, flowchart need)</title>
<polygon fill="none" stroke="black" points="630.38,-52 247.62,-52 247.62,-16 630.38,-16 630.38,-52"/>
<text xml:space="preserve" text-anchor="middle" x="439" y="-28.95" font-family="Times,serif" font-size="14.00">Optimize draft (triggering, redundancy, disclosure, flowchart need)</text>
</g>
<!-- Scenario checks pass?&#45;&gt;Optimize draft (triggering, redundancy, disclosure, flowchart need) -->
<g id="edge33" class="edge">
<title>Scenario checks pass?&#45;&gt;Optimize draft (triggering, redundancy, disclosure, flowchart need)</title>
<path fill="none" stroke="black" d="M526.04,-619.83C563.42,-608.13 609,-585.43 609,-544.28 609,-544.28 609,-544.28 609,-199.14 609,-149.54 616.56,-131.5 591,-89 582.87,-75.48 570.96,-65.3 557.32,-57.64"/>
<polygon fill="black" stroke="black" points="558.98,-54.55 548.47,-53.17 555.83,-60.8 558.98,-54.55"/>
<text xml:space="preserve" text-anchor="middle" x="615.75" y="-420.98" font-family="Times,serif" font-size="14.00">no</text>
</g>
<!-- Functional checks pass? -->
<g id="node28" class="node">
<title>Functional checks pass?</title>
<polygon fill="none" stroke="black" points="448,-488.28 305.89,-470.28 448,-452.28 590.11,-470.28 448,-488.28"/>
<text xml:space="preserve" text-anchor="middle" x="448" y="-465.23" font-family="Times,serif" font-size="14.00">Functional checks pass?</text>
</g>
<!-- Run functional checks against realistic prompts&#45;&gt;Functional checks pass? -->
<g id="edge34" class="edge">
<title>Run functional checks against realistic prompts&#45;&gt;Functional checks pass?</title>
<path fill="none" stroke="black" d="M450.27,-525.09C449.95,-517.42 449.56,-508.17 449.19,-499.52"/>
<polygon fill="black" stroke="black" points="452.7,-499.66 448.78,-489.82 445.71,-499.96 452.7,-499.66"/>
</g>
<!-- Are resources appropriate and sufficient? -->
<g id="node29" class="node">
<title>Are resources appropriate and sufficient?</title>
<polygon fill="none" stroke="black" points="338,-399.78 106.14,-381.78 338,-363.78 569.86,-381.78 338,-399.78"/>
<text xml:space="preserve" text-anchor="middle" x="338" y="-376.73" font-family="Times,serif" font-size="14.00">Are resources appropriate and sufficient?</text>
</g>
<!-- Functional checks pass?&#45;&gt;Are resources appropriate and sufficient? -->
<g id="edge36" class="edge">
<title>Functional checks pass?&#45;&gt;Are resources appropriate and sufficient?</title>
<path fill="none" stroke="black" d="M428.84,-454.21C411.73,-440.75 386.42,-420.85 366.86,-405.47"/>
<polygon fill="black" stroke="black" points="369.27,-402.91 359.25,-399.48 364.94,-408.42 369.27,-402.91"/>
<text xml:space="preserve" text-anchor="middle" x="411.85" y="-420.98" font-family="Times,serif" font-size="14.00">yes</text>
</g>
<!-- Functional checks pass?&#45;&gt;Optimize draft (triggering, redundancy, disclosure, flowchart need) -->
<g id="edge35" class="edge">
<title>Functional checks pass?&#45;&gt;Optimize draft (triggering, redundancy, disclosure, flowchart need)</title>
<path fill="none" stroke="black" d="M494.82,-457.78C524.58,-447.78 560.82,-430 579,-399.78 596.8,-370.19 598.54,-117.47 579,-89 569.45,-75.08 555.76,-64.75 540.65,-57.08"/>
<polygon fill="black" stroke="black" points="542.45,-54.06 531.91,-53.04 539.52,-60.41 542.45,-54.06"/>
<text xml:space="preserve" text-anchor="middle" x="596.92" y="-332.48" font-family="Times,serif" font-size="14.00">no</text>
</g>
<!-- Offload SKILL.md detail into references/assets/scripts -->
<g id="node30" class="node">
<title>Offload SKILL.md detail into references/assets/scripts</title>
<polygon fill="none" stroke="black" points="569.88,-218.14 256.12,-218.14 256.12,-182.14 569.88,-182.14 569.88,-218.14"/>
<text xml:space="preserve" text-anchor="middle" x="413" y="-195.09" font-family="Times,serif" font-size="14.00">Offload SKILL.md detail into references/assets/scripts</text>
</g>
<!-- Are resources appropriate and sufficient?&#45;&gt;Offload SKILL.md detail into references/assets/scripts -->
<g id="edge38" class="edge">
<title>Are resources appropriate and sufficient?&#45;&gt;Offload SKILL.md detail into references/assets/scripts</title>
<path fill="none" stroke="black" d="M345.06,-363.88C358.03,-332.79 385.79,-266.3 401.52,-228.64"/>
<polygon fill="black" stroke="black" points="404.59,-230.36 405.22,-219.78 398.13,-227.66 404.59,-230.36"/>
<text xml:space="preserve" text-anchor="middle" x="364.86" y="-332.48" font-family="Times,serif" font-size="14.00">no</text>
</g>
<!-- Skill optimized and ready -->
<g id="node32" class="node">
<title>Skill optimized and ready</title>
<ellipse fill="none" stroke="black" cx="127" cy="-200.14" rx="107.14" ry="107.14"/>
<ellipse fill="none" stroke="black" cx="127" cy="-200.14" rx="111.14" ry="111.14"/>
<text xml:space="preserve" text-anchor="middle" x="127" y="-195.09" font-family="Times,serif" font-size="14.00">Skill optimized and ready</text>
</g>
<!-- Are resources appropriate and sufficient?&#45;&gt;Skill optimized and ready -->
<g id="edge37" class="edge">
<title>Are resources appropriate and sufficient?&#45;&gt;Skill optimized and ready</title>
<path fill="none" stroke="black" d="M316.24,-365.02C297.53,-351.27 270.01,-330.56 247,-311.28 236.92,-302.83 226.55,-293.83 216.32,-284.74"/>
<polygon fill="black" stroke="black" points="218.69,-282.16 208.9,-278.1 214.02,-287.38 218.69,-282.16"/>
<text xml:space="preserve" text-anchor="middle" x="297.74" y="-332.48" font-family="Times,serif" font-size="14.00">yes</text>
</g>
<!-- Offload SKILL.md detail into references/assets/scripts&#45;&gt;Optimize draft (triggering, redundancy, disclosure, flowchart need) -->
<g id="edge39" class="edge">
<title>Offload SKILL.md detail into references/assets/scripts&#45;&gt;Optimize draft (triggering, redundancy, disclosure, flowchart need)</title>
<path fill="none" stroke="black" d="M415.73,-181.88C420.21,-153.61 429.15,-97.16 434.55,-63.07"/>
<polygon fill="black" stroke="black" points="437.96,-63.94 436.07,-53.52 431.05,-62.85 437.96,-63.94"/>
</g>
<!-- Optimize draft (triggering, redundancy, disclosure, flowchart need)&#45;&gt;Run scenario checks against realistic prompts -->
<g id="edge40" class="edge">
<title>Optimize draft (triggering, redundancy, disclosure, flowchart need)&#45;&gt;Run scenario checks against realistic prompts</title>
<path fill="none" stroke="black" d="M530.89,-52.47C567.66,-61.57 603.75,-73.96 614,-89 641.82,-129.82 629,-149.74 629,-199.14 629,-632.78 629,-632.78 629,-632.78 629,-655.57 613.87,-671.05 593.66,-681.57"/>
<polygon fill="black" stroke="black" points="592.35,-678.32 584.75,-685.71 595.3,-684.67 592.35,-678.32"/>
</g>
</g>
</svg>
